<?xml version="1.0" encoding="utf-8"?>
<!-- Generator: Adobe Illustrator 22.1.0, SVG Export Plug-In . SVG Version: 6.00 Build 0)  -->
<svg version="1.1" id="Layer_1" xmlns="http://www.w3.org/2000/svg" xmlns:xlink="http://www.w3.org/1999/xlink" x="0px" y="0px"
	 viewBox="0 0 113.1 85" style="enable-background:new 0 0 113.1 85;" xml:space="preserve">
<style type="text/css">
	.st0{fill:#323232;}
</style>
<g>
	<g>
		<g>
			<path class="st0" d="M11,62V11h30.2v9.2H22.1v13.5h16.4v9.2H22.1V62H11z"/>
			<path class="st0" d="M49.4,11h11.1v51H49.4V11z"/>
			<path class="st0" d="M79.7,20.2H68.4V11H102v9.2H90.8V62H79.7V20.2z"/>
		</g>
		<rect class="st0" width="11" height="11"/>
		<rect y="62" class="st0" width="11" height="11"/>
		<rect x="102" class="st0" width="11" height="11"/>
		<rect x="102" y="62" class="st0" width="11" height="11"/>
	</g>
	<g>
		<path class="st0" d="M0,77h2.1v0.5H0.7v2.9H2v0.5H0.7v4H0V77z"/>
		<path class="st0" d="M3.2,77h0.7v7.4h1.4v0.5H3.2V77z"/>
		<path class="st0" d="M8.2,77h0.7v5.9c0,0.7-0.1,1.3-0.3,1.6C8.4,84.8,8,85,7.5,85c-0.5,0-0.9-0.2-1.1-0.5
			c-0.2-0.3-0.3-0.9-0.3-1.6V77h0.7v5.8c0,0.5,0,0.9,0.1,1.1c0.1,0.3,0.3,0.5,0.6,0.5c0.3,0,0.5-0.1,0.6-0.2
			c0.1-0.2,0.2-0.6,0.2-1.4V77z"/>
		<path class="st0" d="M11.9,77h0.7v6c0,0.7-0.1,1.2-0.3,1.5c-0.2,0.3-0.5,0.5-1,0.5c-0.5,0-0.8-0.1-1-0.4c-0.2-0.3-0.3-0.8-0.3-1.4
			v-0.7h0.7v0.9c0,0.4,0,0.7,0.1,0.8c0.1,0.1,0.2,0.2,0.2,0.2c0.1,0,0.1,0,0.2,0c0.3,0,0.5-0.2,0.5-0.6c0-0.2,0-0.3,0-0.5V77z"/>
		<path class="st0" d="M13.9,79.2c0-1,0.1-1.6,0.4-1.9c0.2-0.3,0.6-0.4,1.1-0.4c0.5,0,0.8,0.2,1,0.5c0.1,0.2,0.2,0.5,0.2,0.8
			c0,0.3,0,0.6,0,1.1v3.4c0,0.7,0,1.2-0.1,1.4c-0.1,0.3-0.2,0.5-0.3,0.6c-0.2,0.2-0.5,0.4-1,0.4c-0.7,0-1.1-0.3-1.2-0.8
			c-0.1-0.4-0.2-0.9-0.2-1.6V79.2z M16,79.1c0-0.6,0-1.1-0.1-1.3c-0.1-0.3-0.3-0.4-0.6-0.4c-0.3,0-0.5,0.1-0.6,0.4
			c-0.1,0.3-0.2,0.7-0.2,1.3v3.4c0,0.7,0,1.2,0.1,1.4c0.1,0.2,0.2,0.3,0.2,0.4c0.1,0.1,0.2,0.1,0.4,0.1c0.1,0,0.3,0,0.4-0.1
			c0.1-0.1,0.2-0.2,0.2-0.4c0.1-0.2,0.1-0.7,0.1-1.4V79.1z"/>
		<path class="st0" d="M19.8,77h0.7v7.9h-0.7V77z"/>
		<path class="st0" d="M24.5,77H25v7.9h-0.5l-1.8-5.9l0,2.1v3.8h-0.6V77h0.5l1.9,6.1l-0.1-2.7V77z"/>
		<path class="st0" d="M26,77h2.2v0.5h-0.7v7.4h-0.7v-7.4H26V77z"/>
		<path class="st0" d="M29.3,77h2.1v0.5h-1.4v3.1h1.3v0.5h-1.3v3.2h1.4v0.5h-2.1V77z"/>
		<path class="st0" d="M32.6,77h1.3c0.5,0,0.9,0.1,1.1,0.3c0.1,0.2,0.2,0.4,0.3,0.6c0,0.2,0.1,0.6,0.1,1.1c0,0.5-0.1,0.9-0.2,1.1
			c-0.1,0.3-0.3,0.5-0.6,0.6c0.1,0,0.2,0,0.3,0.1c0.1,0,0.1,0.1,0.2,0.2c0.2,0.3,0.3,1.2,0.3,2.5c0,0.6,0,0.9,0,1
			c0,0.1,0,0.2,0.1,0.3h-0.7c0-0.1-0.1-0.3-0.1-0.5c0-0.2,0-0.6,0-1.2v-0.9c0-0.5,0-0.9-0.1-1c-0.1-0.1-0.3-0.2-0.6-0.2l-0.7,0v3.9
			h-0.7V77z M34.6,78.9c0-0.4,0-0.7-0.1-0.9c0-0.2-0.1-0.3-0.2-0.4c-0.1-0.1-0.2-0.1-0.4-0.1h-0.7v3h0.7c0.2,0,0.4,0,0.5-0.1
			c0.1-0.1,0.1-0.2,0.2-0.4C34.6,79.9,34.6,79.5,34.6,78.9L34.6,78.9z"/>
		<path class="st0" d="M36.6,79.3c0-1,0.1-1.6,0.4-1.9c0.2-0.3,0.6-0.5,1-0.5c0.4,0,0.8,0.1,1,0.3c0.1,0.2,0.2,0.3,0.3,0.5
			c0.1,0.4,0.1,0.9,0.1,1.6V80h-0.7v-0.8c0-0.7,0-1.1-0.1-1.3c-0.1-0.2-0.2-0.4-0.3-0.4c-0.1,0-0.2,0-0.2,0c-0.3,0-0.5,0.1-0.6,0.4
			c-0.1,0.3-0.2,0.7-0.2,1.4v3.2c0,0.8,0,1.3,0.1,1.6c0.1,0.3,0.3,0.4,0.6,0.4s0.5-0.1,0.6-0.4c0.1-0.3,0.1-0.8,0.1-1.6v-0.6h0.7
			v0.6c0,0.7,0,1.2-0.1,1.5c-0.1,0.3-0.2,0.5-0.3,0.7c-0.2,0.3-0.5,0.4-1,0.4s-0.8-0.1-1-0.4c-0.3-0.3-0.4-1.1-0.4-2.1V79.3z"/>
		<path class="st0" d="M40.6,79.2c0-1,0.1-1.6,0.4-1.9c0.2-0.3,0.6-0.4,1.1-0.4c0.5,0,0.8,0.2,1,0.5c0.1,0.2,0.2,0.5,0.2,0.8
			c0,0.3,0,0.6,0,1.1v3.4c0,0.7,0,1.2-0.1,1.4c-0.1,0.3-0.2,0.5-0.3,0.6c-0.2,0.2-0.5,0.4-1,0.4c-0.7,0-1.1-0.3-1.2-0.8
			c-0.1-0.4-0.2-0.9-0.2-1.6V79.2z M42.7,79.1c0-0.6,0-1.1-0.1-1.3c-0.1-0.3-0.3-0.4-0.6-0.4c-0.3,0-0.5,0.1-0.6,0.4
			c-0.1,0.3-0.2,0.7-0.2,1.3v3.4c0,0.7,0,1.2,0.1,1.4c0.1,0.2,0.2,0.3,0.2,0.4c0.1,0.1,0.2,0.1,0.4,0.1c0.1,0,0.3,0,0.4-0.1
			c0.1-0.1,0.2-0.2,0.2-0.4c0.1-0.2,0.1-0.7,0.1-1.4V79.1z"/>
		<path class="st0" d="M44.7,79.2c0-1,0.1-1.6,0.4-1.9c0.2-0.3,0.6-0.4,1.1-0.4c0.5,0,0.8,0.2,1,0.5c0.1,0.2,0.2,0.5,0.2,0.8
			c0,0.3,0,0.6,0,1.1v3.4c0,0.7,0,1.2-0.1,1.4c-0.1,0.3-0.2,0.5-0.3,0.6c-0.2,0.2-0.5,0.4-1,0.4c-0.7,0-1.1-0.3-1.2-0.8
			c-0.1-0.4-0.2-0.9-0.2-1.6V79.2z M46.8,79.1c0-0.6,0-1.1-0.1-1.3c-0.1-0.3-0.3-0.4-0.6-0.4c-0.3,0-0.5,0.1-0.6,0.4
			c-0.1,0.3-0.2,0.7-0.2,1.3v3.4c0,0.7,0,1.2,0.1,1.4c0.1,0.2,0.2,0.3,0.2,0.4c0.1,0.1,0.2,0.1,0.4,0.1c0.1,0,0.3,0,0.4-0.1
			c0.1-0.1,0.2-0.2,0.2-0.4c0.1-0.2,0.1-0.7,0.1-1.4V79.1z"/>
		<path class="st0" d="M48.9,77h1.4c0.3,0,0.6,0.1,0.8,0.2c0.2,0.1,0.3,0.3,0.4,0.4c0.1,0.3,0.2,0.5,0.2,0.8c0,0.3,0,0.6,0,0.9v0.1
			c0,0.7,0,1.2-0.1,1.4c-0.1,0.3-0.2,0.5-0.3,0.6c-0.2,0.3-0.5,0.4-1,0.4h-0.7v3.1h-0.7V77z M50.9,79.4v-0.2c0-0.6,0-1-0.1-1.2
			c-0.1-0.2-0.3-0.4-0.5-0.4h-0.7v3.7h0.7c0.3,0,0.5-0.1,0.6-0.4C50.9,80.6,50.9,80.1,50.9,79.4z"/>
		<path class="st0" d="M52.8,77h2.1v0.5h-1.4v3.1h1.3v0.5h-1.3v3.2h1.4v0.5h-2.1V77z"/>
		<path class="st0" d="M56,77h1.3c0.5,0,0.9,0.1,1.1,0.3c0.1,0.2,0.2,0.4,0.3,0.6c0,0.2,0.1,0.6,0.1,1.1c0,0.5-0.1,0.9-0.2,1.1
			c-0.1,0.3-0.3,0.5-0.6,0.6c0.1,0,0.2,0,0.3,0.1c0.1,0,0.1,0.1,0.2,0.2c0.2,0.3,0.3,1.2,0.3,2.5c0,0.6,0,0.9,0,1
			c0,0.1,0,0.2,0.1,0.3h-0.7c0-0.1-0.1-0.3-0.1-0.5c0-0.2,0-0.6,0-1.2v-0.9c0-0.5,0-0.9-0.1-1C58,81.1,57.8,81,57.4,81l-0.7,0v3.9
			H56V77z M58.1,78.9c0-0.4,0-0.7-0.1-0.9c0-0.2-0.1-0.3-0.2-0.4c-0.1-0.1-0.2-0.1-0.4-0.1h-0.7v3h0.7c0.2,0,0.4,0,0.5-0.1
			c0.1-0.1,0.1-0.2,0.2-0.4C58.1,79.9,58.1,79.5,58.1,78.9L58.1,78.9z"/>
		<path class="st0" d="M61,77h0.7l1.4,7.9h-0.6l-0.3-1.6h-1.6l-0.2,1.6h-0.6L61,77z M62.1,82.7l-0.7-4.5h0l-0.7,4.5H62.1z"/>
		<path class="st0" d="M63.5,77h2.2v0.5H65v7.4h-0.7v-7.4h-0.8V77z"/>
		<path class="st0" d="M66.8,77h0.7v7.9h-0.7V77z"/>
		<path class="st0" d="M71.4,77H72l-1.3,7.9H70L68.6,77h0.6l1.1,6.5h0L71.4,77z"/>
		<path class="st0" d="M73,79.2c0-1,0.1-1.6,0.4-1.9c0.2-0.3,0.6-0.4,1.1-0.4c0.5,0,0.8,0.2,1,0.5c0.1,0.2,0.2,0.5,0.2,0.8
			c0,0.3,0,0.6,0,1.1v3.4c0,0.7,0,1.2-0.1,1.4c-0.1,0.3-0.2,0.5-0.3,0.6c-0.2,0.2-0.5,0.4-1,0.4c-0.7,0-1.1-0.3-1.2-0.8
			c-0.1-0.4-0.2-0.9-0.2-1.6V79.2z M75.1,79.1c0-0.6,0-1.1-0.1-1.3c-0.1-0.3-0.3-0.4-0.6-0.4c-0.3,0-0.5,0.1-0.6,0.4
			c-0.1,0.3-0.2,0.7-0.2,1.3v3.4c0,0.7,0,1.2,0.1,1.4c0.1,0.2,0.2,0.3,0.2,0.4c0.1,0.1,0.2,0.1,0.4,0.1c0.1,0,0.3,0,0.4-0.1
			c0.1-0.1,0.2-0.2,0.2-0.4c0.1-0.2,0.1-0.7,0.1-1.4V79.1z"/>
		<path class="st0" d="M78.8,77H80c0.7,0,1.2,0.3,1.4,0.9c0.1,0.3,0.2,0.8,0.2,1.4l0,3.4c0,0.8-0.1,1.4-0.3,1.7
			c-0.2,0.3-0.6,0.5-1.2,0.5h-1.2V77z M80.9,79.2c0-0.6-0.1-1-0.2-1.2c-0.1-0.3-0.3-0.4-0.6-0.4h-0.6v6.8H80c0.4,0,0.6-0.2,0.7-0.5
			c0.1-0.3,0.1-0.7,0.1-1.2L80.9,79.2z"/>
		<path class="st0" d="M83,77h2.1v0.5h-1.4v3.1H85v0.5h-1.3v3.2h1.4v0.5H83V77z"/>
		<path class="st0" d="M87.4,77h2.2v0.5h-0.7v7.4h-0.7v-7.4h-0.8V77z"/>
		<path class="st0" d="M90.6,77h1.3c0.5,0,0.9,0.1,1.1,0.3c0.1,0.2,0.2,0.4,0.3,0.6c0,0.2,0.1,0.6,0.1,1.1c0,0.5-0.1,0.9-0.2,1.1
			c-0.1,0.3-0.3,0.5-0.6,0.6c0.1,0,0.2,0,0.3,0.1c0.1,0,0.1,0.1,0.2,0.2c0.2,0.3,0.3,1.2,0.3,2.5c0,0.6,0,0.9,0,1
			c0,0.1,0,0.2,0.1,0.3h-0.7c0-0.1-0.1-0.3-0.1-0.5c0-0.2,0-0.6,0-1.2v-0.9c0-0.5,0-0.9-0.1-1C92.5,81.1,92.3,81,92,81l-0.7,0v3.9
			h-0.7V77z M92.7,78.9c0-0.4,0-0.7-0.1-0.9c0-0.2-0.1-0.3-0.2-0.4c-0.1-0.1-0.2-0.1-0.4-0.1h-0.7v3h0.7c0.2,0,0.4,0,0.5-0.1
			c0.1-0.1,0.1-0.2,0.2-0.4C92.6,79.9,92.7,79.5,92.7,78.9L92.7,78.9z"/>
		<path class="st0" d="M95.5,77h0.7l1.4,7.9H97l-0.3-1.6h-1.6l-0.2,1.6h-0.6L95.5,77z M96.6,82.7l-0.7-4.5h0l-0.7,4.5H96.6z"/>
		<path class="st0" d="M98.7,77h1.2c0.5,0,0.8,0.1,1,0.2c0.2,0.2,0.3,0.4,0.4,0.9c0,0.2,0,0.4,0,0.7v0.1c0,0.5,0,0.9-0.1,1.2
			c-0.1,0.3-0.2,0.5-0.4,0.6c0.2,0.1,0.4,0.3,0.5,0.7c0.1,0.3,0.1,0.8,0.1,1.3v0.1c0,0.8-0.1,1.3-0.3,1.7c-0.2,0.3-0.5,0.5-1.1,0.5
			h-1.4V77z M99.9,77.6h-0.5v2.8h0.6c0.2,0,0.3,0,0.4-0.1c0.1,0,0.1-0.1,0.1-0.2c0.1-0.2,0.1-0.6,0.1-1.1c0-0.6,0-0.9-0.1-1.1
			c-0.1-0.1-0.1-0.3-0.2-0.3C100.3,77.6,100.1,77.6,99.9,77.6z M100.1,80.9h-0.7v3.4h0.7c0.2,0,0.4-0.1,0.5-0.2
			c0.1-0.1,0.2-0.4,0.2-0.7c0-0.3,0-0.6,0-0.8v-0.4c0-0.4,0-0.8-0.1-1C100.5,81,100.4,80.9,100.1,80.9z"/>
		<path class="st0" d="M103.6,77h0.7l1.4,7.9H105l-0.3-1.6h-1.6l-0.2,1.6h-0.6L103.6,77z M104.7,82.7l-0.7-4.5h0l-0.7,4.5H104.7z"/>
		<path class="st0" d="M108.3,77h0.7v6c0,0.7-0.1,1.2-0.3,1.5c-0.2,0.3-0.5,0.5-1,0.5c-0.5,0-0.8-0.1-1-0.4
			c-0.2-0.3-0.3-0.8-0.3-1.4v-0.7h0.7v0.9c0,0.4,0,0.7,0.1,0.8c0.1,0.1,0.2,0.2,0.2,0.2c0.1,0,0.1,0,0.2,0c0.3,0,0.5-0.2,0.5-0.6
			c0-0.2,0-0.3,0-0.5V77z"/>
		<path class="st0" d="M110.3,79.2c0-1,0.1-1.6,0.4-1.9c0.2-0.3,0.6-0.4,1.1-0.4c0.5,0,0.8,0.2,1,0.5c0.1,0.2,0.2,0.5,0.2,0.8
			c0,0.3,0,0.6,0,1.1v3.4c0,0.7,0,1.2-0.1,1.4c-0.1,0.3-0.2,0.5-0.3,0.6c-0.2,0.2-0.5,0.4-1,0.4c-0.7,0-1.1-0.3-1.2-0.8
			c-0.1-0.4-0.2-0.9-0.2-1.6V79.2z M112.4,79.1c0-0.6,0-1.1-0.1-1.3c-0.1-0.3-0.3-0.4-0.6-0.4c-0.3,0-0.5,0.1-0.6,0.4
			c-0.1,0.3-0.2,0.7-0.2,1.3v3.4c0,0.7,0,1.2,0.1,1.4c0.1,0.2,0.2,0.3,0.2,0.4c0.1,0.1,0.2,0.1,0.4,0.1c0.1,0,0.3,0,0.4-0.1
			c0.1-0.1,0.2-0.2,0.2-0.4c0.1-0.2,0.1-0.7,0.1-1.4V79.1z"/>
	</g>
</g>
</svg>
