<?xml version="1.0" encoding="UTF-8"?>
<!-- Generator: Adobe Illustrator 22.1.0, SVG Export Plug-In . SVG Version: 6.00 Build 0)  -->
<svg version="1.1" id="Layer_1" xmlns="http://www.w3.org/2000/svg" xmlns:xlink="http://www.w3.org/1999/xlink" x="0px" y="0px" viewBox="0 0 606.3 513.8" style="enable-background:new 0 0 606.3 513.8;" xml:space="preserve">
<style type="text/css">
	.st0{opacity:0.55;fill:#E5E5E5;}
	.st1{opacity:1;}
	.st2{fill:#ED2B7A;}
	.st3{fill:#EFBE43;}
	.st4{fill:#2DABEA;}
	.st5{fill:#25126D;}
	.st6{fill:#2EE8C5;}
</style>
<g id="Capa_1">
</g>
<path class="st0" d="M386,298.4c-0.6-0.6-1.5-0.6-2.1,0L330.3,352l-21.1-21.1c5.7-5.8,10.4-12.8,13.5-20.8c0.3-0.8-0.1-1.6-0.8-1.9  c-0.8-0.3-1.6,0.1-1.9,0.8c-3,7.6-7.4,14.3-12.9,19.8l-6.6-6.6c-0.6-0.6-1.5-0.6-2.1,0s-0.6,1.5,0,2.1l6.6,6.6  c-10.6,9.7-24.6,15.4-39.8,15.4c-4.6,0-9.2-0.5-13.7-1.6c-0.8-0.2-1.6,0.3-1.8,1.1c-0.2,0.8,0.3,1.6,1.1,1.8  c4.7,1.1,9.5,1.7,14.4,1.7c15.9,0,30.7-6,41.9-16.2l23.2,23.2l55.7-55.7C386.6,299.9,386.6,299,386,298.4z"/>
<path class="st0" d="M326.3,292.6c0.4,0,0.8-0.1,1.1-0.4l11.1-11.1l8.6,8.6c0.6,0.6,1.5,0.6,2.1,0s0.6-1.5,0-2.1l-10.7-10.7  l-13.2,13.2c-0.6,0.6-0.6,1.5,0,2.1C325.5,292.5,325.9,292.6,326.3,292.6z"/>
<path class="st0" d="M350,303.6l22.1-22.1c0.6-0.6,0.6-1.5,0-2.1s-1.5-0.6-2.1,0l-20,20l-9.3-9.3c-0.6-0.6-1.5-0.6-2.1,0  s-0.6,1.5,0,2.1L350,303.6z"/>
<path class="st0" d="M400.7,299.7c0.6,0.6,1.5,0.6,2.1,0s0.6-1.5,0-2.1l-16.2-16.2l-21,21c-0.6,0.6-0.6,1.5,0,2.1  c0.3,0.3,0.7,0.4,1.1,0.4s0.8-0.1,1.1-0.4l18.9-18.9L400.7,299.7z"/>
<path class="st0" d="M369.6,292.6c0.4,0,0.8-0.1,1.1-0.4l13.4-13.4l-32.9-32.9l12.6-12.6c0.6-0.6,0.6-1.5,0-2.1s-1.5-0.6-2.1,0  L349,243.8l-3.5-3.5l22.4-22.4c0.6-0.6,0.6-1.5,0-2.1s-1.5-0.6-2.1,0l-22.4,22.4l-3.2-3.2l37.5-37.5c0.6-0.6,0.6-1.5,0-2.1  s-1.5-0.6-2.1,0L336,235l43.9,43.9l-11.3,11.3c-0.6,0.6-0.6,1.5,0,2.1C368.9,292.5,369.2,292.6,369.6,292.6z"/>
<path class="st0" d="M426.3,276.2c0.6-0.6,0.6-1.5,0-2.1s-1.5-0.6-2.1,0l-14.5,14.5l-9.3-9.3c-0.6-0.6-1.5-0.6-2.1,0s-0.6,1.5,0,2.1  l11.4,11.4L426.3,276.2z"/>
<path class="st0" d="M444.7,280.7c0.4,0,0.8-0.1,1.1-0.4c0.6-0.6,0.6-1.5,0-2.1l-18.5-18.5l-16,16c-0.6,0.6-0.6,1.5,0,2.1  s1.5,0.6,2.1,0l13.9-13.9l16.4,16.4C443.9,280.6,444.3,280.7,444.7,280.7z"/>
<path class="st0" d="M438.7,294.3c0.4,0,0.8-0.1,1.1-0.4l17.9-17.9l-15.3-15.3c-0.6-0.6-1.5-0.6-2.1,0s-0.6,1.5,0,2.1l13.2,13.2  l-15.8,15.8c-0.6,0.6-0.6,1.5,0,2.1C437.9,294.2,438.3,294.3,438.7,294.3z"/>
<path class="st0" d="M532.2,243.9c0.6,0.6,1.5,0.6,2.1,0s0.6-1.5,0-2.1l-17.5-17.5l-67.6,67.6c-0.6,0.6-0.6,1.5,0,2.1  c0.3,0.3,0.7,0.4,1.1,0.4s0.8-0.1,1.1-0.4l65.5-65.5L532.2,243.9z"/>
<path class="st0" d="M598.4,187.9l-65.6,65.6l-15.1-15.1c-0.6-0.6-1.5-0.6-2.1,0s-0.6,1.5,0,2.1l17.2,17.2l67.7-67.7  c0.6-0.6,0.6-1.5,0-2.1C599.9,187.3,599,187.3,598.4,187.9z"/>
<path class="st0" d="M568.6,239.1c-0.6,0.6-0.6,1.5,0,2.1l17.8,17.8L575,270.3c-0.6,0.6-0.6,1.5,0,2.1c0.3,0.3,0.7,0.4,1.1,0.4  s0.8-0.1,1.1-0.4l13.4-13.4l-19.9-19.9C570.1,238.5,569.1,238.5,568.6,239.1z"/>
<path class="st0" d="M575.7,256.5c-0.6-0.6-1.5-0.6-2.1,0l-25.8,25.8l12.7,12.7c0.3,0.3,0.7,0.4,1.1,0.4s0.8-0.1,1.1-0.4  c0.6-0.6,0.6-1.5,0-2.1l-10.5-10.6l23.7-23.7C576.3,258,576.3,257,575.7,256.5z"/>
<path class="st0" d="M543.1,287c-0.6,0.6-0.6,1.5,0,2.1l31.2,31.2l-17.6,17.6c-0.6,0.6-0.6,1.5,0,2.1c0.3,0.3,0.7,0.4,1.1,0.4  s0.8-0.1,1.1-0.4l19.7-19.7L545.2,287C544.7,286.4,543.7,286.4,543.1,287z"/>
<path class="st0" d="M544.6,362.5c0.3,0.3,0.7,0.4,1.1,0.4s0.8-0.1,1.1-0.4c0.6-0.6,0.6-1.5,0-2.1l-10.1-10.1l27.1-27.1  c0.6-0.6,0.6-1.5,0-2.1s-1.5-0.6-2.1,0l-29.2,29.2L544.6,362.5z"/>
<path class="st0" d="M538.9,327.4L526.3,340l-22.1-22.1c-0.6-0.6-1.5-0.6-2.1,0s-0.6,1.5,0,2.1l24.2,24.2l14.7-14.7  c0.6-0.6,0.6-1.5,0-2.1S539.5,326.8,538.9,327.4z"/>
<path class="st0" d="M503.8,305.5l-22.4,22.4c-0.6,0.6-0.6,1.5,0,2.1c0.3,0.3,0.7,0.4,1.1,0.4s0.8-0.1,1.1-0.4l20.3-20.3l13.4,13.4  c0.6,0.6,1.5,0.6,2.1,0s0.6-1.5,0-2.1L503.8,305.5z"/>
<path class="st0" d="M497.4,235.6c0.4,0,0.8-0.1,1.1-0.4l14.6-14.6l-10.7-10.7c-0.6-0.6-1.5-0.6-2.1,0s-0.6,1.5,0,2.1l8.6,8.6  L496.4,233c-0.6,0.6-0.6,1.5,0,2.1C496.7,235.5,497.1,235.6,497.4,235.6z"/>
<path class="st0" d="M486.2,315.1c0.3,0.3,0.7,0.4,1.1,0.4s0.8-0.1,1.1-0.4l12.6-12.6l-13.7-13.7c-0.6-0.6-1.5-0.6-2.1,0  s-0.6,1.5,0,2.1l11.5,11.5L486.2,313C485.6,313.6,485.6,314.5,486.2,315.1z"/>
<path class="st0" d="M526.6,355.9L506,376.6c-0.6,0.6-0.6,1.5,0,2.1s1.5,0.6,2.1,0l18.6-18.6l24,24c0.3,0.3,0.7,0.4,1.1,0.4  s0.8-0.1,1.1-0.4c0.6-0.6,0.6-1.5,0-2.1L526.6,355.9z"/>
<path class="st0" d="M522.1,371.6l-16.2,16.2l-26.7-26.7c-0.6-0.6-1.5-0.6-2.1,0s-0.6,1.5,0,2.1l28.8,28.8l18.3-18.3  c0.6-0.6,0.6-1.5,0-2.1S522.7,371.1,522.1,371.6z"/>
<path class="st0" d="M491.5,433.5c0.4,0,0.8-0.1,1.1-0.4c0.6-0.6,0.6-1.5,0-2.1l-21.2-21.2l11.9-11.9c0.6-0.6,0.6-1.5,0-2.1  s-1.5-0.6-2.1,0l-14.1,14.1l23.3,23.3C490.8,433.4,491.2,433.5,491.5,433.5z"/>
<path class="st0" d="M382.4,108L403,87.4c0.6-0.6,0.6-1.5,0-2.1s-1.5-0.6-2.1,0L378.2,108l38.8,38.8c0.1,0.2,0.2,0.4,0.3,0.5  c0.1,0.1,0.3,0.3,0.5,0.3l7.6,7.6c0.3,0.3,0.7,0.4,1.1,0.4s0.8-0.1,1.1-0.4c0.6-0.6,0.6-1.5,0-2.1l-6.9-6.9  c9.2-8.7,21.2-13.6,34-13.6c9.9,0,19.4,2.9,27.6,8.4c0.7,0.5,1.6,0.3,2.1-0.4s0.3-1.6-0.4-2.1c-8.7-5.9-18.8-8.9-29.3-8.9  c-13.6,0-26.3,5.1-36.1,14.4l-4.4-4.4c9.4-8.9,21.5-14.6,34.3-15.9c0.8-0.1,1.4-0.8,1.3-1.6c-0.1-0.8-0.8-1.4-1.6-1.3  c-13.5,1.4-26.3,7.4-36.1,16.8L382.4,108z"/>
<path class="st0" d="M413.1,85.9l-20.3,20.3c-0.6,0.6-0.6,1.5,0,2.1c0.3,0.3,0.7,0.4,1.1,0.4s0.8-0.1,1.1-0.4l22.4-22.4l-17-17  c-0.6-0.6-1.5-0.6-2.1,0s-0.6,1.5,0,2.1L413.1,85.9z"/>
<path class="st0" d="M436.5,64.6c-0.6-0.6-1.5-0.6-2.1,0l-13.1,13.1l-9.7-9.7c-0.6-0.6-1.5-0.6-2.1,0s-0.6,1.5,0,2.1l11.8,11.8  l15.2-15.2C437.1,66.1,437.1,65.2,436.5,64.6z"/>
<path class="st0" d="M423.9,62.3c-0.6,0.6-0.6,1.5,0,2.1c0.6,0.6,1.5,0.6,2.1,0l12.2-12.2l31.1,31.1c0.3,0.3,0.7,0.4,1.1,0.4  s0.8-0.1,1.1-0.4c0.6-0.6,0.6-1.5,0-2.1L438.3,48L423.9,62.3z"/>
<path class="st0" d="M535.8,30c-0.6-0.6-1.5-0.6-2.1,0l-63.4,63.4l-14.6-14.6c-0.6-0.6-1.5-0.6-2.1,0s-0.6,1.5,0,2.1l16.7,16.7  l65.5-65.5C536.4,31.5,536.4,30.5,535.8,30z"/>
<path class="st0" d="M518.5,36.7c0.6,0.6,1.5,0.6,2.1,0L536.3,21l32,32c0.3,0.3,0.7,0.4,1.1,0.4s0.8-0.1,1.1-0.4  c0.6-0.6,0.6-1.5,0-2.1l-34.1-34.1l-17.9,17.9C517.9,35.1,517.9,36.1,518.5,36.7z"/>
<path class="st0" d="M590.3,42.7c0.6-0.6,0.6-1.5,0-2.1s-1.5-0.6-2.1,0l-19.6,19.6l-16.1-16.1c-0.6-0.6-1.5-0.6-2.1,0  s-0.6,1.5,0,2.1l18.2,18.2L590.3,42.7z"/>
<path class="st0" d="M579.5,43.9l11.1-11.1l13.1,13.1c0.3,0.3,0.7,0.4,1.1,0.4s0.8-0.1,1.1-0.4c0.6-0.6,0.6-1.5,0-2.1l-15.2-15.2  l-13.3,13.3c-0.6,0.6-0.6,1.5,0,2.1S578.9,44.5,579.5,43.9z"/>
<path class="st0" d="M527.4,11.9l-8.5,8.5c-0.6,0.6-0.6,1.5,0,2.1c0.3,0.3,0.7,0.4,1.1,0.4s0.8-0.1,1.1-0.4l10.6-10.6L520.1,0.4  c-0.6-0.6-1.5-0.6-2.1,0s-0.6,1.5,0,2.1L527.4,11.9z"/>
<path class="st0" d="M510.5,137.1c0.4,0,0.8-0.1,1.1-0.4c0.6-0.6,0.6-1.5,0-2.1L478,101l13.7-13.7c0.6-0.6,0.6-1.5,0-2.1  s-1.5-0.6-2.1,0L473.8,101l35.7,35.7C509.7,136.9,510.1,137.1,510.5,137.1z"/>
<path class="st0" d="M505.7,113.9c-0.6-0.6-1.5-0.6-2.1,0s-0.6,1.5,0,2.1l17.1,17.1l-11.4,11.4c-0.6,0.6-0.6,1.5,0,2.1  c0.3,0.3,0.7,0.4,1.1,0.4s0.8-0.1,1.1-0.4l13.5-13.5L505.7,113.9z"/>
<path class="st0" d="M562.9,106.5c-0.6-0.6-1.5-0.6-2.1,0l-44.4,44.4l15,15c0.3,0.3,0.7,0.4,1.1,0.4s0.8-0.1,1.1-0.4  c0.6-0.6,0.6-1.5,0-2.1l-12.9-12.9l42.3-42.3C563.5,108,563.5,107.1,562.9,106.5z"/>
<path class="st0" d="M603.7,111.3L589,126l-10-10.1c-0.6-0.6-1.5-0.6-2.1,0s-0.6,1.5,0,2.1l12.2,12.2l16.8-16.8  c0.6-0.6,0.6-1.5,0-2.1S604.3,110.7,603.7,111.3z"/>
<path class="st0" d="M589.5,117.9c0.3,0.3,0.7,0.4,1.1,0.4s0.8-0.1,1.1-0.4c0.6-0.6,0.6-1.5,0-2.1l-26.4-26.4l-20,20  c-0.6,0.6-0.6,1.5,0,2.1s1.5,0.6,2.1,0l17.9-17.9L589.5,117.9z"/>
<path class="st0" d="M374.1,99.7l-16-16c-0.6-0.6-1.5-0.6-2.1,0s-0.6,1.5,0,2.1l18.1,18.1l16.2-16.2c0.6-0.6,0.6-1.5,0-2.1  s-1.5-0.6-2.1,0L374.1,99.7z"/>
<path class="st0" d="M372.1,86.8c0.6,0.6,1.5,0.6,2.1,0s0.6-1.5,0-2.1l-16.6-16.6l-23,23c-0.6,0.6-0.6,1.5,0,2.1  c0.3,0.3,0.7,0.4,1.1,0.4s0.8-0.1,1.1-0.4l20.9-20.9L372.1,86.8z"/>
<path class="st0" d="M308,74.2c-0.6,0.6-0.6,1.5,0,2.1l29.8,29.8l12.4-12.4c0.6-0.6,0.6-1.5,0-2.1s-1.5-0.6-2.1,0l-10.3,10.3  l-27.7-27.7C309.6,73.6,308.6,73.6,308,74.2z"/>
<path class="st0" d="M384.5,28.3l-53,53c-0.6,0.6-0.6,1.5,0,2.1c0.3,0.3,0.7,0.4,1.1,0.4s0.8-0.1,1.1-0.4l55.2-55.2l-17.4-17.4  c-0.6-0.6-1.5-0.6-2.1,0s-0.6,1.5,0,2.1L384.5,28.3z"/>
<path class="st0" d="M369.5,26.4c0.4,0,0.8-0.1,1.1-0.4c0.6-0.6,0.6-1.5,0-2.1L360,13.2l8.2-8.2c0.6-0.6,0.6-1.5,0-2.1  s-1.5-0.6-2.1,0l-10.4,10.4L368.5,26C368.8,26.2,369.2,26.4,369.5,26.4z"/>
<path class="st0" d="M314.4,27.7l20.3-20.3l26.2,26.2c0.3,0.3,0.7,0.4,1.1,0.4s0.8-0.1,1.1-0.4c0.6-0.6,0.6-1.5,0-2.1L334.7,3.2  l-22.4,22.4c-0.6,0.6-0.6,1.5,0,2.1C312.9,28.3,313.8,28.3,314.4,27.7z"/>
<path class="st0" d="M314.2,39.4L328,25.6c0.6-0.6,0.6-1.5,0-2.1s-1.5-0.6-2.1,0l-11.7,11.7l-16.7-16.7c-0.6-0.6-1.5-0.6-2.1,0  s-0.6,1.5,0,2.1L314.2,39.4z"/>
<path class="st0" d="M211.6,94.3c-0.6,0.6-0.6,1.5,0,2.1s1.5,0.6,2.1,0L230.1,80l43.2,43.2c0.3,0.3,0.7,0.4,1.1,0.4s0.8-0.1,1.1-0.4  c0.6-0.6,0.6-1.5,0-2.1l-6.2-6.2l7.4-7.4c0.6-0.6,0.6-1.5,0-2.1s-1.5-0.6-2.1,0l-7.4,7.4l-3.5-3.5l22.1-22.1c0.6-0.6,0.6-1.5,0-2.1  s-1.5-0.6-2.1,0l-22.1,22.1l-3.9-3.9l42.9-42.9c0.6-0.6,0.6-1.5,0-2.1s-1.5-0.6-2.1,0l-42.9,42.9l-25.4-25.4L211.6,94.3z"/>
<path class="st0" d="M253.1,88.6c0.6-0.6,0.6-1.5,0-2.1l-14.7-14.7l15.5-15.5c0.6-0.6,0.6-1.5,0-2.1s-1.5-0.6-2.1,0l-17.6,17.6  L251,88.6c0.3,0.3,0.7,0.4,1.1,0.4S252.8,88.9,253.1,88.6z"/>
<path class="st0" d="M245.1,35.5c-0.6,0.6-0.6,1.5,0,2.1l15.7,15.7l-12,12c-0.6,0.6-0.6,1.5,0,2.1c0.3,0.3,0.7,0.4,1.1,0.4  s0.8-0.1,1.1-0.4l14.1-14.1l-17.9-17.9C246.7,34.9,245.7,34.9,245.1,35.5z"/>
<path class="st0" d="M244.5,48.4c0.4,0,0.8-0.1,1.1-0.4c0.6-0.6,0.6-1.5,0-2.1L232,32.3L246.3,18c0.6-0.6,0.6-1.5,0-2.1  s-1.5-0.6-2.1,0l-16.4,16.4L243.4,48C243.7,48.3,244.1,48.4,244.5,48.4z"/>
<path class="st0" d="M214.5,110.5l18.9-18.9c0.6-0.6,0.6-1.5,0-2.1s-1.5-0.6-2.1,0l-16.7,16.7l-68.1-68.1c-0.6-0.6-1.5-0.6-2.1,0  s-0.6,1.5,0,2.1L214.5,110.5z"/>
<path class="st0" d="M181.9,91.6l-40.3,40.3c-0.6,0.6-0.6,1.5,0,2.1c0.3,0.3,0.7,0.4,1.1,0.4s0.8-0.1,1.1-0.4L182,95.8l10.9,10.9  c0.6,0.6,1.5,0.6,2.1,0s0.6-1.5,0-2.1L181.9,91.6z"/>
<path class="st0" d="M126.2,114.3L76.5,164c-0.6,0.6-0.6,1.5,0,2.1c0.3,0.3,0.7,0.4,1.1,0.4s0.8-0.1,1.1-0.4l47.6-47.6l9.7,9.7  c0.6,0.6,1.5,0.6,2.1,0c0.6-0.6,0.6-1.5,0-2.1L126.2,114.3z"/>
<path class="st0" d="M123.9,127.4c-0.6,0.6-0.6,1.5,0,2.1l17.5,17.5l17.8-17.8c0.6-0.6,0.6-1.5,0-2.1s-1.5-0.6-2.1,0l-15.7,15.7  L126,127.4C125.4,126.8,124.5,126.8,123.9,127.4z"/>
<path class="st0" d="M158.1,137.8c-0.6-0.6-1.5-0.6-2.1,0l-11.9,11.9l11.8,11.8c0.3,0.3,0.7,0.4,1.1,0.4s0.8-0.1,1.1-0.4  c0.6-0.6,0.6-1.5,0-2.1l-9.7-9.7l9.8-9.8C158.7,139.3,158.7,138.4,158.1,137.8z"/>
<path class="st0" d="M119.1,134.4l-12.4,12.4c-0.6,0.6-0.6,1.5,0,2.1c0.3,0.3,0.7,0.4,1.1,0.4s0.8-0.1,1.1-0.4l12.4-12.4  c0.6-0.6,0.6-1.5,0-2.1C120.7,133.8,119.7,133.8,119.1,134.4z"/>
<path class="st0" d="M124.4,139.7l-6.8,6.8c-0.6,0.6-0.6,1.5,0,2.1c0.3,0.3,0.7,0.4,1.1,0.4s0.8-0.1,1.1-0.4l6.8-6.8  c0.6-0.6,0.6-1.5,0-2.1C126,139.1,125,139.1,124.4,139.7z"/>
<path class="st0" d="M72.7,86.1l16.7-16.7l52.7,52.7c0.3,0.3,0.7,0.4,1.1,0.4s0.8-0.1,1.1-0.4c0.6-0.6,0.6-1.5,0-2.1L89.4,65.1  L70.6,83.9c-0.6,0.6-0.6,1.5,0,2.1C71.1,86.6,72.1,86.6,72.7,86.1z"/>
<path class="st0" d="M71.6,99.1L89,81.7c0.6-0.6,0.6-1.5,0-2.1s-1.5-0.6-2.1,0L71.6,94.9L52.8,76c-0.6-0.6-1.5-0.6-2.1,0  s-0.6,1.5,0,2.1L71.6,99.1z"/>
<path class="st0" d="M113.5,81.7c0.4,0,0.8-0.1,1.1-0.4c0.6-0.6,0.6-1.5,0-2.1L85.9,50.5l11.7-11.7c0.6-0.6,0.6-1.5,0-2.1  s-1.5-0.6-2.1,0L81.6,50.5l30.8,30.8C112.7,81.5,113.1,81.7,113.5,81.7z"/>
<path class="st0" d="M107.1,38.4L95.8,49.8c-0.6,0.6-0.6,1.5,0,2.1c0.3,0.3,0.7,0.4,1.1,0.4s0.8-0.1,1.1-0.4l13.4-13.4L95.2,22.3  c-0.6-0.6-1.5-0.6-2.1,0s-0.6,1.5,0,2.1L107.1,38.4z"/>
<path class="st0" d="M351.5,170.2c0.3,0.3,0.7,0.4,1.1,0.4s0.8-0.1,1.1-0.4l40.1-40.1L376,112.4c-0.6-0.6-1.5-0.6-2.1,0  s-0.6,1.5,0,2.1l15.6,15.6L351.6,168C350.9,168.7,350.9,169.6,351.5,170.2z"/>
<path class="st0" d="M354.1,154.4l-15.9,15.9l19.4,19.4c0.3,0.3,0.7,0.4,1.1,0.4s0.8-0.1,1.1-0.4c0.6-0.6,0.6-1.5,0-2.1l-17.3-17.3  l13.8-13.8c0.6-0.6,0.6-1.5,0-2.1S354.7,153.8,354.1,154.4z"/>
<path class="st0" d="M316,194.6c0.3,0.3,0.7,0.4,1.1,0.4s0.8-0.1,1.1-0.4l16.5-16.5l10.9,10.9c0.6,0.6,1.5,0.6,2.1,0s0.6-1.5,0-2.1  l-13-13L316,192.5C315.5,193.1,315.5,194,316,194.6z"/>
<path class="st0" d="M333.7,190.4c-0.6-0.6-1.5-0.6-2.1,0l-14.4,14.4l-19.6-19.6c-0.6-0.6-1.5-0.6-2.1,0s-0.6,1.5,0,2.1l21.7,21.7  l16.6-16.6C334.2,192,334.2,191,333.7,190.4z"/>
<path class="st0" d="M300.2,221.7c-0.6,0.6-0.6,1.5,0,2.1c0.3,0.3,0.7,0.4,1.1,0.4s0.8-0.1,1.1-0.4l12-12l-13.6-13.6  c-0.6-0.6-1.5-0.6-2.1,0s-0.6,1.5,0,2.1l11.4,11.4L300.2,221.7z"/>
<path class="st0" d="M316.3,248.8c0.3,0.3,0.7,0.4,1.1,0.4s0.8-0.1,1.1-0.4c0.6-0.6,0.6-1.5,0-2.1L292.7,221l8.2-8.2  c0.6-0.6,0.6-1.5,0-2.1s-1.5-0.6-2.1,0L288.5,221L316.3,248.8z"/>
<path class="st0" d="M213.5,237.7c0,0.3,0.2,0.6,0.4,0.9c0.2,0.2,0.6,0.4,0.9,0.4l5.6,5.6c-11,11.6-17.1,26.7-17.1,42.7  c0,12.7,3.8,25,11.1,35.4c0.3,0.4,0.8,0.6,1.2,0.6c0.3,0,0.6-0.1,0.9-0.3c0.7-0.5,0.8-1.4,0.4-2.1c-6.9-9.9-10.6-21.6-10.6-33.7  c0-15.2,5.8-29.6,16.3-40.6l6.7,6.7c0.3,0.3,0.7,0.4,1.1,0.4s0.8-0.1,1.1-0.4c0.6-0.6,0.6-1.5,0-2.1l-14-14  c10.3-9.9,23.1-16.2,37.2-18.4c0.8-0.1,1.4-0.9,1.3-1.7c-0.1-0.8-0.9-1.4-1.7-1.3c-14.7,2.3-28.1,8.9-38.8,19.2l-7.5-7.5l43-43  c0.6-0.6,0.6-1.5,0-2.1s-1.5-0.6-2.1,0l-45.1,45.1L213.5,237.7z"/>
<path class="st0" d="M261.1,183L248,196.1c-0.6,0.6-0.6,1.5,0,2.1c0.3,0.3,0.7,0.4,1.1,0.4s0.8-0.1,1.1-0.4l15.2-15.2l-19.6-19.6  c-0.6-0.6-1.5-0.6-2.1,0s-0.6,1.5,0,2.1L261.1,183z"/>
<path class="st0" d="M208.3,246.9c0.6,0.6,1.5,0.6,2.1,0s0.6-1.5,0-2.1l-12-12l-21.6,21.6c-0.6,0.6-0.6,1.5,0,2.1  c0.3,0.3,0.7,0.4,1.1,0.4s0.8-0.1,1.1-0.4l19.5-19.5L208.3,246.9z"/>
<path class="st0" d="M194.6,249.5c-0.6-0.6-1.5-0.6-2.1,0l-14.2,14.2l-18.2-18.2c-0.6-0.6-1.5-0.6-2.1,0s-0.6,1.5,0,2.1l20.3,20.3  l16.4-16.4C195.2,251.1,195.2,250.1,194.6,249.5z"/>
<path class="st0" d="M170.4,300c0.4,0,0.8-0.1,1.1-0.4c0.6-0.6,0.6-1.5,0-2.1l-35.9-35.9l3.7-3.7l14.6,14.6c0.3,0.3,0.7,0.4,1.1,0.4  s0.8-0.1,1.1-0.4c0.6-0.6,0.6-1.5,0-2.1l-14.6-14.6l3.7-3.7l4.2,4.2c0.3,0.3,0.7,0.4,1.1,0.4s0.8-0.1,1.1-0.4c0.6-0.6,0.6-1.5,0-2.1  l-4.2-4.2l11.5-11.5l11.1,11.1c0.6,0.6,1.5,0.6,2.1,0s0.6-1.5,0-2.1l-13.3-13.3l-27.4,27.4l38,38C169.7,299.8,170.1,300,170.4,300z"/>
<path class="st0" d="M167.4,283.8c-0.6,0.6-0.6,1.5,0,2.1l12.7,12.7l-24,24c-0.6,0.6-0.6,1.5,0,2.1c0.3,0.3,0.7,0.4,1.1,0.4  c0.4,0,0.8-0.1,1.1-0.4l26.2-26.2l-14.8-14.8C169,283.2,168,283.2,167.4,283.8z"/>
<path class="st0" d="M113.8,267.3c-0.6,0.6-0.6,1.5,0,2.1l13.9,13.9l-9.9,9.9c-0.6,0.6-0.6,1.5,0,2.1c0.3,0.3,0.7,0.4,1.1,0.4  s0.8-0.1,1.1-0.4l12-12l-16-16C115.3,266.7,114.4,266.7,113.8,267.3z"/>
<path class="st0" d="M86.3,268.4c-0.6-0.6-1.5-0.6-2.1,0s-0.6,1.5,0,2.1l47.4,47.4l-20,20c-0.6,0.6-0.6,1.5,0,2.1  c0.3,0.3,0.7,0.4,1.1,0.4s0.8-0.1,1.1-0.4l22.1-22.1L86.3,268.4z"/>
<path class="st0" d="M119.2,356.6c0.4,0,0.8-0.1,1.1-0.4c0.6-0.6,0.6-1.5,0-2.1L103,336.8l12.9-12.9c0.6-0.6,0.6-1.5,0-2.1  s-1.5-0.6-2.1,0l-15,15l19.4,19.4C118.4,356.4,118.8,356.6,119.2,356.6z"/>
<path class="st0" d="M52.9,429.6c0.4,0,0.8-0.1,1.1-0.4l77.7-77.7l-8-8c-0.6-0.6-1.5-0.6-2.1,0s-0.6,1.5,0,2.1l5.8,5.8L51.8,427  c-0.6,0.6-0.6,1.5,0,2.1C52.1,429.4,52.5,429.6,52.9,429.6z"/>
<path class="st0" d="M77.6,274.9l-29.4,29.4c-0.6,0.6-0.6,1.5,0,2.1c0.3,0.3,0.7,0.4,1.1,0.4s0.8-0.1,1.1-0.4l27.3-27.3L88,289.6  c0.6,0.6,1.5,0.6,2.1,0s0.6-1.5,0-2.1L77.6,274.9z"/>
<path class="st0" d="M13.5,287.9c-0.6,0.6-0.6,1.5,0,2.1l31.6,31.6l25.1-25.1c0.6-0.6,0.6-1.5,0-2.1s-1.5-0.6-2.1,0l-23,23  l-29.5-29.5C15,287.3,14,287.3,13.5,287.9z"/>
<path class="st0" d="M62.7,308.7L47.4,324l10.3,10.3c0.3,0.3,0.7,0.4,1.1,0.4s0.8-0.1,1.1-0.4c0.6-0.6,0.6-1.5,0-2.1l-8.1-8.1  L65,310.9c0.6-0.6,0.6-1.5,0-2.1S63.3,308.1,62.7,308.7z"/>
<path class="st0" d="M17.4,383.3c0.3,0.3,0.7,0.4,1.1,0.4s0.8-0.1,1.1-0.4l52.1-52.1l-9.8-9.8c-0.6-0.6-1.5-0.6-2.1,0  s-0.6,1.5,0,2.1l7.7,7.7l-50,50C16.8,381.8,16.8,382.8,17.4,383.3z"/>
<path class="st0" d="M23.6,311.9c0.4,0,0.8-0.1,1.1-0.4c0.6-0.6,0.6-1.5,0-2.1L6,290.7L21.8,275c0.6-0.6,0.6-1.5,0-2.1  s-1.5-0.6-2.1,0L1.8,290.7l20.8,20.8C22.9,311.8,23.2,311.9,23.6,311.9z"/>
<path class="st0" d="M145.2,512.2c0,0.4,0.1,0.8,0.4,1.1c0.6,0.6,1.5,0.7,2.1,0.1l19.7-17.5l14.8,16.6c0.6,0.6,1.5,0.7,2.1,0.1  c0.6-0.6,0.7-1.5,0.1-2.1l-16.8-18.9l-22,19.5C145.4,511.5,145.3,511.8,145.2,512.2z"/>
<path class="st0" d="M73.9,238.4c-0.6-0.6-1.5-0.6-2.1,0s-0.6,1.5,0,2.1l15,15l18.6-18.6c0.6-0.6,0.6-1.5,0-2.1s-1.5-0.6-2.1,0  l-16.4,16.4L73.9,238.4z"/>
<path class="st0" d="M88.7,237.8c-0.6,0.6-0.6,1.5,0,2.1c0.3,0.3,0.7,0.4,1.1,0.4s0.8-0.1,1.1-0.4l13.9-13.9l4.8,4.8  c0.6,0.6,1.5,0.6,2.1,0s0.6-1.5,0-2.1l-6.9-6.9L88.7,237.8z"/>
<path class="st0" d="M49.1,264.7c0.4,0,0.8-0.1,1.1-0.4L68.4,246l9.2,9.2c0.6,0.6,1.5,0.6,2.1,0s0.6-1.5,0-2.1l-11.3-11.3L48,262.2  c-0.6,0.6-0.6,1.5,0,2.1C48.3,264.6,48.7,264.7,49.1,264.7z"/>
<path class="st0" d="M17,243.3c-0.6,0.6-0.6,1.5,0,2.1l31.1,31.1l19.3-19.3c0.6-0.6,0.6-1.5,0-2.1s-1.5-0.6-2.1,0l-17.1,17.1l-29-29  C18.5,242.7,17.6,242.7,17,243.3z"/>
<path class="st0" d="M19.6,235.9L36.7,253c0.3,0.3,0.7,0.4,1.1,0.4s0.8-0.1,1.1-0.4c0.6-0.6,0.6-1.5,0-2.1l-19.2-19.2L0.4,250.8  c-0.6,0.6-0.6,1.5,0,2.1s1.5,0.6,2.1,0L19.6,235.9z"/>
<path class="st0" d="M214.9,202.8l-16.1,16.1l-11.4-11.4c-0.6-0.6-1.5-0.6-2.1,0s-0.6,1.5,0,2.1l13.5,13.5L217,205  c0.6-0.6,0.6-1.5,0-2.1C216.5,202.3,215.5,202.3,214.9,202.8z"/>
<path class="st0" d="M200.1,209c0.3,0.3,0.7,0.4,1.1,0.4s0.8-0.1,1.1-0.4c0.6-0.6,0.6-1.5,0-2.1l-12-11.9l13.3-13.3  c0.6-0.6,0.6-1.5,0-2.1s-1.5-0.6-2.1,0L186.1,195L200.1,209z"/>
<path class="st0" d="M172.1,139.1c-0.6,0.6-0.6,1.5,0,2.1l39.8,39.8l-11.2,11.2c-0.6,0.6-0.6,1.5,0,2.1c0.3,0.3,0.7,0.4,1.1,0.4  s0.8-0.1,1.1-0.4l13.3-13.3l-41.9-41.9C173.7,138.5,172.7,138.5,172.1,139.1z"/>
<path class="st0" d="M208,160.7c0.6-0.6,0.6-1.5,0-2.1l-13-13.1l8.9-8.9c0.6-0.6,0.6-1.5,0-2.1s-1.5-0.6-2.1,0l-11,11l15.2,15.2  c0.3,0.3,0.7,0.4,1.1,0.4S207.7,161,208,160.7z"/>
<path class="st0" d="M193.4,116c-0.6,0.6-0.6,1.5,0,2.1l17.8,17.8l-9,9c-0.6,0.6-0.6,1.5,0,2.1c0.3,0.3,0.7,0.4,1.1,0.4  s0.8-0.1,1.1-0.4l11.1-11.1l-20-19.9C194.9,115.4,193.9,115.4,193.4,116z"/>
<path class="st0" d="M307.4,343c-0.6-0.6-1.5-0.6-2.1,0s-0.6,1.5,0,2.1l15.9,15.9L290,392.3c-0.6,0.6-0.6,1.5,0,2.1  c0.3,0.3,0.7,0.4,1.1,0.4s0.8-0.1,1.1-0.4l33.4-33.4L307.4,343z"/>
<path class="st0" d="M296.5,411.9c0.6-0.6,0.6-1.5,0-2.1l-15.6-15.6l19-19c0.6-0.6,0.6-1.5,0-2.1s-1.5-0.6-2.1,0l-21.1,21.1  l17.7,17.7c0.3,0.3,0.7,0.4,1.1,0.4S296.2,412.2,296.5,411.9z"/>
<path class="st0" d="M274.1,391.6l12.7-12.7c0.6-0.6,0.6-1.5,0-2.1s-1.5-0.6-2.1,0l-10.6,10.6l-9.7-9.7c-0.6-0.6-1.5-0.6-2.1,0  s-0.6,1.5,0,2.1L274.1,391.6z"/>
<path class="st0" d="M272.5,380.4c0.6,0.6,1.5,0.6,2.1,0s0.6-1.5,0-2.1l-11.4-11.4l-23.7,23.7c-0.6,0.6-0.6,1.5,0,2.1  c0.3,0.3,0.7,0.4,1.1,0.4s0.8-0.1,1.1-0.4l21.6-21.6L272.5,380.4z"/>
<path class="st0" d="M235.8,389l12.4-12.4c0.6-0.6,0.6-1.5,0-2.1s-1.5-0.6-2.1,0l-10.3,10.3l-9.6-9.6c-0.6-0.6-1.5-0.6-2.1,0  s-0.6,1.5,0,2.1L235.8,389z"/>
<path class="st0" d="M207.6,386.3c0.4,0,0.8-0.1,1.1-0.4l17.7-17.7l8.7,8.7c0.6,0.6,1.5,0.6,2.1,0s0.6-1.5,0-2.1L226.4,364  l-19.8,19.8c-0.6,0.6-0.6,1.5,0,2.1C206.9,386.2,207.2,386.3,207.6,386.3z"/>
<path class="st0" d="M217.8,349.4c0.6-0.6,0.6-1.5,0-2.1s-1.5-0.6-2.1,0l-15.4,15.4l-19.4-19.4c-0.6-0.6-1.5-0.6-2.1,0  s-0.6,1.5,0,2.1l21.6,21.6L217.8,349.4z"/>
<path class="st0" d="M158.4,355.3l6.3-6.3l0,0l0,0l15.6-15.6l12.3,12.3c0.6,0.6,1.5,0.6,2.1,0s0.6-1.5,0-2.1l-14.4-14.4l-12.7,12.7  l-3.3-3.3c-0.6-0.6-1.5-0.6-2.1,0s-0.6,1.5,0,2.1l3.3,3.3l-1.8,1.8l-7.7-7.7c-0.6-0.6-1.5-0.6-2.1,0s-0.6,1.5,0,2.1l7.7,7.7  l-3.1,3.1l-14.3-14.3c-0.6-0.6-1.5-0.6-2.1,0s-0.6,1.5,0,2.1L158.4,355.3z"/>
<path class="st0" d="M185.5,364.8c0.6,0.6,1.5,0.6,2.1,0s0.6-1.5,0-2.1l-14.1-14.1l-60,60c-0.6,0.6-0.6,1.5,0,2.1  c0.3,0.3,0.7,0.4,1.1,0.4s0.8-0.1,1.1-0.4l57.9-57.9L185.5,364.8z"/>
<path class="st0" d="M117.9,424.5l16.1-16.1c0.6-0.6,0.6-1.5,0-2.1s-1.5-0.6-2.1,0l-14,14l-16.4-16.4c-0.6-0.6-1.5-0.6-2.1,0  s-0.6,1.5,0,2.1L117.9,424.5z"/>
<path class="st0" d="M96.4,444c0.3,0.3,0.7,0.4,1.1,0.4s0.8-0.1,1.1-0.4l16.7-16.7L106,418c-0.6-0.6-1.5-0.6-2.1,0s-0.6,1.5,0,2.1  l7.1,7.1l-14.6,14.6C95.8,442.4,95.8,443.4,96.4,444z"/>
<path class="st0" d="M88.8,443.7l11.9-11.9c0.6-0.6,0.6-1.5,0-2.1s-1.5-0.6-2.1,0l-14,14l21.3,21.3c0.3,0.3,0.7,0.4,1.1,0.4  s0.8-0.1,1.1-0.4c0.6-0.6,0.6-1.5,0-2.1L88.8,443.7z"/>
<path class="st0" d="M128.5,473.1l12.4-12.4c0.6-0.6,0.6-1.5,0-2.1s-1.5-0.6-2.1,0l-10.3,10.3L107.7,448c-0.6-0.6-1.5-0.6-2.1,0  s-0.6,1.5,0,2.1L128.5,473.1z"/>
<path class="st0" d="M157.2,463.1c0.4,0,0.8-0.1,1.1-0.4c0.6-0.6,0.6-1.5,0-2.1l-17.1-17.1l-13.7,13.7c-0.6,0.6-0.6,1.5,0,2.1  c0.6,0.6,1.5,0.6,2.1,0l11.6-11.6l15,15C156.4,463,156.8,463.1,157.2,463.1z"/>
<path class="st0" d="M197.8,489.2l11-11c0.6-0.6,0.6-1.5,0-2.1s-1.5-0.6-2.1,0l-13.1,13.1l22.5,22.5c0.3,0.3,0.7,0.4,1.1,0.4  s0.8-0.1,1.1-0.4c0.6-0.6,0.6-1.5,0-2.1L197.8,489.2z"/>
<path class="st0" d="M246.1,493.6c0.4,0,0.8-0.1,1.1-0.4c0.6-0.6,0.6-1.5,0-2.1l-16.3-16.3L218.6,487c-0.6,0.6-0.6,1.5,0,2.1  s1.5,0.6,2.1,0l10.2-10.2L245,493C245.3,493.4,245.7,493.6,246.1,493.6z"/>
<path class="st0" d="M274.8,475c-0.6-0.6-1.5-0.6-2.1,0l-27,27l-11.6-11.6c-0.6-0.6-1.5-0.6-2.1,0s-0.6,1.5,0,2.1l13.7,13.7  l29.1-29.1C275.4,476.5,275.4,475.6,274.8,475z"/>
<path class="st0" d="M274.8,461.2l-16.6,16.6c-0.6,0.6-0.6,1.5,0,2.1s1.5,0.6,2.1,0l14.5-14.5l45,45c0.3,0.3,0.7,0.4,1.1,0.4  s0.8-0.1,1.1-0.4c0.6-0.6,0.6-1.5,0-2.1L274.8,461.2z"/>
<path class="st0" d="M294.8,500.4c0.4,0,0.8-0.1,1.1-0.4c0.6-0.6,0.6-1.5,0-2.1L278,480c-0.6-0.6-1.5-0.6-2.1,0s-0.6,1.5,0,2.1  l17.9,17.9C294,500.2,294.4,500.4,294.8,500.4z"/>
<path class="st0" d="M277.4,496c0.4,0,0.8-0.1,1.1-0.4c0.6-0.6,0.6-1.5,0-2.1l-7.1-7.1c-0.6-0.6-1.5-0.6-2.1,0s-0.6,1.5,0,2.1  l7.1,7.1C276.6,495.9,277,496,277.4,496z"/>
<path class="st0" d="M357.5,446.7c0.4,0,0.8-0.1,1.1-0.4c0.6-0.6,0.6-1.5,0-2.1l-17-17l45.8-45.8l0,0l0,0l9.9-9.9  c8.1,7.5,18.6,11.6,29.7,11.6c6.1,0,12.1-1.2,17.6-3.7c0.8-0.3,1.1-1.2,0.8-2c-0.3-0.8-1.2-1.1-2-0.8c-5.2,2.3-10.7,3.4-16.4,3.4  c-10.3,0-20-3.8-27.5-10.7l5.8-5.8c0.6-0.6,0.6-1.5,0-2.1s-1.5-0.6-2.1,0l-5.8,5.8c-7.2-7.6-11.2-17.5-11.2-28.1  c0-9.8,3.5-19.3,9.9-26.7c0.5-0.6,0.5-1.6-0.2-2.1c-0.6-0.5-1.6-0.5-2.1,0.2c-6.9,7.9-10.6,18.1-10.6,28.6c0,11.4,4.3,22,12.1,30.2  l-3,3l-6.2-6.2c-0.6-0.6-1.5-0.6-2.1,0s-0.6,1.5,0,2.1l6.2,6.2l-3.7,3.7l-20.6-20.6c-0.6-0.6-1.5-0.6-2.1,0s-0.6,1.5,0,2.1  l20.6,20.6l-46.9,46.9l19.2,19.2C356.8,446.5,357.1,446.7,357.5,446.7z"/>
<path class="st0" d="M351.5,426.8c-0.6,0.6-0.6,1.5,0,2.1l17.9,17.9L344,472.1c-0.6,0.6-0.6,1.5,0,2.1c0.3,0.3,0.7,0.4,1.1,0.4  s0.8-0.1,1.1-0.4l27.4-27.4l-20-20C353,426.2,352,426.2,351.5,426.8z"/>
<path class="st0" d="M364.9,430.4l12.6,12.6l12.6-12.6c0.6-0.6,0.6-1.5,0-2.1s-1.5-0.6-2.1,0l-10.4,10.4L367,428.2  c-0.6-0.6-1.5-0.6-2.1,0S364.3,429.8,364.9,430.4z"/>
<path class="st0" d="M389,415.6l-11.2,11.2c-0.6,0.6-0.6,1.5,0,2.1s1.5,0.6,2.1,0l9.1-9.1l63.9,63.9c0.3,0.3,0.7,0.4,1.1,0.4  s0.8-0.1,1.1-0.4c0.6-0.6,0.6-1.5,0-2.1L389,415.6z"/>
<path class="st0" d="M394.7,435.4c-0.6-0.6-1.5-0.6-2.1,0s-0.6,1.5,0,2.1l28.1,28.1c0.3,0.3,0.7,0.4,1.1,0.4s0.8-0.1,1.1-0.4  c0.6-0.6,0.6-1.5,0-2.1L394.7,435.4z"/>
<path class="st0" d="M388.9,441.1c-0.6-0.6-1.5-0.6-2.1,0s-0.6,1.5,0,2.1l13,13c0.3,0.3,0.7,0.4,1.1,0.4s0.8-0.1,1.1-0.4  c0.6-0.6,0.6-1.5,0-2.1L388.9,441.1z"/>
<path class="st0" d="M347.7,346l-13.8,13.8l16.7,16.7c0.3,0.3,0.7,0.4,1.1,0.4s0.8-0.1,1.1-0.4c0.6-0.6,0.6-1.5,0-2.1l-14.6-14.6  l11.7-11.7c0.6-0.6,0.6-1.5,0-2.1S348.3,345.5,347.7,346z"/>
<path class="st0" d="M349.2,360.2c-0.6-0.6-1.5-0.6-2.1,0s-0.6,1.5,0,2.1l12.7,12.7l-18.3,18.3c-0.6,0.6-0.6,1.5,0,2.1  c0.3,0.3,0.7,0.4,1.1,0.4s0.8-0.1,1.1-0.4L364,375L349.2,360.2z"/>
<path class="st0" d="M345.9,383.5c0.6-0.6,0.6-1.5,0-2.1s-1.5-0.6-2.1,0l-15.2,15.2l14.8,14.8c0.3,0.3,0.7,0.4,1.1,0.4  s0.8-0.1,1.1-0.4c0.6-0.6,0.6-1.5,0-2.1l-12.7-12.7L345.9,383.5z"/>
<path class="st0" d="M322.5,395.7l-27.6,27.6c-0.6,0.6-0.6,1.5,0,2.1c0.3,0.3,0.7,0.4,1.1,0.4s0.8-0.1,1.1-0.4l25.5-25.5l10.5,10.5  c0.6,0.6,1.5,0.6,2.1,0s0.6-1.5,0-2.1L322.5,395.7z"/>
<path class="st0" d="M295.3,437.1l13.2-13.2c0.6-0.6,0.6-1.5,0-2.1s-1.5-0.6-2.1,0l-11.1,11.1l-29.8-29.8c-0.6-0.6-1.5-0.6-2.1,0  s-0.6,1.5,0,2.1L295.3,437.1z"/>
<path class="st0" d="M83.9,386.5c0.4,0,0.8-0.1,1.1-0.4l26.6-26.6c0.6-0.6,0.6-1.5,0-2.1s-1.5-0.6-2.1,0L82.8,384  c-0.6,0.6-0.6,1.5,0,2.1C83.1,386.4,83.5,386.5,83.9,386.5z"/>
<path class="st0" d="M91.7,363.2c0.4,0,0.8-0.1,1.1-0.4l11-11c0.6-0.6,0.6-1.5,0-2.1s-1.5-0.6-2.1,0l-11,11c-0.6,0.6-0.6,1.5,0,2.1  C90.9,363,91.3,363.2,91.7,363.2z"/>
<path class="st0" d="M34.6,353.3c0.4,0,0.8-0.1,1.1-0.4L52.5,336c0.6-0.6,0.6-1.5,0-2.1s-1.5-0.6-2.1,0l-16.8,16.8  c-0.6,0.6-0.6,1.5,0,2.1C33.9,353.1,34.3,353.3,34.6,353.3z"/>
<path class="st0" d="M43.9,327.4l-8.4,8.4c-0.6,0.6-0.6,1.5,0,2.1c0.3,0.3,0.7,0.4,1.1,0.4s0.8-0.1,1.1-0.4l8.4-8.4  c0.6-0.6,0.6-1.5,0-2.1S44.5,326.8,43.9,327.4z"/>
<path class="st0" d="M247.1,426.7c0.6-0.6,0.6-1.5,0-2.1s-1.5-0.6-2.1,0l-32.1,32.1l-2.4-2.4l5.1-5.1c0.6-0.6,0.6-1.5,0-2.1  s-1.5-0.6-2.1,0l-5.1,5.1l-5.6-5.6c0,0,0-0.1-0.1-0.1s-0.1,0-0.1-0.1l-6.3-6.3c-0.6-0.6-1.5-0.6-2.1,0s-0.6,1.5,0,2.1l5.3,5.3  c-5.7,5.2-13.1,8.1-20.9,8.1c-4.5,0-8.9-0.9-12.9-2.8c-0.8-0.3-1.6,0-2,0.7s0,1.6,0.7,2c4.5,2,9.2,3.1,14.2,3.1  c8.6,0,16.7-3.2,23-8.9l5.7,5.7l0,0l0,0l4.5,4.5l0,0l0,0l4.7,4.7l0,0l0,0l6.3,6.3l-18.2,18.2c-0.6,0.6-0.6,1.5,0,2.1  c0.3,0.3,0.7,0.4,1.1,0.4s0.8-0.1,1.1-0.4l20.3-20.3l-7.3-7.3l17.7-17.7c0.6-0.6,0.6-1.5,0-2.1s-1.5-0.6-2.1,0l-17.7,17.7l-2.6-2.6  L247.1,426.7z"/>
<path class="st0" d="M208,87.9c0.3,0.3,0.7,0.4,1.1,0.4s0.8-0.1,1.1-0.4c0.6-0.6,0.6-1.5,0-2.1l-21.3-21.3c-0.6-0.6-1.5-0.6-2.1,0  s-0.6,1.5,0,2.1L208,87.9z"/>
<path class="st0" d="M215.3,80.6c0.3,0.3,0.7,0.4,1.1,0.4s0.8-0.1,1.1-0.4c0.6-0.6,0.6-1.5,0-2.1l-8.7-8.7c-0.6-0.6-1.5-0.6-2.1,0  s-0.6,1.5,0,2.1L215.3,80.6z"/>
<path class="st0" d="M537.8,236.9c0.4,0,0.8-0.1,1.1-0.4l17.2-17.2c0.6-0.6,0.6-1.5,0-2.1s-1.5-0.6-2.1,0l-17.2,17.2  c-0.6,0.6-0.6,1.5,0,2.1C537.1,236.7,537.5,236.9,537.8,236.9z"/>
<path class="st0" d="M539.6,221.8c-0.6-0.6-1.5-0.6-2.1,0l-6.6,6.6c-0.6,0.6-0.6,1.5,0,2.1c0.3,0.3,0.7,0.4,1.1,0.4s0.8-0.1,1.1-0.4  l6.6-6.6C540.2,223.4,540.2,222.4,539.6,221.8z"/>
<path class="st0" d="M417.6,417.1c0.4,0,0.8-0.1,1.1-0.4l17.8-17.8c0.6-0.6,0.6-1.5,0-2.1s-1.5-0.6-2.1,0l-17.8,17.8  c-0.6,0.6-0.6,1.5,0,2.1C416.9,417,417.3,417.1,417.6,417.1z"/>
<path class="st0" d="M62.4,192.5c-0.6,0.6-0.6,1.5,0,2.1l23.2,23.2c0.3,0.3,0.7,0.4,1.1,0.4s0.8-0.1,1.1-0.4c0.6-0.6,0.6-1.5,0-2.1  l-23.2-23.2C63.9,191.9,63,191.9,62.4,192.5z"/>
<path class="st0" d="M76.5,423.8L52,448.3c-0.6,0.6-0.6,1.5,0,2.1c0.3,0.3,0.7,0.4,1.1,0.4s0.8-0.1,1.1-0.4l24.5-24.5  c0.6-0.6,0.6-1.5,0-2.1S77,423.2,76.5,423.8z"/>
<path class="st0" d="M413.6,38.8c0.3,0.3,0.7,0.4,1.1,0.4s0.8-0.1,1.1-0.4l25.4-25.4c0.6-0.6,0.6-1.5,0-2.1s-1.5-0.6-2.1,0  l-25.4,25.4C413,37.3,413,38.2,413.6,38.8z"/>
<path class="st0" d="M415.4,12.5c0.3,0.3,0.7,0.4,1.1,0.4s0.8-0.1,1.1-0.4c0.6-0.6,0.6-1.5,0-2.1l-8.2-8.2c-0.6-0.6-1.5-0.6-2.1,0  s-0.6,1.5,0,2.1L415.4,12.5z"/>
<path class="st0" d="M386.4,250.4c0.3,0.3,0.7,0.4,1.1,0.4s0.8-0.1,1.1-0.4l17.1-17.1c0.6-0.6,0.6-1.5,0-2.1s-1.5-0.6-2.1,0  l-17.1,17.1C385.9,248.9,385.9,249.8,386.4,250.4z"/>
<path class="st0" d="M70.6,146.5L35,182c-0.6,0.6-0.6,1.5,0,2.1c0.3,0.3,0.7,0.4,1.1,0.4s0.8-0.1,1.1-0.4l35.5-35.5  c0.6-0.6,0.6-1.5,0-2.1S71.1,145.9,70.6,146.5z"/>
<path class="st0" d="M38.8,155.6c0.3,0.3,0.7,0.4,1.1,0.4s0.8-0.1,1.1-0.4l9.7-9.7c0.6-0.6,0.6-1.5,0-2.1s-1.5-0.6-2.1,0l-9.7,9.7  C38.2,154.1,38.2,155,38.8,155.6z"/>
<path class="st0" d="M274.3,229.1c0.8,0.1,1.6-0.4,1.7-1.3c0.1-0.8-0.4-1.6-1.3-1.7c-3.2-0.5-6.4-0.7-9.6-0.7  c-10.4,0-20.6,2.6-29.7,7.5c-0.7,0.4-1,1.3-0.6,2c0.3,0.5,0.8,0.8,1.3,0.8c0.2,0,0.5-0.1,0.7-0.2c8.6-4.7,18.4-7.2,28.2-7.2  C268.2,228.4,271.3,228.7,274.3,229.1z"/>
<path class="st0" d="M298.6,351.4c0.7-0.4,1-1.3,0.6-2s-1.3-1-2-0.6c-9.8,5.1-20.9,7.9-32.1,7.9c-18.5,0-35.3-7.3-47.8-19.2  l13.9-13.9c0.6-0.6,0.6-1.5,0-2.1s-1.5-0.6-2.1,0l-13.9,13.9c-12-12.5-19.4-29.4-19.4-48c0-2,0.1-4,0.3-5.9c0.1-0.8-0.5-1.6-1.4-1.6  c-0.8-0.1-1.6,0.5-1.6,1.4c-0.2,2-0.3,4.1-0.3,6.2c0,19.4,7.7,37.1,20.2,50.1l-14.6,14.6c-0.6,0.6-0.6,1.5,0,2.1  c0.3,0.3,0.7,0.4,1.1,0.4s0.8-0.1,1.1-0.4l14.6-14.6c13,12.4,30.5,20.1,49.9,20.1C276.8,359.6,288.4,356.8,298.6,351.4z"/>
<path class="st0" d="M121.3,201.9c0,7.9,2.9,15.3,8.2,21.1l-37.6,37.6l24.1,24.1c0.3,0.3,0.7,0.4,1.1,0.4s0.8-0.1,1.1-0.4  c0.6-0.6,0.6-1.5,0-2.1l-22-22l29.4-29.4c4,3.7,8.8,6.6,14,8.4c0.2,0.1,0.3,0.1,0.5,0.1c0.6,0,1.2-0.4,1.4-1  c0.3-0.8-0.1-1.6-0.9-1.9c-4.7-1.6-9.1-4.3-12.8-7.7l4.5-4.5c0.2-0.1,0.4-0.2,0.6-0.3c0.2-0.2,0.3-0.3,0.3-0.5l6.5-6.5  c0.6-0.6,0.6-1.5,0-2.1s-1.5-0.6-2.1,0l-5.8,5.8c-4.7-5.2-7.3-11.9-7.3-19c0-15.6,12.7-28.2,28.2-28.2c7,0,13.7,2.6,18.9,7.3  c0.6,0.6,1.6,0.5,2.1-0.1c0.6-0.6,0.5-1.6-0.1-2.1c-5.7-5.2-13.2-8-20.9-8C135.3,170.7,121.3,184.7,121.3,201.9z"/>
<path class="st0" d="M179.8,213.9c-0.7-0.4-1.6-0.1-2,0.7c-2.6,5.2-6.9,9.6-12,12.3c-0.7,0.4-1,1.3-0.6,2c0.3,0.5,0.8,0.8,1.3,0.8  c0.2,0,0.5-0.1,0.7-0.2c5.7-3,10.4-7.8,13.3-13.6C180.8,215.2,180.5,214.3,179.8,213.9z"/>
<path class="st0" d="M142.1,163.5c-17.3,4.7-29.4,20.5-29.4,38.4c0,7.3,2,14.4,5.7,20.6c0.3,0.5,0.8,0.7,1.3,0.7  c0.3,0,0.5-0.1,0.8-0.2c0.7-0.4,0.9-1.4,0.5-2.1c-3.5-5.7-5.3-12.3-5.3-19.1c0-16.6,11.2-31.2,27.1-35.5c0.8-0.2,1.3-1,1.1-1.8  C143.7,163.8,142.9,163.3,142.1,163.5z"/>
<path class="st0" d="M164.3,163.9c-0.8-0.2-1.6,0.2-1.9,1c-0.2,0.8,0.2,1.6,1,1.9c9.4,2.9,17.4,9.7,21.9,18.5  c0.3,0.5,0.8,0.8,1.3,0.8c0.2,0,0.5-0.1,0.7-0.2c0.7-0.4,1-1.3,0.7-2C183.2,174.4,174.5,167.1,164.3,163.9z"/>
<path class="st0" d="M454.6,234.5c6.1,0,12.1-1,17.8-3.1c0.8-0.3,1.2-1.1,0.9-1.9c-0.3-0.8-1.1-1.2-1.9-0.9  c-5.4,1.9-11,2.9-16.8,2.9c-27.2,0-49.4-22.2-49.4-49.4c0-6.4,1.2-12.7,3.6-18.6c0.3-0.8-0.1-1.6-0.8-2c-0.8-0.3-1.6,0.1-2,0.8  c-2.5,6.3-3.8,12.9-3.8,19.7C402.2,211,425.7,234.5,454.6,234.5z"/>
<path class="st0" d="M403.9,149.8c-0.7-0.4-1.6-0.2-2.1,0.5c-5.8,9.6-8.8,20.5-8.8,31.8c0,6,0.8,11.8,2.5,17.5  c0.2,0.7,0.8,1.1,1.4,1.1c0.1,0,0.3,0,0.4-0.1c0.8-0.2,1.2-1.1,1-1.9c-1.6-5.4-2.4-11-2.4-16.6c0-10.7,2.9-21.1,8.4-30.2  C404.8,151.2,404.6,150.3,403.9,149.8z"/>
<path class="st0" d="M433.6,240c6.7,2.4,13.8,3.7,21,3.7c11,0,21.8-2.9,31.2-8.5c0.7-0.4,1-1.3,0.5-2.1c-0.4-0.7-1.3-1-2.1-0.5  c-9,5.3-19.2,8.1-29.7,8.1c-6.9,0-13.6-1.2-20-3.5c-0.8-0.3-1.6,0.1-1.9,0.9S432.9,239.8,433.6,240z"/>
<path class="st0" d="M514.1,198.4c1.4-5.3,2.2-10.8,2.2-16.3c0-4.8-0.5-9.5-1.6-14.1c-0.2-0.8-1-1.3-1.8-1.1s-1.3,1-1.1,1.8  c1,4.4,1.5,8.9,1.5,13.5c0,5.3-0.7,10.5-2.1,15.5c-0.2,0.8,0.3,1.6,1.1,1.8c0.1,0,0.3,0.1,0.4,0.1  C513.3,199.5,513.9,199,514.1,198.4z"/>
<path class="st0" d="M416.1,299.6c0.1,0,0.3,0,0.4,0c4.4-1.2,9.1-1.6,13.6-1.2c0.8,0.1,1.5-0.6,1.6-1.4s-0.6-1.5-1.4-1.6  c-4.9-0.4-9.9,0.1-14.6,1.3c-0.8,0.2-1.3,1-1.1,1.8C414.9,299.1,415.5,299.6,416.1,299.6z"/>
<path class="st0" d="M377.7,325c-0.8-0.2-1.6,0.3-1.8,1.1c-1.1,4.2-1.6,8.6-1.6,13c0,3.6,0.4,7.1,1.1,10.6c0.1,0.7,0.8,1.2,1.5,1.2  c0.1,0,0.2,0,0.3,0c0.8-0.2,1.3-1,1.2-1.8c-0.7-3.3-1-6.6-1-10c0-4.1,0.5-8.3,1.5-12.2C379,326,378.5,325.2,377.7,325z"/>
<path class="st0" d="M468.1,369.5c-0.2-0.1-0.4-0.2-0.6-0.3l-4.8-4.8c5.3-7.5,8.1-16.2,8.1-25.4c0-10-3.4-19.7-9.7-27.5  c-0.5-0.6-1.5-0.7-2.1-0.2s-0.7,1.5-0.2,2.1c5.8,7.2,9,16.3,9,25.6c0,8.4-2.5,16.4-7.3,23.3l-5.4-5.4c-0.6-0.6-1.5-0.6-2.1,0  s-0.6,1.5,0,2.1l6.3,6.3c0.1,0.2,0.2,0.4,0.4,0.5c0.1,0.1,0.1,0.1,0.2,0.1l5,5c-9.5,11.3-23.2,17.7-38,17.7c-0.8,0-1.5,0.7-1.5,1.5  s0.7,1.5,1.5,1.5c15.6,0,30.1-6.8,40.1-18.6l23.5,23.5L480,407.2c-0.6,0.6-0.6,1.5,0,2.1c0.3,0.3,0.7,0.4,1.1,0.4s0.8-0.1,1.1-0.4  l12.7-12.7l-26.2-26.2C468.5,370.1,468.3,369.8,468.1,369.5z"/>
<path class="st0" d="M461.6,299.4c-0.6-0.5-1.6-0.5-2.1,0.1s-0.5,1.6,0.1,2.1c6.5,5.7,11.4,13,14.2,21.1c0.2,0.6,0.8,1,1.4,1  c0.2,0,0.3,0,0.5-0.1c0.8-0.3,1.2-1.1,0.9-1.9C473.7,313.2,468.5,305.4,461.6,299.4z"/>
<path class="st0" d="M304.6,104.7c-0.8-0.3-1.6,0.2-1.9,0.9c-0.3,0.8,0.2,1.6,0.9,1.9c14.9,4.9,24.9,18.8,24.9,34.5  c0,14-7.8,26.5-20.4,32.7c-0.7,0.4-1.1,1.3-0.7,2c0.3,0.5,0.8,0.8,1.3,0.8c0.2,0,0.4,0,0.7-0.2c13.6-6.7,22.1-20.2,22.1-35.4  C331.5,125,320.7,110,304.6,104.7z"/>
<path class="st0" d="M279.2,179.1c0.6,0,1.2-0.4,1.4-1c0.3-0.8-0.1-1.6-0.9-1.9c-14.3-5.2-23.9-18.9-23.9-34.2c0-3.7,0.6-7.4,1.7-11  c0.2-0.8-0.2-1.6-1-1.9c-0.8-0.3-1.6,0.2-1.9,1c-1.2,3.8-1.8,7.8-1.8,11.9c0,16.5,10.4,31.3,25.9,37  C278.9,179.1,279,179.1,279.2,179.1z"/>
<path class="st0" d="M253.4,117.9c-0.7-0.4-1.6-0.2-2,0.5c-4.1,7.1-6.3,15.3-6.3,23.6c0,0.8,0.7,1.5,1.5,1.5s1.5-0.7,1.5-1.5  c0-7.8,2-15.4,5.9-22.1C254.3,119.2,254.1,118.3,253.4,117.9z"/>
<path class="st0" d="M290.7,96.3c0,0.8,0.7,1.5,1.5,1.5c24.4,0,44.2,19.8,44.2,44.2c0,0.8,0.7,1.5,1.5,1.5s1.5-0.7,1.5-1.5  c0-26-21.2-47.2-47.2-47.2C291.3,94.8,290.7,95.5,290.7,96.3z"/>
<path class="st0" d="M209.7,424.5c0,0.8,0.7,1.5,1.5,1.5s1.5-0.7,1.5-1.5c0-18.8-15.3-34.1-34.1-34.1s-34.1,15.3-34.1,34.1  c0,0.8,0.7,1.5,1.5,1.5s1.5-0.7,1.5-1.5c0-17.2,14-31.1,31.1-31.1S209.7,407.3,209.7,424.5z"/>
<path class="st0" d="M158.5,387.6c-13.5,7.4-22,21.5-22,36.9c0,0.8,0.7,1.5,1.5,1.5s1.5-0.7,1.5-1.5c0-14.3,7.8-27.4,20.4-34.2  c0.7-0.4,1-1.3,0.6-2C160.2,387.5,159.3,387.2,158.5,387.6z"/>
<path class="st0" d="M195.1,461.4c-0.3-0.8-1.2-1.1-2-0.8c-4.6,1.9-9.5,2.8-14.6,2.8c-0.8,0-1.5,0.7-1.5,1.5s0.7,1.5,1.5,1.5  c5.4,0,10.7-1,15.7-3C195,463.1,195.4,462.2,195.1,461.4z"/>
<g class="st1">
	<path class="st2" d="M265.2,339.9c-28.9,0-52.5-23.6-52.5-52.5s23.6-52.5,52.5-52.5s52.5,23.6,52.5,52.5S294.1,339.9,265.2,339.9z    M265.2,240.9c-25.6,0-46.5,20.9-46.5,46.5s20.9,46.5,46.5,46.5s46.5-20.9,46.5-46.5C311.7,261.7,290.8,240.9,265.2,240.9z"/>
	<path class="st3" d="M426.9,374.7c-19.7,0-35.7-16-35.7-35.7s16-35.7,35.7-35.7s35.7,16,35.7,35.7S446.6,374.7,426.9,374.7z    M426.9,309.4c-16.4,0-29.7,13.3-29.7,29.7s13.3,29.7,29.7,29.7s29.7-13.3,29.7-29.7S443.3,309.4,426.9,309.4z"/>
	<path class="st4" d="M178.5,450c-14.1,0-25.5-11.4-25.5-25.5s11.4-25.5,25.5-25.5s25.5,11.4,25.5,25.5S192.6,450,178.5,450z    M178.5,405c-10.8,0-19.5,8.7-19.5,19.5s8.7,19.5,19.5,19.5s19.5-8.7,19.5-19.5S189.3,405,178.5,405z"/>
	<path class="st4" d="M454.6,225.5c-23.9,0-43.4-19.5-43.4-43.4s19.5-43.4,43.4-43.4s43.4,19.5,43.4,43.4S478.5,225.5,454.6,225.5z    M454.6,144.7c-20.6,0-37.4,16.8-37.4,37.4s16.8,37.4,37.4,37.4s37.4-16.8,37.4-37.4S475.2,144.7,454.6,144.7z"/>
	<path class="st5" d="M292.2,172.5c-16.8,0-30.5-13.7-30.5-30.5s13.7-30.5,30.5-30.5s30.5,13.7,30.5,30.5S309,172.5,292.2,172.5z    M292.2,117.5c-13.5,0-24.5,11-24.5,24.5s11,24.5,24.5,24.5s24.5-11,24.5-24.5S305.7,117.5,292.2,117.5z"/>
	<path class="st6" d="M152.5,225.1c-12.8,0-23.2-10.4-23.2-23.2s10.4-23.2,23.2-23.2s23.2,10.4,23.2,23.2S165.3,225.1,152.5,225.1z    M152.5,184.8c-9.5,0-17.2,7.7-17.2,17.2s7.7,17.2,17.2,17.2s17.2-7.7,17.2-17.2S162,184.8,152.5,184.8z"/>
</g>
</svg>