<svg xmlns="http://www.w3.org/2000/svg" height="937.5pt" version="1.1" viewBox="0 0 937.5 937.5" width="937.5pt">
<g id="surface1">
<path d="M 921.875 0 L 328.125 0 C 319.492188 0 312.5 6.992188 312.5 15.625 L 312.5 140.625 C 312.5 149.257812 319.492188 156.25 328.125 156.25 L 375 156.25 L 375 187.5 L 328.125 187.5 C 319.492188 187.5 312.5 194.492188 312.5 203.125 L 312.5 218.75 L 906.25 218.75 L 906.25 312.5 L 781.25 312.5 L 781.25 406.25 L 906.25 406.25 L 906.25 500 L 781.25 500 L 781.25 593.75 L 906.25 593.75 L 906.25 687.5 L 781.25 687.5 L 781.25 765.625 C 781.25 774.257812 788.242188 781.25 796.875 781.25 L 859.375 781.25 C 868.007812 781.25 875 774.257812 875 765.625 L 875 718.75 L 921.875 718.75 C 930.507812 718.75 937.5 711.757812 937.5 703.125 L 937.5 578.125 C 937.5 569.492188 930.507812 562.5 921.875 562.5 L 875 562.5 L 875 531.25 L 921.875 531.25 C 930.507812 531.25 937.5 524.257812 937.5 515.625 L 937.5 390.625 C 937.5 381.992188 930.507812 375 921.875 375 L 875 375 L 875 343.75 L 921.875 343.75 C 930.507812 343.75 937.5 336.757812 937.5 328.125 L 937.5 203.125 C 937.5 194.492188 930.507812 187.5 921.875 187.5 L 875 187.5 L 875 156.25 L 921.875 156.25 C 930.507812 156.25 937.5 149.257812 937.5 140.625 L 937.5 15.625 C 937.5 6.992188 930.507812 0 921.875 0 Z M 843.75 375 L 812.5 375 L 812.5 343.75 L 843.75 343.75 Z M 843.75 562.5 L 812.5 562.5 L 812.5 531.25 L 843.75 531.25 Z M 843.75 750 L 812.5 750 L 812.5 718.75 L 843.75 718.75 Z M 437.5 187.5 L 406.25 187.5 L 406.25 156.25 L 437.5 156.25 Z M 781.25 187.5 L 468.75 187.5 L 468.75 156.25 L 781.25 156.25 Z M 843.75 187.5 L 812.5 187.5 L 812.5 156.25 L 843.75 156.25 Z M 906.25 125 L 343.75 125 L 343.75 31.25 L 906.25 31.25 Z M 906.25 125 " style=" stroke:none;fill-rule:nonzero;fill:rgb(0%,0%,0%);fill-opacity:1;" />
<path d="M 843.75 62.5 L 875 62.5 L 875 93.75 L 843.75 93.75 Z M 843.75 62.5 " style=" stroke:none;fill-rule:nonzero;fill:rgb(0%,0%,0%);fill-opacity:1;" />
<path d="M 781.25 62.5 L 812.5 62.5 L 812.5 93.75 L 781.25 93.75 Z M 781.25 62.5 " style=" stroke:none;fill-rule:nonzero;fill:rgb(0%,0%,0%);fill-opacity:1;" />
<path d="M 718.75 62.5 L 750 62.5 L 750 93.75 L 718.75 93.75 Z M 718.75 62.5 " style=" stroke:none;fill-rule:nonzero;fill:rgb(0%,0%,0%);fill-opacity:1;" />
<path d="M 375 62.5 L 406.25 62.5 L 406.25 93.75 L 375 93.75 Z M 375 62.5 " style=" stroke:none;fill-rule:nonzero;fill:rgb(0%,0%,0%);fill-opacity:1;" />
<path d="M 843.75 250 L 875 250 L 875 281.25 L 843.75 281.25 Z M 843.75 250 " style=" stroke:none;fill-rule:nonzero;fill:rgb(0%,0%,0%);fill-opacity:1;" />
<path d="M 781.25 250 L 812.5 250 L 812.5 281.25 L 781.25 281.25 Z M 781.25 250 " style=" stroke:none;fill-rule:nonzero;fill:rgb(0%,0%,0%);fill-opacity:1;" />
<path d="M 843.75 437.5 L 875 437.5 L 875 468.75 L 843.75 468.75 Z M 843.75 437.5 " style=" stroke:none;fill-rule:nonzero;fill:rgb(0%,0%,0%);fill-opacity:1;" />
<path d="M 781.25 437.5 L 812.5 437.5 L 812.5 468.75 L 781.25 468.75 Z M 781.25 437.5 " style=" stroke:none;fill-rule:nonzero;fill:rgb(0%,0%,0%);fill-opacity:1;" />
<path d="M 843.75 625 L 875 625 L 875 656.25 L 843.75 656.25 Z M 843.75 625 " style=" stroke:none;fill-rule:nonzero;fill:rgb(0%,0%,0%);fill-opacity:1;" />
<path d="M 781.25 625 L 812.5 625 L 812.5 656.25 L 781.25 656.25 Z M 781.25 625 " style=" stroke:none;fill-rule:nonzero;fill:rgb(0%,0%,0%);fill-opacity:1;" />
<path d="M 62.5 937.5 L 687.5 937.5 C 722.015625 937.5 750 909.515625 750 875 L 750 312.5 C 750 277.984375 722.015625 250 687.5 250 L 62.5 250 C 27.984375 250 0 277.984375 0 312.5 L 0 875 C 0 909.515625 27.984375 937.5 62.5 937.5 Z M 31.25 312.5 C 31.25 295.238281 45.238281 281.25 62.5 281.25 L 687.5 281.25 C 704.761719 281.25 718.75 295.238281 718.75 312.5 L 718.75 875 C 718.75 892.261719 704.761719 906.25 687.5 906.25 L 62.5 906.25 C 45.238281 906.25 31.25 892.261719 31.25 875 Z M 31.25 312.5 " style=" stroke:none;fill-rule:nonzero;fill:rgb(0%,0%,0%);fill-opacity:1;" />
<path d="M 62.5 312.5 L 93.75 312.5 L 93.75 343.75 L 62.5 343.75 Z M 62.5 312.5 " style=" stroke:none;fill-rule:nonzero;fill:rgb(0%,0%,0%);fill-opacity:1;" />
<path d="M 125 312.5 L 156.25 312.5 L 156.25 343.75 L 125 343.75 Z M 125 312.5 " style=" stroke:none;fill-rule:nonzero;fill:rgb(0%,0%,0%);fill-opacity:1;" />
<path d="M 187.5 312.5 L 218.75 312.5 L 218.75 343.75 L 187.5 343.75 Z M 187.5 312.5 " style=" stroke:none;fill-rule:nonzero;fill:rgb(0%,0%,0%);fill-opacity:1;" />
<path d="M 62.5 375 L 687.5 375 L 687.5 406.25 L 62.5 406.25 Z M 62.5 375 " style=" stroke:none;fill-rule:nonzero;fill:rgb(0%,0%,0%);fill-opacity:1;" />
<path d="M 78.125 656.25 L 671.875 656.25 C 680.507812 656.25 687.5 649.257812 687.5 640.625 L 687.5 453.125 C 687.5 444.492188 680.507812 437.5 671.875 437.5 L 78.125 437.5 C 69.492188 437.5 62.5 444.492188 62.5 453.125 L 62.5 640.625 C 62.5 649.257812 69.492188 656.25 78.125 656.25 Z M 93.75 468.75 L 656.25 468.75 L 656.25 625 L 93.75 625 Z M 93.75 468.75 " style=" stroke:none;fill-rule:nonzero;fill:rgb(0%,0%,0%);fill-opacity:1;" />
<path d="M 359.375 562.5 L 390.625 562.5 L 390.625 593.75 L 359.375 593.75 Z M 359.375 562.5 " style=" stroke:none;fill-rule:nonzero;fill:rgb(0%,0%,0%);fill-opacity:1;" />
<path d="M 296.875 562.5 L 328.125 562.5 L 328.125 593.75 L 296.875 593.75 Z M 296.875 562.5 " style=" stroke:none;fill-rule:nonzero;fill:rgb(0%,0%,0%);fill-opacity:1;" />
<path d="M 234.375 562.5 L 265.625 562.5 L 265.625 593.75 L 234.375 593.75 Z M 234.375 562.5 " style=" stroke:none;fill-rule:nonzero;fill:rgb(0%,0%,0%);fill-opacity:1;" />
<path d="M 421.875 562.5 L 453.125 562.5 L 453.125 593.75 L 421.875 593.75 Z M 421.875 562.5 " style=" stroke:none;fill-rule:nonzero;fill:rgb(0%,0%,0%);fill-opacity:1;" />
<path d="M 484.375 562.5 L 515.625 562.5 L 515.625 593.75 L 484.375 593.75 Z M 484.375 562.5 " style=" stroke:none;fill-rule:nonzero;fill:rgb(0%,0%,0%);fill-opacity:1;" />
<path d="M 78.125 812.5 L 234.375 812.5 C 243.007812 812.5 250 805.507812 250 796.875 L 250 703.125 C 250 694.492188 243.007812 687.5 234.375 687.5 L 78.125 687.5 C 69.492188 687.5 62.5 694.492188 62.5 703.125 L 62.5 796.875 C 62.5 805.507812 69.492188 812.5 78.125 812.5 Z M 93.75 718.75 L 218.75 718.75 L 218.75 781.25 L 93.75 781.25 Z M 93.75 718.75 " style=" stroke:none;fill-rule:nonzero;fill:rgb(0%,0%,0%);fill-opacity:1;" />
<path d="M 453.125 687.5 L 296.875 687.5 C 288.242188 687.5 281.25 694.492188 281.25 703.125 L 281.25 796.875 C 281.25 805.507812 288.242188 812.5 296.875 812.5 L 453.125 812.5 C 461.757812 812.5 468.75 805.507812 468.75 796.875 L 468.75 703.125 C 468.75 694.492188 461.757812 687.5 453.125 687.5 Z M 437.5 781.25 L 312.5 781.25 L 312.5 718.75 L 437.5 718.75 Z M 437.5 781.25 " style=" stroke:none;fill-rule:nonzero;fill:rgb(0%,0%,0%);fill-opacity:1;" />
<path d="M 671.875 687.5 L 515.625 687.5 C 506.992188 687.5 500 694.492188 500 703.125 L 500 796.875 C 500 805.507812 506.992188 812.5 515.625 812.5 L 671.875 812.5 C 680.507812 812.5 687.5 805.507812 687.5 796.875 L 687.5 703.125 C 687.5 694.492188 680.507812 687.5 671.875 687.5 Z M 656.25 781.25 L 531.25 781.25 L 531.25 718.75 L 656.25 718.75 Z M 656.25 781.25 " style=" stroke:none;fill-rule:nonzero;fill:rgb(0%,0%,0%);fill-opacity:1;" />
<path d="M 62.5 843.75 L 250 843.75 L 250 875 L 62.5 875 Z M 62.5 843.75 " style=" stroke:none;fill-rule:nonzero;fill:rgb(0%,0%,0%);fill-opacity:1;" />
<path d="M 281.25 843.75 L 468.75 843.75 L 468.75 875 L 281.25 875 Z M 281.25 843.75 " style=" stroke:none;fill-rule:nonzero;fill:rgb(0%,0%,0%);fill-opacity:1;" />
<path d="M 500 843.75 L 687.5 843.75 L 687.5 875 L 500 875 Z M 500 843.75 " style=" stroke:none;fill-rule:nonzero;fill:rgb(0%,0%,0%);fill-opacity:1;" />
</g>
</svg>