<?xml version="1.0" encoding="utf-8"?>
<!-- Generator: Adobe Illustrator 22.1.0, SVG Export Plug-In . SVG Version: 6.00 Build 0)  -->
<svg version="1.1" id="Layer_1" xmlns="http://www.w3.org/2000/svg" xmlns:xlink="http://www.w3.org/1999/xlink" x="0px" y="0px"
	 viewBox="0 0 2370 2500" style="enable-background:new 0 0 2370 2500;" xml:space="preserve">
<style type="text/css">
	.st0{fill:#B3B3B3;}
	.st1{fill:#A6120D;}
	.st2{fill:#DD1B16;}
	.st3{fill:#F2F2F2;}
</style>
<path class="st0" d="M1182.5,398.7l-801.3,282l126.6,1049.9l675.5,371.3l679-376.3L1989,675.7L1182.5,398.7z"/>
<path class="st1" d="M1909.1,736.4L1180.7,488v1525.2l610.4-337.8L1909.1,736.4L1909.1,736.4z"/>
<path class="st2" d="M471.1,740.8l108.5,938.9l601,333.4V487.9L471.1,740.8L471.1,740.8z"/>
<path class="st3" d="M1381.2,1299.9l-200.5,93.8H969.3L870,1642.1l-184.8,3.4l495.4-1102.2L1381.2,1299.9L1381.2,1299.9z
	 M1361.8,1252.7L1182,896.7l-147.5,349.8h146.1L1361.8,1252.7L1361.8,1252.7z"/>
<path class="st0" d="M1180.7,543.3l1.3,353.4l167.3,350.1H1181l-0.4,146.6l232.7,0.2l108.8,251.9l176.8,3.3L1180.7,543.3
	L1180.7,543.3z"/>
</svg>
