<?xml version="1.0" encoding="utf-8"?>
<!-- Generator: Adobe Illustrator 22.1.0, SVG Export Plug-In . SVG Version: 6.00 Build 0)  -->
<svg version="1.1"
	 id="svg2" inkscape:export-filename="/home/amarcuse/site/hackerlogos/www/logos/getbootstrap/getbootstrap-120x60.png" inkscape:export-xdpi="90" inkscape:export-ydpi="90" inkscape:version="0.48.4 r9939" sodipodi:docname="getbootstrap-ar21.svg" xmlns:cc="http://creativecommons.org/ns#" xmlns:dc="http://purl.org/dc/elements/1.1/" xmlns:inkscape="http://www.inkscape.org/namespaces/inkscape" xmlns:rdf="http://www.w3.org/1999/02/22-rdf-syntax-ns#" xmlns:sodipodi="http://sodipodi.sourceforge.net/DTD/sodipodi-0.dtd" xmlns:svg="http://www.w3.org/2000/svg"
	 xmlns="http://www.w3.org/2000/svg" xmlns:xlink="http://www.w3.org/1999/xlink" x="0px" y="0px" viewBox="0 0 182 131.2"
	 style="enable-background:new 0 0 182 131.2;" xml:space="preserve">
<style type="text/css">
	.st0{fill:url(#rect3050_1_);}
	.st1{fill:#FFFFFF;}
	.st2{fill:#230F3D;}
</style>
<sodipodi:namedview  bordercolor="#666666" borderopacity="1" fit-margin-bottom="0" fit-margin-left="0" fit-margin-right="0" fit-margin-top="0" gridtolerance="10" guidetolerance="10" id="namedview2996" inkscape:current-layer="svg2" inkscape:cx="66.925755" inkscape:cy="32.474244" inkscape:pageopacity="0" inkscape:pageshadow="2" inkscape:window-height="1120" inkscape:window-maximized="0" inkscape:window-width="1455" inkscape:window-x="65" inkscape:window-y="24" inkscape:zoom="9.1917415" objecttolerance="10" pagecolor="#ffffff" showgrid="false">
	</sodipodi:namedview>
<g>
	<g id="layer1" transform="matrix(0.24689707,0,0,0.24689707,-19.062479,-101.55154)">
		
			<linearGradient id="rect3050_1_" gradientUnits="userSpaceOnUse" x1="3542.3491" y1="-3315.8884" x2="3789.6531" y2="-3064.2651" gradientTransform="matrix(0.2469 0 0 -0.2469 -553.0225 -129.1884)">
			<stop  offset="0" style="stop-color:#070135"/>
			<stop  offset="1" style="stop-color:#612D50"/>
		</linearGradient>
		<path id="rect3050" class="st0" d="M350.7,422.2h190.1c25.1,0,45.4,20.3,45.4,45.4v191.2c0,25-20.3,45.4-45.4,45.4H350.7
			c-25.1,0-45.4-20.3-45.4-45.4V467.5C305.4,442.5,325.7,422.2,350.7,422.2z"/>
		<g id="text3836" transform="scale(1.0052013,0.99482561)">
			<path id="path3841" inkscape:connector-curvature="0" class="st1" d="M445.6,546.4c7.1,0,12.5-1.6,16.2-4.7
				c3.7-3.1,5.5-7.8,5.5-13.9c0-6-1.8-10.6-5.5-13.8c-3.7-3.2-9.1-4.8-16.2-4.8h-25v37.2L445.6,546.4 M447.1,623.2
				c9.1,0,15.9-1.9,20.5-5.8c4.6-3.8,6.9-9.6,6.9-17.4c0-7.6-2.3-13.3-6.8-17.1c-4.5-3.8-11.4-5.8-20.6-5.8h-26.6v46H447.1
				 M489.2,560c9.7,2.8,17.2,8,22.6,15.6c5.3,7.6,8,16.9,8,28c0,16.9-5.7,29.6-17.2,37.9c-11.4,8.3-28.8,12.5-52.2,12.5h-75.1V478.4
				h68c24.4,0,42,3.7,52.9,11.1c11,7.4,16.5,19.2,16.5,35.4c0,8.5-2,15.8-6,21.9C502.6,552.7,496.8,557.1,489.2,560"/>
		</g>
	</g>
	<g>
		<path id="path3762" inkscape:connector-curvature="0" class="st2" d="M3.8,106.9v10.4H10c2.1,0,3.6-0.4,4.6-1.3
			c1-0.9,1.5-2.2,1.5-3.9c0-1.8-0.5-3.1-1.5-3.9c-1-0.8-2.5-1.3-4.6-1.3H3.8 M3.8,95.2v8.5h5.7c1.9,0,3.3-0.3,4.2-1
			c0.9-0.7,1.4-1.8,1.4-3.2c0-1.4-0.5-2.5-1.4-3.2c-0.9-0.7-2.3-1.1-4.2-1.1H3.8 M0,92.1h9.8c2.9,0,5.2,0.6,6.8,1.8
			c1.6,1.2,2.4,2.9,2.4,5.2c0,1.7-0.4,3.1-1.2,4.1c-0.8,1-2,1.7-3.6,1.9c1.9,0.4,3.3,1.3,4.4,2.5c1.1,1.3,1.6,2.9,1.6,4.8
			c0,2.5-0.9,4.5-2.6,5.9c-1.7,1.4-4.2,2.1-7.3,2.1H0L0,92.1"/>
		<path id="path3764" inkscape:connector-curvature="0" class="st2" d="M34.5,101.6c-1.9,0-3.4,0.7-4.4,2.2c-1.1,1.5-1.6,3.5-1.6,6
			c0,2.5,0.5,4.5,1.6,6c1.1,1.5,2.6,2.2,4.5,2.2c1.9,0,3.3-0.7,4.4-2.2c1.1-1.5,1.6-3.5,1.6-6c0-2.5-0.5-4.5-1.6-6
			C37.9,102.4,36.4,101.6,34.5,101.6 M34.5,98.7c3,0,5.4,1,7.2,3c1.7,2,2.6,4.7,2.6,8.2c0,3.5-0.9,6.2-2.6,8.2c-1.7,2-4.1,3-7.2,3
			c-3,0-5.4-1-7.2-3c-1.7-2-2.6-4.7-2.6-8.2c0-3.5,0.9-6.2,2.6-8.2C29.1,99.6,31.5,98.7,34.5,98.7"/>
		<path id="path3766" inkscape:connector-curvature="0" class="st2" d="M58.1,101.6c-1.9,0-3.4,0.7-4.4,2.2c-1.1,1.5-1.6,3.5-1.6,6
			c0,2.5,0.5,4.5,1.6,6c1.1,1.5,2.6,2.2,4.5,2.2c1.9,0,3.3-0.7,4.4-2.2c1.1-1.5,1.6-3.5,1.6-6c0-2.5-0.5-4.5-1.6-6
			C61.4,102.4,60,101.6,58.1,101.6 M58.1,98.7c3,0,5.4,1,7.2,3c1.7,2,2.6,4.7,2.6,8.2c0,3.5-0.9,6.2-2.6,8.2c-1.7,2-4.1,3-7.2,3
			c-3,0-5.4-1-7.2-3c-1.7-2-2.6-4.7-2.6-8.2c0-3.5,0.9-6.2,2.6-8.2C52.7,99.6,55.1,98.7,58.1,98.7"/>
		<path id="path3768" inkscape:connector-curvature="0" class="st2" d="M76.9,93.1v6h7.2v2.7h-7.2v11.5c0,1.7,0.2,2.8,0.7,3.3
			c0.5,0.5,1.4,0.7,2.9,0.7h3.6v2.9h-3.6c-2.7,0-4.6-0.5-5.6-1.5c-1-1-1.5-2.8-1.5-5.5v-11.5h-2.6v-2.7h2.6v-6H76.9"/>
		<path id="path3770" inkscape:connector-curvature="0" class="st2" d="M102,99.8v3.3c-1-0.5-2-0.9-3.1-1.1
			c-1.1-0.3-2.2-0.4-3.3-0.4c-1.7,0-3,0.3-3.9,0.8c-0.9,0.5-1.3,1.3-1.3,2.4c0,0.8,0.3,1.4,0.9,1.9c0.6,0.5,1.9,0.9,3.7,1.3l1.2,0.3
			c2.5,0.5,4.2,1.3,5.3,2.3c1.1,1,1.6,2.3,1.6,4c0,2-0.8,3.5-2.4,4.7c-1.6,1.2-3.7,1.7-6.4,1.7c-1.1,0-2.3-0.1-3.6-0.3
			c-1.2-0.2-2.5-0.5-3.9-1V116c1.3,0.7,2.6,1.2,3.8,1.5c1.3,0.3,2.5,0.5,3.7,0.5c1.6,0,2.9-0.3,3.8-0.8c0.9-0.6,1.3-1.4,1.3-2.4
			c0-0.9-0.3-1.7-1-2.2c-0.6-0.5-2-1-4.2-1.5l-1.2-0.3c-2.2-0.5-3.7-1.2-4.7-2.1c-1-0.9-1.4-2.2-1.4-3.9c0-2,0.7-3.5,2.1-4.6
			c1.4-1.1,3.4-1.6,6-1.6c1.3,0,2.5,0.1,3.6,0.3C100,99.1,101.1,99.4,102,99.8"/>
		<path id="path3772" inkscape:connector-curvature="0" class="st2" d="M112,93.1v6h7.2v2.7H112v11.5c0,1.7,0.2,2.8,0.7,3.3
			c0.5,0.5,1.4,0.7,2.9,0.7h3.6v2.9h-3.6c-2.7,0-4.6-0.5-5.6-1.5c-1-1-1.5-2.8-1.5-5.5v-11.5H106v-2.7h2.6v-6H112"/>
		<path id="path3774" inkscape:connector-curvature="0" class="st2" d="M136,102.4c-0.4-0.2-0.8-0.4-1.3-0.5c-0.5-0.1-1-0.2-1.5-0.2
			c-2,0-3.5,0.6-4.6,1.9c-1.1,1.3-1.6,3.1-1.6,5.5v11.2h-3.5V99.2h3.5v3.3c0.7-1.3,1.7-2.2,2.9-2.9c1.2-0.6,2.6-0.9,4.3-0.9
			c0.2,0,0.5,0,0.8,0.1c0.3,0,0.6,0.1,1,0.1L136,102.4"/>
		<path id="path3776" inkscape:connector-curvature="0" class="st2" d="M149.1,109.7c-2.8,0-4.8,0.3-5.9,1c-1.1,0.6-1.6,1.7-1.6,3.3
			c0,1.2,0.4,2.2,1.2,3c0.8,0.7,1.9,1.1,3.3,1.1c1.9,0,3.5-0.7,4.6-2c1.2-1.4,1.8-3.2,1.8-5.5v-0.8H149.1 M156.1,108.3v12.1h-3.5
			v-3.2c-0.8,1.3-1.8,2.2-3,2.9c-1.2,0.6-2.6,0.9-4.4,0.9c-2.2,0-3.9-0.6-5.2-1.8c-1.3-1.2-1.9-2.9-1.9-4.9c0-2.4,0.8-4.2,2.4-5.4
			c1.6-1.2,4-1.8,7.2-1.8h4.9v-0.3c0-1.6-0.5-2.8-1.6-3.7c-1.1-0.9-2.5-1.3-4.4-1.3c-1.2,0-2.4,0.1-3.5,0.4
			c-1.2,0.3-2.3,0.7-3.3,1.3v-3.2c1.3-0.5,2.5-0.9,3.7-1.1c1.2-0.3,2.4-0.4,3.5-0.4c3.1,0,5.4,0.8,6.9,2.4
			C155.3,102.6,156.1,105.1,156.1,108.3"/>
		<path id="path3778" inkscape:connector-curvature="0" class="st2" d="M166.5,117.2v11.3H163V99.2h3.5v3.2c0.7-1.3,1.7-2.2,2.8-2.8
			c1.1-0.6,2.5-0.9,4-0.9c2.6,0,4.7,1,6.3,3.1c1.6,2,2.4,4.7,2.4,8.1c0,3.3-0.8,6-2.4,8.1c-1.6,2-3.7,3.1-6.3,3.1
			c-1.6,0-2.9-0.3-4-0.9C168.1,119.4,167.2,118.5,166.5,117.2 M178.4,109.8c0-2.6-0.5-4.6-1.6-6c-1.1-1.5-2.5-2.2-4.3-2.2
			c-1.8,0-3.3,0.7-4.4,2.2c-1.1,1.5-1.6,3.5-1.6,6c0,2.6,0.5,4.6,1.6,6.1c1.1,1.5,2.5,2.2,4.4,2.2c1.8,0,3.3-0.7,4.3-2.2
			C177.8,114.4,178.4,112.4,178.4,109.8"/>
	</g>
</g>
</svg>
