<?xml version="1.0" encoding="utf-8"?>
<!-- Generator: Adobe Illustrator 22.1.0, SVG Export Plug-In . SVG Version: 6.00 Build 0)  -->
<svg version="1.1" id="Layer_1" xmlns="http://www.w3.org/2000/svg" xmlns:xlink="http://www.w3.org/1999/xlink" x="0px" y="0px"
	 viewBox="0 0 335.1 479.4" style="enable-background:new 0 0 335.1 479.4;" xml:space="preserve">
<style type="text/css">
	.st0{fill-rule:evenodd;clip-rule:evenodd;fill:#0071AA;}
	.st1{clip-path:url(#SVGID_2_);fill-rule:evenodd;clip-rule:evenodd;fill:#008ECC;}
	.st2{clip-path:url(#SVGID_2_);fill-rule:evenodd;clip-rule:evenodd;fill:#A1D1E4;}
	.st3{clip-path:url(#SVGID_2_);fill-rule:evenodd;clip-rule:evenodd;fill:#FFFFFF;}
	.st4{fill:none;stroke:#046193;stroke-width:2.2677;stroke-miterlimit:22.9256;}
	.st5{fill-rule:evenodd;clip-rule:evenodd;fill:#FFFFFF;}
	.st6{fill-rule:evenodd;clip-rule:evenodd;fill:#008ECC;}
</style>
<g>
	<path class="st0" d="M155,2.8c-1.2,11.7-2.5,23.3-10.1,31.9c-15,16.9-35.4,27.4-52,35.5C50.6,91,2,139.5,2,217
		c0,37.5,14.5,77.9,41.8,109c29.1,33.1,72.5,55.8,124.2,55.5c46.1-0.2,84-15.3,112.5-39.9c33.3-28.8,53.4-71,53.4-124.6
		c0-39.5-11.8-73.7-33.2-99.8c-42.2-51.6-76.3-56.1-97.9-68.4C187.3,39.9,173.1,24.4,155,2.8L155,2.8z"/>
	<g>
		<defs>
			<path id="SVGID_1_" d="M155,2.8c-1.2,11.7-2.5,23.3-10.1,31.9c-15,16.9-35.4,27.4-52,35.5C50.6,91,2,139.5,2,217
				c0,37.5,14.5,77.9,41.8,109c29.1,33.1,72.5,55.8,124.2,55.5c46.1-0.2,84-15.3,112.5-39.9c33.3-28.8,53.4-71,53.4-124.6
				c0-39.5-11.8-73.7-33.2-99.8c-42.2-51.6-76.3-56.1-97.9-68.4C187.3,39.9,173.1,24.4,155,2.8L155,2.8z"/>
		</defs>
		<clipPath id="SVGID_2_">
			<use xlink:href="#SVGID_1_"  style="overflow:visible;"/>
		</clipPath>
		<path class="st1" d="M281.1,83.1c22.3,33.7,21.7,70.2,2.3,102.3c-15.6,25.8-43.8,47.4-79.5,72.1C150,294.9,95.1,323.1,50.1,311.4
			c-22-5.7-41.2-23-57.5-49.6L-21-18.9l194.1-3.2L281.1,83.1L281.1,83.1z"/>
		<path class="st2" d="M152.9,4.8c9,15.1,10.2,36.1,0,43.8c-4.9,3.7-3.8,5.6-1.9,7.2c3.7,3.1,1,9.3-3,15.2
			c-22.7,32.9-67.3,59.1-94,71c-7.1,3.2-20.8,7.4-24.9,3c-10.4-11,8.3-28.5,18.8-44.2l83-60.1L152.9,4.8L152.9,4.8z"/>
		<path class="st3" d="M152.6,0.5c11.6,26.3,10.8,41.8-15.7,53.9c-0.8,0.4-2.8,2.2,0.6,2.8c10.1,2-3.3,17.5-9.1,22.9
			c-6.7,6.2-15.7,15.5-38,30.5s-46.5,25.3-52.8,21.1c-11.1-7.4,11.3-26.4,23.1-45L152.6,0.5L152.6,0.5z"/>
	</g>
	<path class="st4" d="M155,2.8c-1.2,11.7-2.5,23.3-10.1,31.9c-15,16.9-35.4,27.4-52,35.5C50.6,91,2,139.5,2,217
		c0,37.5,14.5,77.9,41.8,109c29.1,33.1,72.5,55.8,124.2,55.5c46.1-0.2,84-15.3,112.5-39.9c33.3-28.8,53.4-71,53.4-124.6
		c0-39.5-11.8-73.7-33.2-99.8c-42.2-51.6-76.3-56.1-97.9-68.4C187.3,39.9,173.1,24.4,155,2.8L155,2.8z"/>
	<path class="st5" d="M228.1,261.2c-23.3-0.2-46.3-40.9-92.9-42c-35-0.8-62.6,28.5-62,56.8c0.7,33.9,24.7,42,47,42.4
		c43.6,0.6,82.5-44,109-44.4c20.1-0.3,40.6,41.8,58.9,43.2c21.1,1.6,36.8-39.2,35.4-64c-0.9-16.5-10.4-28.3-22.7-28
		C277.8,225.7,250.9,261.3,228.1,261.2L228.1,261.2z M187.7,315.6c10.1-10,20.8-16,32.8-15.7c19.2,0.5,20,5,25.5,16.2
		c1.1,2.3,0.5,4.2-0.2,5.4c-0.4,0.6-2.6,2.7-3.3,2.7c-1.8,0-2.5-0.7-3.3-2.6c-4.6-11.4-11.4-11.5-19.9-11.5
		c-13.2,0-18.9,6.4-26.7,12.9c-1.9,1.6-3.8,2.8-5.2,1.6c-1.2-1-2.1-2.4-2.1-3.4C185.3,318.9,186,317.4,187.7,315.6L187.7,315.6z
		 M161.1,342.9c10.3,9.5,59.2,17.6,88.6-2.2c1.1-0.7,2.5-1.2,3.7-0.7c0.9,0.4,1.4,0.9,1.5,1.9c0.2,1.7,0.3,4.2-1,5.2
		c-20.4,17-75.5,26.7-101.8,5.1c-2.6-2.1-2.7-5.4-1-7.2c1.3-1.4,2.4-2,3.9-2.9C157,340.9,159.5,341.3,161.1,342.9L161.1,342.9z"/>
	<path class="st6" d="M74.1,414.1v9.2c0,22-9.8,34.1-38.7,34.1H0.9c-0.5,0-0.9-0.4-0.9-0.9v-76.3c0-0.5,0.4-0.9,0.9-0.9h34.6
		C63.9,379.4,74.1,391.8,74.1,414.1L74.1,414.1z M323.5,378l-16,2.6c-0.4,0.1-0.7,0.4-0.7,0.8v61.5c0,13.2,11.9,17.2,26,13.8
		c0.6-0.1,1.1-0.3,1.7-0.4c0.5-0.1,0.8-0.5,0.7-1l-1.6-8.5c-0.1-0.3-0.3-0.4-0.5-0.4c-6.7,0-8.5,0.1-8.5-3.6v-64.1
		c0-0.3-0.1-0.5-0.3-0.6C324,378,323.7,378,323.5,378L323.5,378z M238.9,434v-13.6c0-13.2-8.9-20.3-28.1-19.7
		c-19.2,0.6-26.7,2.1-26.7,17.8v60.1c0,0.3,0.1,0.5,0.3,0.6c0.2,0.2,0.4,0.2,0.7,0.2l16-2.6c0.4-0.1,0.7-0.4,0.7-0.8v-11.9
		c0-2.3-1.6-4.2-1.5-7.6c5.1,1.6,11,2.2,17.9,2C226.2,458.3,238.9,454.2,238.9,434L238.9,434z M201.8,447.1v-28.6
		c0-5.6,0.3-7.2,9.2-7.2c8.9,0,10.1,5.3,10.1,9.1v16.1c0,8.6-2.9,11.8-10.4,11.7C206.9,448.3,204.9,447.7,201.8,447.1L201.8,447.1z
		 M138.1,400.7l-16,2.6c-0.4,0.1-0.7,0.4-0.7,0.8v36.7c0,13.2,12,17.6,26,17.8c14,0.2,27.7-3.7,27.7-17.8v-39.3
		c0-0.3-0.1-0.5-0.3-0.6c-0.2-0.2-0.4-0.2-0.7-0.2l-16,2.6c-0.4,0.1-0.7,0.4-0.7,0.8v36.7c0,3.9-2.1,7.2-9.2,7.2c-7.1,0-9-3.3-9-7.2
		v-39.3c0-0.3-0.1-0.5-0.3-0.6C138.5,400.7,138.3,400.7,138.1,400.7L138.1,400.7z M261.2,438v5.4c0,5.3,9.7,5.2,14.9,5.2
		c2.9,0,4-1.1,4-4v-12.2c0-0.2-0.1-0.5-0.3-0.6c-0.2-0.2-0.4-0.2-0.6-0.2C273,432,261.2,432.2,261.2,438L261.2,438z M243.9,443.3
		V438c0-13,21.6-15,35.5-16.2c0.4,0,0.8-0.4,0.8-0.8v-3c0-3.2-1.2-5.7-5.7-6.2c-8-0.8-12.8,0.3-23.7,2.7c-0.4,0.1-0.9-0.2-1-0.6
		l-2-7.6c-0.1-0.4,0.1-0.9,0.5-1c6.7-2.5,15.6-4.8,25.5-4.2c9.6,0.5,23.5-0.2,23.5,16.9v26.7c0,11.6-8.3,13.7-26.5,13.9
		C256.9,458.6,243.9,453.7,243.9,443.3L243.9,443.3z M100.3,457.1h-16c-0.5,0-0.9-0.4-0.9-0.9v-48.2c0-0.2,0-0.3,0.1-0.4
		c2.5-4.2,17.4-6.3,31.8-6.1c0.5,0,0.8,0.4,0.8,0.9v9.5c0,0.2-0.1,0.5-0.3,0.6c-0.2,0.2-0.4,0.2-0.6,0.2c-8.5-0.5-13.5,0.5-14.1,2.3
		c0,0.1,0,0.2,0,0.2v40.9C101.1,456.8,100.7,457.1,100.3,457.1L100.3,457.1z M54.8,423.3v-9.2c0-17-5.5-22-19.4-22H19.3v53.1h16.1
		C51.7,445.2,54.8,436.9,54.8,423.3L54.8,423.3z"/>
</g>
</svg>
