<?xml version="1.0" encoding="utf-8"?>
<!-- Generator: Adobe Illustrator 22.1.0, SVG Export Plug-In . SVG Version: 6.00 Build 0)  -->
<svg version="1.1" id="Layer_1" xmlns:x="&ns_extend;" xmlns:i="&ns_ai;" xmlns:graph="&ns_graphs;"
	 xmlns="http://www.w3.org/2000/svg" xmlns:xlink="http://www.w3.org/1999/xlink" x="0px" y="0px" viewBox="0 0 2370 2500"
	 style="enable-background:new 0 0 2370 2500;" xml:space="preserve">
<style type="text/css">
	.st0{fill-rule:evenodd;clip-rule:evenodd;fill:#1A2120;}
	.st1{fill-rule:evenodd;clip-rule:evenodd;fill:url(#SVGID_1_);}
	.st2{fill-rule:evenodd;clip-rule:evenodd;fill:url(#SVGID_2_);}
</style>
<metadata>
	<sfw  xmlns="&ns_sfw;">
		<slices></slices>
		<sliceSourceBounds  bottomLeftOrigin="true" height="1703.2" width="1695" x="337.6" y="398.2"></sliceSourceBounds>
	</sfw>
</metadata>
<g>
	<g>
		<path class="st0" d="M701.1,1721.7c16,127.3,85.3,223.3,191.2,317.5l-38.2-19.3C553,1890.4,342.6,1591.1,342.6,1243
			c0-442.3,341.4-810.1,782.9-842.9C683.9,432.9,342.6,800.7,342.6,1243c0-442.3,341.4-810.1,782.9-842.9
			C619.7,500,135,1084.2,701.1,1721.7z"/>
		<path class="st0" d="M1855.7,973.7c-38.2-273.6-248.3-465.1-631-575l0,0c451.6,20,807.9,392.4,807.9,844.3
			c0,466.9-351.7,827.9-808.6,848.6c-43.2,2.1-86.3-5.4-128.4-18.5v-952.4c13.9-21,13.9-42.1,0-63.1V854.9h46.7
			c-18.2-12.1-33.5-21.4-46.7-27.1v-58.5c245.1,93.5,358.8,104.2,341.7,31c21.4,60.3,2.9,87.7-55.6,81.7
			c-67.4-10.3-109.2-5.7-125.6,14.3c120.9,59.9,185.5,118.1,193.7,174.4c11.4,94.9-33.5,199.4-134.8,313.9
			c-63.8,79.5-30.7,164.1,72.4,177.6C1707.3,1546.5,1863.5,1350,1855.7,973.7L1855.7,973.7z M1095.6,2073
			c-97.7-30.3-185.5-91.3-228.3-133.8l0,0c-75.6-78.5-127-204-145.9-385.2c0-1.1-0.4-2.1-0.4-3.2v-61.4
			c11.8-145.5,108.8-247.9,291.8-306.8c41.4-20.3,69.2-41,82.8-62.1V2073L1095.6,2073z M1095.6,1057.5c-5.7-9.3-14.6-18.5-25.7-28.2
			l0,0c-10-10-31.4-20-63.8-29.6c-74.2-2.1-114.5,16.4-120.9,56l0,0c-125.9-56-129.5-119.8-11.1-191.2c23.2-8.9,57.1-12.1,102-10.3
			c-18.5-82,12.8-113.8,94.5-94.5c8.6,3.2,16.8,6.4,25,9.6v58.5c-37.5-17.5-52.1-8.6-44.2,27.1h44.2V1057.5z"/>
	</g>
	<g>
		<linearGradient id="SVGID_1_" gradientUnits="userSpaceOnUse" x1="729.0925" y1="2049.0242" x2="729.0925" y2="410.0032">
			<stop  offset="0" style="stop-color:#E4272C"/>
			<stop  offset="1" style="stop-color:#F8DC1A"/>
		</linearGradient>
		<path class="st1" d="M696.1,1731.6c16,127.3,85.3,223.3,191.2,317.5l-38.2-19.3c-301.1-129.5-511.5-428.8-511.5-776.9
			c0-442.3,341.4-810.1,782.9-842.9C679,442.8,337.6,810.6,337.6,1252.9c0-442.3,341.4-810.1,782.9-842.9
			C614.8,509.9,130,1094.1,696.1,1731.6z"/>
		<linearGradient id="SVGID_2_" gradientUnits="userSpaceOnUse" x1="1371.8617" y1="2104.0225" x2="1371.8617" y2="410.7771">
			<stop  offset="0" style="stop-color:#E4272C"/>
			<stop  offset="1" style="stop-color:#F8DC1A"/>
		</linearGradient>
		<path class="st2" d="M1850.7,983.6c-38.2-273.6-248.3-465.1-631-575l0,0c451.6,20,807.9,392.4,807.9,844.3
			c0,466.9-351.7,827.9-808.6,848.6c-43.2,2.1-86.3-5.4-128.4-18.5v-952.4c13.9-21,13.9-42.1,0-63.1V864.8h46.7
			c-18.2-12.1-33.5-21.4-46.7-27.1v-58.5c245.1,93.5,358.8,104.2,341.7,31c21.4,60.3,2.9,87.7-55.6,81.7
			c-67.4-10.3-109.2-5.7-125.6,14.3c120.9,59.9,185.5,118.1,193.7,174.4c11.4,94.9-33.5,199.4-134.8,313.9
			c-63.8,79.5-30.7,164.1,72.4,177.6C1702.3,1556.4,1858.6,1359.9,1850.7,983.6L1850.7,983.6z M1090.6,2082.9
			c-97.7-30.3-185.5-91.3-228.3-133.8l0,0c-75.6-78.5-127-204-145.9-385.2c0-1.1-0.4-2.1-0.4-3.2v-61.4
			c11.8-145.5,108.8-247.9,291.8-306.8c41.4-20.3,69.2-41,82.8-62.1V2082.9L1090.6,2082.9z M1090.6,1067.4
			c-5.7-9.3-14.6-18.5-25.7-28.2l0,0c-10-10-31.4-20-63.8-29.6c-74.2-2.1-114.5,16.4-120.9,56l0,0c-125.9-56-129.5-119.8-11.1-191.2
			c23.2-8.9,57.1-12.1,102-10.3c-18.5-82,12.8-113.8,94.5-94.5c8.6,3.2,16.8,6.4,25,9.6v58.5c-37.5-17.5-52.1-8.6-44.2,27.1h44.2
			V1067.4z"/>
	</g>
</g>
</svg>
