<?xml version="1.0" encoding="utf-8"?>
<!-- Generator: Adobe Illustrator 22.1.0, SVG Export Plug-In . SVG Version: 6.00 Build 0)  -->
<svg version="1.1" id="svg10488" xmlns:svg="http://www.w3.org/2000/svg"
	 xmlns="http://www.w3.org/2000/svg" xmlns:xlink="http://www.w3.org/1999/xlink" x="0px" y="0px" viewBox="0 0 779.4 567.8"
	 style="enable-background:new 0 0 779.4 567.8;" xml:space="preserve">
<style type="text/css">
	.st0{fill:#326DE6;}
	.st1{fill:#FFFFFF;}
</style>
<g>
	<g>
		<path id="path10349" class="st0" d="M556.5,87c-2.3-7.4-7.9-13.4-14.8-17.1L400.7,2.3C397,0.5,392.8,0,389.1,0s-7.9,0-11.6,0.9
			l-141.1,68c-6.9,3.2-12,9.3-13.9,17.1l-34.7,152.2c-1.4,7.9,0.5,15.7,5.1,22.2l97.6,120.7c5.6,5.6,13.4,9.3,21.3,9.7h155.4
			c8.3,0.9,16.2-2.8,21.3-9.7l97.6-120.7c4.6-6.5,6.5-14.3,5.6-22.2L556.5,87L556.5,87z"/>
		<path id="path10351" class="st1" d="M534.8,232.2L534.8,232.2c-0.5,0-0.9,0-0.9-0.5c0-0.5-0.9-0.5-1.9-0.5
			c-1.9-0.5-3.7-0.5-5.6-0.5c-0.9,0-1.9,0-2.8-0.5h-0.5c-5.1-0.5-10.6-1.4-15.7-2.8c-1.4-0.5-2.8-1.9-3.2-3.2c0.5,0,0,0,0,0l0,0
			l-3.7-0.9c1.9-13.4,0.9-27.3-1.9-40.7c-3.2-13.4-8.8-26.4-16.2-37.9l2.8-2.8l0,0v-0.5c0-1.4,0.5-3.2,1.4-4.2
			c4.2-3.7,8.3-6.5,13-9.3l0,0c0.9-0.5,1.9-0.9,2.8-1.4c1.9-0.9,3.2-1.9,5.1-2.8c0.5-0.5,0.9-0.5,1.4-0.9c0.5-0.5,0-0.5,0-0.9l0,0
			c4.2-3.2,5.1-8.8,1.9-13c-1.4-1.9-4.2-3.2-6.5-3.2s-4.6,0.9-6.5,2.3l0,0l-0.5,0.5c-0.5,0.5-0.9,0.9-1.4,0.9
			c-1.4,1.4-2.8,2.8-3.7,4.2c-0.5,0.9-1.4,1.4-1.9,1.9l0,0c-3.2,3.7-7.4,7.4-11.6,10.2c-0.9,0.5-1.9,0.9-2.8,0.9
			c-0.5,0-1.4,0-1.9-0.5h-0.5l-3.7,2.3c-3.7-3.7-7.9-7.4-11.6-11.1c-17.1-13.4-38.4-21.7-60.1-24.1l-0.5-3.7l0,0v0.5
			c-1.4-0.9-1.9-2.3-2.3-3.7c0-5.1,0-10.2,0.9-15.7v-0.5c0-0.9,0.5-1.9,0.5-2.8c0.5-1.9,0.5-3.7,0.9-5.6v-2.8l0,0
			c0.5-4.6-3.2-9.3-7.9-9.7c-2.8-0.5-5.6,0.9-7.9,3.2c-1.9,1.9-2.8,4.2-2.8,6.5l0,0v2.3c0,1.9,0.5,3.7,0.9,5.6
			c0.5,0.9,0.5,1.9,0.5,2.8v0.5c0.9,5.1,0.9,10.2,0.9,15.7c-0.5,1.4-0.9,2.8-2.3,3.7v0.9l0,0l-0.5,3.7c-5.1,0.5-10.2,1.4-15.7,2.3
			c-21.7,4.6-41.6,16.2-56.9,32.4l-2.8-1.9h-0.5c-0.5,0-0.9,0.5-1.9,0.5s-1.9-0.5-2.8-0.9c-4.2-3.2-8.3-6.9-11.6-10.6l0,0
			c-0.5-0.9-1.4-1.4-1.9-1.9c-1.4-1.4-2.3-2.8-3.7-4.2c-0.5-0.5-0.9-0.5-1.4-0.9c-0.5-0.5-0.5-0.5-0.5-0.5l0,0
			c-1.9-1.4-4.2-2.3-6.5-2.3c-2.8,0-5.1,0.9-6.5,3.2c-2.8,4.2-1.9,9.7,1.9,13l0,0c0.5,0,0.5,0.5,0.5,0.5s0.9,0.9,1.4,0.9
			c1.4,0.9,3.2,1.9,5.1,2.8c0.9,0.5,1.9,0.9,2.8,1.4l0,0c4.6,2.8,9.3,5.6,13,9.3c0.9,0.9,1.9,2.8,1.4,4.2v-0.5l0,0l2.8,2.8
			c-0.5,0.9-0.9,1.4-1.4,2.3c-14.3,22.7-20.4,49.5-16.2,75.9l-3.7,0.9l0,0c0,0.5-0.5,0.5-0.5,0.5c-0.5,1.4-1.9,2.3-3.2,3.2
			c-5.1,1.4-10.2,2.3-15.7,2.8l0,0c-0.9,0-1.9,0-2.8,0.5c-1.9,0-3.7,0.5-5.6,0.5c-0.5,0-0.9,0.5-1.9,0.5c-0.5,0-0.5,0-0.9,0.5l0,0
			c-5.1,0.9-8.3,5.6-7.4,10.6l0,0c0.9,4.2,5.1,6.9,9.3,6.5c0.9,0,1.4,0,2.3-0.5l0,0c0.5,0,0.5,0,0.5-0.5c0-0.5,1.4,0,1.9,0
			c1.9-0.5,3.7-1.4,5.1-1.9c0.9-0.5,1.9-0.9,2.8-0.9h0.5c5.1-1.9,9.7-3.2,15.3-4.2h0.5c1.4,0,2.8,0.5,3.7,1.4c0.5,0,0.5,0.5,0.5,0.5
			l0,0l4.2-0.5c6.9,21.3,19.9,40.2,37.9,54.1c4.2,3.2,7.9,6,12.5,8.3l-2.3,3.2l0,0c0,0.5,0.5,0.5,0.5,0.5c0.9,1.4,0.9,3.2,0.5,4.6
			c-1.9,4.6-4.6,9.3-7.4,13.4v0.5c-0.5,0.9-0.9,1.4-1.9,2.3c-0.9,0.9-1.9,2.8-3.2,4.6c-0.5,0.5-0.5,0.9-0.9,1.4c0,0,0,0.5-0.5,0.5
			l0,0c-2.3,4.6-0.5,10.2,3.7,12.5c0.9,0.5,2.3,0.9,3.2,0.9c3.7,0,6.9-2.3,8.8-5.6l0,0c0,0,0-0.5,0.5-0.5c0-0.5,0.5-0.9,0.9-1.4
			c0.5-1.9,1.4-3.2,1.9-5.1l0.9-2.8l0,0c1.4-5.1,3.7-9.7,6-14.3c0.9-1.4,2.3-2.3,3.7-2.8c0.5,0,0.5,0,0.5-0.5l0,0l1.9-3.7
			c13,5.1,26.4,7.4,40.2,7.4c8.3,0,16.7-0.9,25-3.2c5.1-0.9,10.2-2.8,14.8-4.2l1.9,3.2l0,0c0.5,0,0.5,0,0.5,0.5
			c1.4,0.5,2.8,1.4,3.7,2.8c2.3,4.6,4.6,9.3,6,14.3v0.5l0.9,2.8c0.5,1.9,0.9,3.7,1.9,5.1c0.5,0.5,0.5,0.9,0.9,1.4c0,0,0,0.5,0.5,0.5
			l0,0c1.9,3.2,5.1,5.6,8.8,5.6c1.4,0,2.3-0.5,3.7-0.9c1.9-0.9,3.7-2.8,4.2-5.1c0.5-2.3,0.5-4.6-0.5-6.9l0,0c0-0.5-0.5-0.5-0.5-0.5
			c0-0.5-0.5-0.9-0.9-1.4c-0.9-1.9-1.9-3.2-3.2-4.6c-0.5-0.9-0.9-1.4-1.9-2.3v-0.9c-3.2-4.2-5.6-8.8-7.4-13.4
			c-0.5-1.4-0.5-3.2,0.5-4.6c0-0.5,0.5-0.5,0.5-0.5l0,0l-1.4-3.7c23.6-14.3,41.6-36.5,50-62.9l3.7,0.5l0,0c0.5,0,0.5-0.5,0.5-0.5
			c0.9-0.9,2.3-1.4,3.7-1.4h0.5c5.1,0.9,10.2,2.3,14.8,4.2h0.5c0.9,0.5,1.9,0.9,2.8,0.9c1.9,0.9,3.2,1.9,5.1,2.3
			c0.5,0,0.9,0.5,1.9,0.5c0.5,0,0.5,0,0.9,0.5l0,0c0.9,0.5,1.4,0.5,2.3,0.5c4.2,0,7.9-2.8,9.3-6.5
			C542.7,236.8,539,233.1,534.8,232.2L534.8,232.2z M401.1,217.9l-12.5,6l-12.5-6l-3.2-13.4l8.8-11.1h13.9l8.8,11.1L401.1,217.9z
			 M476.5,187.8c2.3,9.7,2.8,19.4,1.9,29.1l-43.9-12.5l0,0c-4.2-0.9-6.5-5.1-5.6-9.3c0.5-1.4,0.9-2.3,1.9-3.2l34.7-31.5
			C470.5,168.8,474.2,178.1,476.5,187.8z M451.5,143.4l-37.9,26.8c-3.2,1.9-7.9,1.4-10.2-1.9c-0.9-0.9-1.4-1.9-1.4-3.2l-2.8-46.7
			C419.6,120.7,437.7,129.5,451.5,143.4C451.5,143.4,451.5,143.4,451.5,143.4z M367.8,119.8l9.3-1.9l-2.3,46.3l0,0
			c0,4.2-3.7,7.4-7.9,7.4c-1.4,0-2.3-0.5-3.7-0.9l-38.4-27.3C336.8,131.8,351.6,123.5,367.8,119.8z M311.4,160.5l34.2,30.5l0,0
			c3.2,2.8,3.7,7.4,0.9,10.6c-0.9,1.4-1.9,1.9-3.7,2.3l-44.9,13C296.6,197.5,301.2,177.6,311.4,160.5z M303.5,238.7l45.8-7.9
			c3.7,0,7.4,2.3,7.9,6c0.5,1.4,0.5,3.2-0.5,4.6l0,0L339.1,284C323,273.4,310,257.2,303.5,238.7z M408.5,296
			c-6.5,1.4-13,2.3-19.9,2.3c-9.7,0-19.9-1.9-29.1-4.6l22.7-41.2c2.3-2.8,6-3.7,9.3-1.9c1.4,0.9,2.3,1.9,3.7,3.2l0,0l22.2,40.2
			C414.5,294.6,411.8,295.1,408.5,296z M465,255.8c-6.9,11.1-16.7,20.8-27.8,27.8l-18-43.5c-0.9-3.7,0.9-7.4,4.2-8.8
			c1.4-0.5,2.8-0.9,4.2-0.9l46.3,7.9C471.4,244.7,468.7,250.7,465,255.8z"/>
	</g>
	<path id="path3003" d="M746.8,549.4c2.8,0.2,5.9-0.2,8.5-1.2c1.6-0.8,2.6-2.6,2.4-4.4c-0.2-2-1.4-3.8-3.2-4.4
		c-3-1.8-6.5-3.4-9.9-4.4c-3.4-1.2-6.5-2.6-9.3-4c-2.6-1.2-4.8-2.8-7.1-4.8c-2-2-3.4-4.2-4.4-6.9c-1.2-3-1.6-6.3-1.6-9.5
		c-0.2-6.7,2.8-13.1,8.1-17.2c5.5-4.2,12.7-6.3,22-6.3c4.4,0,9.1,0.4,13.5,1.4c3.4,0.6,6.9,1.4,10.3,2.6l-3.8,17.2
		c-2.8-1-5.5-1.6-8.3-2.4c-3.2-0.8-6.7-1-9.9-1c-6.9,0-10.3,1.8-10.3,5.7c0,0.8,0.2,1.6,0.4,2.4c0.4,0.8,1,1.4,1.8,2s2,1.2,3.4,2
		c1.4,0.8,3.4,1.6,5.9,2.4c4,1.4,8.1,3.2,11.7,5.3c2.8,1.4,5.3,3.2,7.3,5.7c1.8,1.8,3,4,3.8,6.7c0.8,2.8,1.2,5.7,1.2,8.5
		c0.4,6.9-2.8,13.5-8.7,17.4c-5.7,3.8-13.7,5.9-24.2,5.9c-5.9,0.2-11.5-0.4-17.2-1.8c-3.2-0.8-6.3-1.8-9.3-2.8l3.6-17.8
		c3.6,1.4,7.5,2.6,11.3,3.4C738.9,549,742.8,549.4,746.8,549.4 M635.5,527.2c-0.2-6.1,1-12.1,3-17.8c1.8-4.8,4.6-9.1,8.3-12.9
		c3.4-3.4,7.3-6.1,11.7-7.7c4.4-1.8,9.1-2.6,13.7-2.6c10.9,0,19.6,3.4,25.9,10.1c6.3,6.7,9.5,16.6,9.5,29.5c0,1.2,0,2.6-0.2,4.2
		c0,1.6-0.2,2.8-0.2,4h-49.3c0.4,4.2,2.6,8.3,6.3,10.7c4.4,2.8,9.7,4.2,14.9,4c3.8,0,7.9-0.4,11.7-1c3.2-0.6,6.5-1.6,9.5-3l3,17.8
		c-1.4,0.8-3,1.2-4.6,1.8c-2.2,0.6-4.4,1.2-6.7,1.4c-2.4,0.4-4.8,0.8-7.7,1.2c-2.6,0.2-5.5,0.4-8.3,0.4c-6.3,0.2-12.3-0.8-18.2-3
		c-4.8-1.8-9.1-4.6-12.7-8.3c-3.4-3.6-5.9-8.1-7.5-12.7C636.3,537.9,635.5,532.4,635.5,527.2 M686.6,518.9c0-1.8-0.4-3.6-1-5.5
		c-0.4-1.8-1.4-3.2-2.4-4.6c-1.2-1.4-2.6-2.6-4.2-3.4c-2-1-4-1.4-6.3-1.4c-2.2,0-4.2,0.4-6.3,1.4c-1.6,0.8-3.2,1.8-4.4,3.2
		s-2.2,3-2.8,4.8c-0.6,1.8-1,3.6-1.2,5.5H686.6 M576.3,468.8l21.8-3.4V488h26.3v18.2h-26.3v27.1c-0.2,3.8,0.6,7.7,2.4,10.9
		c1.6,2.6,4.8,4,9.9,4c2.4,0,4.8-0.2,7.1-0.6c2.4-0.4,4.6-1,6.9-1.8l3,17c-2.8,1.2-5.9,2-8.9,2.8c-3.8,0.8-7.9,1.2-11.9,1.2
		c-5.1,0.2-10.1-0.6-14.7-2.4c-3.6-1.4-6.9-3.8-9.3-6.7c-2.4-3-4-6.7-5.1-10.5c-1-4.4-1.4-9.1-1.2-13.5V468.8 M488,527.2
		c-0.2-6.1,1-12.1,3-17.8c1.8-4.8,4.6-9.1,8.3-12.9c3.4-3.4,7.3-6.1,11.7-7.7c4.4-1.8,9.1-2.6,13.7-2.6c10.9,0,19.6,3.4,25.9,10.1
		s9.5,16.6,9.5,29.5c0,1.2,0,2.6-0.2,4.2s-0.2,2.8-0.2,4h-49.5c0.4,4.2,2.6,8.3,6.3,10.7c4.4,2.8,9.7,4.2,14.9,4
		c3.8,0,7.9-0.4,11.7-1c3.2-0.6,6.5-1.6,9.7-3l3,17.8c-1.4,0.8-3,1.2-4.6,1.8c-2.2,0.6-4.4,1.2-6.7,1.4c-2.4,0.4-4.8,0.8-7.7,1.2
		c-2.6,0.2-5.5,0.4-8.3,0.4c-6.3,0.2-12.3-0.8-18.2-3c-4.8-1.8-9.1-4.6-12.7-8.3c-3.4-3.6-5.9-8.1-7.5-12.7
		C488.6,537.9,487.8,532.4,488,527.2 M539.1,518.9c0-1.8-0.4-3.6-1-5.5c-0.4-1.8-1.4-3.2-2.4-4.6c-1.2-1.4-2.6-2.6-4.2-3.4
		c-2-1-4-1.4-6.3-1.4s-4.2,0.4-6.3,1.4c-1.6,0.8-3,1.8-4.2,3.2s-2.2,3-2.8,4.8c-0.6,1.8-1,3.6-1.2,5.5H539.1 M405.2,490.6
		c4.6-1.2,9.5-2.2,14.3-3c6.1-1,12.3-1.4,18.4-1.4c5.5-0.2,10.9,0.8,16.2,2.6c4,1.4,7.7,3.8,10.3,7.1c2.6,3.2,4.4,7.1,5.5,11.1
		c1.2,4.6,1.6,9.5,1.6,14.3v43.4h-21.6v-40.6c0-7.1-1-11.9-2.8-14.9c-1.8-2.8-5.3-4.4-10.3-4.4c-1.6,0-3.2,0-5.1,0.2
		c-1.8,0-3.2,0.2-4.6,0.4v59.4h-21.8L405.2,490.6 M389.9,507.4c-2-0.4-4.2-1-6.9-1.4c-2.8-0.6-5.7-0.8-8.5-0.8
		c-1.6,0-3.2,0.2-5.1,0.4c-1.4,0.2-2.8,0.4-4.2,0.8v58.8h-21.8V492c4.4-1.6,9.1-2.8,13.7-3.8c5.9-1.4,11.9-2,17.8-1.8
		c1.4,0,2.8,0.2,4.2,0.2c1.6,0,3.2,0.2,5.1,0.6c1.6,0.2,3.2,0.4,5.1,0.8c1.4,0.2,2.8,0.6,4.2,1.2L389.9,507.4 M254.3,527.2
		c-0.2-6.1,1-12.1,3-17.8c1.8-4.8,4.6-9.1,8.3-12.9c3.4-3.4,7.3-6.1,11.7-7.7c4.4-1.8,9.1-2.6,13.7-2.6c10.9,0,19.6,3.4,25.9,10.1
		c6.3,6.7,9.5,16.6,9.5,29.3c0,1.2,0,2.6-0.2,4.2c-0.2,1.6-0.2,2.8-0.2,4h-49.5c0.4,4.2,2.6,8.3,6.3,10.7c4.4,2.8,9.7,4.2,14.9,4
		c3.8,0,7.9-0.4,11.7-1c3.2-0.6,6.5-1.6,9.5-2.8l3,17.8c-1.4,0.8-3,1.2-4.6,1.8c-2.2,0.6-4.4,1.2-6.7,1.4c-2.4,0.4-4.8,0.8-7.7,1.2
		c-2.6,0.2-5.5,0.4-8.3,0.4c-6.3,0.2-12.3-0.8-18.2-3c-4.8-1.8-9.1-4.6-12.7-8.3c-3.4-3.6-5.9-8.1-7.5-12.7
		C255.1,537.9,254.3,532.6,254.3,527.2 M305.6,518.9c0-1.8-0.4-3.6-1-5.5c-0.4-1.8-1.4-3.2-2.4-4.6c-1.2-1.4-2.6-2.6-4.2-3.4
		c-2-1-4-1.4-6.3-1.4c-2.2,0-4.2,0.4-6.3,1.4c-1.6,0.8-3.2,1.8-4.4,3.2c-1.2,1.4-2.2,3-2.8,4.8c-0.6,1.8-1,3.6-1.2,5.5H305.6
		 M219,525.9c0-14.1-5.3-21-15.6-21c-2.2,0-4.4,0.2-6.7,0.8c-1.8,0.4-3.6,1.2-5.3,2.2v39.6c1,0.2,2.4,0.4,4,0.6
		c1.6,0.2,3.4,0.2,5.5,0.2c5.3,0.4,10.3-1.8,13.5-6.1C217.6,537.5,219.2,531.8,219,525.9 M241.2,526.8c0,5.7-0.8,11.3-2.8,16.8
		c-1.6,4.8-4.2,9.1-7.7,12.7c-3.6,3.6-7.9,6.5-12.5,8.3c-5.5,2-11.1,2.8-17,2.8c-2.6,0-5.5-0.2-8.3-0.4c-2.8-0.2-5.7-0.6-8.5-0.8
		c-2.6-0.4-5.3-0.8-7.9-1.4c-2.6-0.4-4.8-1-6.7-1.8V454.8l21.8-3.4v38.4c2.4-1,5.1-1.8,7.7-2.4c2.8-0.6,5.7-0.8,8.5-0.8
		c5.1,0,9.9,0.8,14.5,3c4,1.8,7.7,4.6,10.5,8.1c3,3.8,5.3,8.1,6.5,12.7C240.6,515.4,241.2,521.1,241.2,526.8 M149.1,562.3
		c-4.6,1.2-9.5,2.2-14.3,2.8c-6.1,1-12.3,1.4-18.4,1.4c-5.7,0.2-11.1-0.8-16.4-2.6c-4-1.6-7.5-4-10.3-7.3c-2.6-3.4-4.4-7.3-5.5-11.5
		c-1.2-4.6-1.6-9.7-1.6-14.5V488h21.8v40.2c0,7.1,1,12.1,2.8,15.2c1.8,3,5.3,4.6,10.3,4.6c1.6,0,3.2,0,5.1-0.2
		c1.8-0.2,3.2-0.2,4.6-0.6V488h21.8L149.1,562.3 M21.8,515.8c2.2-2.4,4.2-4.8,6.7-7.3c2.2-2.6,4.4-5.1,6.7-7.5
		c2.2-2.6,4.2-4.8,6.1-7.1c1.8-2.2,3.6-4.2,5.1-5.9h25.9c-5.3,5.9-10.3,11.7-15.2,17.2c-5.1,5.5-10.3,11.1-16.2,16.8
		c3.2,3,6.3,6.1,9.1,9.5c3,3.6,6.1,7.3,9.1,11.3c2.8,3.8,5.7,7.9,8.1,11.7c2.4,3.8,4.4,7.5,6.1,10.7h-25c-1.6-2.6-3.4-5.3-5.5-8.3
		c-2-3-4.2-6.1-6.3-9.3c-2.2-3-4.6-6.1-7.3-8.9c-2.2-2.6-4.6-5.1-7.3-7.1v33.7H0V454.8l21.8-3.4L21.8,515.8"/>
</g>
</svg>
