<?xml version="1.0" encoding="utf-8"?>
<!-- Generator: Adobe Illustrator 22.1.0, SVG Export Plug-In . SVG Version: 6.00 Build 0)  -->
<svg version="1.1" id="Layer_1" xmlns="http://www.w3.org/2000/svg" xmlns:xlink="http://www.w3.org/1999/xlink" x="0px" y="0px"
	 viewBox="0 0 207.8 226.1" style="enable-background:new 0 0 207.8 226.1;" xml:space="preserve">
<style type="text/css">
	.st0{fill:#FFFFFF;}
	.st1{fill:#39D8FF;}
</style>
<g>
	<g>
		<path class="st0" d="M17.8,77.4c0,12.9,12.8,25.2,32.8,32c-4,20.1-0.6,36.4,10.2,42.7c11.3,6.6,28.1,2.1,43.9-12
			c15.5,13.4,31.3,18.7,42.2,12.3c11.3-6.6,14.7-23.8,10.5-44.6c20.9-6.9,32.6-17.3,32.6-30.5c0-12.8-12.8-23.6-32.4-30.5
			c4.5-21.6,0.6-37.5-10.7-44.1c-11-6.4-26.8-0.8-42.7,12.9C87.8,1,72.1-3.4,60.6,3.1C49.6,9.5,46.4,26,50.5,46.6
			C31,53.6,17.8,64.8,17.8,77.4L17.8,77.4z"/>
		<path class="st1" d="M153.4,53.8c-1.6-0.5-3.2-1.1-5-1.6c0.3-1.1,0.5-2.2,0.8-3.4c3.7-18.1,1.3-32.8-7-37.5
			c-8-4.6-21.1,0.2-34.2,11.7c-1.3,1.1-2.6,2.2-3.8,3.5c-0.8-0.8-1.6-1.6-2.6-2.4C87.9,11.7,74,6.6,65.7,11.4
			c-8,4.6-10.4,18.4-7,35.5c0.3,1.8,0.6,3.4,1.1,5.1c-1.9,0.5-3.8,1.1-5.6,1.8c-16.1,5.6-26.5,14.5-26.5,23.6c0,9.4,11.2,19,28,24.8
			c1.4,0.5,2.7,1,4.2,1.3c-0.5,1.8-0.8,3.7-1.3,5.4c-3.2,16.9-0.6,30.2,7.2,34.8c8.1,4.8,22-0.2,35.5-11.8c1.1-1,2.1-1.9,3.2-2.9
			c1.3,1.3,2.7,2.6,4.2,3.8c12.9,11.2,25.9,15.7,33.9,11.2c8.1-4.8,10.9-19.2,7.3-36.6c-0.3-1.3-0.6-2.7-1-4.2l2.9-1
			c17.6-5.8,28.9-15.2,28.9-24.8C180.6,68.5,169.9,59.5,153.4,53.8z"/>
		<path class="st0" d="M149.6,96.3c-0.8,0.3-1.8,0.5-2.6,0.8c-2.1-6.7-4.8-13.1-7.7-19.3c2.9-6.2,5.4-12.6,7.5-19.2
			c1.6,0.5,3,1,4.5,1.4c14.2,4.8,22.8,12.1,22.8,17.6C174,83.5,164.8,91.1,149.6,96.3z M143.4,108.7c1.4,6.7,1.8,13.4,0.8,20.1
			c-1,5-2.7,8.1-5,9.4c-4.8,2.7-15.2-0.8-26.2-10.4c-1.3-1.1-2.6-2.2-3.8-3.5c4.6-5.1,8.9-10.5,12.8-16.3c7-0.6,13.9-1.6,20.8-3.2
			C142.7,106.3,143,107.4,143.4,108.7L143.4,108.7z M79.8,138c-4.6,1.6-8.5,1.8-10.7,0.5c-4.8-2.7-6.9-13.6-4.2-28
			c0.3-1.8,0.6-3.4,1.1-5.1c6.9,1.4,13.7,2.4,20.6,3c4,5.8,8.5,11.2,13.1,16.3c-1,1-1.9,1.8-2.9,2.7C91.9,131.7,86,135.4,79.8,138z
			 M57.7,96.3c-6.6-2.1-12.5-5.3-17.9-9.4c-3.8-3.2-5.8-6.6-5.8-9.1c0-5.6,8.3-12.6,22.2-17.6c1.8-0.6,3.5-1.1,5.3-1.6
			c2.1,6.6,4.5,13.1,7.5,19.3c-2.9,6.4-5.4,12.9-7.5,19.7C60.1,97.1,58.8,96.6,57.7,96.3z M65.1,45.8c-2.9-14.7-1-25.7,3.8-28.6
			c5.1-3,16.5,1.3,28.4,11.8c0.8,0.6,1.6,1.4,2.2,2.1c-4.6,5.1-9.1,10.5-13.1,16.1c-6.9,0.6-13.7,1.6-20.5,3.2
			C65.7,49,65.4,47.4,65.1,45.8z M131.1,62.1c-1.4-2.6-3-5.1-4.6-7.7c5,0.6,9.6,1.4,13.9,2.4c-1.4,4.5-3,8.9-5,13.1
			C134.1,67.3,132.6,64.8,131.1,62.1L131.1,62.1z M104.2,35.9c3.2,3.5,6.2,7,8.9,10.9c-6.1-0.3-12-0.3-18.1,0
			C98,43.1,101,39.4,104.2,35.9z M77,62.2c-1.4,2.6-2.9,5.3-4.3,8c-1.8-4.3-3.5-8.8-4.8-13.3c4.6-1,9.3-1.8,13.9-2.4
			C80.1,57,78.5,59.6,77,62.2z M81.8,101.2c-4.8-0.5-9.4-1.3-14.1-2.2c1.4-4.6,3-9.1,5-13.6c1.4,2.7,2.9,5.3,4.3,8
			C78.6,96.1,80.2,98.7,81.8,101.2z M104.4,119.7c-3.2-3.5-6.4-7.2-9.3-11c2.9,0.2,5.9,0.2,8.9,0.2c3.2,0,6.2,0,9.3-0.2
			C110.4,112.6,107.6,116.2,104.4,119.7z M135.5,85.2c1.9,4.5,3.7,8.9,5.1,13.4c-4.8,1.1-9.4,1.9-14.2,2.4c1.6-2.6,3.2-5.1,4.6-7.8
			C132.6,90.7,134.1,87.9,135.5,85.2z M125.5,90c-2.4,4-4.8,8-7.3,11.8c-4.5,0.3-9.3,0.5-14.1,0.5c-4.8,0-9.4-0.2-13.9-0.5
			C87.4,98,85,94,82.6,90c-2.4-4-4.5-8.1-6.6-12.3c2.1-4.2,4.2-8.3,6.6-12.3c2.4-4,4.8-8,7.3-11.8c9.3-0.6,18.5-0.6,28,0
			c2.6,3.8,5.1,7.8,7.3,11.8c2.4,4,4.5,8.1,6.6,12.3C129.9,81.9,127.7,86,125.5,90z M138.9,17c5.1,3,7.2,14.9,3.8,30.5
			c-0.2,1-0.5,2.1-0.6,3c-6.7-1.6-13.6-2.6-20.5-3.2c-4-5.6-8.3-11-12.9-16.1c1.1-1.1,2.4-2.2,3.5-3.2
			C123.5,18.1,134.1,14.3,138.9,17z"/>
		<path class="st1" d="M104,64.1c7.5,0,13.7,6.1,13.7,13.7c0,7.5-6.1,13.7-13.7,13.7c-7.5,0-13.7-6.1-13.7-13.7
			C90.5,70.2,96.5,64.1,104,64.1"/>
	</g>
	<g>
		<path class="st1" d="M23.9,201H7.4v24.1H0v-60.2h22.2c11.7,0,20,5.6,20,17v2c0,8.1-4.3,13.3-10.7,15.6l14.3,25.6h-8.3L23.9,201z
			 M21.9,194.3c7.6,0,13-3.5,13-10.4v-1.9c0-7-5.4-10.6-13-10.6H7.4v22.8L21.9,194.3L21.9,194.3z M58.9,207.9
			c0,6.9,4.3,12.2,11.7,12.2c6.1,0,9.8-3.1,10.4-7.8h7c-0.7,8-7.6,13.7-17.2,13.7c-11.5,0-18.7-7.4-18.7-19.8v-2.8
			c0-12.2,7-19.8,18.5-19.8c11.1,0,17.6,7.2,17.6,18.9v4.6H58.9L58.9,207.9L58.9,207.9z M58.9,200.8v0.4h22v-0.9
			c0-5.9-3.1-10.9-10.6-10.9c-5.9-0.4-11.1,4.3-11.5,10.2V200.8L58.9,200.8z M129.4,200.3v25h-7V221c-3.3,3.3-8,5.2-12.8,5
			c-7.4,0-13-4.3-13-11.9c0-8.9,7-12.2,16.1-12.2c3.1,0,6.3,0.2,9.4,0.6v-3.1c0-5.9-2.6-9.8-8.5-9.8c-4.8-0.2-8.9,3.3-9.1,8.1v0.7
			h-7c0-7.4,5.7-14.6,15.9-14.6C124.3,183.4,129.4,189.7,129.4,200.3z M103.7,213.8c0,4.1,3,6.3,8,6.3c4.3-0.2,8.1-2,10.9-5.2v-6.7
			c-3-0.4-6.1-0.6-9.1-0.6C107.4,207.5,103.7,209.5,103.7,213.8z M176.5,199.3H170c-0.2-5.6-4.8-10-10.4-10h-0.4
			c-7.6,0-11.9,5.4-11.9,13.7v3.3c0,8.3,4.3,13.7,11.9,13.7c5.4,0.4,10.2-3.7,10.6-9.1v-0.2h6.7c-0.9,9.4-8,15.2-17.2,15.2
			c-11.5,0-18.9-7-18.9-19.8v-2.8c0-12.8,7.4-19.8,18.9-19.8C168.9,183.4,175.9,189.5,176.5,199.3L176.5,199.3z M207.8,224.9
			c-2.6,0.9-5.2,1.3-8,1.1c-7,0-11.7-4.1-11.7-12.8v-23.1h-7.4v-5.9h7.4v-14.3h7v14.3h12v5.9h-12l-0.2,21.9c0,5.7,2.6,7.6,6.9,7.6
			c1.9,0,3.9-0.4,5.6-1.1C207.4,218.4,207.8,224.9,207.8,224.9z"/>
	</g>
</g>
</svg>
