<?xml version="1.0" encoding="utf-8"?>
<!-- Generator: Adobe Illustrator 22.1.0, SVG Export Plug-In . SVG Version: 6.00 Build 0)  -->
<svg version="1.1" id="Layer_1" xmlns="http://www.w3.org/2000/svg" xmlns:xlink="http://www.w3.org/1999/xlink" x="0px" y="0px"
	 viewBox="0 0 256 256" style="enable-background:new 0 0 256 256;" xml:space="preserve">
<style type="text/css">
	.st0{clip-path:url(#SVGID_2_);fill:#7CB342;}
	.st1{clip-path:url(#SVGID_4_);fill:#8BC34A;}
	.st2{opacity:0.2;clip-path:url(#SVGID_6_);fill:#FFFFFF;enable-background:new    ;}
	.st3{opacity:0.2;clip-path:url(#SVGID_8_);fill:#263238;enable-background:new    ;}
	.st4{clip-path:url(#SVGID_10_);}
	.st5{fill:#263238;fill-opacity:5.000000e-02;}
	.st6{fill:#FFFFFF;fill-opacity:5.000000e-02;}
	.st7{clip-path:url(#SVGID_12_);}
	.st8{fill:url(#SVGID_13_);}
	.st9{fill:url(#SVGID_14_);}
	.st10{clip-path:url(#SVGID_16_);}
	.st11{fill:#646464;}
	.st12{clip-path:url(#SVGID_18_);}
	.st13{fill:#E1E1E1;}
	.st14{fill:#FFFFFF;fill-opacity:0.4;}
	.st15{fill:#262626;fill-opacity:0.2;}
	.st16{fill:#F1F1F1;}
	.st17{fill:none;}
	.st18{opacity:0.2;fill:#FFFFFF;enable-background:new    ;}
	.st19{fill:#FFFFFF;fill-opacity:0.2;}
	.st20{opacity:0.2;fill:#262626;enable-background:new    ;}
	.st21{fill:url(#SVGID_19_);fill-opacity:0.1;}
</style>
<g>
	<g>
		<g>
			<g>
				<g>
					<defs>
						<path id="SVGID_1_" d="M206.2,207.1L206.2,207.1l-14.7-25.4c21.4-18.1,35-45.1,35-75.2C226.5,52.2,182.4,8,128,8
							s-98.5,44.2-98.5,98.5c0,30.2,13.6,57.2,35,75.3l-14.7,25.4c-0.4,0.8-0.7,1.6-0.8,2.5l-1.3,16.6c-0.1,0.6,0.3,1.2,0.8,1.5l0,0
							l0,0c0.5,0.4,1.2,0.3,1.7-0.1l13.8-9.3c0.7-0.5,1.3-1.2,1.8-1.9l0,0l13.9-24c14.2,8.1,30.7,12.6,48.3,12.6s34-4.7,48.4-12.7
							l13.9,24c0.4,0.8,1.1,1.4,1.8,1.9l13.8,9.4c0.5,0.4,1.2,0.4,1.7,0.1l0,0l0,0c0.5-0.4,0.8-0.9,0.8-1.5l-1.3-16.6
							C206.9,208.8,206.7,207.9,206.2,207.1z"/>
					</defs>
					<clipPath id="SVGID_2_">
						<use xlink:href="#SVGID_1_"  style="overflow:visible;"/>
					</clipPath>
					<path class="st0" d="M128,8c-54.4,0-98.5,44.2-98.5,98.5H128h98.5C226.6,52.1,182.5,8,128,8z"/>
				</g>
			</g>
			<g>
				<g>
					<defs>
						<path id="SVGID_3_" d="M206.2,207.1L206.2,207.1l-14.7-25.4c21.4-18.1,35-45.1,35-75.2C226.5,52.2,182.4,8,128,8
							s-98.5,44.2-98.5,98.5c0,30.2,13.6,57.2,35,75.3l-14.7,25.4c-0.4,0.8-0.7,1.6-0.8,2.5l-1.3,16.6c-0.1,0.6,0.3,1.2,0.8,1.5l0,0
							l0,0c0.5,0.4,1.2,0.3,1.7-0.1l13.8-9.3c0.7-0.5,1.3-1.2,1.8-1.9l0,0l13.9-24c14.2,8.1,30.7,12.6,48.3,12.6s34-4.7,48.4-12.7
							l13.9,24c0.4,0.8,1.1,1.4,1.8,1.9l13.8,9.4c0.5,0.4,1.2,0.4,1.7,0.1l0,0l0,0c0.5-0.4,0.8-0.9,0.8-1.5l-1.3-16.6
							C206.9,208.8,206.7,207.9,206.2,207.1z"/>
					</defs>
					<clipPath id="SVGID_4_">
						<use xlink:href="#SVGID_3_"  style="overflow:visible;"/>
					</clipPath>
					<path class="st1" d="M128,106.5H29.5c0,54.4,44.2,98.5,98.5,98.5s98.5-44.2,98.5-98.5C226.5,106.5,128,106.5,128,106.5z"/>
				</g>
			</g>
			<g>
				<g>
					<defs>
						<path id="SVGID_5_" d="M206.2,207.1L206.2,207.1l-14.7-25.4c21.4-18.1,35-45.1,35-75.2C226.5,52.2,182.4,8,128,8
							s-98.5,44.2-98.5,98.5c0,30.2,13.6,57.2,35,75.3l-14.7,25.4c-0.4,0.8-0.7,1.6-0.8,2.5l-1.3,16.6c-0.1,0.6,0.3,1.2,0.8,1.5l0,0
							l0,0c0.5,0.4,1.2,0.3,1.7-0.1l13.8-9.3c0.7-0.5,1.3-1.2,1.8-1.9l0,0l13.9-24c14.2,8.1,30.7,12.6,48.3,12.6s34-4.7,48.4-12.7
							l13.9,24c0.4,0.8,1.1,1.4,1.8,1.9l13.8,9.4c0.5,0.4,1.2,0.4,1.7,0.1l0,0l0,0c0.5-0.4,0.8-0.9,0.8-1.5l-1.3-16.6
							C206.9,208.8,206.7,207.9,206.2,207.1z"/>
					</defs>
					<clipPath id="SVGID_6_">
						<use xlink:href="#SVGID_5_"  style="overflow:visible;"/>
					</clipPath>
					<path class="st2" d="M128,9.1c54.2,0,98.3,43.8,98.5,98c0-0.2,0-0.4,0-0.5C226.5,52.2,182.4,8,128,8
						c-54.4-0.1-98.5,44.1-98.5,98.5c0,0.2,0,0.4,0,0.5C29.8,53,73.8,9.1,128,9.1z"/>
				</g>
			</g>
			<g>
				<g>
					<defs>
						<path id="SVGID_7_" d="M206.2,207.1L206.2,207.1l-14.7-25.4c21.4-18.1,35-45.1,35-75.2C226.5,52.2,182.4,8,128,8
							s-98.5,44.2-98.5,98.5c0,30.2,13.6,57.2,35,75.3l-14.7,25.4c-0.4,0.8-0.7,1.6-0.8,2.5l-1.3,16.6c-0.1,0.6,0.3,1.2,0.8,1.5l0,0
							l0,0c0.5,0.4,1.2,0.3,1.7-0.1l13.8-9.3c0.7-0.5,1.3-1.2,1.8-1.9l0,0l13.9-24c14.2,8.1,30.7,12.6,48.3,12.6s34-4.7,48.4-12.7
							l13.9,24c0.4,0.8,1.1,1.4,1.8,1.9l13.8,9.4c0.5,0.4,1.2,0.4,1.7,0.1l0,0l0,0c0.5-0.4,0.8-0.9,0.8-1.5l-1.3-16.6
							C206.9,208.8,206.7,207.9,206.2,207.1z"/>
					</defs>
					<clipPath id="SVGID_8_">
						<use xlink:href="#SVGID_7_"  style="overflow:visible;"/>
					</clipPath>
					<path class="st3" d="M128,203.9c-54.2,0-98.3-43.8-98.5-98c0,0.2,0,0.4,0,0.5c0,54.4,44.2,98.5,98.5,98.5s98.5-44.2,98.5-98.5
						c0-0.2,0-0.4,0-0.5C226.3,160.1,182.3,203.9,128,203.9z"/>
				</g>
			</g>
			<g>
				<g>
					<defs>
						<path id="SVGID_9_" d="M206.2,207.1L206.2,207.1l-14.7-25.4c21.4-18.1,35-45.1,35-75.2C226.5,52.2,182.4,8,128,8
							s-98.5,44.2-98.5,98.5c0,30.2,13.6,57.2,35,75.3l-14.7,25.4c-0.4,0.8-0.7,1.6-0.8,2.5l-1.3,16.6c-0.1,0.6,0.3,1.2,0.8,1.5l0,0
							l0,0c0.5,0.4,1.2,0.3,1.7-0.1l13.8-9.3c0.7-0.5,1.3-1.2,1.8-1.9l0,0l13.9-24c14.2,8.1,30.7,12.6,48.3,12.6s34-4.7,48.4-12.7
							l13.9,24c0.4,0.8,1.1,1.4,1.8,1.9l13.8,9.4c0.5,0.4,1.2,0.4,1.7,0.1l0,0l0,0c0.5-0.4,0.8-0.9,0.8-1.5l-1.3-16.6
							C206.9,208.8,206.7,207.9,206.2,207.1z"/>
					</defs>
					<clipPath id="SVGID_10_">
						<use xlink:href="#SVGID_9_"  style="overflow:visible;"/>
					</clipPath>
					<g class="st4">
						<rect x="18" y="105.4" class="st5" width="220" height="1.2"/>
						<rect x="18" y="106.5" class="st6" width="220" height="1.2"/>
					</g>
				</g>
			</g>
			<g>
				<g>
					<defs>
						<path id="SVGID_11_" d="M206.2,207.1L206.2,207.1l-14.7-25.4c21.4-18.1,35-45.1,35-75.2C226.5,52.2,182.4,8,128,8
							s-98.5,44.2-98.5,98.5c0,30.2,13.6,57.2,35,75.3l-14.7,25.4c-0.4,0.8-0.7,1.6-0.8,2.5l-1.3,16.6c-0.1,0.6,0.3,1.2,0.8,1.5l0,0
							l0,0c0.5,0.4,1.2,0.3,1.7-0.1l13.8-9.3c0.7-0.5,1.3-1.2,1.8-1.9l0,0l13.9-24c14.2,8.1,30.7,12.6,48.3,12.6s34-4.7,48.4-12.7
							l13.9,24c0.4,0.8,1.1,1.4,1.8,1.9l13.8,9.4c0.5,0.4,1.2,0.4,1.7,0.1l0,0l0,0c0.5-0.4,0.8-0.9,0.8-1.5l-1.3-16.6
							C206.9,208.8,206.7,207.9,206.2,207.1z"/>
					</defs>
					<clipPath id="SVGID_12_">
						<use xlink:href="#SVGID_11_"  style="overflow:visible;"/>
					</clipPath>
					<g class="st7">
						
							<linearGradient id="SVGID_13_" gradientUnits="userSpaceOnUse" x1="-455.7109" y1="1069.9591" x2="-27.196" y2="1498.4741" gradientTransform="matrix(0.2559 0 0 0.2559 193.4639 -184.4685)">
							<stop  offset="0.33" style="stop-color:#263238;stop-opacity:0.16"/>
							<stop  offset="1" style="stop-color:#263238;stop-opacity:0"/>
						</linearGradient>
						<path class="st8" d="M199,106.7c0-0.1,0-0.2,0-0.2h-4.6l-55-55l0,0l0,0H128h-11.4v0.1V70h-5.8c-5.6,0-10.3,4.7-10.3,10.3v23.4
							h0.1c-0.1,0.8,0.4,1.8,1.5,3c0.1,0.1,0.1,0.1,0.1,0.2l3.6,3.6L64.5,182c4.7,4,9.9,7.5,15.2,10.6c14.3,8.1,30.7,12.7,48.4,12.7
							c17.6,0,34-4.7,48.4-12.7c5.4-3,10.5-6.6,15.2-10.6c14.5-12.3,25.4-28.6,30.9-47.3c0.4-1.2,0.6-2.3,1-3.4L199,106.7z"/>
						
							<linearGradient id="SVGID_14_" gradientUnits="userSpaceOnUse" x1="-554.7817" y1="1332.5323" x2="-205.4331" y2="1208.618" gradientTransform="matrix(0.2559 0 0 0.2559 193.4639 -184.4685)">
							<stop  offset="0.33" style="stop-color:#263238;stop-opacity:0.16"/>
							<stop  offset="1" style="stop-color:#263238;stop-opacity:0"/>
						</linearGradient>
						<path class="st9" d="M199,106.7c0-0.1,0-0.2,0-0.2h-4.6l-55-55l0,0l0,0H128h-11.4v0.1V70h-5.8c-5.6,0-10.3,4.7-10.3,10.3v23.4
							h0.1c-0.1,0.8,0.4,1.8,1.5,3c0.1,0.1,0.1,0.1,0.1,0.2l3.6,3.6L64.5,182c4.7,4,9.9,7.5,15.2,10.6c14.3,8.1,30.7,12.7,48.4,12.7
							c17.6,0,34-4.7,48.4-12.7c5.4-3,10.5-6.6,15.2-10.6c14.5-12.3,25.4-28.6,30.9-47.3c0.4-1.2,0.6-2.3,1-3.4L199,106.7z"/>
					</g>
				</g>
			</g>
			<g>
				<g>
					<defs>
						<path id="SVGID_15_" d="M206.2,207.1L206.2,207.1l-14.7-25.4c21.4-18.1,35-45.1,35-75.2C226.5,52.2,182.4,8,128,8
							s-98.5,44.2-98.5,98.5c0,30.2,13.6,57.2,35,75.3l-14.7,25.4c-0.4,0.8-0.7,1.6-0.8,2.5l-1.3,16.6c-0.1,0.6,0.3,1.2,0.8,1.5l0,0
							l0,0c0.5,0.4,1.2,0.3,1.7-0.1l13.8-9.3c0.7-0.5,1.3-1.2,1.8-1.9l0,0l13.9-24c14.2,8.1,30.7,12.6,48.3,12.6s34-4.7,48.4-12.7
							l13.9,24c0.4,0.8,1.1,1.4,1.8,1.9l13.8,9.4c0.5,0.4,1.2,0.4,1.7,0.1l0,0l0,0c0.5-0.4,0.8-0.9,0.8-1.5l-1.3-16.6
							C206.9,208.8,206.7,207.9,206.2,207.1z"/>
					</defs>
					<clipPath id="SVGID_16_">
						<use xlink:href="#SVGID_15_"  style="overflow:visible;"/>
					</clipPath>
					<g class="st10">
						
							<image style="overflow:visible;opacity:0.2;enable-background:new    ;" width="364" height="400" xlink:href="CA1FA0E8.png"  transform="matrix(0.4558 0 0 0.4558 45.9895 49.2638)">
						</image>
						<g>
							<path class="st11" d="M207,209.7c-0.1-0.9-0.4-1.7-0.8-2.5l0,0l-28.7-49.7c13.3-12.9,21.6-31,21.6-51h-18.4
								c0,13.1-4.8,25.1-12.8,34.4l-17.7-30.6l3.6-3.6c1.2-1.2,1.6-2.2,1.6-3h0.1V80.3c0-5.6-4.7-10.3-10.3-10.3h-5.7V51.6v-0.1H128
								h-11.4v0.1V70h-5.8c-5.6,0-10.3,4.7-10.3,10.3v23.4h0.1c-0.1,0.9,0.4,1.9,1.6,3l3.6,3.6l-56,96.8c-0.4,0.8-0.7,1.6-0.8,2.5
								l-1.3,16.7c-0.1,0.6,0.3,1.2,0.8,1.5l0,0l0,0c0.5,0.4,1.2,0.3,1.7-0.1l13.8-9.3c0.7-0.5,1.3-1.2,1.8-1.9l0,0l27.7-47.9
								c10.2,5.7,22,9,34.6,9c12.5,0,24.4-3.3,34.6-9l27.7,47.8c0.4,0.8,1.1,1.4,1.8,1.9l13.8,9.4c0.5,0.4,1.2,0.4,1.7,0.1l0,0l0,0
								c0.5-0.4,0.8-0.9,0.8-1.5L207,209.7z M128,79v-0.2V79c7.6,0.1,13.8,6.2,13.8,13.8c0,7.6-6.2,13.7-13.7,13.8H128l0,0
								c-7.5,0-13.7-6.2-13.7-13.8C114.3,85.1,120.4,79,128,79z M128,159.2c-9.2,0-17.9-2.4-25.4-6.5l16.7-28.8l3.5,3.5
								c1.4,1.4,3.3,2.1,5.1,2.1v-0.1l0.1,0.1c1.9,0,3.8-0.7,5.1-2.1l3.5-3.5l16.7,28.9C145.9,156.9,137.2,159.2,128,159.2z"/>
						</g>
					</g>
				</g>
			</g>
			<g>
				<g>
					<defs>
						<path id="SVGID_17_" d="M206.2,207.1L206.2,207.1l-14.7-25.4c21.4-18.1,35-45.1,35-75.2C226.5,52.2,182.4,8,128,8
							s-98.5,44.2-98.5,98.5c0,30.2,13.6,57.2,35,75.3l-14.7,25.4c-0.4,0.8-0.7,1.6-0.8,2.5l-1.3,16.6c-0.1,0.6,0.3,1.2,0.8,1.5l0,0
							l0,0c0.5,0.4,1.2,0.3,1.7-0.1l13.8-9.3c0.7-0.5,1.3-1.2,1.8-1.9l0,0l13.9-24c14.2,8.1,30.7,12.6,48.3,12.6s34-4.7,48.4-12.7
							l13.9,24c0.4,0.8,1.1,1.4,1.8,1.9l13.8,9.4c0.5,0.4,1.2,0.4,1.7,0.1l0,0l0,0c0.5-0.4,0.8-0.9,0.8-1.5l-1.3-16.6
							C206.9,208.8,206.7,207.9,206.2,207.1z"/>
					</defs>
					<clipPath id="SVGID_18_">
						<use xlink:href="#SVGID_17_"  style="overflow:visible;"/>
					</clipPath>
					<g class="st12">
						<path class="st13" d="M207,209.7c-0.1-0.9-0.4-1.7-0.8-2.5l0,0l-28.7-49.7l-9.5-16.6l-17.7-30.6l-13.5,13.5l16.7,28.9
							l9.1,15.9l27.7,47.8c0.4,0.8,1.1,1.4,1.8,1.9l13.8,9.4c0.5,0.4,1.2,0.4,1.7,0.1l0,0l0,0c0.5-0.4,0.8-0.9,0.8-1.5L207,209.7z"
							/>
						<path class="st14" d="M168,142l9.5,16.6l28.8,49.7l0,0c0.4,0.8,0.7,1.6,0.8,2.5l1.2,15.8c0-0.1,0.1-0.2,0.1-0.4l-1.3-16.6
							c-0.1-0.9-0.4-1.7-0.8-2.5l0,0l-28.7-49.7l-9.5-16.6l-17.7-30.6l-0.5,0.6L168,142z"/>
						<path class="st15" d="M207.5,226.6L207.5,226.6L207.5,226.6c-0.5,0.4-1.2,0.3-1.7-0.1l-13.8-9.4c-0.7-0.5-1.3-1.2-1.8-1.9
							l-27.7-47.8l-9.1-15.9l-16.1-28.1l-0.4,0.4l16.7,28.9l9.1,15.9l27.7,47.8c0.4,0.8,1.1,1.4,1.8,1.9l13.8,9.4
							c0.5,0.4,1.2,0.4,1.7,0.1l0,0l0,0c0.5-0.4,0.8-0.9,0.8-1.5l-0.1-0.8C208.1,225.9,207.9,226.4,207.5,226.6z"/>
						<path class="st16" d="M180.8,106.5c0,13.1-4.8,25.1-12.8,34.4c-4.1,4.7-9,8.8-14.5,11.8c-7.5,4.2-16.2,6.5-25.4,6.5
							s-17.9-2.4-25.4-6.5l16.7-28.9l-13.5-13.5l-56,96.9c-0.4,0.8-0.7,1.6-0.8,2.5l-1.3,16.7c-0.1,0.6,0.3,1.2,0.8,1.5l0,0l0,0
							c0.5,0.4,1.2,0.3,1.7-0.1l13.8-9.3c0.7-0.5,1.3-1.2,1.8-1.9l0,0l27.7-47.9c10.2,5.7,22,9,34.6,9s24.4-3.3,34.6-9
							c5.5-3,10.5-6.8,14.9-11.1c13.3-12.9,21.6-31,21.6-51L180.8,106.5L180.8,106.5z"/>
						<path class="st17" d="M133.2,127.3c-1.4,1.4-3.3,2.1-5.1,2.1l-0.1-0.1v0.1c-1.9,0-3.8-0.7-5.1-2.1l-3.5-3.5l-16.7,28.8
							c7.5,4.2,16.2,6.5,25.4,6.5s17.9-2.4,25.4-6.5l-16.7-28.9L133.2,127.3z"/>
						<g>
							<path class="st14" d="M49.8,208.3l56.6-97.5l-0.6-0.5l-56,96.9c-0.4,0.8-0.7,1.6-0.8,2.5l-1.3,16.7c0,0.1,0.1,0.2,0.1,0.4
								l1.2-15.8C49.2,210,49.4,209.1,49.8,208.3z"/>
							<path class="st14" d="M128,160.4c9.2,0,17.9-2.4,25.4-6.5c5.5-3,10.4-7.1,14.5-11.8c8-9.2,12.8-21.2,12.8-34.4H199
								c0-0.4,0.1-0.8,0.1-1.2h-18.4c0,13.1-4.8,25.1-12.8,34.4c-4.1,4.7-9,8.8-14.5,11.8c-7.5,4.2-16.2,6.5-25.4,6.5
								c-9,0-17.5-2.3-24.9-6.4l-0.5,0.9C110.2,158,118.9,160.4,128,160.4z"/>
							<path class="st15" d="M102.6,152.6l16.7-28.8l-0.4-0.4l-16.8,28.9C102.3,152.4,102.5,152.5,102.6,152.6z"/>
							<path class="st15" d="M177.5,156.3c-4.5,4.3-9.4,8.1-14.9,11.1c-10.2,5.7-22,9-34.6,9s-24.4-3.3-34.6-9l-27.7,47.9l0,0
								c-0.4,0.8-1.1,1.4-1.8,1.9l-13.8,9.3c-0.5,0.4-1.2,0.4-1.7,0.1l0,0l0,0c-0.4-0.3-0.6-0.7-0.7-1.2l-0.1,0.8
								c-0.1,0.6,0.3,1.2,0.8,1.5l0,0l0,0c0.5,0.3,1.2,0.3,1.7-0.1l13.8-9.3c0.7-0.5,1.3-1.2,1.8-1.9l0,0l27.7-47.9
								c10.2,5.7,22,9,34.6,9s24.4-3.3,34.6-9c5.5-3,10.5-6.8,14.9-11.1c13.3-12.9,21.6-31,21.6-51H199
								C198.8,126,190.5,143.6,177.5,156.3z"/>
						</g>
						<path class="st11" d="M145.2,69.9h-5.7V51.5v-0.1H128h-11.4v0.1v18.4h-5.8c-5.6,0-10.3,4.7-10.3,10.3v23.4h0.1
							c-0.1,0.9,0.4,1.9,1.6,3l20.7,20.7c1.4,1.4,3.3,2.1,5.1,2.1v-0.1l0.1,0.1c1.9,0,3.8-0.7,5.1-2.1l20.7-20.7
							c1.2-1.2,1.6-2.2,1.6-3h0.1V80.3C155.5,74.6,150.9,69.9,145.2,69.9z M128.1,106.5L128.1,106.5L128.1,106.5
							c-7.6,0-13.8-6.2-13.8-13.8c0-7.6,6.2-13.8,13.7-13.8v-0.2l0.1,0.2c7.5,0.1,13.7,6.2,13.7,13.8
							C141.8,100.4,135.6,106.4,128.1,106.5z"/>
						<path class="st18" d="M139.5,52.6v-1.1v-0.1H128h-11.4v0.1v1.1H128H139.5z"/>
						<path class="st19" d="M128.1,105.4L128.1,105.4L128.1,105.4c-7.4,0-13.4-5.9-13.8-13.2c0,0.2-0.1,0.4-0.1,0.5
							c0,7.5,6.2,13.8,13.7,13.8l0,0h0.1c7.5-0.1,13.7-6.2,13.7-13.8c0-0.2,0-0.4-0.1-0.5C141.4,99.5,135.4,105.3,128.1,105.4z"/>
						<path class="st18" d="M110.9,71.1h5.8v-1.2h-5.8c-5.6,0-10.3,4.7-10.3,10.3v1.2C100.5,75.7,105.2,71.1,110.9,71.1z"/>
						<path class="st18" d="M145.2,69.9h-5.7v1.2h5.7c5.6,0,10.3,4.7,10.3,10.3v-1.1C155.5,74.6,150.9,69.9,145.2,69.9z"/>
						<path class="st20" d="M128.1,79l-0.1-0.2L128.1,79c-7.6,0-13.8,6.2-13.8,13.8c0,0.2,0,0.4,0.1,0.5c0.4-7.3,6.4-13.2,13.7-13.2
							V80l0.1,0.2c7.3,0.1,13.3,5.9,13.6,13.2c0-0.2,0.1-0.4,0.1-0.5C141.8,85.2,135.6,79,128.1,79z"/>
						<path class="st15" d="M153.9,105.6l-20.7,20.7c-1.4,1.4-3.3,2.1-5.1,2.1l-0.1-0.1v0.1c-1.9,0-3.8-0.7-5.1-2.1l-20.7-20.7
							c-1.2-1.2-1.6-2.2-1.6-3h-0.1v1.2h0.1c-0.1,0.9,0.4,1.9,1.6,3l20.7,20.6c1.4,1.4,3.3,2.1,5.1,2.1v-0.1l0.1,0.1
							c1.9,0,3.8-0.7,5.1-2.1l20.7-20.7c1.2-1.2,1.6-2.2,1.6-3h0.1v-1.2h-0.1C155.5,103.3,155.1,104.4,153.9,105.6z"/>
						<path class="st17" d="M128,106.5L128,106.5L128,106.5c7.6-0.1,13.8-6.2,13.8-13.8c0-7.6-6.2-13.7-13.7-13.8l-0.1-0.2v0.2
							c-7.5,0-13.7,6.2-13.7,13.8C114.3,100.4,120.4,106.5,128,106.5z"/>
					</g>
				</g>
			</g>
		</g>
		
			<radialGradient id="SVGID_19_" cx="-527.1248" cy="890.7769" r="951.0789" gradientTransform="matrix(0.2559 0 0 0.2559 193.4639 -184.4685)" gradientUnits="userSpaceOnUse">
			<stop  offset="0" style="stop-color:#FFFFFF"/>
			<stop  offset="1" style="stop-color:#FFFFFF;stop-opacity:0"/>
		</radialGradient>
		<path class="st21" d="M206.2,207.1L206.2,207.1l-14.7-25.4c21.4-18.1,35-45.1,35-75.2C226.5,52.2,182.4,8,128,8
			s-98.5,44.2-98.5,98.5c0,30.2,13.6,57.2,35,75.3l-14.7,25.4c-0.4,0.8-0.7,1.6-0.8,2.5l-1.3,16.6c-0.1,0.6,0.3,1.2,0.8,1.5l0,0l0,0
			c0.5,0.4,1.2,0.3,1.7-0.1l13.8-9.3c0.7-0.5,1.3-1.2,1.8-1.9l0,0l13.9-24c14.2,8.1,30.7,12.6,48.3,12.6s34-4.7,48.4-12.7l13.9,24
			c0.4,0.8,1.1,1.4,1.8,1.9l13.8,9.4c0.5,0.4,1.2,0.4,1.7,0.1l0,0l0,0c0.5-0.4,0.8-0.9,0.8-1.5l-1.3-16.6
			C206.9,208.8,206.7,207.9,206.2,207.1z"/>
	</g>
	<rect x="18" y="8" class="st17" width="220" height="220"/>
</g>
</svg>
