<?xml version="1.0" encoding="utf-8"?>
<!-- Generator: Adobe Illustrator 22.1.0, SVG Export Plug-In . SVG Version: 6.00 Build 0)  -->
<svg version="1.1"
	 id="svg4398" inkscape:version="0.92.4 (5da689c313, 2019-01-14)" sodipodi:docname="httpd.svg" xmlns:cc="http://creativecommons.org/ns#" xmlns:dc="http://purl.org/dc/elements/1.1/" xmlns:inkscape="http://www.inkscape.org/namespaces/inkscape" xmlns:rdf="http://www.w3.org/1999/02/22-rdf-syntax-ns#" xmlns:sodipodi="http://sodipodi.sourceforge.net/DTD/sodipodi-0.dtd" xmlns:svg="http://www.w3.org/2000/svg"
	 xmlns="http://www.w3.org/2000/svg" xmlns:xlink="http://www.w3.org/1999/xlink" x="0px" y="0px" viewBox="0 0 432.6 467.8"
	 style="enable-background:new 0 0 432.6 467.8;" xml:space="preserve">
<style type="text/css">
	.st0{fill:url(#path1930_1_);}
	.st1{fill:none;}
	.st2{fill:#BD202E;}
	.st3{opacity:0.35;fill:#BD202E;enable-background:new    ;}
	.st4{fill:url(#path1958_1_);}
	.st5{fill:url(#path1970_1_);}
	.st6{fill:url(#path1982_1_);}
	.st7{fill:url(#path1994_1_);}
	.st8{fill:url(#path2006_1_);}
	.st9{fill:url(#path2018_1_);}
	.st10{fill:url(#path2034_1_);}
	.st11{fill:url(#path2050_1_);}
	.st12{fill:url(#path2066_1_);}
	.st13{fill:#AA0000;}
</style>
<sodipodi:namedview  bordercolor="#666666" borderopacity="1" fit-margin-bottom="0" fit-margin-left="0" fit-margin-right="0" fit-margin-top="0" gridtolerance="10" guidetolerance="10" id="namedview1920" inkscape:current-layer="svg4398" inkscape:cx="546.05731" inkscape:cy="208.23689" inkscape:pageopacity="0" inkscape:pageshadow="2" inkscape:window-height="877" inkscape:window-maximized="1" inkscape:window-width="1600" inkscape:window-x="-8" inkscape:window-y="-8" inkscape:zoom="0.26279293" objecttolerance="10" pagecolor="#ffffff" showgrid="false">
	</sodipodi:namedview>
<g>
	<g id="g2068" transform="matrix(0.22594137,0,0,0.22594137,72.15641,466.78864)">
		
			<linearGradient id="path1930_1_" gradientUnits="userSpaceOnUse" x1="-18777.5664" y1="-6994.9717" x2="-18203.6445" y2="-6323.8701" gradientTransform="matrix(3.681945e-02 -7.896055e-02 7.896055e-02 3.681945e-02 2080.8745 -3158.1404)">
			<stop  offset="0" style="stop-color:#F59723"/>
			<stop  offset="0.3123" style="stop-color:#F69822"/>
			<stop  offset="0.8383" style="stop-color:#E87726"/>
		</linearGradient>
		<path id="path1930" inkscape:connector-curvature="0" class="st0" d="M913.6-2058.6c-24.6,14.5-65.5,55.6-114.1,115.1l44.7,84.5
			c31.5-44.9,63.4-85.4,95.6-120c2.5-2.7,3.7-4,3.7-4c-1.2,1.3-2.5,2.7-3.7,4c-10.4,11.4-42.1,48.4-89.8,121.7
			c46-2.3,116.5-11.7,174.1-21.5c17.2-96-16.8-139.9-16.8-139.9S964.2-2088.4,913.6-2058.6z"/>
		<path id="path1932" inkscape:connector-curvature="0" class="st1" d="M837.8-1576.4c0.3-0.1,0.6-0.1,1-0.2l-6.4,0.7
			c-0.4,0.2-0.7,0.4-1.1,0.5C833.4-1575.8,835.7-1576.1,837.8-1576.4z"/>
		<path id="path1934" inkscape:connector-curvature="0" class="st1" d="M792.1-1425c-3.6,0.8-7.3,1.5-11.2,2.1
			C784.7-1423.5,788.4-1424.3,792.1-1425z"/>
		<path id="path1936" inkscape:connector-curvature="0" class="st1" d="M481.4-1085.4c0.5-1.2,0.9-2.5,1.4-3.7
			c9.9-26,19.7-51.3,29.3-76c10.8-27.7,21.5-54.4,32.2-80.3c11.2-27.3,22.2-53.8,33-79.3c11.3-26.7,22.6-52.6,33.6-77.4
			c9-20.2,17.8-39.8,26.5-58.8c2.9-6.3,5.8-12.6,8.7-18.8c5.7-12.3,11.3-24.3,17-36.1c5.2-10.8,10.2-21.4,15.4-31.9
			c1.7-3.4,3.4-6.9,5.1-10.3c0.3-0.5,0.5-1.1,0.8-1.7l-5.5,0.5l-4.4-8.6c-0.5,0.8-0.8,1.7-1.3,2.5c-7.8,15.7-15.7,31.4-23.4,47.2
			c-4.4,9.2-8.9,18.5-13.3,27.7c-12.2,25.7-24.2,51.7-36.1,77.6c-12,26.4-23.7,52.9-35.3,79.4c-11.2,26.1-22.4,52.2-33.2,78.2
			c-10.8,26-21.4,52-31.7,77.6c-10.8,26.8-21.2,53.5-31.4,79.8c-2.4,6-4.5,11.9-6.9,17.8c-8.2,21.2-16.1,42.3-23.8,62.9l6.9,13.6
			l6.2-0.6c0.2-0.6,0.5-1.2,0.6-1.9C461.9-1033,471.7-1059.6,481.4-1085.4L481.4-1085.4z"/>
		<path id="path1938" inkscape:connector-curvature="0" class="st1" d="M778.1-1422.5"/>
		<path id="path1940" inkscape:connector-curvature="0" class="st2" d="M763.2-1348.7c-5.7,1-11.5,2.1-17.6,3.1c0,0-0.1,0-0.1,0.1
			c3.1-0.5,6.1-0.9,9.1-1.4C757.4-1347.6,760.3-1348.1,763.2-1348.7z"/>
		<path id="path1942" inkscape:connector-curvature="0" class="st3" d="M763.2-1348.7c-5.7,1-11.5,2.1-17.6,3.1c0,0-0.1,0-0.1,0.1
			c3.1-0.5,6.1-0.9,9.1-1.4C757.4-1347.6,760.3-1348.1,763.2-1348.7z"/>
		<path id="path1944" inkscape:connector-curvature="0" class="st2" d="M778.2-1422.6C778.2-1422.6,778.2-1422.5,778.2-1422.6
			C778.1-1422.6,778.1-1422.6,778.2-1422.6c0.8,0,1.8-0.2,2.7-0.4c3.8-0.5,7.5-1.2,11.2-2.1C787.5-1424.3,783-1423.4,778.2-1422.6z"
			/>
		<path id="path1946" inkscape:connector-curvature="0" class="st3" d="M778.2-1422.6C778.2-1422.6,778.2-1422.5,778.2-1422.6
			C778.1-1422.6,778.1-1422.6,778.2-1422.6c0.8,0,1.8-0.2,2.7-0.4c3.8-0.5,7.5-1.2,11.2-2.1C787.5-1424.3,783-1423.4,778.2-1422.6z"
			/>
		
			<linearGradient id="path1958_1_" gradientUnits="userSpaceOnUse" x1="-37577.9688" y1="-7320.1572" x2="-33483.3516" y2="-7320.1572" gradientTransform="matrix(3.681945e-02 -7.896055e-02 7.896055e-02 3.681945e-02 2080.8745 -3158.1404)">
			<stop  offset="0.3233" style="stop-color:#9C2063"/>
			<stop  offset="0.6302" style="stop-color:#C82037"/>
			<stop  offset="0.7514" style="stop-color:#CC2135"/>
			<stop  offset="1" style="stop-color:#E87726"/>
		</linearGradient>
		<path id="path1958" inkscape:connector-curvature="0" class="st4" d="M712.3-1640.5c13.6-25.5,27.4-50.3,41.3-74.4
			c14.4-25.2,29.1-49.5,43.9-73.1c0.8-1.4,1.8-2.8,2.6-4.2c14.6-23.1,29.4-45.4,44.2-66.6l-44.7-84.5c-3.4,4.1-6.7,8.3-10.2,12.6
			c-13,16.1-26.3,33.4-40.1,51.8c-15.5,20.7-31.4,42.8-47.6,66c-14.9,21.4-30.1,43.8-45.3,67.1c-13,19.8-25.8,40.1-38.7,60.9
			c-0.5,0.7-0.9,1.5-1.4,2.4l58.3,115.1C686.9-1592.4,699.6-1616.7,712.3-1640.5z"/>
		
			<linearGradient id="path1970_1_" gradientUnits="userSpaceOnUse" x1="-35390.3398" y1="-5502.7031" x2="-32950.3477" y2="-5502.7031" gradientTransform="matrix(3.681945e-02 -7.896055e-02 7.896055e-02 3.681945e-02 2080.8745 -3158.1404)">
			<stop  offset="0" style="stop-color:#282661"/>
			<stop  offset="9.548389e-02" style="stop-color:#662E8C"/>
			<stop  offset="0.7882" style="stop-color:#9E2064"/>
			<stop  offset="0.9487" style="stop-color:#CC2032"/>
		</linearGradient>
		<path id="path1970" inkscape:connector-curvature="0" class="st5" d="M446.8-992.1c-7.7,21.1-15.5,42.8-23.2,64.8
			c-0.1,0.3-0.2,0.6-0.4,0.9c-1.1,3.1-2.3,6.3-3.3,9.3c-5.3,14.9-9.8,28.3-20.2,58.7c17.1,7.8,30.9,28.5,44,51.9
			c-1.4-24.2-11.3-47-30.5-64.6c84.6,3.8,157.5-17.6,195.2-79.4c3.4-5.5,6.4-11.2,9.2-17.5c-17.1,21.8-38.4,30.9-78.4,28.7
			c-0.1,0-0.2,0.1-0.3,0.1c0.1,0,0.2-0.1,0.3-0.1c58.9-26.4,88.4-51.7,114.6-93.6c6.2-10,12.2-20.8,18.4-32.8
			c-51.5,52.9-111.1,67.9-173.9,56.5l-47.1,5.2C449.7-999.9,448.3-996,446.8-992.1z"/>
		
			<linearGradient id="path1982_1_" gradientUnits="userSpaceOnUse" x1="-36560.1211" y1="-7490.4395" x2="-32465.502" y2="-7490.4395" gradientTransform="matrix(3.681945e-02 -7.896055e-02 7.896055e-02 3.681945e-02 2080.8745 -3158.1404)">
			<stop  offset="0.3233" style="stop-color:#9C2063"/>
			<stop  offset="0.6302" style="stop-color:#C82037"/>
			<stop  offset="0.7514" style="stop-color:#CC2135"/>
			<stop  offset="1" style="stop-color:#E87726"/>
		</linearGradient>
		<path id="path1982" inkscape:connector-curvature="0" class="st6" d="M468.8-1097.5c10.2-26.3,20.7-52.9,31.4-79.8
			c10.3-25.7,20.9-51.7,31.7-77.6c10.9-25.9,21.9-52.1,33.2-78.2c11.4-26.6,23.2-53,35.3-79.4c11.9-26.1,23.8-52,36.1-77.6
			c4.4-9.2,8.9-18.5,13.3-27.7c7.7-15.9,15.5-31.6,23.4-47.2c0.5-0.8,0.8-1.7,1.3-2.5l-58.3-115.1c-0.9,1.5-1.9,3.2-2.9,4.6
			c-13.6,22.2-27.1,44.9-40.3,68c-13.4,23.4-26.6,47.2-39.4,71.4c-10.8,20.4-21.4,40.9-31.8,61.7c-2.1,4.2-4.1,8.4-6.2,12.6
			c-12.7,26.2-24.1,51.3-34.5,75.7c-11.8,27.5-22.1,53.8-31.1,78.7c-6,16.4-11.3,32.2-16.3,47.4c-4.1,13-7.9,26-11.7,39
			c-8.7,30.5-16.2,60.9-22.4,91.2l58.6,115.6c7.7-20.7,15.7-41.7,23.8-62.9C464.3-1085.7,466.5-1091.7,468.8-1097.5z"/>
		
			<linearGradient id="path1994_1_" gradientUnits="userSpaceOnUse" x1="-35238.4258" y1="-7244.0244" x2="-33086.582" y2="-7244.0244" gradientTransform="matrix(3.681945e-02 -7.896055e-02 7.896055e-02 3.681945e-02 2080.8745 -3158.1404)">
			<stop  offset="0" style="stop-color:#282661"/>
			<stop  offset="9.548389e-02" style="stop-color:#662E8C"/>
			<stop  offset="0.7882" style="stop-color:#9E2064"/>
			<stop  offset="0.9487" style="stop-color:#CC2032"/>
		</linearGradient>
		<path id="path1994" inkscape:connector-curvature="0" class="st7" d="M378.8-1128.4c-7.3,37-12.6,73.8-15.2,110.4
			c-0.1,1.3-0.2,2.5-0.3,3.8c-18.3-29.3-67.2-57.8-67.1-57.6c35.1,50.8,61.7,101.2,65.6,150.7c-18.8,3.8-44.4-1.7-74.1-12.6
			c30.9,28.5,54.1,36.3,63.3,38.4c-28.5,1.8-58,21.3-87.9,43.8c43.6-17.8,78.9-24.8,104.1-19.1C327.1-757.2,287-632.1,246.9-499.2
			c12.3-3.6,19.7-12,23.8-23.1c7.2-24,54.6-182,129-389.3c2.2-5.9,4.3-11.9,6.4-17.8c0.5-1.7,1.2-3.4,1.8-4.9
			c7.8-21.8,16-44,24.4-66.6c1.9-5.2,3.8-10.3,5.8-15.5c0-0.1,0.1-0.2,0.1-0.3l-58.7-115.6C379.3-1131.1,379.1-1129.8,378.8-1128.4z
			"/>
		
			<linearGradient id="path2006_1_" gradientUnits="userSpaceOnUse" x1="-36560.1211" y1="-5614.4722" x2="-32465.502" y2="-5614.4722" gradientTransform="matrix(3.681945e-02 -7.896055e-02 7.896055e-02 3.681945e-02 2080.8745 -3158.1404)">
			<stop  offset="0.3233" style="stop-color:#9C2063"/>
			<stop  offset="0.6302" style="stop-color:#C82037"/>
			<stop  offset="0.7514" style="stop-color:#CC2135"/>
			<stop  offset="1" style="stop-color:#E87726"/>
		</linearGradient>
		<path id="path2006" inkscape:connector-curvature="0" class="st8" d="M683.5-1558c-1.7,3.4-3.4,6.9-5.1,10.3
			c-5.1,10.4-10.2,21-15.4,31.9c-5.6,11.8-11.2,23.8-17,36.1c-2.9,6.2-5.8,12.4-8.7,18.8c-8.7,18.9-17.5,38.5-26.5,58.8
			c-11,24.8-22.3,50.6-33.6,77.4c-10.8,25.6-21.9,52-33,79.3c-10.6,25.9-21.3,52.8-32.2,80.3c-9.7,24.6-19.5,50-29.3,76
			c-0.5,1.2-0.9,2.5-1.4,3.7c-9.8,25.8-19.7,52.4-29.6,79.6c-0.2,0.6-0.5,1.2-0.6,1.9l47.1-5.2c-0.9-0.2-1.9-0.3-2.8-0.5
			c56.3-7,131.3-49.1,179.6-101.1c22.3-23.9,42.5-52.2,61.2-85.3c13.9-24.6,27-52,39.5-82.1c10.9-26.4,21.3-55,31.4-86
			c-13,6.8-27.7,11.9-44.1,15.3c-2.9,0.6-5.8,1.2-8.8,1.7c-3,0.5-6,1-9.1,1.4l0,0l0,0c0,0,0.1,0,0.1-0.1
			c52.6-20.2,85.7-59.2,109.7-107c-13.8,9.4-36.3,21.8-63.2,27.7c-3.6,0.8-7.3,1.5-11.2,2.1c-0.9,0.1-1.9,0.3-2.8,0.5l0,0l0,0h0.1
			c0,0,0,0,0.1,0l0,0c18.3-7.6,33.6-16.2,47-26.3c2.9-2.2,5.7-4.4,8.3-6.7c4.1-3.5,7.9-7.3,11.7-11.1c2.4-2.5,4.6-5.1,6.9-7.7
			c5.3-6.3,10.2-13,14.7-20.2c1.4-2.3,2.8-4.4,4.1-6.8c1.8-3.4,3.4-6.7,5.1-9.9c7.3-14.7,13.2-27.9,17.9-39.4
			c2.4-5.8,4.4-11.1,6.2-16.1c0.7-2,1.4-3.9,2-5.8c1.9-5.5,3.4-10.4,4.5-14.8c1.8-6.5,2.9-11.7,3.4-15.4l0,0l0,0
			c-1.8,1.4-3.8,2.8-6.2,4.2c-15.9,9.5-43.1,18-65,22.1l43.2-4.7l-43.2,4.7c-0.3,0.1-0.6,0.1-1,0.2c-2.3,0.4-4.4,0.7-6.6,1
			c0.4-0.2,0.7-0.4,1.1-0.5l-148.1,16.2C684.1-1559.2,683.8-1558.5,683.5-1558L683.5-1558z"/>
		
			<linearGradient id="path2018_1_" gradientUnits="userSpaceOnUse" x1="-37684.3164" y1="-5707.7607" x2="-33589.6992" y2="-5707.7607" gradientTransform="matrix(3.681945e-02 -7.896055e-02 7.896055e-02 3.681945e-02 2080.8745 -3158.1404)">
			<stop  offset="0.3233" style="stop-color:#9C2063"/>
			<stop  offset="0.6302" style="stop-color:#C82037"/>
			<stop  offset="0.7514" style="stop-color:#CC2135"/>
			<stop  offset="1" style="stop-color:#E87726"/>
		</linearGradient>
		<path id="path2018" inkscape:connector-curvature="0" class="st9" d="M850.2-1857.2c-13.1,20.2-27.5,43.2-43.1,69.2
			c-0.8,1.3-1.7,2.8-2.4,4.1c-13.3,22.5-27.5,47.1-42.5,74.3c-12.9,23.4-26.3,48.4-40.3,75.3c-12.1,23.5-24.7,48.4-37.6,74.8
			l148.1-16.2c43.2-19.9,62.4-37.7,81.1-63.7c4.9-7.2,10-14.6,14.9-22.4c15.2-23.8,30.1-49.9,43.4-75.9c12.9-25.1,24.2-50,32.9-72.4
			c5.5-14.2,10-27.5,13.1-39.2c2.7-10.2,4.8-20,6.4-29.4C966.7-1868.9,896.1-1859.5,850.2-1857.2z"/>
		<path id="path2020" inkscape:connector-curvature="0" class="st2" d="M754.4-1347.1c-3,0.5-6,1-9.1,1.4l0,0
			C748.4-1346,751.5-1346.6,754.4-1347.1z"/>
		<path id="path2022" inkscape:connector-curvature="0" class="st3" d="M754.4-1347.1c-3,0.5-6,1-9.1,1.4l0,0
			C748.4-1346,751.5-1346.6,754.4-1347.1z"/>
		
			<linearGradient id="path2034_1_" gradientUnits="userSpaceOnUse" x1="-36560.1328" y1="-5057.4463" x2="-32465.5098" y2="-5057.4463" gradientTransform="matrix(3.681945e-02 -7.896055e-02 7.896055e-02 3.681945e-02 2080.8745 -3158.1404)">
			<stop  offset="0.3233" style="stop-color:#9C2063"/>
			<stop  offset="0.6302" style="stop-color:#C82037"/>
			<stop  offset="0.7514" style="stop-color:#CC2135"/>
			<stop  offset="1" style="stop-color:#E87726"/>
		</linearGradient>
		<path id="path2034" inkscape:connector-curvature="0" class="st10" d="M754.4-1347.1c-3,0.5-6,1-9.1,1.4l0,0
			C748.4-1346,751.5-1346.6,754.4-1347.1z"/>
		<path id="path2036" inkscape:connector-curvature="0" class="st2" d="M778.1-1422.5c0.9-0.1,1.9-0.3,2.8-0.5
			C780-1422.9,779.1-1422.6,778.1-1422.5z"/>
		<path id="path2038" inkscape:connector-curvature="0" class="st3" d="M778.1-1422.5c0.9-0.1,1.9-0.3,2.8-0.5
			C780-1422.9,779.1-1422.6,778.1-1422.5z"/>
		
			<linearGradient id="path2050_1_" gradientUnits="userSpaceOnUse" x1="-36560.1328" y1="-5119.8145" x2="-32465.5098" y2="-5119.8145" gradientTransform="matrix(3.681945e-02 -7.896055e-02 7.896055e-02 3.681945e-02 2080.8745 -3158.1404)">
			<stop  offset="0.3233" style="stop-color:#9C2063"/>
			<stop  offset="0.6302" style="stop-color:#C82037"/>
			<stop  offset="0.7514" style="stop-color:#CC2135"/>
			<stop  offset="1" style="stop-color:#E87726"/>
		</linearGradient>
		<path id="path2050" inkscape:connector-curvature="0" class="st11" d="M778.1-1422.5c0.9-0.1,1.9-0.3,2.8-0.5
			C780-1422.9,779.1-1422.6,778.1-1422.5z"/>
		<path id="path2052" inkscape:connector-curvature="0" class="st2" d="M778.1-1422.5C778.2-1422.5,778.2-1422.6,778.1-1422.5
			L778.1-1422.5L778.1-1422.5L778.1-1422.5C778.2-1422.6,778.2-1422.5,778.1-1422.5z"/>
		<path id="path2054" inkscape:connector-curvature="0" class="st3" d="M778.1-1422.5C778.2-1422.5,778.2-1422.6,778.1-1422.5
			L778.1-1422.5L778.1-1422.5L778.1-1422.5C778.2-1422.6,778.2-1422.5,778.1-1422.5z"/>
		
			<linearGradient id="path2066_1_" gradientUnits="userSpaceOnUse" x1="-26379.1582" y1="-5133.0566" x2="-25474.1133" y2="-5133.0566" gradientTransform="matrix(3.681945e-02 -7.896055e-02 7.896055e-02 3.681945e-02 2080.8745 -3158.1404)">
			<stop  offset="0.3233" style="stop-color:#9C2063"/>
			<stop  offset="0.6302" style="stop-color:#C82037"/>
			<stop  offset="0.7514" style="stop-color:#CC2135"/>
			<stop  offset="1" style="stop-color:#E87726"/>
		</linearGradient>
		<path id="path2066" inkscape:connector-curvature="0" class="st12" d="M778.1-1422.5C778.2-1422.5,778.2-1422.6,778.1-1422.5
			L778.1-1422.5L778.1-1422.5L778.1-1422.5C778.2-1422.6,778.2-1422.5,778.1-1422.5z"/>
	</g>
	<path id="path2070" inkscape:connector-curvature="0" class="st13" d="M245.5,467.8c-1.2-0.2-5.6-1.3-6.3-1.6
		c-1.6-0.6-7.2-3.5-7.9-4c-0.9-0.7-1-0.8-2.6-2c-1.6-1.2-5-4.6-6.2-6.2c-0.5-0.7-1.1-1.4-1.2-1.6c-0.2-0.2-0.5-0.6-0.6-0.8
		c-0.4-0.5-3.5-5.8-3.5-6c0-0.1-0.3-0.8-0.7-1.7c-0.4-0.9-1-2.3-1.3-3.2c-0.3-0.8-0.7-1.8-0.8-2.2c-0.3-0.8-1.2-4.9-1.5-7.2
		c-0.3-2.4-0.3-9.1,0-11.2c0.9-5.7,1.6-8.2,3.7-12.6c0.3-0.7,0.6-1.4,0.6-1.6c0-0.2,0.1-0.4,0.3-0.4c0.2,0,0.3-0.2,0.3-0.4
		c0-0.2,0.9-1.7,1.9-3.3c1.7-2.6,5.6-6.8,8.1-8.9c2.6-2.2,7.8-5,11-6c0.9-0.3,2-0.6,2.4-0.8c1.6-0.5,4.6-0.9,8.5-1.1
		c5-0.2,10.3,0.4,14,1.7c2.8,1,5.3,2.2,5.5,2.5c0.1,0.1,0.2,0.2,0.4,0.2c0.6,0,4.1,2.6,6.2,4.7c2.4,2.4,4,4.5,5.3,7
		c0.8,1.6,0.8,1.6,0.2,2c-0.3,0.2-0.7,0.5-0.9,0.6c-0.2,0.1-0.7,0.4-1.1,0.7c-0.4,0.3-1.4,0.9-2.2,1.3c-1.6,1-2.2,0.9-2.7-0.3
		c-1.3-3.4-7.3-9.1-11.4-10.7c-4.5-1.8-7.2-2.3-11.8-2.3c-4.9,0-8,0.6-11.9,2.3c-1.3,0.6-4.2,2.3-4.8,2.9c-0.2,0.2-0.5,0.4-0.6,0.4
		c-0.3,0-3.7,3.4-5.3,5.2c-1.6,2-4.5,7-5.1,9.1c-0.3,0.8-0.6,1.8-0.8,2.2c-1.3,3-2.1,10.2-1.6,15c0.3,3.3,1,6.7,1.6,8.1
		c0.1,0.3,0.4,1,0.5,1.4c0.5,1.9,3.4,7.3,4.9,9.2c1.5,1.9,4.3,4.8,5.5,5.8c1.4,1.2,6.1,4.1,6.6,4.1c0.1,0,0.6,0.2,1,0.4
		c0.4,0.2,2,0.7,3.5,1.2c2.3,0.6,3.4,0.7,6.9,0.7c5.8-0.1,9.6-1.1,14.5-3.9c3.2-1.9,7.7-6.2,9.2-9c0.6-1.1,1.2-1.9,1.4-1.9
		c0.7,0,6.6,3.2,6.6,3.6c0,0.4-1.8,3.9-2.1,4.1c-0.1,0.1-0.4,0.5-0.6,0.8c-0.7,1.4-4.1,4.7-7.3,7.1c-1.7,1.3-6.1,3.6-9.2,4.7
		c-4.1,1.5-6.6,1.9-12.3,2C248.8,467.9,245.9,467.8,245.5,467.8L245.5,467.8z M0,467.3c0-0.2,0.1-0.6,0.3-0.8
		c0.2-0.3,0.6-1.2,0.9-2.1c0.4-0.8,0.8-1.8,0.9-2.2c0.1-0.3,1.1-2.6,2.2-5.1c1-2.5,2-4.7,2.2-5.1c0.2-0.3,0.6-1.5,1.1-2.6
		c0.4-1.1,0.9-2.3,1.1-2.6c0.2-0.3,0.6-1.3,0.9-2.2c0.4-0.8,0.9-2,1.1-2.5c0.2-0.5,0.4-1.1,0.4-1.2c0-0.2,0.6-1.6,1.5-3.7
		c0.2-0.3,0.6-1.5,1.1-2.6c0.4-1.1,0.9-2.3,1.1-2.6c0.2-0.3,0.6-1.5,1.1-2.6c0.4-1.1,0.9-2.3,1.1-2.6c0.2-0.3,0.6-1.3,0.9-2.2
		c0.4-0.8,0.8-1.8,0.9-2.2c0.1-0.3,0.9-2.1,1.7-4c0.8-1.9,1.5-3.7,1.7-4c0.2-0.3,0.8-2,1.5-3.7c0.7-1.7,1.4-3.4,1.5-3.7
		c0.2-0.3,0.8-1.8,1.4-3.2c3.3-8.1,4.1-9.9,4.8-11.5c0.2-0.3,0.6-1.5,1.1-2.6c0.4-1.1,1.1-2.6,1.4-3.3l0.6-1.3h3.3h3.3l0.7,1.6
		c0.9,2,1.8,4.2,2.2,5c1,2.4,1.5,3.5,1.5,3.7c0,0.2,0.6,1.6,1.7,4c0.2,0.5,0.4,1.1,0.4,1.2c0,0.2,0.5,1.3,1.5,3.7
		c1,2.4,1.5,3.5,1.5,3.7c0,0.1,0.3,0.8,0.6,1.6c0.4,0.8,0.8,1.9,1.1,2.5c0.3,0.6,0.6,1.4,0.7,1.7c0.2,0.3,0.6,1.5,1.1,2.6
		c0.4,1.1,0.9,2.3,1.1,2.6c0.2,0.3,1.1,2.6,2.2,5.1c1,2.5,2,4.7,2.2,5.1c0.2,0.3,0.5,1.2,0.8,1.8c2.8,6.9,4,9.7,4.3,10.5
		c0.2,0.5,1,2.3,1.7,4c0.7,1.7,1.4,3.4,1.5,3.7s0.6,1.3,0.9,2.2c0.4,0.8,0.8,1.8,0.9,2.2c0.2,0.3,0.6,1.5,1.1,2.6
		c0.4,1.1,0.9,2.3,1.1,2.6c1.5,3.3,3.4,8,3.4,8.3c0,0.4-0.8,0.4-4.4,0.4c-4.3,0-4.4,0-4.7-0.7c-0.2-0.6-0.9-2.4-1.7-4.1
		c-0.2-0.3-0.6-1.5-1.1-2.6c-0.8-1.9-1.4-3.3-2-4.8c-0.2-0.3-0.6-1.5-1.1-2.6c-0.4-1.1-0.9-2.3-1.1-2.6c-0.9-2.1-1.5-3.5-1.5-3.7
		c0-0.1-0.3-0.8-0.6-1.5c-0.3-0.7-0.8-1.7-1-2.3l-0.4-1H37.7H19.5l-0.6,1.5c-0.3,0.8-1,2.4-1.5,3.6c-0.5,1.2-1.1,2.7-1.4,3.4
		c-0.3,0.7-0.6,1.4-0.6,1.5c0,0.2-0.6,1.6-1.5,3.7c-0.2,0.3-0.6,1.5-1.1,2.6c-0.4,1.1-0.9,2.3-1.1,2.6c-0.2,0.3-0.8,1.9-1.4,3.4
		c-0.6,1.5-1.2,2.9-1.3,3.2C8.8,467.8,0,467.8,0,467.3L0,467.3z M53.8,435c0-0.3-0.5-1.4-1.7-4.2c-0.2-0.5-0.4-1.1-0.4-1.2
		c0-0.1-0.2-0.7-0.4-1.2c-0.2-0.5-1.2-2.9-2.2-5.3c-0.9-2.4-1.8-4.6-2-4.9c-0.2-0.3-0.9-2.3-1.7-4.3c-0.8-2-1.5-4-1.7-4.3
		c-0.2-0.3-0.5-1.1-0.7-1.7c-0.3-0.6-0.7-1.7-1.1-2.5c-0.4-0.8-0.6-1.6-0.6-1.7c0-0.1-0.2-0.6-0.4-1c-0.2-0.4-0.7-1.7-1.1-2.8
		c-0.4-1.1-0.9-2.3-1.1-2.8c-0.2-0.4-0.4-0.9-0.4-1.2c0-0.6-0.6-0.4-0.8,0.3c-0.1,0.4-0.4,1.1-0.6,1.6c-0.2,0.5-1,2.3-1.7,4
		c-0.7,1.7-1.7,4-2.2,5.2c-0.5,1.2-3.1,7.5-5.8,14c-2.7,6.5-5.1,12.4-5.4,13l-0.5,1.2h16.3C48.8,435.3,53.8,435.2,53.8,435L53.8,435
		z M84,426.4v-41.2l17.2,0c17.9,0,21.2,0.2,24,1.2c2,0.8,5.2,2.3,5.7,2.8c0.2,0.2,0.9,0.7,1.4,1.1c4,3,7.8,8.8,9.2,14.3
		c1.4,5.3,0.8,12.5-1.4,17.5c-3.2,7.2-8.6,12.2-15.3,14.3c-1.4,0.4-4.1,0.5-17.1,0.6l-15.5,0.1v15.2v15.2h-4.2H84L84,426.4L84,426.4
		z M120.5,429.5c5.7-0.8,10.3-5.1,12.6-11.8c0.8-2.3,1-8.7,0.3-11.2c-0.9-3.5-2.5-6.4-4.9-8.8c-1.2-1.2-2.6-2.4-3.1-2.6
		c-0.5-0.3-1-0.5-1.1-0.6c-0.1-0.1-0.8-0.4-1.5-0.8c-1.3-0.6-2.3-0.6-15.9-0.7l-14.5-0.1v18.5v18.5h12.9
		C112.8,429.8,119.1,429.7,120.5,429.5L120.5,429.5z M137.7,467.4c-0.1-0.1,0.4-1.5,1-3c0.6-1.5,2.4-5.7,3.8-9.2
		c1.5-3.6,2.8-6.9,3.1-7.4c0.2-0.5,1-2.3,1.7-4c1.2-3,1.9-4.5,2.5-5.8c0.1-0.3,0.8-2,1.5-3.7c0.7-1.7,1.4-3.5,1.7-4
		c0.2-0.5,1.1-2.7,2-4.8s2-4.8,2.5-6c1-2.5,4.5-10.8,4.9-11.7c0.2-0.3,0.6-1.5,1.1-2.6c0.4-1.1,0.9-2.3,1.1-2.6
		c0.2-0.3,0.6-1.3,0.9-2.2c0.4-0.8,0.9-2,1.1-2.5c0.2-0.5,0.4-1.1,0.4-1.2c0-0.2,0.5-1.3,1.5-3.7c0.6-1.4,1.5-3.5,2.2-5.2
		c0.4-1,0.8-2,1-2.2c0.2-0.3,1.3-0.4,3.6-0.4h3.3l0.4,1c0.8,2,4.3,10.4,5.2,12.4c0.1,0.3,0.8,2,1.5,3.7c0.7,1.7,1.4,3.4,1.5,3.7
		c0.2,0.3,1.3,3.2,2.6,6.3c1.3,3.1,2.5,6,2.6,6.3c0.2,0.3,1,2.3,1.9,4.5c2.1,5,4.2,10.1,4.6,10.9c0.2,0.3,0.6,1.3,0.9,2.2
		c0.4,0.8,0.8,1.8,0.9,2.2c0.2,0.3,0.6,1.5,1.1,2.6c0.8,1.9,1.4,3.3,2,4.8c0.2,0.3,0.6,1.5,1.1,2.6c0.4,1.1,1,2.4,1.2,3
		c0.2,0.5,0.4,1.1,0.4,1.2c0,0.1,0.4,1.1,0.9,2.2c0.5,1.1,0.9,2.1,0.9,2.2s0.2,0.6,0.4,1.1c0.2,0.5,0.8,1.9,1.2,3
		c0.4,1.1,0.9,2.3,1.1,2.6c1.1,2.4,1.5,3.5,1.5,3.8c0,0.5-8.4,0.4-8.8-0.1c-0.2-0.2-1.5-3.4-3-7c-1.5-3.6-2.9-7-3.1-7.5
		c-0.2-0.5-0.8-1.8-1.2-2.9c-0.4-1.1-0.9-2.3-1.1-2.6c-0.4-0.9-1.4-3.3-1.8-4.4l-0.4-1l-18.3,0.1l-18.3,0.1l-1.8,4.5
		c-1,2.5-2,4.8-2.1,5.2c-0.2,0.4-0.3,0.8-0.3,0.9c0,0.1-0.7,1.7-1.5,3.7c-0.2,0.3-0.6,1.5-1.1,2.6c-0.4,1.1-1,2.4-1.2,2.9
		c-0.2,0.5-0.9,2.1-1.4,3.5l-1,2.5h-4.2C139.8,467.6,137.8,467.5,137.7,467.4L137.7,467.4z M191.4,435.2c0-0.2-1.1-2.8-2-4.9
		c-0.2-0.5-0.7-1.8-1.1-2.9c-0.4-1.1-0.9-2.3-1.1-2.8c-0.2-0.4-0.4-0.9-0.4-1c0-0.2-0.5-1.5-1.5-3.8c-0.2-0.3-0.6-1.5-1.1-2.6
		c-0.4-1.1-1-2.4-1.2-2.9c-0.2-0.5-0.7-1.6-1-2.5c-0.3-0.8-0.7-1.9-1-2.3c-0.2-0.4-0.4-0.9-0.4-1c0-0.1-0.2-0.7-0.4-1.2
		c-0.2-0.5-1-2.3-1.6-3.9s-1.4-3.5-1.7-4.2c-0.3-0.7-0.7-1.7-1-2.2c-0.5-1.2-0.9-1.1-1.4,0.4c-0.2,0.7-0.5,1.5-0.7,1.8
		c-0.2,0.3-0.6,1.3-0.9,2.2c-0.4,0.8-0.8,1.8-0.9,2.2c-0.3,0.6-3.6,8.6-7.7,18.5c-0.8,2-1.7,4-1.8,4.3c-0.2,0.3-0.8,2-1.5,3.7
		c-0.7,1.7-1.5,3.5-1.7,4.1c-0.2,0.6-0.5,1.1-0.5,1.2c0,0.1,7.3,0.1,16.3,0.1C184,435.3,191.4,435.3,191.4,435.2L191.4,435.2z
		 M294.6,467.3c-0.1-0.2-0.1-18.7-0.1-41.2l0.1-40.8h4h4l0.1,18.2l0.1,18.2h24.2h24.2v-18.3v-18.3h4.2h4.2v41.2v41.2h-4.2h-4.2
		v-19.2v-19.2h-24.2h-24.2l-0.1,19.2l-0.1,19.2l-3.9,0.1C295.7,467.6,294.7,467.6,294.6,467.3L294.6,467.3z M377.5,426.4v-41.2h27.1
		h27.1v3.8v3.8h-22.9h-22.9v14.5v14.5h20h20v3.7v3.7h-20h-20v15.4V460h23.4h23.4v3.8v3.8h-27.5h-27.5L377.5,426.4z"/>
</g>
</svg>
