<?xml version="1.0" encoding="utf-8"?>
<!-- Generator: Adobe Illustrator 22.1.0, SVG Export Plug-In . SVG Version: 6.00 Build 0)  -->
<svg version="1.1" id="Layer_1" xmlns="http://www.w3.org/2000/svg" xmlns:xlink="http://www.w3.org/1999/xlink" x="0px" y="0px"
	 viewBox="0 0 2500 1495" style="enable-background:new 0 0 2500 1495;" xml:space="preserve">
<style type="text/css">
	.st0{fill:#252F3E;}
	.st1{fill:#FF9900;}
</style>
<path class="st0" d="M838.4,593.3c0,23.2,2.5,42,6.9,55.8c5,13.8,11.3,28.8,20.1,45.1c3.1,5,4.4,10,4.4,14.4
	c0,6.3-3.8,12.5-11.9,18.8l-39.5,26.3c-5.6,3.8-11.3,5.6-16.3,5.6c-6.3,0-12.5-3.1-18.8-8.8c-8.8-9.4-16.3-19.4-22.6-29.5
	c-6.3-10.7-12.5-22.6-19.4-37c-48.9,57.7-110.3,86.5-184.3,86.5c-52.7,0-94.6-15-125.4-45.1c-30.7-30.1-46.4-70.2-46.4-120.3
	c0-53.3,18.8-96.5,57-129.1s89-48.9,153.6-48.9c21.3,0,43.2,1.9,66.4,5s47,8.1,72.1,13.8v-45.8c0-47.6-10-80.9-29.5-100.3
	c-20.1-19.4-53.9-28.8-102.2-28.8c-21.9,0-44.5,2.5-67.7,8.1s-45.8,12.5-67.7,21.3c-10,4.4-17.6,6.9-21.9,8.1
	c-4.4,1.3-7.5,1.9-10,1.9c-8.8,0-13.2-6.3-13.2-19.4v-30.7c0-10,1.3-17.6,4.4-21.9s8.8-8.8,17.6-13.2c21.9-11.3,48.3-20.7,79-28.2
	c30.7-8.1,63.3-11.9,97.8-11.9c74.6,0,129.1,16.9,164.2,50.8c34.5,33.8,52,85.2,52,154.2v203.1H838.4z M583.9,688.6
	c20.7,0,42-3.8,64.6-11.3c22.6-7.5,42.6-21.3,59.5-40.1c10-11.9,17.6-25.1,21.3-40.1c3.8-15,6.3-33.2,6.3-54.5v-26.3
	c-18.2-4.4-37.6-8.1-57.7-10.7c-20.1-2.5-39.5-3.8-58.9-3.8c-42,0-72.7,8.1-93.4,25.1c-20.7,16.9-30.7,40.7-30.7,72.1
	c0,29.5,7.5,51.4,23.2,66.4C533.2,681.1,555.1,688.6,583.9,688.6L583.9,688.6z M1087.2,756.3c-11.3,0-18.8-1.9-23.8-6.3
	c-5-3.8-9.4-12.5-13.2-24.4L903,241c-3.8-12.5-5.6-20.7-5.6-25.1c0-10,5-15.7,15-15.7h61.4c11.9,0,20.1,1.9,24.4,6.3
	c5,3.8,8.8,12.5,12.5,24.4L1116.1,646l97.8-414.9c3.1-12.5,6.9-20.7,11.9-24.4c5-3.8,13.8-6.3,25.1-6.3h50.1
	c11.9,0,20.1,1.9,25.1,6.3c5,3.8,9.4,12.5,11.9,24.4l99,420l108.4-420c3.8-12.5,8.1-20.7,12.5-24.4c5-3.8,13.2-6.3,24.4-6.3h58.3
	c10,0,15.7,5,15.7,15.7c0,3.1-0.6,6.3-1.3,10c-0.6,3.8-1.9,8.8-4.4,15.7l-151.1,484.5c-3.8,12.5-8.1,20.7-13.2,24.4
	c-5,3.8-13.2,6.3-23.8,6.3h-53.9c-11.9,0-20.1-1.9-25.1-6.3c-5-4.4-9.4-12.5-11.9-25.1l-97.2-404.3l-96.5,403.7
	c-3.1,12.5-6.9,20.7-11.9,25.1s-13.8,6.3-25.1,6.3H1087.2z M1892.7,773.2c-32.6,0-65.2-3.8-96.5-11.3c-31.3-7.5-55.8-15.7-72.1-25.1
	c-10-5.6-16.9-11.9-19.4-17.6c-2.5-5.6-3.8-11.9-3.8-17.6v-32c0-13.2,5-19.4,14.4-19.4c3.8,0,7.5,0.6,11.3,1.9s9.4,3.8,15.7,6.3
	c21.3,9.4,44.5,16.9,68.9,21.9c25.1,5,49.5,7.5,74.6,7.5c39.5,0,70.2-6.9,91.5-20.7c21.3-13.8,32.6-33.8,32.6-59.5
	c0-17.6-5.6-32-16.9-43.9c-11.3-11.9-32.6-22.6-63.3-32.6l-90.9-28.2c-45.8-14.4-79.6-35.7-100.3-63.9
	c-20.7-27.6-31.3-58.3-31.3-90.9c0-26.3,5.6-49.5,16.9-69.6c11.3-20.1,26.3-37.6,45.1-51.4c18.8-14.4,40.1-25.1,65.2-32.6
	c25.1-7.5,51.4-10.7,79-10.7c13.8,0,28.2,0.6,42,2.5c14.4,1.9,27.6,4.4,40.7,6.9c12.5,3.1,24.4,6.3,35.7,10
	c11.3,3.8,20.1,7.5,26.3,11.3c8.8,5,15,10,18.8,15.7c3.8,5,5.6,11.9,5.6,20.7v29.5c0,13.2-5,20.1-14.4,20.1c-5,0-13.2-2.5-23.8-7.5
	c-35.7-16.3-75.8-24.4-120.3-24.4c-35.7,0-63.9,5.6-83.4,17.6c-19.4,11.9-29.5,30.1-29.5,55.8c0,17.6,6.3,32.6,18.8,44.5
	c12.5,11.9,35.7,23.8,68.9,34.5l89,28.2c45.1,14.4,77.7,34.5,97.2,60.2c19.4,25.7,28.8,55.2,28.8,87.8c0,27-5.6,51.4-16.3,72.7
	c-11.3,21.3-26.3,40.1-45.8,55.2c-19.4,15.7-42.6,27-69.6,35.1C1954.1,768.8,1924.7,773.2,1892.7,773.2L1892.7,773.2z"/>
<path class="st1" d="M2011.2,1077.8c-206.2,152.3-505.8,233.2-763.5,233.2c-361,0-686.4-133.5-932.1-355.4
	c-19.4-17.6-1.9-41.4,21.3-27.6c265.8,154.2,593.6,247.6,932.7,247.6c228.8,0,480.1-47.6,711.4-145.4
	C2015.6,1014.5,2045,1052.8,2011.2,1077.8L2011.2,1077.8z"/>
<path class="st1" d="M2097,980c-26.3-33.8-174.3-16.3-241.3-8.1c-20.1,2.5-23.2-15-5-28.2c117.8-82.7,311.5-58.9,334.1-31.3
	c22.6,28.2-6.3,221.9-116.6,314.7c-16.9,14.4-33.2,6.9-25.7-11.9C2067.6,1153,2123.4,1013.3,2097,980z"/>
</svg>
