<?xml version="1.0" encoding="utf-8"?>
<!-- Generator: Adobe Illustrator 22.1.0, SVG Export Plug-In . SVG Version: 6.00 Build 0)  -->
<svg version="1.1"
	 id="Layer_1" xmlns:cc="http://creativecommons.org/ns#" xmlns:dc="http://purl.org/dc/elements/1.1/" xmlns:rdf="http://www.w3.org/1999/02/22-rdf-syntax-ns#" xmlns:svg="http://www.w3.org/2000/svg"
	 xmlns="http://www.w3.org/2000/svg" xmlns:xlink="http://www.w3.org/1999/xlink" x="0px" y="0px" viewBox="0 0 289.6 293.2"
	 style="enable-background:new 0 0 289.6 293.2;" xml:space="preserve">
<style type="text/css">
	.st0{fill:#444444;}
	.st1{fill:#E42528;}
</style>
<g>
	<path id="path11" class="st0" d="M68.7,227.1c-10,0-14.7,6.8-14.7,17.2c0,10.1,4.7,17.1,14.7,17.1s14.7-7,14.7-17.1
		C83.3,233.9,78.6,227.1,68.7,227.1 M68.7,256.9c-6.5,0-8.6-5.2-8.6-12.6c0-8.1,2.2-12.6,8.6-12.6s8.6,4.5,8.6,12.6
		C77.3,251.7,75.1,256.9,68.7,256.9"/>
	<path id="path13" class="st0" d="M119,227.5h-6v26.3c-0.7,0.6-1.6,1.1-2.6,1.6c-1.7,0.8-3.9,1.5-6.7,1.5c-4.8,0-6.3-2.9-6.3-10.4
		v-19h-6v19.2c0,10.1,3.3,14.7,10.8,14.7c3.7,0,6.5-1.1,8.5-2.2c1.2-0.7,2.2-1.4,3-2.2l0.8,4.2l4.3-0.4v-33.3H119z"/>
	<path id="path15" class="st0" d="M127.5,244.4c0,12.7,7.2,17,14.3,16.9c2.7,0,5.1-0.4,6.8-0.9c1-0.3,1.8-0.5,2.6-0.9l0.5-4.3
		c-0.8,0.3-1.7,0.5-2.7,0.8c-1.7,0.4-4,0.7-6.4,0.8c-5.8,0.1-8.9-3.8-8.9-12.5c0-9,3.1-12.7,8.9-12.7c2.5,0,4.7,0.4,6.4,0.8
		c1,0.2,1.9,0.5,2.7,0.8l-0.5-4.4c-0.8-0.4-1.7-0.6-2.7-0.9c-1.7-0.5-4-0.9-6.9-0.9C134.7,227.1,127.5,231.1,127.5,244.4"/>
	<path id="path17" class="st0" d="M159.5,261.4h6v-25.7c1.6-0.5,5.6-3.5,9.6-3.5c3.9,0,6,2.2,6,11v18.2h6v-18.6
		c0-10.9-2.9-15.1-10.4-15.1c-4.4,0-7.6,1.1-11.2,3.8v-16.6l-6,0.6L159.5,261.4L159.5,261.4z"/>
	<path id="path19" class="st0" d="M226,218.7c-4.1-3.1-9.3-3.8-14.8-3.8h-13.3v46.5h14.8c16.2,0,20-9.6,20-24.2
		C232.7,227.1,230,221.8,226,218.7 M210.6,256.6h-6.5v-37.1h8.8c10.7,0,13.7,5.8,13.7,17.9C226.6,252.4,223.3,256.6,210.6,256.6"/>
	<path id="path21" class="st0" d="M268.6,237.9c-1.5-0.9-3.3-1.4-5.2-1.5c2.5-0.3,8.3-2.5,8.3-9.3c0-8.8-4.4-12.2-16.4-12.2h-12.8
		v46.5h15.2c10.8,0,16.1-4.1,16.1-13.4C273.9,242.2,271.3,239.4,268.6,237.9 M248.4,219.6h6.1c8.1,0,11.4,1.4,11.4,7.2
		c0,5.1-2.6,7.9-10,7.9h-7.5V219.6L248.4,219.6z M256.1,256.6h-7.8v-17.9h7.7c8.3,0,12,1.9,12,9.1
		C268.1,255.4,264.1,256.6,256.1,256.6"/>
	<path id="path23" class="st0" d="M34.3,261.4c3.8,0,7-0.5,9.3-1.1c1.3-0.3,2.5-0.7,3.6-1.1l0.5-5c-1.1,0.4-2.4,0.8-3.7,1.2
		c-2.3,0.7-5.4,1.1-9,1.2c-8.6,0-12.8-5.5-12.8-19.5c0-14.4,5.1-18.9,13.5-18.9c3.3,0,6.3,0.5,8.5,1c1.3,0.3,2.5,0.7,3.6,1.1l-0.5-5
		c-1-0.4-2.2-0.6-3.5-0.9c-2.2-0.5-5.3-1-8.8-1c-11,0-19.2,5.9-19.2,23.8c0,9.3,2.1,15.5,5.4,19.2C24.5,260.1,29.1,261.4,34.3,261.4
		"/>
	<path id="path35" class="st1" d="M225.5,144.8c0,10.7-5.6,15.9-16.1,16.1l0,0H80.3l0,0c-10.5-0.2-16.1-5.4-16.1-16.1
		c0-10.7,5.6-15.9,16.1-16.1l0,0h129.1l0,0C219.9,128.9,225.5,134.1,225.5,144.8 M209.4,169L209.4,169H80.3l0,0
		c-10.5,0.2-16.1,5.4-16.1,16.1c0,10.7,5.6,15.9,16.1,16.1l0,0h129.1l0,0c10.5-0.2,16.1-5.4,16.1-16.1S219.9,169.2,209.4,169
		 M249.7,80.3L249.7,80.3c-10.5,0.2-16.1,5.4-16.1,16.1v88.7c0,10.7,5.6,15.9,16.1,16.1l0,0c15.7-0.6,24.2-16.3,24.2-48.4v-40.3
		C273.9,91.1,265.5,80.7,249.7,80.3 M40,80.3L40,80.3c-15.7,0.4-24.2,10.9-24.2,32.3v40.3c0,32.1,8.5,47.8,24.2,48.4l0,0
		c10.5-0.2,16.1-5.4,16.1-16.1V96.4C56.1,85.7,50.5,80.5,40,80.3 M249.7,72.2c0-26.7-14.1-39.8-40.3-40.3l0,0H80.3l0,0
		C54.1,32.4,40,45.5,40,72.2l0,0c15.7,0.3,24.2,8.1,24.2,24.2c0,16,8.5,23.9,24.2,24.2l0,0h112.9l0,0c15.7-0.3,24.2-8.1,24.2-24.2
		C225.5,80.4,234,72.5,249.7,72.2L249.7,72.2z"/>
</g>
</svg>
