<?xml version="1.0" encoding="utf-8"?>
<!-- Generator: Adobe Illustrator 23.0.0, SVG Export Plug-In . SVG Version: 6.00 Build 0)  -->
<svg version="1.1" id="Capa_1" xmlns="http://www.w3.org/2000/svg" xmlns:xlink="http://www.w3.org/1999/xlink" x="0px" y="0px"
	 viewBox="0 0 100 35" style="enable-background:new 0 0 100 35;" xml:space="preserve">
<style type="text/css">
	.st0{fill:#092E20;}
</style>
<g>
	<path class="st0" d="M11.8,0h5.5v25.3c-2.8,0.5-4.9,0.7-7.1,0.7c-6.7,0-10.1-3-10.1-8.8c0-5.6,3.7-9.2,9.4-9.2
		c0.9,0,1.5,0.1,2.4,0.3V0z M11.8,12.7c-0.7-0.2-1.2-0.3-1.9-0.3c-2.8,0-4.4,1.7-4.4,4.7s1.5,4.5,4.3,4.5c0.6,0,1.1-0.1,1.9-0.1
		L11.8,12.7L11.8,12.7z"/>
	<path class="st0" d="M25.9,8.5v12.7c0,4.4-0.3,6.5-1.3,8.3c-0.9,1.7-2.1,2.9-4.5,4.1l-5.1-2.4c2.4-1.1,3.6-2.1,4.3-3.7
		c0.8-1.5,1-3.4,1-8.1V8.5H25.9L25.9,8.5z M20.5,0h5.5v5.6h-5.5V0z M29.3,9.7c2.4-1.1,4.7-1.6,7.3-1.6c2.8,0,4.7,0.7,5.5,2.2
		c0.5,0.8,0.6,1.9,0.6,4.1v11.1c-2.5,0.3-5.5,0.6-7.8,0.6c-4.6,0-6.7-1.6-6.7-5.1c0-3.9,2.7-5.6,9.5-6.2v-1.2c0-1-0.5-1.3-1.9-1.3
		c-2,0-4.3,0.6-6.4,1.7L29.3,9.7L29.3,9.7z M37.8,18.4c-3.6,0.3-4.8,0.9-4.8,2.3c0,1.1,0.7,1.5,2.1,1.5c0.8,0,1.5-0.1,2.6-0.3
		L37.8,18.4z M45.3,9.3C48.5,8.4,51.1,8,53.9,8c2.8,0,4.8,0.7,6.1,1.9c1.1,1.2,1.5,2.5,1.5,5.2v10.7h-5.5V15.3
		c0-2.1-0.7-2.9-2.7-2.9c-0.7,0-1.4,0.1-2.5,0.4v13h-5.5V9.3z M63.5,28.8c1.9,1,3.9,1.5,5.9,1.5c3.6,0,5.1-1.5,5.1-4.9v-0.1
		c-1.1,0.5-2.1,0.7-3.5,0.7c-4.8,0-7.9-3.1-7.9-8.2c0-6.2,4.5-9.7,12.5-9.7c2.3,0,4.5,0.3,7.1,0.8l-1.9,3.9
		c-1.5-0.3-0.1-0.1-1.2-0.1v0.6l0.1,2.3l0.1,3c0.1,0.7,0.1,1.5,0.1,2.3v1.5c0,4.7-0.4,6.9-1.5,8.7c-1.7,2.7-4.7,4-8.9,4
		c-2.1,0-4-0.3-5.9-1.1L63.5,28.8L63.5,28.8z M74.3,12.5h-0.6c-1.1-0.1-2.3,0.3-3.1,0.8c-1.3,0.7-2,2.1-2,4c0,2.7,1.3,4.3,3.7,4.3
		c0.7,0,1.3-0.1,2.1-0.3v-1.9c0-0.7-0.1-1.3-0.1-2.1l-0.1-2.5l-0.1-1.8L74.3,12.5L74.3,12.5z M91.2,8c5.5,0,8.8,3.5,8.8,9
		c0,5.7-3.5,9.3-9,9.3c-5.5,0-8.9-3.5-8.9-9C82.1,11.6,85.6,8,91.2,8L91.2,8z M91.1,21.9c2.1,0,3.3-1.7,3.3-4.7s-1.2-4.7-3.3-4.7
		s-3.4,1.7-3.4,4.7C87.7,20.1,88.9,21.9,91.1,21.9L91.1,21.9z"/>
</g>
</svg>
