<?xml version="1.0" encoding="utf-8"?>
<!-- Generator: Adobe Illustrator 22.1.0, SVG Export Plug-In . SVG Version: 6.00 Build 0)  -->
<svg version="1.1"
	 id="svg2" xmlns:cc="http://creativecommons.org/ns#" xmlns:dc="http://purl.org/dc/elements/1.1/" xmlns:rdf="http://www.w3.org/1999/02/22-rdf-syntax-ns#" xmlns:svg="http://www.w3.org/2000/svg"
	 xmlns="http://www.w3.org/2000/svg" xmlns:xlink="http://www.w3.org/1999/xlink" x="0px" y="0px" viewBox="0 0 231.5 207.4"
	 style="enable-background:new 0 0 231.5 207.4;" xml:space="preserve">
<style type="text/css">
	.st0{fill:none;stroke:#2496ED;stroke-width:7;stroke-linecap:round;stroke-linejoin:round;}
	.st1{fill:#2496ED;}
</style>
<path id="path12" class="st0" d="M135.3,200.2l0-16.2l-0.1-29 M151.6,167.4l-16.3,16.5l16.4,16.3 M42.3,184.1c0.1-3.5-0.9-7-3-9.9
	c-3-4.1-7.7-7-13-7c-0.3,0-0.7,0-1,0c-2.1,0.1-4.1,0.4-5.9,1.2c-11.7,4.9-13.7,21.1-3.9,28.4c8.5,6.4,20.9,3.8,25.2-5.9
	C41.7,188.8,42.3,186.2,42.3,184.1l0-29.3 M121.1,169.1c-2.4-1.6-5.2-2.1-8-2.1c-0.3,0-0.6,0-0.9,0c-8.1,0.3-15.5,6-15.5,17.1
	c0,13.1,14,20.1,24.5,14 M168.2,196.7c8.3-7.1,24.8-21.2,24.8-21.2s-0.6-1.1-1-1.7c-3.3-4.5-8.4-6.7-13.8-6.7
	C164.9,167.1,155,184.2,168.2,196.7c0.9,0.9,2.2,1.5,3.6,2.1c4.9,2,11.5,1.9,15.1-0.8 M69.4,167.1c-0.4,0-0.8,0-1.1,0.1
	c-10.1,0.2-17.3,10.6-15.1,20.3c2.1,9.4,12.5,15,21.4,11.9c10.4-2.7,14.6-15.8,8.9-24.6C80.4,170,75.1,167,69.4,167.1L69.4,167.1z
	 M222.2,167.4c-4.1,0-8,1.4-11,4.2c-4.6,3.8-5.6,8.7-5.6,14.8l0.1,13.9"/>
<g>
	<g>
		<rect x="106.4" y="32.2" class="st1" width="14.7" height="14.7"/>
		<rect x="106.4" y="50.7" class="st1" width="14.7" height="14.7"/>
		<rect x="106.4" y="69.2" class="st1" width="14.7" height="14.7"/>
		<rect x="88.5" y="50.7" class="st1" width="14.7" height="14.7"/>
		<rect x="88.5" y="69.2" class="st1" width="14.7" height="14.7"/>
		<rect x="70.6" y="50.7" class="st1" width="14.7" height="14.7"/>
		<rect x="70.6" y="69.2" class="st1" width="14.7" height="14.7"/>
		<rect x="52.9" y="69.2" class="st1" width="14.7" height="14.7"/>
		<rect x="124.3" y="69.2" class="st1" width="14.7" height="14.7"/>
		<path class="st1" d="M92.8,136.6c-54.3,0-48-47.8-48-47.8s75.4,0,90.7,0s20.3-4.8,20.3-4.8s-8.6-11.2,1.5-24.6
			c11.4,6.5,11,16.2,11,16.2s11.6-3.8,18.8,2.7c-4,13.1-21.7,12.2-21.7,12.2S148.8,136.6,92.8,136.6z"/>
	</g>
</g>
</svg>
