<?xml version="1.0" encoding="utf-8"?>
<!-- Generator: Adobe Illustrator 23.0.0, SVG Export Plug-In . SVG Version: 6.00 Build 0)  -->
<svg version="1.1" id="Capa_1" xmlns="http://www.w3.org/2000/svg" xmlns:xlink="http://www.w3.org/1999/xlink" x="0px" y="0px"
	 viewBox="0 0 150 150" style="enable-background:new 0 0 150 150;" xml:space="preserve">
<style type="text/css">
	.st0{fill-rule:evenodd;clip-rule:evenodd;fill:#326AA2;}
	.st1{clip-path:url(#SVGID_2_);fill-rule:evenodd;clip-rule:evenodd;fill:#3A87C4;}
	.st2{clip-path:url(#SVGID_2_);fill-rule:evenodd;clip-rule:evenodd;fill:#BED8EA;}
	.st3{clip-path:url(#SVGID_2_);fill-rule:evenodd;clip-rule:evenodd;fill:#FFFFFF;}
	.st4{fill:none;stroke:#245B8E;stroke-width:2.2677;stroke-miterlimit:22.9256;}
	.st5{fill-rule:evenodd;clip-rule:evenodd;fill:#FFFFFF;}
	.st6{fill-rule:evenodd;clip-rule:evenodd;fill:#3A87C4;}
</style>
<g>
	<path class="st0" d="M71.43,0c-0.35,3.33-0.71,6.64-2.88,9.09c-4.28,4.83-10.08,7.79-14.82,10.12
		c-12.04,5.93-25.89,19.74-25.89,41.79c0,10.68,4.12,22.18,11.9,31.04c8.28,9.43,20.66,15.88,35.36,15.81
		c13.14-0.06,23.93-4.35,32.05-11.36c9.49-8.19,15.21-20.23,15.21-35.49c0-11.24-3.35-20.98-9.45-28.43
		c-12.03-14.7-21.74-15.99-27.88-19.49C80.63,10.57,76.58,6.16,71.43,0L71.43,0z"/>
	<g>
		<defs>
			<path id="SVGID_1_" d="M71.43,0c-0.35,3.33-0.71,6.64-2.88,9.09c-4.28,4.83-10.08,7.79-14.82,10.12
				c-12.04,5.93-25.89,19.74-25.89,41.79c0,10.68,4.12,22.18,11.9,31.04c8.28,9.43,20.66,15.88,35.36,15.81
				c13.14-0.06,23.93-4.35,32.05-11.36c9.49-8.19,15.21-20.23,15.21-35.49c0-11.24-3.35-20.98-9.45-28.43
				c-12.03-14.7-21.74-15.99-27.88-19.49C80.63,10.57,76.58,6.16,71.43,0L71.43,0z"/>
		</defs>
		<clipPath id="SVGID_2_">
			<use xlink:href="#SVGID_1_"  style="overflow:visible;"/>
		</clipPath>
		<path class="st1" d="M107.34,22.86c6.35,9.6,6.19,19.99,0.65,29.13c-4.45,7.34-12.47,13.49-22.64,20.55
			c-15.34,10.65-31,18.7-43.82,15.35c-6.26-1.63-11.74-6.56-16.38-14.12L21.29-6.19l55.28-0.93L107.34,22.86L107.34,22.86z"/>
		<path class="st2" d="M70.82,0.59c2.55,4.3,2.91,10.27,0,12.47c-1.38,1.05-1.08,1.6-0.55,2.04c1.05,0.88,0.29,2.65-0.86,4.32
			c-6.47,9.37-19.16,16.84-26.78,20.21c-2.03,0.9-5.92,2.11-7.08,0.86c-2.95-3.14,2.37-8.11,5.36-12.58l23.64-17.1L70.82,0.59
			L70.82,0.59z"/>
		<path class="st3" d="M70.75-0.65c3.31,7.48,3.07,11.89-4.47,15.34c-0.24,0.11-0.8,0.61,0.17,0.81c2.86,0.57-0.95,4.99-2.6,6.52
			c-1.9,1.77-4.46,4.41-10.83,8.68s-13.24,7.21-15.03,6c-3.15-2.12,3.21-7.53,6.58-12.82L70.75-0.65L70.75-0.65z"/>
	</g>
	<path class="st4" d="M71.43,0c-0.35,3.33-0.71,6.64-2.88,9.09c-4.28,4.83-10.08,7.79-14.82,10.12
		c-12.04,5.93-25.89,19.74-25.89,41.79c0,10.68,4.12,22.18,11.9,31.04c8.28,9.43,20.66,15.88,35.36,15.81
		c13.14-0.06,23.93-4.35,32.05-11.36c9.49-8.19,15.21-20.23,15.21-35.49c0-11.24-3.35-20.98-9.45-28.43
		c-12.03-14.7-21.74-15.99-27.88-19.49C80.63,10.57,76.58,6.16,71.43,0L71.43,0z"/>
	<path class="st5" d="M92.25,73.6c-6.64-0.04-13.18-11.65-26.45-11.96c-9.98-0.23-17.84,8.13-17.67,16.18
		c0.21,9.66,7.04,11.97,13.38,12.07c12.43,0.18,23.5-12.53,31.05-12.65c5.74-0.1,11.56,11.91,16.77,12.31
		c6.01,0.46,10.49-11.17,10.1-18.22c-0.26-4.7-2.96-8.07-6.47-7.99C106.39,63.49,98.75,73.64,92.25,73.6L92.25,73.6z M80.75,89.1
		c2.87-2.85,5.91-4.54,9.33-4.46c5.46,0.14,5.69,1.42,7.27,4.61c0.32,0.65,0.14,1.21-0.07,1.54c-0.11,0.18-0.74,0.78-0.95,0.78
		c-0.53,0-0.72-0.19-0.93-0.73c-1.3-3.25-3.23-3.26-5.67-3.27c-3.75,0-5.39,1.83-7.6,3.66c-0.55,0.46-1.07,0.8-1.49,0.45
		c-0.33-0.28-0.61-0.67-0.6-0.97C80.06,90.03,80.26,89.6,80.75,89.1L80.75,89.1z M73.17,96.86c2.95,2.72,16.86,5,25.23-0.62
		c0.31-0.21,0.7-0.35,1.05-0.2c0.26,0.11,0.41,0.25,0.44,0.53c0.06,0.47,0.09,1.18-0.28,1.49c-5.81,4.85-21.51,7.61-28.98,1.44
		c-0.74-0.61-0.76-1.53-0.28-2.06c0.36-0.39,0.68-0.58,1.11-0.83C72,96.31,72.7,96.43,73.17,96.86L73.17,96.86z"/>
	<path class="st6" d="M48.39,131.38v2.63c0,6.28-2.78,9.71-11.03,9.71h-9.84c-0.13,0-0.24-0.11-0.24-0.24v-21.74
		c0-0.13,0.11-0.24,0.24-0.24h9.85C45.48,121.5,48.39,125.03,48.39,131.38L48.39,131.38z M119.41,121.12l-4.56,0.74
		c-0.12,0.02-0.2,0.12-0.2,0.24v17.51c0,3.75,3.38,4.91,7.39,3.94c0.16-0.04,0.32-0.07,0.48-0.11c0.13-0.03,0.21-0.15,0.19-0.28
		l-0.45-2.41c-0.02-0.08-0.09-0.1-0.15-0.1c-1.92,0-2.42,0.03-2.42-1.04v-18.25c0-0.07-0.03-0.14-0.09-0.18
		S119.49,121.1,119.41,121.12L119.41,121.12z M95.32,137.05v-3.86c0-3.75-2.53-5.79-8-5.62c-5.46,0.17-7.6,0.61-7.6,5.07v17.11
		c0,0.07,0.03,0.14,0.09,0.18c0.06,0.05,0.12,0.07,0.2,0.05l4.56-0.74c0.12-0.02,0.2-0.12,0.2-0.24v-3.39
		c0-0.67-0.47-1.19-0.43-2.17c1.46,0.46,3.14,0.62,5.1,0.57C91.71,143.98,95.32,142.8,95.32,137.05L95.32,137.05z M84.77,140.78
		v-8.14c0-1.59,0.09-2.04,2.63-2.04c2.53,0,2.88,1.5,2.88,2.59v4.6c0,2.44-0.82,3.35-2.97,3.34
		C86.21,141.12,85.65,140.95,84.77,140.78L84.77,140.78z M66.6,127.58l-4.56,0.74c-0.12,0.02-0.2,0.12-0.2,0.24v10.46
		c0,3.75,3.42,5.01,7.39,5.08c3.98,0.07,7.88-1.07,7.88-5.08v-11.2c0-0.07-0.03-0.14-0.09-0.18c-0.06-0.05-0.12-0.07-0.2-0.05
		l-4.56,0.74c-0.12,0.02-0.2,0.12-0.2,0.24v10.46c0,1.11-0.59,2.04-2.63,2.04s-2.56-0.95-2.56-2.04v-11.2
		c0-0.07-0.03-0.14-0.09-0.18C66.74,127.59,66.67,127.57,66.6,127.58L66.6,127.58z M101.68,138.19v1.53c0,1.5,2.75,1.48,4.25,1.48
		c0.81,0,1.14-0.31,1.14-1.14v-3.46c0-0.07-0.03-0.13-0.08-0.18c-0.05-0.05-0.11-0.07-0.18-0.06
		C105.02,136.49,101.68,136.55,101.68,138.19L101.68,138.19z M96.74,139.72v-1.53c0-3.71,6.16-4.27,10.11-4.63
		c0.13-0.01,0.22-0.12,0.22-0.24v-0.87c0-0.9-0.33-1.63-1.62-1.76c-2.28-0.23-3.65,0.09-6.75,0.78c-0.13,0.03-0.25-0.05-0.29-0.17
		l-0.57-2.16c-0.03-0.12,0.03-0.25,0.15-0.29c1.91-0.71,4.44-1.35,7.26-1.2c2.74,0.15,6.7-0.04,6.7,4.8v7.6
		c0,3.31-2.37,3.9-7.55,3.96C100.46,144.06,96.74,142.66,96.74,139.72L96.74,139.72z M55.84,143.65h-4.57
		c-0.13,0-0.24-0.11-0.24-0.24v-13.73c0-0.05,0.01-0.08,0.03-0.12c0.7-1.19,4.95-1.8,9.05-1.74c0.13,0,0.24,0.11,0.24,0.24v2.72
		c0,0.07-0.03,0.13-0.08,0.18c-0.05,0.05-0.11,0.07-0.18,0.07c-2.42-0.13-3.85,0.14-4,0.66c-0.01,0.02-0.01,0.05-0.01,0.07v11.65
		C56.08,143.54,55.97,143.65,55.84,143.65L55.84,143.65z M42.9,134.01v-2.63c0-4.86-1.57-6.25-5.53-6.25h-4.6v15.13h4.59
		C42.02,140.26,42.9,137.9,42.9,134.01L42.9,134.01z"/>
</g>
</svg>
