<svg xmlns="http://www.w3.org/2000/svg" viewBox="0 0 549.88 434.78"><defs><style>.cls-1{fill:#f8e01e;}</style></defs><title>es6</title><g id="Layer_2" data-name="Layer 2"><g id="svg2"><path class="cls-1" d="M0,0H549.88V434.78H0ZM451.81,323.24c-1-8.13,4.2-18.07,13.15-21a72,72,0,0,1,19.51-3.08c13.72-.56,13.8-.27,12.57-14-.11-1.23-2-3.35-2.89-3.3-10.11.55-20.43.38-30.24,2.48-17.37,3.73-28,15.25-32.1,32.54-3.46,14.61-4,29.35-.64,44,2.32,10.13,7.4,18.51,16.89,23.61,13.56,7.29,33.95,5.37,45.73-4.57s14.11-23,10.69-37.22c-3.22-13.33-13-20.07-26.08-21C469.65,321.08,460.74,322.65,451.81,323.24ZM277.34,341.11H318c0-4.72-.12-8.84,0-12.95.13-3.17-1.39-4-4.24-3.94-8.16.1-16.32,0-24.48,0H277c0-7.64.11-14.43,0-21.22-.07-3.06,1.07-4,4.08-4,9,.14,18,.05,27,.05,12.19,0,12,0,12.1-12.09,0-4.08-1.14-5.47-5.35-5.42q-26.73.31-53.45,0c-3.87,0-5.23,1.05-5.21,5q.18,47.7,0,95.41c0,3.9,1.18,5.14,5.14,5.08,15.31-.21,30.63-.08,45.95-.08,13.35,0,13.24,0,12.89-13.22-.09-3.34-1.27-4.23-4.44-4.19-11,.14-22,0-33,0h-5.36ZM405.44,301c0-5.17.18-10.29-.15-15.38-.07-1.09-1.85-2.72-3.08-3-12.95-2.85-26-4.25-39.06-.7-13.88,3.78-22.27,13.28-23.27,26.1-1,13.34,5.14,23.08,18.73,29.33,3.77,1.73,7.68,3.16,11.49,4.82,5.17,2.25,10.46,4.28,15.39,7,4.34,2.37,6.11,6.5,5.17,11.48a9.72,9.72,0,0,1-8.35,8.24c-6.33.94-12.89,1.75-19.21,1.13-8-.78-15.84-3.05-24.35-4.81,0,5.14.18,10.11-.07,15.06-.17,3.3,1,5.08,4.26,5.41,10.23,1.07,20.46,2.71,30.71,3a45.53,45.53,0,0,0,24.84-6.45c10.64-6.4,15-16.16,14.71-28.16-.25-11.07-6.2-18.75-15.63-23.8-4.67-2.5-9.72-4.3-14.58-6.45-5.61-2.49-11.6-4.4-16.71-7.68-7-4.49-6-13.74,1.92-16.4a44.77,44.77,0,0,1,16.15-1.85C391.22,298.2,398,299.83,405.44,301Z"/><path d="M451.81,323.24c8.93-.59,17.84-2.16,26.59-1.53,13,.94,22.86,7.68,26.08,21,3.42,14.18,1.11,27.26-10.69,37.22s-32.17,11.86-45.73,4.57c-9.49-5.1-14.57-13.48-16.89-23.61-3.37-14.69-2.82-29.43.64-44,4.1-17.29,14.73-28.81,32.1-32.54,9.81-2.1,20.13-1.93,30.24-2.48.94,0,2.78,2.07,2.89,3.3,1.23,13.73,1.15,13.44-12.57,14A72,72,0,0,0,465,302.22C456,305.17,450.83,315.11,451.81,323.24Zm-1.24,25.37c.64,3.6,1,7.27,2,10.77,2.87,10.28,11,14.56,21.28,11.48,7.71-2.3,11.94-9.85,10.94-19.53-.8-7.86-6-13-14.32-13.05-4.72,0-9.47,1.2-14.17,2.09C451.79,341.21,449.59,343.8,450.57,348.61Z"/><path d="M277.34,341.11v28.54h5.36c11,0,22,.09,33,0,3.17,0,4.35.85,4.44,4.19.35,13.22.46,13.22-12.89,13.22-15.32,0-30.64-.13-45.95.08-4,.06-5.16-1.18-5.14-5.08q.18-47.72,0-95.41c0-4,1.34-5.06,5.21-5q26.73.27,53.45,0c4.21-.05,5.37,1.34,5.35,5.42-.07,12.09.09,12.09-12.1,12.09-9,0-18,.09-27-.05-3,0-4.15.94-4.08,4,.16,6.79,0,13.58,0,21.22h12.27c8.16,0,16.32.07,24.48,0,2.85,0,4.37.77,4.24,3.94-.16,4.11,0,8.23,0,12.95H277.34Z"/><path d="M405.44,301c-7.42-1.18-14.22-2.81-21.09-3.17a44.77,44.77,0,0,0-16.15,1.85c-7.9,2.66-8.95,11.91-1.92,16.4,5.11,3.28,11.1,5.19,16.71,7.68,4.86,2.15,9.91,4,14.58,6.45C407,335.27,413,343,413.2,354c.27,12-4.07,21.76-14.71,28.16a45.53,45.53,0,0,1-24.84,6.45c-10.25-.25-20.48-1.89-30.71-3-3.24-.33-4.43-2.11-4.26-5.41.25-4.95.07-9.92.07-15.06,8.51,1.76,16.36,4,24.35,4.81,6.32.62,12.88-.19,19.21-1.13a9.72,9.72,0,0,0,8.35-8.24c.94-5-.83-9.11-5.17-11.48-4.93-2.69-10.22-4.72-15.39-7-3.81-1.66-7.72-3.09-11.49-4.82-13.59-6.25-19.76-16-18.73-29.33,1-12.82,9.39-22.32,23.27-26.1,13.06-3.55,26.11-2.15,39.06.7,1.23.27,3,1.9,3.08,3C405.62,290.72,405.44,295.84,405.44,301Z"/><path class="cls-1" d="M450.57,348.61c-1-4.81,1.22-7.4,5.69-8.24,4.7-.89,9.45-2.11,14.17-2.09,8.32.05,13.52,5.19,14.32,13.05,1,9.68-3.23,17.23-10.94,19.53-10.3,3.08-18.41-1.2-21.28-11.48C451.55,355.88,451.21,352.21,450.57,348.61Z"/></g></g></svg>