<svg xmlns="http://www.w3.org/2000/svg" data-name="Layer 1" viewBox="0 0 538.71 157.87"><path d="M155.43 35.48h-4.2l-31 41.33-30.38-41.3H85.3l32.8 44-34.38 45.1v-1.48H3.42V62.44H78.3V58.9H3.4V3.54H83V0H-.1v126.65h86.45l33.84-44.52 34 44.52h4.36l-36.1-47.18zm78.3 11.35a34.46 34.46 0 0 0-28.15-13.48 38.54 38.54 0 0 0-12.7 2 33.9 33.9 0 0 0-10.44 5.77 38.8 38.8 0 0 0-7.9 8.78 40.58 40.58 0 0 0-5.08 11.1h-.35V35.48h-3.5v122.4h3.5V101.1h.37a36.46 36.46 0 0 0 12.45 20q9.3 7.55 23.68 7.55a34.65 34.65 0 0 0 16.48-3.8 35.18 35.18 0 0 0 12-10.4 48.53 48.53 0 0 0 7.36-15.24A64.82 64.82 0 0 0 244 80.9a65.3 65.3 0 0 0-2.63-19 45.66 45.66 0 0 0-7.65-15.07zm4.72 49.93a45.64 45.64 0 0 1-6.22 14.24 34 34 0 0 1-10.78 10.3 30 30 0 0 1-15.87 4q-16.48 0-26.48-11.45T169.1 81a57 57 0 0 1 2.46-17 43.8 43.8 0 0 1 7.1-14 34.2 34.2 0 0 1 11.48-9.58 33 33 0 0 1 15.43-3.55 31.84 31.84 0 0 1 15.34 3.55 31.25 31.25 0 0 1 10.9 9.67 45.3 45.3 0 0 1 6.5 14 62.44 62.44 0 0 1 2.17 16.74 64 64 0 0 1-2 15.9zm46.46-61.64a34.2 34.2 0 0 0-10.4 5.32 27.1 27.1 0 0 0-7 7.9 35.48 35.48 0 0 0-3.9 9.66h-.34V35.48h-3.5v91.18h3.5V75a50.9 50.9 0 0 1 2.1-14.55 35.8 35.8 0 0 1 6.5-12.45A30.44 30.44 0 0 1 283 39.47a33.45 33.45 0 0 1 16-2.57v-3.55a43 43 0 0 0-14.08 1.77zm85 13.13a35.87 35.87 0 0 0-12.4-10.82 38 38 0 0 0-18.14-4.08 35.94 35.94 0 0 0-14.73 3.2 36.62 36.62 0 0 0-12.63 9.3 47.35 47.35 0 0 0-8.77 15 57.24 57.24 0 0 0-3.33 20.22 75 75 0 0 0 2.3 18.93 44.45 44.45 0 0 0 7 15.25 31.68 31.68 0 0 0 12.2 10q7.43 3.55 18 3.37 15.4 0 25.93-8.78t12.45-24.75h-3.5q-2.3 15.06-11.67 22.6T339 125.2q-9.65 0-16.3-3.37a29.6 29.6 0 0 1-10.88-9.22 40.4 40.4 0 0 1-6.22-13.75 74.65 74.65 0 0 1-2.2-17.13h75.4a64 64 0 0 0-1.8-18.1 45.35 45.35 0 0 0-7-15.42zm-66.52 30A55.36 55.36 0 0 1 306.92 61a42.75 42.75 0 0 1 7.8-13 32.62 32.62 0 0 1 11.22-8.25 33.6 33.6 0 0 1 13.76-2.84 34.52 34.52 0 0 1 15.43 3.3 32 32 0 0 1 11.13 9A39.7 39.7 0 0 1 373 62.35a54.64 54.64 0 0 1 2.28 15.88zM448.33 86a35.2 35.2 0 0 0-9.33-4.14q-5.17-1.5-10.43-2.93-7.36-1.95-12.9-3.37a77.27 77.27 0 0 1-10.25-3.37 17.4 17.4 0 0 1-7.28-5.6q-2.72-3.64-2.72-10.4a24.6 24.6 0 0 1 .7-4.42 16 16 0 0 1 3.33-6.48 22.44 22.44 0 0 1 8.07-5.85q5.43-2.57 14.9-2.57a46.18 46.18 0 0 1 11.83 1.42 24.56 24.56 0 0 1 9.2 4.52 20.58 20.58 0 0 1 6 7.9 29.07 29.07 0 0 1 2.1 11.7h3.52q0-15.25-8.77-22.17t-23.85-6.92a41.37 41.37 0 0 0-14.2 2.13 28.35 28.35 0 0 0-9.47 5.5 19.8 19.8 0 0 0-5.26 7.45 21.64 21.64 0 0 0-1.52 7.8q0 7.46 2.63 11.9a17.34 17.34 0 0 0 8.2 6.9 62.3 62.3 0 0 0 8.77 3.2q4.9 1.4 11.4 3 5.8 1.4 11.4 2.82a41 41 0 0 1 9.9 3.8 21.5 21.5 0 0 1 7 6.13q2.73 3.73 2.73 9.76a17.52 17.52 0 0 1-2.72 9.94 22 22 0 0 1-6.9 6.65 30.58 30.58 0 0 1-9.4 3.7 46.18 46.18 0 0 1-10.08 1.15q-16 0-24.46-7.18T392 95.43h-3.5q0 17.2 9.2 25.2t27.27 8a52.64 52.64 0 0 0 11.66-1.34 32.2 32.2 0 0 0 10.52-4.37 23.93 23.93 0 0 0 7.54-7.8 22.25 22.25 0 0 0 2.87-11.72q0-6.55-2.54-10.63a21.48 21.48 0 0 0-6.7-6.78zm87.84 6.74A21.48 21.48 0 0 0 529.5 86a35.2 35.2 0 0 0-9.28-4.17q-5.17-1.5-10.43-2.93-7.38-1.95-12.9-3.37a77.27 77.27 0 0 1-10.27-3.37 17.4 17.4 0 0 1-7.28-5.6q-2.72-3.62-2.72-10.37a24.7 24.7 0 0 1 .7-4.45 16 16 0 0 1 3.33-6.47 22.44 22.44 0 0 1 8.07-5.86q5.43-2.57 14.9-2.57a46.18 46.18 0 0 1 11.83 1.42 24.56 24.56 0 0 1 9.2 4.5 20.58 20.58 0 0 1 6 7.9 29.07 29.07 0 0 1 2.1 11.7h3.52q0-15.24-8.78-22.16t-23.85-6.9a41.37 41.37 0 0 0-14.2 2.12A28.35 28.35 0 0 0 480 41a19.8 19.8 0 0 0-5.26 7.45 21.64 21.64 0 0 0-1.58 7.8q0 7.46 2.63 11.9A17.35 17.35 0 0 0 484 75a62.3 62.3 0 0 0 8.77 3.2q4.9 1.4 11.4 3 5.8 1.4 11.4 2.83a41 41 0 0 1 9.9 3.8 21.5 21.5 0 0 1 7 6.13q2.73 3.73 2.73 9.76a17.52 17.52 0 0 1-2.72 9.93 22 22 0 0 1-6.93 6.65 30.58 30.58 0 0 1-9.38 3.73 46.18 46.18 0 0 1-10.08 1.15q-16 0-24.48-7.18t-8.5-22.62h-3.5q0 17.2 9.2 25.2t27.27 8a52.64 52.64 0 0 0 11.65-1.34 32.2 32.2 0 0 0 10.52-4.35 23.93 23.93 0 0 0 7.54-7.83 22.25 22.25 0 0 0 2.9-11.7q0-6.53-2.54-10.6z" fill="#16111c"/></svg>