<?xml version="1.0" encoding="utf-8"?>
<!-- Generator: Adobe Illustrator 22.1.0, SVG Export Plug-In . SVG Version: 6.00 Build 0)  -->
<svg version="1.1" id="Layer_1" xmlns="http://www.w3.org/2000/svg" xmlns:xlink="http://www.w3.org/1999/xlink" x="0px" y="0px"
	 viewBox="0 0 500 510" style="enable-background:new 0 0 500 510;" xml:space="preserve">
<style type="text/css">
	.st0{stroke:#000000;stroke-width:2;stroke-linecap:round;stroke-linejoin:round;stroke-miterlimit:10;}
	.st1{fill:#FFFFFF;stroke:#000000;stroke-width:2;stroke-linecap:round;stroke-linejoin:round;stroke-miterlimit:10;}
	.st2{fill:#333333;}
</style>
<g>
	<path class="st0" d="M258.4,377c0,14.3,0,28.5,0,44.1c1.3-2.6,2.1-4.2,2.9-5.7c5.4-9.1,13.8-12.7,24-12.2
		c9.4,0.4,17.3,4.1,21.1,13.3c1.6,3.9,2.5,8.4,2.5,12.6c0.3,14.1,0.1,28.3,0.1,42.5c0,1.2-0.4,2.3-0.6,3.5c-0.5,0-1.1,0-1.6,0
		c-0.1-1.6-0.3-3.2-0.3-4.8c0-12.8,0-25.6,0-38.5c0-17.2-7.2-25.6-21.9-26c-14.4-0.4-25.6,10.2-26.2,25.7c-0.5,13-0.2,26-0.3,39
		c0,1.6-0.4,3.2-0.6,4.7c-0.7-0.1-1.4-0.1-2-0.2c0-32.6,0-65.2,0-97.9C256.4,377,257.4,377,258.4,377z"/>
	<path class="st0" d="M81.4,377c-1.7,0.9-3.3,2.5-5,2.6c-15.7,0.2-31.3,0.1-47,0.1c-1.8,0-3.6,0-5.9,0c0,14.4,0,28.4,0,43.3
		c8.5,0,17,0,25.6,0c8.6,0,17.3,0,25.9,0c0,0.7,0,1.4,0.1,2.1c-8.5,0.1-17,0.2-25.4,0.2c-8.6,0-17.3,0-27,0c0,16.9,0,33.3,0,49.6
		c-0.8,0-1.5,0-2.3-0.1c0-32.6,0-65.3,0-97.9C40.7,377,61,377,81.4,377z"/>
	<path class="st0" d="M158,426c-2.3-7.2,2-15.3,9.5-19.2c8.9-4.7,18.3-5,27.6-1.4c8.4,3.3,11,10.6,11,19c0.1,12.7,0,25.3,0,38
		c0,9.3,0,9.3,8.5,11.4c0,0.4,0,0.8,0,1.2c-2.4-0.1-5.1,0.5-7-0.6c-1.8-1-3.4-3.5-3.9-5.6c-0.7-2.5-0.2-5.2-0.2-8.6
		c-2.7,3.3-4.6,6.5-7.2,8.7c-10.4,8.6-22.2,10-34.6,5.1c-7.5-3-10.6-9.1-10.2-18.2c0.4-8.1,4.5-14.7,12-16.6
		c6.7-1.7,13.8-2.1,20.7-3c1.5-0.2,3-0.1,4.5-0.2c10-0.6,14.2-3.3,14.8-9.4c1.1-10.7-3.3-18.6-12.7-20.1c-6.2-1-12.9-0.4-19.1,1
		c-6.6,1.5-10.5,6.8-12.3,13.3C158.8,422.6,158.4,424.3,158,426z M203.8,435.8c-7.4,1.1-14.1,2.2-20.9,3.1c-5.9,0.8-12,0.9-17.8,2.3
		c-6.7,1.6-10.4,6.9-11,13.8c-0.7,7.3,1.1,13.4,8.1,16.8c13.9,6.6,35.8,1.6,40.2-17.9C203.8,447.7,203.4,441.1,203.8,435.8z"/>
	<path class="st0" d="M382.5,440.4c-20.3,0-39.5,0-58.7,0c-2.4,12.1,3.9,27.5,14.2,31.2c20.3,7.2,35.4,1.5,41.8-21.9
		c1.2,6-1.1,12.8-5.4,17.4c-9,9.6-20.4,11.5-32.6,8.6c-11-2.6-16.9-10.6-19.6-21.2c-2.7-10.7-2.9-21.4,1.4-31.8
		c5.6-13.5,17.5-20.9,31.1-19.5c13.4,1.4,23.3,10.7,26.2,25C381.8,431.9,381.9,435.7,382.5,440.4z M379.1,437.8
		c1-11.8-4.3-23.2-13.6-28.5c-9.4-5.4-19.3-5.4-28.4,0.5c-9.8,6.4-13.6,16.2-14.1,27.9C341.9,437.8,360.4,437.8,379.1,437.8z"/>
	<path class="st0" d="M142.7,451c-0.1,8.6-3.5,15.2-10.1,20c-20.3,14.9-46.4,3.1-49-22.6c-0.7-7.4-0.3-15.5,1.7-22.6
		c4.3-15.6,17.6-24.2,32.3-22.5c14.8,1.7,25.4,13.4,26.7,29.7c0.2,2.1,0,4.3,0,7.2c-19.4,0-38.8,0-58,0
		c-2.6,11.5,3.7,27.4,13.7,31.2C120.5,479.1,135.7,473.4,142.7,451z M85.6,437.7c18.9,0,37.5,0,56,0c1.5-17.4-10.1-31.5-26.2-32.1
		C98.5,405.1,85.3,419.1,85.6,437.7z"/>
	<path class="st0" d="M476.1,426.2c-0.7-3.1-1.1-4.8-1.5-6.6c-1.4-6-4.9-10.9-10.8-11.9c-6.9-1.2-14.2-1.7-21-0.6
		c-7.7,1.2-11.7,7.2-11.8,14.1c-0.1,6.9,2.9,10.7,11.1,13.3c6.7,2.1,13.4,3.7,20.2,5.6c2.4,0.7,4.8,1.3,7.1,2.4
		c5.7,2.7,9.8,6.7,10.2,13.6c0.4,7.2-2,13.1-8.3,16.4c-12,6.4-24.4,6.2-36.2-0.4c-7-3.9-10.4-13.5-7.8-21.9c0.5,2.3,0.9,3.4,1,4.5
		c1.3,10.9,6.4,16.9,17.2,19.1c7.8,1.5,15.6,1.5,22.9-2.3c5.6-2.9,9-7.4,8.9-13.9c-0.1-6.5-3.8-10.7-9.5-12.8
		c-6.2-2.3-12.7-3.7-19.1-5.6c-3.3-1-6.7-2-10-3.1c-5.9-2-9.5-6-10.1-12.3c-0.7-6.4,1.4-11.8,6.7-15.7c9-6.6,26.6-6.4,35.4,0.4
		C475.9,412.3,478.3,419.2,476.1,426.2z"/>
	<path class="st0" d="M393.9,474.8c0-23.2,0-46.4,0-69.6c0.5-0.1,1.1-0.1,1.6-0.2c0.2,4.9,0.5,9.8,0.7,15.4
		c7.8-13.4,17.1-18.8,29.1-16.3c-2.3,0.8-3.4,1.4-4.4,1.4c-12.4-0.2-24,10.2-24.7,26.4c-0.5,12.8-0.2,25.6-0.4,38.5
		c0,1.6-0.5,3.1-0.7,4.7C394.8,474.9,394.3,474.9,393.9,474.8z"/>
	<path class="st0" d="M229.4,382.8c0,5.4,0.3,10.8-0.1,16.2c-0.4,5,1.5,6.5,6.2,6c3.1-0.3,6.3-0.1,9.5-0.1c0,0.7,0,1.5,0,2.2
		c-3.6,0-7.3,0.2-10.9-0.1c-3.7-0.3-4.9,1.1-4.8,4.8c0.2,16.2,0,32.3,0.1,48.5c0.1,10.2,2.3,12.4,12.7,12.7c0.9,0,1.9,0.2,3.1,0.4
		c-7.4,5-17.3,0.5-17.7-8c-0.5-9.1-0.2-18.3-0.2-27.5c0-8.7-0.2-17.3,0.1-26c0.1-3.7-0.9-5.2-4.8-4.9c-2.6,0.3-5.2,0.1-7.9,0.1
		c-0.1-0.5-0.1-1.1-0.2-1.6c1.5-0.2,3.1-0.6,4.6-0.6c9-0.2,8,1.2,8.1-8.4c0-4.6,0-9.1,0-13.7C228,382.8,228.7,382.8,229.4,382.8z"/>
	<path class="st1" d="M203.8,435.8c-0.4,5.4,0,12-1.4,18.1c-4.4,19.5-26.3,24.5-40.2,17.9c-7-3.3-8.8-9.5-8.1-16.8
		c0.6-6.9,4.4-12.3,11-13.8c5.8-1.3,11.8-1.5,17.8-2.3C189.7,438,196.4,436.9,203.8,435.8z"/>
	<path class="st1" d="M379.1,437.8c-18.8,0-37.2,0-56.1,0c0.5-11.7,4.3-21.6,14.1-27.9c9.1-5.9,18.9-5.9,28.4-0.5
		C374.8,414.6,380.1,426,379.1,437.8z"/>
	<path class="st1" d="M85.6,437.7c-0.3-18.6,12.9-32.6,29.8-32.1c16.1,0.6,27.7,14.7,26.2,32.1C123.1,437.7,104.6,437.7,85.6,437.7z
		"/>
</g>
<path class="st2" d="M250,19.7c74.8,0,135.4,60.6,135.4,135.4S324.8,290.5,250,290.5c-74.8,0-135.4-60.6-135.4-135.4
	S175.2,19.7,250,19.7 M250,9.3c-80.4,0-145.7,65.4-145.7,145.7S169.6,300.8,250,300.8s145.7-65.4,145.7-145.7S330.4,9.3,250,9.3
	 M273.7,38.4c-11.9-2.2-40.6,41.5-50.1,68c-0.7,2-2.4,9.4-2.4,11.3c0,0,7.4,16,9.5,19.8c-3.5-1.8-10.6-15.7-10.6-15.7
	c-3.5,6.6-6.8,36.8-5.7,42.4c0,0,7.7,11.5,10.7,14.3c-4.1-1.4-11-10.7-11-10.7c-1.3,4-1,12.3-0.4,15.1c5.2,7.6,12.1,8.4,12.1,8.4
	s-7.6,75.4,3.9,81c7.1-1.5,8.9-84.2,8.9-84.2s8.6,0.6,10.6-1.5c4.4-3,14.6-34.4,14.8-38.9c0,0-11.9,2.2-17.6,4.5
	c4.4-4.3,18.3-7.2,18.3-7.2c3.8-4.5,11.7-35.4,12.5-44.9c0.2-2.4,0.7-5.3,0.3-9.6c0,0-11.3,2.5-13.7,1.6c2.4-0.3,14-4.7,14-4.7
	C279.7,69.1,280.3,39.6,273.7,38.4L273.7,38.4z M232.3,233.9c-0.9,22.2-1.5,28.5-2.4,33.7c-0.4,1-0.9,1.1-1.3-0.1
	c-4-18.2-3.7-155.3,41.5-217.7C243.8,97.7,231.9,189.6,232.3,233.9L232.3,233.9z"/>
</svg>
