<?xml version="1.0" encoding="utf-8"?>
<!-- Generator: Adobe Illustrator 22.1.0, SVG Export Plug-In . SVG Version: 6.00 Build 0)  -->
<svg version="1.1" id="Layer_1" xmlns="http://www.w3.org/2000/svg" xmlns:xlink="http://www.w3.org/1999/xlink" x="0px" y="0px"
	 viewBox="0 0 250 250" style="enable-background:new 0 0 250 250;" xml:space="preserve">
<style type="text/css">
	.st0{fill:none;}
	.st1{fill:#1A2120;}
	.st2{fill:url(#SVGID_1_);}
	.st3{fill:url(#SVGID_2_);}
</style>
<title>Asset 1</title>
<g id="Layer_2_1_">
	<g id="Camada_1">
		<rect x="25" y="25" class="st0" width="200" height="200"/>
		<path class="st1" d="M70.7,179c1.8,14.6,9.7,25.5,21.9,36.3l-4.4-2.2c-49.1-21.1-71.7-77.9-50.6-127C51.8,53,83.3,30.6,119.3,27.9
			c-50.5,3.7-89.5,45.8-89.5,96.4c0-50.6,39.1-92.7,89.5-96.4C61.4,39.3,6,106.1,70.7,179z"/>
		<path class="st1" d="M202.8,93.5c-4.4-31.3-28.4-53.2-72.2-65.8l0,0C182.3,30,223,72.6,223,124.3c0,53.4-40.2,94.7-92.5,97
			c-5,0.2-10-0.6-14.7-2.1V110.3c1.6-2.1,1.6-5.1,0-7.2V79.9h5.3c-1.7-1.2-3.5-2.2-5.3-3.1v-6.7c28,10.7,41.1,11.9,39.1,3.6
			c2.4,6.9,0.3,10-6.4,9.3c-7.7-1.2-12.5-0.7-14.4,1.6c13.8,6.8,21.2,13.5,22.2,19.9c1.3,10.8-3.8,22.8-15.4,35.9
			c-7.3,9.1-3.5,18.8,8.3,20.3C185.8,159,203.6,136.5,202.8,93.5L202.8,93.5z M115.8,219.2c-11.2-3.5-21.2-10.4-26.1-15.3l0,0
			c-8.6-9-14.5-23.3-16.7-44.1c0-0.1,0-0.2,0-0.4v-7c1.3-16.6,12.5-28.3,33.4-35.1c4.7-2.3,7.9-4.7,9.5-7.1V219.2z M115.8,103.1
			c-0.8-1.2-1.8-2.3-2.9-3.2l0,0c-1.1-1.1-3.6-2.3-7.3-3.4c-8.5-0.2-13.1,1.9-13.8,6.4l0,0C77.4,96.5,77,89.2,90.5,81
			c2.6-1,6.5-1.4,11.7-1.2c-2.1-9.4,1.5-13,10.8-10.8c1,0.4,1.9,0.7,2.9,1.1v6.7c-4.3-2-6-1-5.1,3.1h5.1L115.8,103.1z"/>
		
			<linearGradient id="SVGID_1_" gradientUnits="userSpaceOnUse" x1="73.865" y1="35.496" x2="73.865" y2="223" gradientTransform="matrix(1 0 0 -1 0 252)">
			<stop  offset="0" style="stop-color:#E5272D"/>
			<stop  offset="1" style="stop-color:#F9DD1A"/>
		</linearGradient>
		<path class="st2" d="M70.2,180.2c1.8,14.6,9.7,25.5,21.9,36.3l-4.4-2.2c-49.1-21-71.8-77.9-50.8-127C51.1,54.1,82.7,31.6,118.7,29
			c-50.5,3.7-89.5,45.8-89.5,96.4c0-50.6,39.1-92.7,89.5-96.4C60.9,40.5,5.4,107.3,70.2,180.2z"/>
		
			<linearGradient id="SVGID_2_" gradientUnits="userSpaceOnUse" x1="147.44" y1="29.232" x2="147.44" y2="222.8563" gradientTransform="matrix(1 0 0 -1 0 252)">
			<stop  offset="0" style="stop-color:#E5272D"/>
			<stop  offset="1" style="stop-color:#F9DD1A"/>
		</linearGradient>
		<path class="st3" d="M202.2,94.6c-4.4-31.3-28.4-53.2-72.2-65.8l0,0c51.7,2.3,92.4,44.8,92.4,96.6c0,53.4-40.2,94.7-92.5,97
			c-5,0.2-10-0.5-14.7-2.1V111.4c1.6-2.1,1.6-5.1,0-7.2V81h5.3c-1.7-1.2-3.5-2.2-5.3-3.1v-6.7c28,10.7,41,11.9,39.1,3.5
			c2.4,6.9,0.3,10-6.4,9.3c-7.7-1.2-12.5-0.6-14.4,1.6c13.8,6.9,21.2,13.5,22.2,20c1.3,10.8-3.8,22.8-15.4,35.9
			c-7.3,9.1-3.5,18.8,8.3,20.3C185.2,160.1,203,137.7,202.2,94.6L202.2,94.6z M115.3,220.4c-11.2-3.5-21.2-10.4-26.1-15.3l0,0
			c-8.6-9-14.5-23.3-16.7-44.1c0-0.1,0-0.2,0-0.4v-7c1.4-16.6,12.5-28.3,33.4-35.1c4.7-2.3,7.9-4.7,9.5-7.1V220.4z M115.3,104.2
			c-0.8-1.2-1.8-2.3-2.9-3.2l0,0c-1.1-1.1-3.6-2.3-7.3-3.4c-8.5-0.2-13.1,1.9-13.8,6.4l0,0c-14.4-6.4-14.8-13.7-1.3-21.9
			c2.6-1,6.5-1.4,11.7-1.2c-2.1-9.4,1.5-13,10.8-10.8c1,0.4,1.9,0.7,2.9,1.1V78c-4.3-2-6-1-5.1,3.1h5.1V104.2z"/>
	</g>
</g>
</svg>
