<?xml version="1.0" encoding="utf-8"?>
<!-- Generator: Adobe Illustrator 22.1.0, SVG Export Plug-In . SVG Version: 6.00 Build 0)  -->
<svg version="1.1" id="Layer_1" xmlns="http://www.w3.org/2000/svg" xmlns:xlink="http://www.w3.org/1999/xlink" x="0px" y="0px"
	 viewBox="0 0 360 424" style="enable-background:new 0 0 360 424;" xml:space="preserve">
<style type="text/css">
	.st0{fill:#FBA919;}
	.st1{fill:#E78724;}
	.st2{fill:#FDC168;}
	.st3{fill:#FFFFFF;}
	.st4{fill:#C9C9C9;}
	.st5{fill:#463014;}
</style>
<path class="st0" d="M75.3,75.8c0,0,5.3,20.6,6.1,27.5c0.8,6.9-13.7,22.1-13.7,29.8c0,7.6,3,21.4,19.8,28.2
	c16.8,6.9,19.1,24.4,19.1,35.1c0,10.7-6.1,31.3-6.1,31.3s-3.8,51.1,16.8,60.3c20.6,9.2,16,9.2,20.6,9.2c4.6,0,38.1,13.7,58,8.4
	c19.8-5.3,25.2-11.4,25.2-11.4s19.8,1.5,25.9-16c6.1-17.5,9.9-54.2,7.6-71c-2.3-16.8-5.3-38.9,8.4-46.5
	c13.7-7.6,28.2-16.8,25.9-24.4s-14.5-18.3-14.5-18.3s-3.1-19.1-0.8-23.7c2.3-4.6,16-16,8.4-24.4c-7.6-8.4-21.4-8.4-21.4-8.4
	l-17.5,1.5c0,0-29.7-26.7-68.7-25.2c-38.9,1.5-63.3,25.2-63.3,25.2s-13-4.6-24.4,0C75.3,67.4,73,62.9,75.3,75.8L75.3,75.8z"/>
<path class="st1" d="M145.1,189.4c0,0-15.1,23.1-26.2,39.5c-1.7,2.5,11.1,2.7,11.1,2.7L145.1,189.4L145.1,189.4z M152.3,141.5
	c0,0-4.6,11.4-7.1,17.4c-2.7,6.5-13,9.8-13,9.8s5.4-5.6,5.4-19.8c0-6,7.7-8.3,7.7-8.3L152.3,141.5L152.3,141.5z"/>
<path class="st1" d="M147.7,147.9c0,0-9.3,11.1-26.7,4.9c-17.3-6.2-19.1-28.4-19.1-34.7c0-6.2,32.9,6.2,37.3,8.9
	S152.1,140.4,147.7,147.9L147.7,147.9z M82.2,29.2c0,0,16-3.1,26.7,5.3c10.7,8.4,13.8,15.1,13.8,15.1l-18,14.2c0,0-8.7-4-11.4-15.6
	C90.6,36.8,92.4,31.5,82.2,29.2z"/>
<path class="st1" d="M143,115.9c-6.9-9.8-18.2-14-27.3-14.7c-15.5-1.2-22.8,4.3-22.8,4.3s25.3,1.1,32.6,10.7
	c13.6,17.8,33.4,19.3,36.6,15.4c-3.7,0.2-7.7-1.6-12-5.7C147.4,123.1,145.2,119,143,115.9L143,115.9z M100.3,150.4
	c0,0-28.1-9.7-22.7-19.4c5.3-9.8,1.1-15.1,1.1-15.1S62.9,127.6,66.9,140c2.5,7.6,6.6,13.2,29.2,23.8c10.8,20.1,2.2,56.4,2.8,56.6
	c0.9,0.3,15.2-7.1,14.3-41C112.8,168.9,112,154.7,100.3,150.4L100.3,150.4z M137.1,46.6c-11.8,6-27.9,14.3-27.9,14.3l6.3,3.2
	c-0.6,1-0.9,1.6-0.9,1.6l6.5,3c0,0,15.9,11.5,25.7,18.9c-3.2-10-12.8-25.7-12.8-25.7S131.3,54.6,137.1,46.6L137.1,46.6z
	 M176.2,290.5c-36.2,0-48.4-18.4-48.4-18.4l5.7,13.8c2.1,6,24.9,24.5,42.7,24.5"/>
<path class="st1" d="M131.7,259.7c0,0,3.3,20.4,16.7,20.4c11.3,0,14.7-17.2,14.7-20.7L131.7,259.7L131.7,259.7z M109.5,229
	c1.2-3.3,5.3-16.4,6.7-28.4c1.6-14.4,1-35.4,1-35.4s-3.6,13.8-6.7,16c-3.1,2.2-8.9,17.3-8.9,17.3s-3.1,22.5-4.6,30.1
	C101.1,229.4,104.6,226.9,109.5,229L109.5,229z M77.3,139.8c0,0,7.6-2.7,9.8-19.1c2.2-16.4-2.7-30.7-2.7-30.7s0.4,22.7-2.2,27.1
	c-2.7,4.4-4.9,5.8-8,11.6C71.1,134.5,75.5,138,77.3,139.8z"/>
<path class="st2" d="M86.3,33.1l-1.5-1C80.2,32.3,86.3,33.1,86.3,33.1L86.3,33.1z"/>
<path class="st0" d="M143.2,41.8c0,0-7.1-1.2-10.7-6.5c-3.6-5.3-13.6-16-29.7-16.1c-16.1-0.1-31.9,4.3-31.9,4.3l13.9,8.8
	c1.5,0,4,0,8.3,0.1c17.4,0.6,20.1,17.8,20.1,17.8l61.3-8.4"/>
<path class="st3" d="M149.1,136.8c0,0-8.3,8.3-21,5.6c-12.7-2.7-20.4-8.3-21-18.1c-0.6-9.8,2.7-13.6,2.7-13.6s14.2,4.5,21,10.4
	C137.6,127.1,142.6,136.5,149.1,136.8L149.1,136.8z"/>
<path class="st4" d="M139.1,133.9c0,0-7.2,3.3-15.2,0.6c-10.5-3.5-11.2-14.5-11.2-14.5s-6.5,19,11.6,22.6
	c14.5,2.9,23.1-5.5,23.1-5.5L139.1,133.9L139.1,133.9z"/>
<path class="st5" d="M144.2,37.7C143.4,21.5,156.8,8.5,161.4,8c0.3,2.8-0.3,13.5,4.4,16.8c1.3-8.8,5.9-18.4,23.8-24.8
	c-3.8,10.2-0.5,18.7,1.1,22.7c12.3-11.1,20.5-9.3,20.5-9.3s-8.5,14.7-5.2,24.3C181.4,35.8,144.3,40.3,144.2,37.7L144.2,37.7z
	 M92.1,62.5c-5.9-4.9-1.5-9.4-2-14.9c-0.3-2.9-0.5-5.7-1.5-7.3c-5.4-8.5-18.1-11.1-18.3-11.1l-6-1.2l4-4.6c0.5-0.6,16.8-16.1,41.9-8
	c17.6,5.7,30.6,24.9,31.1,25.7l-8.8,4.1c-0.1-0.2-10.4-18.3-25.5-23.1c-12.2-3.9-23.4-0.2-28.3,2.3c5.1,2,11.8,5.8,15.9,12.1
	c1.9,3,2.2,6.8,2.5,10.5c0.4,4.9,0.8,9.4,4.4,12.4L92.1,62.5L92.1,62.5z M76.4,133.6c0,0,7.4-9.2,9.6-27c0.9-7-0.7-20.9-3.1-26.2
	c0.4,13.1-2.9,26.2-2.9,26.2S77.7,130.9,76.4,133.6L76.4,133.6z"/>
<path class="st5" d="M115.4,53.2c0,0-2.4-10.4-8.9-15.6c-9.3-7.4-20.6-3.4-20.7-3.4l-1.6-5.1c0.5-0.2,13.5-4.3,25.4,4.1
	c12,8.4,13.4,16.1,13.5,16.9L115.4,53.2L115.4,53.2z M99.6,127c0,0-3.9-5.6-3.2-11.7c0.3-3,1.7-6.1,4.2-7.2c4.6-2,6.7,3.2,6.7,3.2
	S100.8,113,99.6,127L99.6,127z"/>
<path class="st5" d="M142.2,135.5c0.2,0.3,0.2,0.5,0.2,0.5s-12.1,9.1-24.5-0.1c-6.6-4.9-6-17.1-4-22.3c5.3,1.2,9.8,3.4,13.5,5.9
	c-4.7-4.2-8.9-7.3-8.9-7.4l-5.4-1.5l-10.5-3.6c-0.1,0.8-4,18.7,7.1,30.9c4.9,5.4,27.8,17.5,38.7-3.2L142.2,135.5L142.2,135.5z"/>
<path class="st5" d="M141.1,136.8c6.8,10.4,24,4.4,23.7-6.5c0,0-11.5,6.3-21.6-5.3c-5.9-6.8-24.9-25.6-50.6-19.3
	C110.3,109.5,133.8,125.7,141.1,136.8L141.1,136.8z"/>
<path class="st5" d="M90.1,166.1c1.6,0.9,7.4,6.9,7.4,15.9c0,4.5-0.4,27-2.7,40.8c3.3,2.2,5.7,2.6,9,4.8c1.7-16,2.9-39.1,2.3-48.4
	c-0.6-10.6-6.3-17.8-11.6-20.8c-1.6-1-3.4-1.9-5.1-2.8c-9.1-4.9-18.4-9.9-18.4-18.6c0-6.8,2.6-8.9,5.4-11.1l0.3-0.2
	c1.8-1.5,3.9-3.2,5.2-6c3.4-7.6,3.9-26.9,0-31.8c-2-2.4-7.2-10.7-5.7-16.2c0.6-2.1,1.9-3.7,4.1-4.8c2.3-1.2,5.4-1.8,9.2-1.8
	c7.5,0,15.8,2.3,20,3.6c15.3,4.8,33.7,18.8,39,23l0.3,0.2l3.4,2.4l-2.1-3.5c-0.1-0.2-13.5-22.3-37.5-30.3
	c-4.7-1.6-13.8-4.2-22.8-4.2c-5.4,0-9.9,0.9-13.5,2.8c-4.4,2.2-7.4,5.8-8.6,10.4c-3,11.1,6.8,23.5,7.2,23.9c1.2,2,1.6,16.9-1,22.9
	c-0.4,0.8-1.4,1.6-2.6,2.7c-0.4,0.3-0.8,0.7-1.3,1c-3.7,2.8-9.4,7.1-9.4,16.9c0,13.5,13.7,20.8,24.6,26.6
	C86.9,164.2,88.6,165.1,90.1,166.1L90.1,166.1z"/>
<path class="st5" d="M92.1,62.5c-5.9-4.9-1.5-9.4-2-14.9c-0.3-2.9-0.5-5.7-1.5-7.3c-5.4-8.5-18.1-11.1-18.3-11.1l-6-1.2l4-4.6
	c0.5-0.6,16.8-16.1,41.9-8c17.6,5.7,30.6,24.9,31.1,25.7l-8.8,4.1c-0.1-0.2-10.4-18.3-25.5-23.1c-12.2-3.9-23.4-0.2-28.3,2.3
	c5.1,2,11.8,5.8,15.9,12.1c1.9,3,2.2,6.8,2.5,10.5c0.4,4.9,0.8,9.4,4.4,12.4L92.1,62.5L92.1,62.5z"/>
<path class="st5" d="M91.9,63.5l-0.4-0.3c-4.4-3.6-3.6-7.2-2.8-10.6c0.3-1.6,0.7-3.2,0.6-4.9c-0.2-2.8-0.5-5.5-1.3-6.9
	c-5.1-8.1-17.6-10.7-17.7-10.7l-7.5-1.5l5-5.8c0.1-0.1,10.5-10.6,28.2-10.6c4.8,0,9.8,0.8,14.7,2.4c18.4,5.9,31.5,25.9,31.6,26.1
	l0.5,0.8l-10.4,4.9l-0.4-0.7c-1.1-1.9-11-18.2-25-22.7c-3.4-1.1-7.1-1.7-10.8-1.7c-6.7,0-12.1,1.8-15,3.1
	c4.8,2.2,10.7,5.8,14.4,11.7c2,3.2,2.3,7.1,2.7,10.8c0.4,4.7,0.8,9.1,4.1,11.8l1.2,1L91.9,63.5L91.9,63.5z"/>
<path class="st5" d="M115.4,53.2c0,0-2.4-10.4-8.9-15.6c-9.3-7.4-20.6-3.4-20.7-3.4l-1.6-5.1c0.5-0.2,13.5-4.3,25.4,4.1
	c12,8.4,13.4,16.1,13.5,16.9L115.4,53.2L115.4,53.2z"/>
<path class="st5" d="M114.7,54.4l-0.2-1c0-0.1-2.3-10.1-8.6-15.1C102.3,35.5,98,34,93.1,34c-3.8,0-6.7,0.9-7,1l-0.8,0.3L83,28.6
	l0.8-0.3c0.4-0.1,3.8-1.2,8.7-1.2c6.4,0,12.5,1.9,17.5,5.4c12.3,8.6,13.8,16.6,13.9,17.5l0.1,0.7L114.7,54.4L114.7,54.4z M93.1,32.3
	c5.3,0,10.1,1.6,13.9,4.7c5.6,4.4,8.2,12.3,9,15.1l6-2.4c-0.5-2.1-3-8.5-13-15.6c-4.8-3.4-10.4-5.1-16.5-5.1c-3.4,0-6,0.5-7.3,0.9
	l1.1,3.4C87.6,32.8,90,32.3,93.1,32.3z M147.8,275.1c-2.6,0-5.3-1-7.2-2.6c-1.4-1.2-6.2-5.6-8.4-11.1c-0.8-2-0.6-3.6,0.5-4.8
	c0.8-0.8,2.4-1.8,5.8-1.8l2.4,0c2.8,0,7.6,0,11.7,0h3.9c2.5,0,4.4,0.5,5.4,1.6c1.3,1.4,0.9,3.1,0.5,4.1c-0.7,1.6-3.4,6.9-7.9,11.8
	C152.9,274.2,150.5,275.1,147.8,275.1L147.8,275.1z M150.6,137.4l-9.5-0.6c0,0,2.4,4.3,4,9.8c1.8,6.2-1.6,15.4-1.6,15.4
	S156.1,147.7,150.6,137.4L150.6,137.4z M138.7,300.2c-33.7-2.6-45.6-34.5-45.6-41.1l8.8,0h-4.4h4.4c0,2.9,9,30.2,37.5,32.3
	L138.7,300.2L138.7,300.2z"/>
<path class="st3" d="M129.2,243c-0.5-3-0.6-5.9,0.1-8.8c-2.6-1.9-7.2-2.6-10.6-3.8c-2.8-1.8-17.3,1.8-27.8-10.9
	c-13.1-15.9-10.4-25.4-10.4-25.4c-3.4,3.7-6.6,2.3-11.8,19.8c-5.1,17.4,2.4,29.6,16.5,41.8c6.6,5.8,16.1,8.1,24.1,9.1
	c-2.7-2.7,4.6-3,9.7-4.9c-0.4-4.1,0.3-8,3.3-11.2c1.8-1.9,4.2-3.1,6.6-4c0.1-0.3,0.3-0.6,0.4-0.9C129.4,243.6,129.3,243.3,129.2,243
	L129.2,243z"/>
<path class="st4" d="M119,259.9c-0.3-0.9-0.5-1.7-0.7-2.6c-0.2-1-1.4-3.7,0-0.6c-0.4-0.8-0.6-1.6-0.8-2.4
	c-22.8,0-42.6-15.7-38.8-48.6c-3-4-7.2,8-7.2,8s-11.4,33.1,18.1,46c9.8,4.3,18.5,7.4,20.6,6.1c4.3,0.9,8.1-2.1,9.6-4.1
	C119.5,261.1,119.3,260.5,119,259.9L119,259.9z"/>
<path class="st5" d="M128.8,238.3c0-2.8,0.6-5.5,1.9-8.1c0.1-0.2,0.2-0.4,0.3-0.5c-8.8-0.1-18.9-0.9-27.5-4.4
	c-9.5-3.8-21.3-16.7-23.3-31.9c0,0-17.8,13.7-12.6,43.2c4.9,27.6,28,36.6,54.4,38.1c0-0.2-3-6.3-2-10.1c-15,1.1-31.7-4.7-39.8-18
	c-7.4-12.2-5.3-32.9-2.3-36C85.4,233.9,112.1,238.7,128.8,238.3L128.8,238.3z"/>
<path class="st5" d="M131.6,221.5c-4.7,13.9-14.4,25.2-14.4,25.2s13.3-0.6,14.1-3c0.5-1.7,12-28.6,16.4-60.1
	C143.5,190.4,132,220.3,131.6,221.5L131.6,221.5z"/>
<path class="st1" d="M207.1,189.4c0,0,15.1,23.1,26.2,39.5c1.7,2.5-11.1,2.7-11.1,2.7L207.1,189.4L207.1,189.4z M199.9,141.5
	c0,0,4.6,11.4,7,17.4c2.7,6.5,13,9.8,13,9.8s-5.4-5.6-5.4-19.8c0-6-7.7-8.3-7.7-8.3L199.9,141.5L199.9,141.5z"/>
<path class="st1" d="M204.5,147.9c0,0,9.3,11.1,26.7,4.9c17.3-6.2,19.1-28.4,19.1-34.7c0-6.2-32.9,6.2-37.3,8.9
	C208.5,129.7,200.1,140.4,204.5,147.9L204.5,147.9z M270,29.2c0,0-16-3.1-26.7,5.3c-10.7,8.4-13.8,15.1-13.8,15.1l18,14.2
	c0,0,8.7-4,11.4-15.6C261.5,36.8,259.7,31.5,270,29.2L270,29.2z"/>
<path class="st1" d="M209.2,115.9c6.9-9.8,18.2-14,27.3-14.7c15.5-1.2,22.8,4.3,22.8,4.3s-25.3,1.1-32.6,10.7
	c-13.6,17.8-33.4,19.3-36.6,15.4c3.7,0.2,7.7-1.6,12-5.7C204.8,123.1,207,119,209.2,115.9L209.2,115.9z M251.9,150.4
	c0,0,28.1-9.7,22.7-19.4c-5.3-9.8-1.1-15.1-1.1-15.1s15.7,11.7,11.7,24.1c-2.5,7.6-6.6,13.2-29.2,23.8c-10.9,20.1-2.2,56.4-2.8,56.6
	c-0.9,0.3-15.2-7.1-14.3-41C239.3,168.9,240.2,154.7,251.9,150.4L251.9,150.4z M215.1,46.6c11.8,6,27.9,14.3,27.9,14.3l-6.3,3.2
	c0.6,1,0.9,1.6,0.9,1.6l-6.5,3c0,0-15.9,11.5-25.7,18.9c3.2-10,12.8-25.7,12.8-25.7S220.9,54.6,215.1,46.6L215.1,46.6z M176,290.5
	c36.2,0,48.4-18.4,48.4-18.4l-5.7,13.8c-2.1,6-24.9,24.5-42.7,24.5"/>
<path class="st1" d="M220.5,259.7c0,0-3.3,20.4-16.7,20.4c-11.3,0-14.7-17.2-14.7-20.7L220.5,259.7L220.5,259.7z M242.7,229
	c-1.2-3.3-5.3-16.4-6.7-28.4c-1.6-14.4-1-35.4-1-35.4s3.6,13.8,6.7,16c3.1,2.2,8.9,17.3,8.9,17.3s3.1,22.5,4.6,30.1
	C251,229.4,247.6,226.9,242.7,229L242.7,229z M274.9,139.8c0,0-7.6-2.7-9.8-19.1c-2.2-16.4,2.7-30.7,2.7-30.7s-0.4,22.7,2.2,27.1
	c2.7,4.4,4.9,5.8,8,11.6C281.1,134.5,276.6,138,274.9,139.8L274.9,139.8z"/>
<path class="st2" d="M265.8,33.1l1.5-1C271.9,32.3,265.8,33.1,265.8,33.1z"/>
<path class="st0" d="M208.9,41.8c0,0,7.1-1.2,10.7-6.5c3.6-5.3,13.6-16,29.7-16.1c16.1-0.1,31.9,4.3,31.9,4.3l-13.9,8.8
	c-1.5,0-4,0-8.3,0.1C241.7,32.8,239,50,239,50l-61.3-8.4"/>
<path class="st3" d="M203,136.8c0,0,8.3,8.3,21,5.6c12.7-2.7,20.4-8.3,21-18.1c0.6-9.8-2.7-13.6-2.7-13.6s-14.2,4.5-21,10.4
	C214.6,127,209.5,136.5,203,136.8L203,136.8z"/>
<path class="st4" d="M213.1,133.9c0,0,7.2,3.3,15.2,0.6c10.5-3.5,11.2-14.5,11.2-14.5s6.5,19-11.7,22.6c-14.5,2.9-23.1-5.5-23.1-5.5
	L213.1,133.9L213.1,133.9z"/>
<path class="st5" d="M260.1,62.5c5.9-4.9,1.5-9.4,2-14.9c0.2-2.9,0.5-5.7,1.5-7.3c5.4-8.5,18.1-11.1,18.3-11.1l6-1.2l-4-4.6
	c-0.5-0.6-16.8-16.1-41.9-8c-17.6,5.7-30.6,24.9-31.1,25.7l8.8,4.1c0.1-0.2,10.4-18.3,25.5-23.1c12.2-3.9,23.4-0.2,28.3,2.3
	c-5.1,2-11.8,5.8-15.9,12.1c-1.9,3-2.2,6.8-2.5,10.5c-0.4,4.9-0.8,9.4-4.4,12.4L260.1,62.5L260.1,62.5z M275.8,133.6
	c0,0-7.4-9.2-9.6-27c-0.9-7,0.7-20.9,3.1-26.2c-0.4,13.1,2.9,26.2,2.9,26.2S274.4,130.9,275.8,133.6z"/>
<path class="st5" d="M236.8,53.2c0,0,2.4-10.4,8.9-15.6c9.3-7.4,20.6-3.4,20.7-3.4l1.6-5.1c-0.5-0.2-13.5-4.3-25.4,4.1
	c-12,8.4-13.4,16.1-13.6,16.9L236.8,53.2L236.8,53.2z M252.5,127c0,0,3.9-5.6,3.2-11.7c-0.3-3-1.7-6.1-4.2-7.2
	c-4.6-2-6.7,3.2-6.7,3.2S251.3,113,252.5,127L252.5,127z"/>
<path class="st5" d="M210,135.5c-0.2,0.3-0.2,0.5-0.2,0.5s12.1,9.1,24.5-0.1c6.6-4.9,6-17.1,4-22.3c-5.3,1.2-9.8,3.4-13.5,5.9
	c4.7-4.2,8.9-7.3,8.9-7.4l5.4-1.5l10.5-3.6c0.1,0.8,3.9,18.7-7.1,30.9c-4.9,5.4-27.8,17.5-38.7-3.2L210,135.5L210,135.5z"/>
<path class="st5" d="M211.1,136.8c-6.8,10.4-24,4.4-23.7-6.5c0,0,11.5,6.3,21.6-5.3c5.9-6.8,24.9-25.6,50.7-19.3
	C241.9,109.5,218.4,125.7,211.1,136.8L211.1,136.8z"/>
<path class="st5" d="M262.1,166.1c-1.6,0.9-7.4,6.9-7.4,15.9c0,4.5,0.4,27,2.7,40.8c-3.3,2.2-5.7,2.6-9,4.8
	c-1.7-16-2.9-39.1-2.3-48.4c0.6-10.6,6.3-17.8,11.6-20.8c1.7-1,3.4-1.9,5.1-2.8c9.1-4.9,18.4-9.9,18.4-18.6c0-6.8-2.6-8.9-5.4-11.1
	l-0.3-0.2c-1.8-1.5-3.9-3.2-5.2-6c-3.4-7.6-3.9-26.9,0-31.8c2-2.4,7.2-10.7,5.7-16.2c-0.6-2.1-1.9-3.7-4.1-4.8
	c-2.3-1.2-5.4-1.8-9.2-1.8c-7.5,0-15.8,2.3-20,3.6c-15.3,4.8-33.7,18.8-39,23c-0.1,0.1-0.2,0.2-0.3,0.2l-3.4,2.4l2.1-3.5
	c0.1-0.2,13.5-22.3,37.5-30.3c4.7-1.6,13.8-4.2,22.8-4.2c5.4,0,9.9,0.9,13.5,2.8c4.4,2.2,7.4,5.8,8.6,10.4c3,11.1-6.8,23.5-7.2,23.9
	c-1.2,2-1.6,16.9,1,22.9c0.4,0.8,1.4,1.6,2.6,2.7c0.4,0.3,0.8,0.7,1.3,1c3.7,2.8,9.4,7.1,9.4,16.9c0,13.5-13.7,20.8-24.6,26.6
	C265.3,164.2,263.6,165.1,262.1,166.1L262.1,166.1z"/>
<path class="st5" d="M245.8,60.9c-2.2-3.7-7.7-10.8-20.5-17c-14.3-7-30.8-10.5-49.1-10.5v0h-0.1v0c-18.3,0-34.9,3.5-49.1,10.5
	c-12.8,6.2-18.3,13.3-20.5,17l-0.9,1.2l11,2.4l0.4-0.4l0.2-0.4c0.2-0.7,1.6-4.6,13.9-10.6c13.1-6.4,28.3-9.6,45.3-9.6
	c17,0,32.2,3.2,45.3,9.6c12.2,6,13.7,9.9,13.9,10.6l0.2,0.4l0.3,0.4l11-2.4L245.8,60.9L245.8,60.9z"/>
<path class="st5" d="M260.1,62.5c5.9-4.9,1.5-9.4,2-14.9c0.2-2.9,0.5-5.7,1.5-7.3c5.4-8.5,18.1-11.1,18.3-11.1l6-1.2l-4-4.6
	c-0.5-0.6-16.8-16.1-41.9-8c-17.6,5.7-30.6,24.9-31.1,25.7l8.8,4.1c0.1-0.2,10.4-18.3,25.5-23.1c12.2-3.9,23.4-0.2,28.3,2.3
	c-5.1,2-11.8,5.8-15.9,12.1c-1.9,3-2.2,6.8-2.5,10.5c-0.4,4.9-0.8,9.4-4.4,12.4L260.1,62.5L260.1,62.5z"/>
<path class="st5" d="M248.8,59.7l1.2-1c3.3-2.7,3.7-7.1,4.1-11.8c0.3-3.8,0.6-7.7,2.7-10.9c3.7-5.9,9.6-9.5,14.4-11.7
	c-2.9-1.2-8.3-3.1-15-3.1c-3.7,0-7.3,0.6-10.8,1.7c-14,4.5-23.9,20.8-25,22.7l-0.4,0.7l-10.4-4.9l0.5-0.8
	c0.1-0.2,13.2-20.1,31.6-26.1c4.9-1.6,9.9-2.4,14.7-2.4c17.7,0,28.1,10.5,28.2,10.6l5,5.8L282,30c-0.1,0-12.6,2.6-17.7,10.7
	c-0.8,1.4-1.1,4-1.3,6.9c-0.1,1.7,0.2,3.3,0.6,4.9c0.7,3.4,1.5,7-2.8,10.6l-0.4,0.3L248.8,59.7L248.8,59.7z"/>
<path class="st5" d="M236.8,53.2c0,0,2.4-10.4,8.9-15.6c9.3-7.4,20.6-3.4,20.7-3.4l1.6-5.1c-0.5-0.2-13.5-4.3-25.4,4.1
	c-12,8.4-13.4,16.1-13.6,16.9L236.8,53.2L236.8,53.2z"/>
<path class="st5" d="M228.1,50.7l0.1-0.7c0.1-0.9,1.6-8.9,13.9-17.5c5.1-3.6,11.1-5.4,17.5-5.4c4.9,0,8.3,1.1,8.7,1.2l0.8,0.3
	l-2.2,6.8l-0.8-0.3c-0.3-0.1-3.2-1-7-1c-4.9,0-9.2,1.5-12.8,4.3c-6.3,5-8.6,15-8.6,15.1l-0.2,1L228.1,50.7L228.1,50.7z M265.8,33.1
	l1.1-3.4c-1.3-0.3-3.9-0.9-7.3-0.9c-6.1,0-11.7,1.7-16.5,5.1c-10.1,7.1-12.5,13.5-13,15.6l6,2.4c0.8-2.8,3.4-10.7,9-15.1
	c3.9-3.1,8.7-4.7,13.9-4.7C262.1,32.3,264.6,32.8,265.8,33.1L265.8,33.1z M197.6,272.4c-4.6-4.9-7.3-10.2-7.9-11.8
	c-0.4-0.9-0.8-2.7,0.5-4.1c1-1.1,2.9-1.6,5.4-1.6h3.9c4.1,0,8.8,0,11.7,0l2.4,0c3.3,0,5,1,5.8,1.8c1.2,1.2,1.3,2.8,0.5,4.8
	c-2.1,5.4-6.9,9.8-8.4,11.1c-1.9,1.6-4.5,2.6-7.2,2.6C201.7,275.2,199.3,274.2,197.6,272.4L197.6,272.4z M201.6,137.4l9.5-0.6
	c0,0-2.4,4.3-4,9.8c-1.8,6.2,1.6,15.4,1.6,15.4S196.1,147.7,201.6,137.4L201.6,137.4z"/>
<path class="st1" d="M176.1,103.6c-6,0-13.9-0.2-19.8-4.4c0,0,7.7,13.6,19.8,13.6l0-1.7l0,1.7c12.1,0,19.8-13.6,19.8-13.6
	C190,103.4,182.1,103.6,176.1,103.6L176.1,103.6z"/>
<path class="st5" d="M192.7,103.5c-6.1,3.7-11.5,4.9-16.6,5.1c-5.2-0.1-10.6-1.4-16.6-5.1c0,0,8.8,10.8,16.6,10.9v0h0c0,0,0,0,0,0
	C183.9,114.3,192.7,103.5,192.7,103.5L192.7,103.5z M213.4,300.2l-0.7-8.8c28.5-2.2,37.4-29.5,37.5-32.3h8.8
	C259.1,265.7,247.2,297.6,213.4,300.2L213.4,300.2z"/>
<path class="st3" d="M222.9,243c0.5-3,0.6-5.9-0.1-8.8c2.6-1.9,7.2-2.6,10.6-3.8c2.8-1.8,17.3,1.8,27.8-10.9
	c13.1-15.9,10.4-25.4,10.4-25.4c3.4,3.7,6.6,2.3,11.8,19.8c5.1,17.4-2.4,29.6-16.5,41.8c-6.6,5.8-16.1,8.1-24.1,9.1
	c2.7-2.7-4.6-3-9.7-4.9c0.4-4.1-0.3-8-3.3-11.2c-1.8-1.9-4.2-3.1-6.6-4c-0.1-0.3-0.3-0.6-0.4-0.9C222.8,243.6,222.9,243.3,222.9,243
	L222.9,243z"/>
<path class="st4" d="M233.1,259.9c0.3-0.9,0.5-1.7,0.7-2.6c0.2-1,1.4-3.7,0-0.6c0.4-0.8,0.6-1.6,0.8-2.4c22.8,0,42.6-15.7,38.8-48.6
	c3-4,7.2,8,7.2,8s11.4,33.1-18.1,46c-9.8,4.3-18.5,7.4-20.5,6.1c-4.3,0.9-8.1-2.1-9.6-4.1C232.7,261.1,232.9,260.5,233.1,259.9
	L233.1,259.9z"/>
<path class="st5" d="M223.3,238.3c0-2.8-0.6-5.5-1.9-8.1c-0.1-0.2-0.2-0.4-0.3-0.5c8.8-0.1,18.9-0.9,27.5-4.4
	c9.5-3.8,21.3-16.7,23.3-31.9c0,0,17.8,13.7,12.6,43.2c-4.9,27.6-28,36.6-54.4,38.1c0-0.2,3-6.3,2-10.1c15,1.1,31.7-4.7,39.8-18
	c7.4-12.2,5.3-32.9,2.3-36C266.8,233.9,240.1,238.7,223.3,238.3L223.3,238.3z"/>
<path class="st5" d="M234,245.2c-3.1-3.4-8.9-7.5-22.3-7.5l-35.6,0h-0.1c-10.2,0-35.6,0-35.6,0c-13.3,0-19.1,4.1-22.3,7.5
	c-4.6,5-5.3,11.8-2.1,20.5c8.4,22.9,20.3,46.2,60,46.3v0h0c0,0,0,0,0,0c39.7,0,51.5-23.3,60-46.3C239.3,257.1,238.6,250.2,234,245.2
	L234,245.2z M227.8,264.1c-4,11.5-14.8,39.4-51.7,39.4c-36.9,0-47.7-27.9-51.7-39.4c-2.2-6.4-2.1-11.1,0.5-14.1
	c1.8-2,5.8-4.4,15-4.4l9.6,0c7.1,0,16,0,26.6,0c10.5,0,19.5,0,26.6,0l9.6,0c9.2,0,13.3,2.4,15,4.4
	C229.9,252.9,230,257.7,227.8,264.1L227.8,264.1z"/>
<path class="st5" d="M223.9,237.9c5.1,14.9,15.5,27,15.5,27s-14.3-0.7-15.1-3.2c-0.6-1.9-12.9-30.8-17.6-64.6
	C211.1,204.5,223.4,236.6,223.9,237.9L223.9,237.9z M62.2,357.7c-1.9-1.1-4-2.2-6.3-3c-2.3-0.8-4.8-1.5-7.5-2
	c-2.7-0.5-5.6-0.7-8.7-0.7c-5.9,0-11.4,0.9-16.2,2.6c-4.9,1.8-9,4.3-12.5,7.4c-3.4,3.2-6.1,7-8,11.4c-1.8,4.4-2.8,9.2-2.8,14.5
	c0,5.1,1,10,2.9,14.3c1.9,4.4,4.6,8.2,8,11.4c3.4,3.2,7.5,5.7,12.1,7.5c4.6,1.8,9.7,2.7,15.2,2.7c3,0,5.8-0.1,8.4-0.4
	c2.6-0.3,5.1-0.7,7.4-1.3c2.3-0.6,4.5-1.4,6.6-2.3c2.1-1,4.1-2.1,6-3.4c0.3-0.2,0.6-0.6,0.6-1v-28.7c0-0.7-0.6-1.3-1.3-1.3H40.4
	c-0.7,0-1.3,0.6-1.3,1.3v11.5c0,0.7,0.6,1.3,1.3,1.3h9.2v8.1c-1.3,0.5-2.6,0.8-4,1.1c-1.7,0.4-3.7,0.5-5.9,0.5
	c-2.9,0-5.5-0.5-7.9-1.4c-2.4-0.9-4.5-2.3-6.2-4.1c-1.7-1.8-3.1-4-4.1-6.6c-1-2.6-1.5-5.7-1.5-9.1c0-3.1,0.5-5.9,1.4-8.5
	c0.9-2.5,2.2-4.6,3.8-6.4c1.6-1.8,3.6-3.1,6-4.1c2.4-1,5-1.5,8-1.5c1.6,0,3.1,0.1,4.4,0.2c1.3,0.1,2.5,0.4,3.7,0.7
	c1.2,0.3,2.3,0.8,3.4,1.3c1.2,0.5,6.5,3.6,7.8,4.3c0.9,0.5,1.4,0.5,2-0.3l7.3-10.6c0.4-0.5,0.3-1.3-0.2-1.7
	C65.9,360.1,64.2,358.8,62.2,357.7L62.2,357.7z M126,397.7c-0.8-1.2-1.7-2.3-2.8-3.1c-0.3-0.3-0.7-0.5-1.1-0.8
	c1.5-0.7,2.8-1.5,4.1-2.4c1.9-1.4,3.5-3,4.8-4.7c1.3-1.8,2.3-3.7,3-5.8c0.7-2.1,1-4.3,1-6.6c0-3-0.6-5.9-1.7-8.5
	c-1.1-2.6-3-5-5.5-6.9c-2.5-1.9-5.6-3.4-9.5-4.4c-3.8-1-8.4-1.6-13.7-1.6H81.2c-0.7,0-1.3,0.6-1.3,1.3V422c0,0.7,0.6,1.3,1.3,1.3H98
	c0.7,0,1.3-0.6,1.3-1.3v-23.9h3c1.3,0,2.1,0.2,2.4,0.4c0.5,0.3,1,0.7,1.4,1.4l12,19.7c1.5,2.4,3.9,3.6,7.1,3.6h15.2
	c0.7,0,1.3-0.6,1.3-1.3c0-0.4-0.1-0.7-0.4-0.9L126,397.7L126,397.7z M115.5,379.1c-0.4,1.1-1,2-1.9,2.9c-0.9,0.8-2.1,1.5-3.5,2
	c-1.5,0.5-3.3,0.8-5.4,0.8h-5.5v-17.6h5.5c4,0,7,0.8,8.8,2.2c1.8,1.4,2.6,3.4,2.6,6C116.2,376.7,116,378,115.5,379.1L115.5,379.1z
	 M210.3,352.8h-16.8c-0.7,0-1.3,0.6-1.3,1.3v40.2c0,2.2-0.3,4.3-0.9,6c-0.6,1.7-1.4,3.1-2.5,4.3c-1.1,1.2-2.4,2.1-4,2.7
	c-3.2,1.3-7.9,1.3-11.1,0c-1.6-0.6-2.9-1.5-4-2.7c-1.1-1.2-1.9-2.6-2.5-4.4c-0.6-1.7-0.9-3.8-0.9-6v-40.2c0-0.7-0.6-1.3-1.3-1.3
	h-16.8c-0.7,0-1.3,0.6-1.3,1.3v40.2c0,4.3,0.8,8.3,2.2,11.9c1.5,3.6,3.7,6.8,6.5,9.4c2.8,2.6,6.2,4.7,10.2,6.1
	c4,1.4,8.5,2.2,13.4,2.2c4.9,0,9.4-0.7,13.4-2.2c4-1.5,7.4-3.5,10.2-6.1c2.8-2.6,5-5.8,6.5-9.4c1.5-3.6,2.3-7.6,2.3-12v-40.2
	C211.6,353.4,211,352.8,210.3,352.8L210.3,352.8z M289.2,352.8h-14.8c-0.7,0-1.3,0.6-1.3,1.3V390c0,1.1,0,2.2,0.1,3.4l-31.8-37.8
	c-0.5-0.6-1-1-1.4-1.4c-0.5-0.4-1-0.7-1.5-0.9s-1.1-0.4-1.7-0.4c-0.5-0.1-1.2-0.1-2-0.1h-8.8c-0.7,0-1.3,0.6-1.3,1.3V422
	c0,0.7,0.6,1.3,1.3,1.3h14.8c0.7,0,1.3-0.6,1.3-1.3v-36.4c0-0.9,0-1.9-0.1-2.9l31.6,37.5c1,1.1,2,2,3.1,2.4c1,0.4,2.3,0.7,3.8,0.7
	h8.7c0.7,0,1.3-0.6,1.3-1.3v-67.9C290.5,353.4,290,352.8,289.2,352.8L289.2,352.8z M358.5,352.8h-57.4c-0.7,0-1.3,0.6-1.3,1.3v12.5
	c0,0.7,0.6,1.3,1.3,1.3h19.1V422c0,0.7,0.6,1.3,1.3,1.3h16.8c0.7,0,1.3-0.6,1.3-1.3v-54.1h19.1c0.7,0,1.3-0.6,1.3-1.3v-12.5
	C359.8,353.4,359.2,352.8,358.5,352.8z"/>
</svg>
