<?xml version="1.0" encoding="utf-8"?>
<!-- Generator: Adobe Illustrator 22.1.0, SVG Export Plug-In . SVG Version: 6.00 Build 0)  -->
<svg version="1.1" id="Layer_1" xmlns="http://www.w3.org/2000/svg" xmlns:xlink="http://www.w3.org/1999/xlink" x="0px" y="0px"
	 viewBox="0 0 2500 2500" style="enable-background:new 0 0 2500 2500;" xml:space="preserve">
<style type="text/css">
	.st0{fill:#E44D26;}
	.st1{fill:#F16529;}
	.st2{fill:#EBEBEB;}
	.st3{fill:#FFFFFF;}
</style>
<g>
	<path class="st0" d="M2022.3,588.4l-140.7,1576.3l-632.5,175.4L618.3,2165L477.7,588.4H2022.3L2022.3,588.4z"/>
	<path class="st1" d="M1250,2206l511.1-141.7l120.2-1347.1H1250V2206L1250,2206z"/>
	<path class="st2" d="M976.5,1104H1250V910.7H765.1l4.6,51.9l47.5,532.9H1250V1302H994.1L976.5,1104L976.5,1104z"/>
	<path class="st2" d="M1020,1592.1H825.9l27.1,303.6l396.1,110l0.9-0.2v-201.2l-0.8,0.2l-215.3-58.1L1020,1592.1L1020,1592.1z"/>
	<path d="M621.4,159.9h98.3V257h89.9v-97.1h98.3v294h-98.3v-98.4h-89.9v98.4h-98.3L621.4,159.9L621.4,159.9L621.4,159.9z"/>
	<path d="M1037.1,257.4h-86.5v-97.5h271.3v97.5h-86.5v196.5h-98.3L1037.1,257.4L1037.1,257.4L1037.1,257.4z"/>
	<path d="M1265,159.9h102.5l63,103.3l63-103.3h102.5v294H1498V308.2l-67.6,104.5h-1.7l-67.7-104.5v145.7H1265V159.9L1265,159.9z"/>
	<path d="M1644.8,159.9h98.3v196.8h138.2v97.2h-236.5V159.9L1644.8,159.9z"/>
	<path class="st3" d="M1249.3,1495.4h238.1l-22.4,250.8l-215.7,58.2v201.2l396.4-109.9l2.9-32.7l45.4-509.1l4.7-51.9h-449.5V1495.4
		L1249.3,1495.4z"/>
	<path class="st3" d="M1249.3,1103.5v0.5h467.1l3.9-43.5l8.8-98l4.6-51.9h-484.4V1103.5L1249.3,1103.5z"/>
</g>
</svg>
