<?xml version="1.0" encoding="utf-8"?>
<!-- Generator: Adobe Illustrator 23.0.0, SVG Export Plug-In . SVG Version: 6.00 Build 0)  -->
<svg version="1.1" id="Layer_1" xmlns="http://www.w3.org/2000/svg" xmlns:xlink="http://www.w3.org/1999/xlink" x="0px" y="0px"
	 viewBox="0 0 150 50.6" style="enable-background:new 0 0 150 50.6;" xml:space="preserve">
<style type="text/css">
	.st0{fill:#478AFF;}
</style>
<title>ionic-logo-landscape</title>
<g>
	<path class="st0" d="M25.3,13.8c-6.4,0-11.5,5.2-11.5,11.5s5.2,11.5,11.5,11.5s11.5-5.2,11.5-11.5l0,0C36.8,19,31.7,13.8,25.3,13.8
		z"/>
	<circle class="st0" cx="41.9" cy="9.6" r="5.3"/>
	<path class="st0" d="M48.4,14.8l-0.2-0.5l-0.3,0.4c-0.9,1-2,1.7-3.2,2.2l-0.3,0.1l0.1,0.3c4.4,10.6-0.6,22.7-11.2,27.1
		c-10.6,4.4-22.7-0.6-27.1-11.2S6.8,10.6,17.4,6.2C22.8,4,28.9,4.1,34.2,6.7l0.3,0.2l0.1-0.3C35.2,5.3,36,4.2,37,3.4l0.4-0.3
		l-0.5-0.2C33.3,1,29.4,0,25.3,0C11.3,0,0,11.3,0,25.3s11.3,25.3,25.3,25.3c14,0,25.3-11.3,25.3-25.3C50.6,21.7,49.9,18.1,48.4,14.8
		L48.4,14.8z"/>
	<rect x="63.7" y="14.3" class="st0" width="5.3" height="22"/>
	<rect x="121.3" y="14.3" class="st0" width="5.3" height="22"/>
	<path class="st0" d="M108.9,13.8c-3.8,0-6.7,2.3-7.3,2.9l0,0l-0.3-2.4h-4.4v22h5.3V23c0-2.6,3.6-4.8,6.2-4.8s4.6,2.5,4.6,5.4v12.7
		h5.3V24.2C118.2,18.4,115.7,13.8,108.9,13.8z"/>
	<path class="st0" d="M140.6,32.3c-4,0-6.7-3.1-6.7-7s2.7-7,6.7-7c3.4,0,5.5,3.3,5.5,3.3L150,19c-1.1-1.7-2.4-2.8-4.2-3.8
		c-1.5-0.9-3.3-1.4-5-1.4c-6.7,0-11.8,5-11.8,11.5c0,6.5,5.1,11.5,11.8,11.5c1.8,0,3.5-0.5,5-1.4c1.8-1.1,3.1-2.1,4.2-3.8l-3.9-2.6
		C146.1,29,144,32.3,140.6,32.3z"/>
	<path id="path3000" class="st0" d="M82.9,13.8c-6.3-0.1-11.4,4.9-11.5,11.2c0,0.1,0,0.2,0,0.3c0,6.3,4.7,11.6,11.6,11.6
		c6.3,0,11.4-4.8,11.4-11.5C94.4,17.7,88.5,13.8,82.9,13.8z M83,18.3c3.3,0,6.4,2.7,6.4,7c0,4.2-3.1,7-6.5,7c-3.7,0-6.5-2.9-6.5-7
		C76.4,21.3,79.3,18.3,83,18.3L83,18.3z"/>
</g>
</svg>
