<?xml version="1.0" encoding="utf-8"?>
<!-- Generator: Adobe Illustrator 22.1.0, SVG Export Plug-In . SVG Version: 6.00 Build 0)  -->
<svg version="1.1" id="Layer_1" xmlns="http://www.w3.org/2000/svg" xmlns:xlink="http://www.w3.org/1999/xlink" x="0px" y="0px"
	 viewBox="0 0 686.2 459" style="enable-background:new 0 0 686.2 459;" xml:space="preserve">
<style type="text/css">
	.st0{fill:#442D22;}
	.st1{fill:#8E714E;}
	.st2{fill:#FFFFFF;}
	.st3{fill:#A6A385;}
	.st4{fill:#499D4A;}
	.st5{fill:#58AA50;}
</style>
<g>
	<g>
		<path class="st0" d="M430.9,114.3c-4.5-0.5-7.8-1.3-11.8-3.1c-0.5-0.4-1.5-2.2-1.5-2.9c-0.4-6.3-0.4-24.5-0.4-36.6
			c0-9.8-1.6-18.3-5.8-24.3c-4.9-6.9-12-10.9-21-10.9c-8,0-18.7,5.4-27.6,13c-0.2,0.2-1.6,1.5-1.4-0.5c0-2,0.4-6,0.5-8.7
			c0.2-2.5-1.3-3.8-1.3-3.8c-5.8,2.9-22.1,6.7-28.1,7.2c-4.3,0.9-5.4,5.1-0.9,6.5h0.2c4.9,1.4,8.2,3.1,10.7,4.7
			c1.8,1.4,1.6,3.4,1.6,5.1c0.2,13.6,0.2,34.4-0.4,45.9c-0.2,4.5-1.4,6.2-4.7,6.9l0.4-0.2c-2.5,0.5-4.5,1.1-7.6,1.4
			c-1.1,1.1-1.1,6.9,0,8.2c2,0,12.5-0.5,21.2-0.5c12,0,18.1,0.5,21.2,0.5c1.3-1.4,1.6-6.9,0.9-8.2c-3.4-0.2-6-0.5-8.3-1.3
			c-3.3-0.7-4.2-2.4-4.4-6.2c-0.4-9.6-0.4-29.9-0.4-43.7c0-3.8,1.1-5.6,2.2-6.7c4.2-3.6,10.9-6.2,16.9-6.2c5.8,0,9.6,1.8,12.5,4.2
			c4,3.3,5.3,8,5.8,11.4c0.9,7.8,0.5,23.2,0.5,36.6c0,7.2-0.5,9.1-3.3,10c-1.3,0.5-4.5,1.3-8.3,1.6c-1.3,1.3-0.9,6.9,0,8.2
			c5.3,0,11.4-0.5,20.5-0.5c11.2,0,18.5,0.5,21.4,0.5C431.3,121,431.6,115.8,430.9,114.3L430.9,114.3z M481.1,45.1
			c-9.6,0-15.6,7.4-15.6,19c0,11.8,5.3,25.4,20.1,25.4c2.5,0,7.3-1.1,9.4-3.6c3.4-3.3,5.8-9.8,5.8-16.7
			C500.9,54.1,493.5,45.1,481.1,45.1L481.1,45.1z M479.9,125.2c-3.6,0-6.2,1.1-7.8,2c-7.6,4.9-11.1,9.6-11.1,15.2
			c0,5.3,2,9.4,6.3,13c5.3,4.5,12.5,6.7,21.7,6.7c18.5,0,26.6-10,26.6-19.8c0-6.9-3.4-11.4-10.5-14
			C500.2,126.3,490.9,125.2,479.9,125.2L479.9,125.2z M481.1,172.3c-11.1,0-19-2.4-25.9-7.6c-6.7-5.1-9.6-12.7-9.6-17.9
			c0-1.4,0.4-5.4,3.6-9.1c2-2.2,6.3-6.3,16.7-13.4c0.4-0.2,0.5-0.4,0.5-0.7c0-0.4-0.4-0.7-0.7-0.9c-8.5-3.3-11.1-8.5-11.8-11.4v-0.4
			c-0.2-1.1-0.5-2.2,1.1-3.3c1.3-0.9,3.1-2,5.1-3.3c3.1-1.8,6.3-3.8,8.3-5.4c0.4-0.4,0.4-0.7,0.4-1.1c0-0.4-0.4-0.7-0.7-0.9
			c-12.7-4.2-19-13.6-19-27.7c0-9.2,4.2-17.6,11.6-22.8c5.1-4,17.8-8.9,26.1-8.9h0.5c8.5,0.2,13.2,2,19.9,4.4
			c3.6,1.3,7.1,1.8,11.8,1.8c7.1,0,10.1-2.2,12.7-4.7c0.2,0.4,0.5,1.3,0.7,3.6c0.2,2.4-0.5,5.8-2.4,8.3c-1.4,2-4.7,3.4-8,3.4h-0.9
			c-3.3-0.4-4.7-0.7-4.7-0.7l-0.7,0.4c-0.2,0.4,0,0.7,0.2,1.3l0.2,0.4c0.4,1.6,1.1,6.5,1.1,7.8c0,14.9-6,21.4-12.3,26.3
			c-6.2,4.5-13.2,7.4-21.2,8.2c-0.2,0-0.9,0-2.5,0.2c-0.9,0-2.2,0.2-2.4,0.2h-0.2c-1.4,0.4-5.1,2.2-5.1,5.3c0,2.7,1.6,6,9.4,6.5
			c1.6,0.2,3.3,0.2,5.1,0.4c10.3,0.7,23.2,1.6,29.2,3.6c8.3,3.1,13.6,10.5,13.6,19.4c0,13.4-9.6,25.9-25.6,33.7
			C497.4,170.5,489.6,172.3,481.1,172.3L481.1,172.3z M584.4,46c-3.8,0-7.2,0.9-9.8,2.7C567.6,53,564,61.7,564,74.4
			c0,23.7,12,40.4,29,40.4c5.1,0,9.1-1.5,12.5-4.4c5.3-4.4,8-13.1,8-25.2C613.4,61.7,601.7,46,584.4,46L584.4,46z M587.7,123.5
			c-30.8,0-41.9-22.7-41.9-43.9c0-14.9,6-26.3,17.9-34.4c8.5-5.3,18.7-8.2,27.7-8.2c23.6,0,40.1,16.9,40.1,41.1
			c0,16.5-6.5,29.5-19,37.5C606.6,119.7,596.2,123.5,587.7,123.5L587.7,123.5L587.7,123.5z M264.7,46c-3.8,0-7.2,0.9-9.8,2.7
			c-7.1,4.4-10.7,13.1-10.7,25.7c0,23.7,12,40.4,29,40.4c5.1,0,9.1-1.5,12.5-4.4c5.3-4.4,8-13.1,8-25.2
			C293.7,61.7,282.1,46,264.7,46L264.7,46z M268,123.5c-30.8,0-41.9-22.7-41.9-43.9c0-14.9,6-26.3,17.9-34.4
			c8.5-5.3,18.7-8.2,27.7-8.2c23.6,0,40.1,16.9,40.1,41.1c0,16.5-6.5,29.5-19,37.5C287,119.7,276.7,123.5,268,123.5L268,123.5z
			 M60.8,121.7c-0.4-0.5-0.7-2.2-0.5-4.2c0-1.5,0.4-2.4,0.5-2.7c3.8-0.5,5.8-1.1,8-1.6c3.6-0.9,5.1-2.9,5.3-7.4
			c0.5-10.9,0.5-31.5,0.4-45.9v-0.4c0-1.6,0-3.6-2-5.1c-2.9-1.8-6.3-3.4-10.9-4.7c-1.6-0.5-2.7-1.4-2.5-2.5c0-1.1,1.1-2.4,3.4-2.7
			c6-0.5,21.6-4.3,27.7-7.1c0.4,0.4,0.9,1.5,0.9,2.9l-0.2,2c-0.2,2-0.4,4.4-0.4,6.7c0,0.7,0.7,1.3,1.4,1.3c0.4,0,0.7-0.2,1.1-0.4
			c11.6-9.1,22.1-12.3,27.5-12.3c8.9,0,15.8,4.2,21,12.9c0.4,0.5,0.7,0.7,1.3,0.7c0.4,0,0.9-0.2,1.1-0.5
			c10.7-8.2,21.4-13.1,28.5-13.1c16.9,0,26.8,12.5,26.8,33.7c0,6,0,13.8-0.2,20.8c0,6.3-0.2,12.1-0.2,16.3c0,0.9,1.3,3.8,3.3,4.3
			c2.5,1.3,6,1.8,10.5,2.5h0.2c0.4,1.3-0.4,6-1.1,6.9c-1.1,0-2.7,0-4.5-0.2c-4.6-0.2-9.2-0.4-13.8-0.4c-11.2,0-17,0.2-22.7,0.5
			c-0.4-1.4-0.5-5.8,0-6.9c3.3-0.5,4.9-1.1,6.9-1.6c3.6-1.1,4.5-2.7,4.7-7.4c0-3.4,0.7-32.8-0.4-39.9c-1.1-7.2-6.5-15.8-18.5-15.8
			c-4.5,0-11.6,1.8-18.5,7.1c-0.4,0.4-0.7,1.3-0.7,1.8v0.2c0.7,3.8,0.7,8.2,0.7,14.9v11.8c0,8.2-0.2,15.8,0,21.6
			c0,4,2.4,4.9,4.4,5.6c1.1,0.2,1.8,0.4,2.7,0.5c1.6,0.4,3.3,0.7,5.8,1.3c0.4,0.7,0.4,3.1-0.2,5.1c-0.2,1.1-0.5,1.6-0.7,1.8
			c-6.2-0.2-12.5-0.4-21.7-0.4c-2.7,0-7.4,0.2-11.4,0.2c-3.3,0-6.3,0.2-8.2,0.2c-0.2-0.4-0.5-1.6-0.5-3.6c0-1.6,0.4-2.9,0.7-3.3
			c0.9-0.2,1.6-0.4,2.5-0.4c2.2-0.4,4-0.7,5.8-1.1c3.1-0.9,4.2-2.5,4.4-6.5c0.5-9.1,1.1-35-0.2-41.5c-2.2-10.5-8.2-15.8-17.8-15.8
			c-5.6,0-12.7,2.7-18.5,7.1c-0.9,0.7-1.6,2.5-1.6,4.2v10.7c0,13,0,29.4,0.2,36.4c0.2,2.2,0.9,4.7,5.1,5.6c0.9,0.2,2.4,0.5,4.2,0.7
			l3.3,0.5c0.4,1.1,0.2,5.4-0.5,6.9c-1.8,0-4-0.2-6.5-0.2c-3.8-0.2-8.7-0.4-14.1-0.4c-6.3,0-10.9,0.2-14.5,0.4
			C65,121.7,63,121.7,60.8,121.7L60.8,121.7z"/>
	</g>
	<path class="st1" d="M511.4,199c-1.5,0.3-3,3.6-3,5.4c-0.3,11.9-0.6,43.5-0.6,65c0,0.6,0.9,1.8,1.8,1.8c4.5,0.3,15.2,0.6,24.5,0.6
		c12.8,0,20.3-1.8,24.5-3.6c10.7-5.4,15.8-17,15.8-29.8c0-28.9-20.3-40-50.4-40C521.8,198.1,515.8,198.1,511.4,199L511.4,199z
		 M588.3,332.3c0-29.5-21.8-45.9-61.1-45.9c-1.8,0-14.3-0.3-17.3,0.3c-0.9,0.3-2.1,0.9-2.1,1.8c0,21.2-0.3,54.9,0.6,68
		c0.6,5.7,4.8,13.7,9.8,16.1c5.4,3,17.6,3.6,25.9,3.6C567.7,376.1,588.3,363,588.3,332.3L588.3,332.3z M450.5,182.6
		c3,0,11.9,0.9,34.9,0.9c21.8,0,39.1-0.6,60.2-0.6c25.9,0,61.7,9.2,61.7,48c0,19.1-13.4,34.3-31,41.8c-0.9,0.3-0.9,0.9,0,1.2
		c25,6.3,47.1,21.8,47.1,51c0,28.6-17.9,46.8-43.8,58.2c-15.8,6.9-35.5,9.2-55.5,9.2c-15.2,0-56.1-1.8-78.7-1.2
		c-2.4-0.9,2.1-11.6,4.2-13.4c5.4-0.3,9.5-0.6,15.2-2.4c8.1-2.1,8.9-4.5,10.1-16.7c0.6-10.4,0.6-47.4,0.6-73.7
		c0-36.1,0.3-60.5,0-72.5c-0.3-9.2-3.6-12.2-10.1-14c-5.1-0.9-13.4-2.1-20.3-3C443.7,193.9,448.7,183.7,450.5,182.6L450.5,182.6z
		 M278.5,368.1c7.2,5.7,21.2,8,33.7,8c16.1,0,32.2-3,47.7-17c15.8-14.3,26.8-36.4,26.8-71.6c0-33.7-12.8-61.1-39.1-77.2
		c-14.9-9.2-34-13.1-56.1-13.1c-6.6,0-12.8,0.3-16.7,2.1c-0.9,0.6-3,3.3-3,4.8c-0.6,6-0.6,51.9-0.6,78.7c0,27.7,0,66.5,0.6,71
		C271.9,358.2,274,365.1,278.5,368.1L278.5,368.1z M210.8,182.6c5.7,0,27.4,0.9,37.9,0.9c18.8,0,32.2-0.9,67.7-0.9
		c29.8,0,54.9,8.1,72.8,23.3c21.8,18.8,33.1,44.7,33.1,76.3c0,45-20.6,71-41.2,85.9c-20.6,15.2-47.4,24.2-85.6,24.2
		c-20.3,0-55.2-0.6-84.1-0.9h-0.3c-1.5-2.7,2.4-13.1,4.8-13.4c7.8-0.9,9.8-1.2,13.7-2.7c6.3-2.4,7.5-5.7,8.4-16.7
		c0.9-20.6,0.6-45.3,0.6-73.4c0-20,0.3-59-0.3-71.6c-0.9-10.4-5.4-13.1-14.3-14.9c-4.5-0.9-10.4-2.1-18.8-3
		C203.9,193.6,209.3,184.3,210.8,182.6L210.8,182.6z"/>
	<path class="st2" d="M124.9,422.4l-7.6-2.6c0,0,0.9-38.7-12.9-41.4c-9.2-10.7,1.5-455.1,34.8-1.5c0,0-11.5,5.7-13.5,15.5
		C123.4,402.1,124.9,422.4,124.9,422.4L124.9,422.4z"/>
	<path class="st3" d="M124.9,422.4l-7.6-2.6c0,0,0.9-38.7-12.9-41.4c-9.2-10.7,1.5-455.1,34.8-1.5c0,0-11.5,5.7-13.5,15.5
		C123.4,402.1,124.9,422.4,124.9,422.4L124.9,422.4z"/>
	<path class="st2" d="M129,385c0,0,66.4-43.7,50.9-134.5c-15-66-50.3-87.7-54.2-96c-4.3-5.9-8.3-16.3-8.3-16.3l2.8,183.7
		C120.1,322.1,114.4,378.2,129,385"/>
	<path class="st4" d="M129,385c0,0,66.4-43.7,50.9-134.5c-15-66-50.3-87.7-54.2-96c-4.3-5.9-8.3-16.3-8.3-16.3l2.8,183.7
		C120.1,322.1,114.4,378.2,129,385"/>
	<path class="st2" d="M113.4,387.4c0,0-62.3-42.5-58.6-117.5c3.5-74.9,47.5-111.7,56-118.4c5.6-5.9,5.7-8.1,6.1-14.1
		c3.9,8.3,3.1,124.5,3.7,138.2C122.3,328.4,117.7,377.5,113.4,387.4z"/>
	<path class="st5" d="M113.4,387.4c0,0-62.3-42.5-58.6-117.5c3.5-74.9,47.5-111.7,56-118.4c5.6-5.9,5.7-8.1,6.1-14.1
		c3.9,8.3,3.1,124.5,3.7,138.2C122.3,328.4,117.7,377.5,113.4,387.4z"/>
</g>
</svg>
