<?xml version="1.0" encoding="utf-8"?>
<!-- Generator: Adobe Illustrator 22.1.0, SVG Export Plug-In . SVG Version: 6.00 Build 0)  -->
<svg version="1.1" id="Layer_1" xmlns="http://www.w3.org/2000/svg" xmlns:xlink="http://www.w3.org/1999/xlink" x="0px" y="0px"
	 viewBox="0 0 2500 1733" style="enable-background:new 0 0 2500 1733;" xml:space="preserve">
<style type="text/css">
	.st0{fill:#5D87A1;}
	.st1{fill:#F8981D;}
</style>
<g>
	<path class="st0" d="M601,1564.3h-96.5c-3.4-162.8-12.8-315.9-28.2-459.3h-0.9l-146.9,459.3h-73.4l-146-459.3h-0.8
		c-10.8,137.7-17.7,290.8-20.5,459.3H0c5.7-204.9,19.9-397,42.7-576.3h119.6l139.2,423.5h0.9l140-423.5h114.4
		C581.7,1198,596.5,1390.1,601,1564.3 M1019.4,1139.1c-39.3,213.1-91.1,368-155.4,464.7c-50.1,74.4-105,111.7-164.8,111.7
		c-15.9,0-35.6-4.8-58.9-14.4v-51.4c11.4,1.6,24.8,2.6,40.1,2.6c27.9,0,50.4-7.7,67.5-23.1c20.5-18.8,30.7-39.8,30.7-63.2
		c0-16-8-48.7-23.9-98.2l-105.9-328.7h94.8l76,245.9c17.1,55.8,24.2,94.8,21.3,117c41.5-111,70.6-232,87.1-362.9L1019.4,1139.1
		L1019.4,1139.1L1019.4,1139.1z"/>
	<path class="st1" d="M2303.4,1564.3h-274V988h92.2v505.4h181.8V1564.3z M1957.7,1578.2l-106-52.3c9.4-7.7,18.4-16.1,26.5-25.7
		c45-52.9,67.5-131.1,67.5-234.8c0-190.7-74.8-286.1-224.5-286.1c-73.4,0-130.7,24.2-171.6,72.6c-45,52.9-67.5,130.9-67.5,234
		c0,101.3,19.9,175.6,59.7,222.8c36.4,42.7,91.4,64.1,164.8,64.1c27.4,0,52.5-3.4,75.5-10.1l137.9,80.3L1957.7,1578.2z M1614.5,1449
		c-23.3-37.5-35-97.8-35-180.9c0-145.1,44.1-217.8,132.3-217.8c46.1,0,79.9,17.4,101.6,52c23.3,37.6,35,97.3,35,179.3
		c0,146.3-44.1,219.5-132.3,219.5C1669.9,1501.1,1636.1,1483.8,1614.5,1449 M1441.9,1404.6c0,48.9-17.9,89-53.8,120.4
		c-35.9,31.3-84,47-144.2,47c-56.4,0-111-18-163.9-53.8l24.8-49.5c45.5,22.8,86.7,34.1,123.7,34.1c34.7,0,61.9-7.7,81.6-23
		c19.7-15.3,31.4-36.8,31.4-64c0-34.2-23.9-63.5-67.7-88c-40.4-22.2-121.2-68.6-121.2-68.6c-43.8-31.9-65.7-66.2-65.7-122.6
		c0-46.7,16.3-84.4,49.1-113.1c32.8-28.8,75-43.2,126.8-43.2c53.5,0,102.1,14.3,145.9,42.7l-22.2,49.5
		c-37.5-15.9-74.5-23.9-110.9-23.9c-29.5,0-52.4,7.1-68.2,21.4c-16,14.2-25.9,32.4-25.9,54.7c0,34.1,24.4,63.7,69.4,88.7
		c40.9,22.2,123.7,69.4,123.7,69.4C1419.5,1314.6,1441.9,1348.6,1441.9,1404.6"/>
	<path class="st0" d="M2419.2,794.9c-55.7-1.4-98.9,4.2-135.1,19.5c-10.5,4.2-27.1,4.2-28.5,17.4c5.6,5.6,6.3,14.6,11.2,22.3
		c8.4,13.9,22.9,32.7,36.2,42.4c14.6,11.2,29.2,22.3,44.6,32c27.1,16.8,57.8,26.5,84.2,43.2c15.4,9.7,30.7,22.3,46.1,32.7
		c7.6,5.6,12.4,14.6,22.2,18.1v-2.1c-4.9-6.3-6.3-15.3-11.1-22.3l-20.9-20.2c-20.2-27.1-45.3-50.8-72.4-70.3
		c-22.3-15.4-71.1-36.2-80.1-61.9l-1.4-1.4c15.3-1.4,33.5-7,48.1-11.3c23.7-6.2,45.3-4.8,69.6-11.1c11.2-2.8,22.3-6.3,33.5-9.7v-6.3
		c-12.6-12.5-21.6-29.2-34.8-41.1c-35.5-30.6-74.5-60.6-114.9-85.7c-21.6-14-49.4-22.9-72.5-34.8c-8.3-4.2-22.3-6.3-27.2-13.2
		c-12.5-15.3-19.5-35.5-28.6-53.6c-20.1-38.3-39.7-80.7-57.1-121.2c-12.6-27.1-20.2-54.2-35.5-79.4
		C2022.9,258.7,1945,187,1825.2,116.7c-25.7-14.7-56.4-20.9-89.1-28.6l-52.2-2.8c-11.1-4.9-22.3-18.1-32-24.4
		c-39.7-25.1-142.1-79.4-171.3-7.7c-18.8,45.3,27.8,89.9,43.9,112.8c11.8,16,27.2,34.1,35.5,52.2c4.9,11.8,6.3,24.4,11.2,36.9
		c11.1,30.6,21.6,64.7,36.2,93.3c7.6,14.6,16,29.9,25.7,43.1c5.6,7.7,15.3,11.1,17.4,23.7c-9.7,13.9-10.5,34.8-16,52.2
		c-25.1,78.7-15.3,176.2,20.2,234c11.1,17.4,37.6,55.7,73.1,41c31.4-12.5,24.4-52.2,33.5-87c2.1-8.4,0.7-13.9,4.9-19.4v1.4
		c9.7,19.5,19.5,38.3,28.5,57.8c21.6,34.1,59.2,69.6,90.6,93.2c16.7,12.6,29.9,34.1,50.8,41.8v-2.1h-1.4c-4.2-6.2-10.4-9-16-13.9
		c-12.6-12.5-26.5-27.9-36.2-41.8c-29.2-39-55-82.2-78-126.8c-11.2-21.6-20.9-45.3-29.9-66.8c-4.2-8.3-4.2-20.9-11.2-25.1
		c-10.5,15.3-25.7,28.6-33.4,47.3c-13.3,30-14.6,66.9-19.6,105.2l-2.7,1.3c-22.2-5.6-29.9-28.5-38.3-48
		c-20.9-49.5-24.4-128.9-6.3-186c4.8-14.6,25.8-60.6,17.4-74.5c-4.2-13.3-18.1-20.9-25.8-31.4c-9-13.2-18.8-29.9-25.1-44.6
		c-16.7-39-25.1-82.2-43.1-121.1c-8.4-18.2-23-36.9-34.8-53.7c-13.3-18.8-27.9-32-38.4-54.3c-3.5-7.7-8.3-20.2-2.8-28.5
		c1.4-5.6,4.2-7.7,9.7-9.1c9-7.6,34.8,2.1,43.8,6.3c25.8,10.4,47.4,20.2,69,34.8c9.7,7,20.2,20.2,32.7,23.7h14.7
		c22.2,4.8,47.3,1.3,68.2,7.6c36.9,11.9,70.3,29.2,100.3,48c91.2,57.8,166.4,140,217.2,238.2c8.3,16,11.9,30.6,19.5,47.3
		c14.7,34.1,32.8,69,47.4,102.4c14.6,32.7,28.6,66.1,49.5,93.3c10.4,14.6,52.3,22.3,71.1,29.9c13.9,6.2,35.5,11.8,48,19.5
		c23.7,14.6,47.3,31.4,69.6,47.4C2382.2,763.6,2417.1,781,2419.2,794.9 M1708.8,189.8c-9.6-0.1-19.2,1.1-28.5,3.5v1.4h1.3
		c5.6,11.1,15.4,18.8,22.3,28.6c5.6,11.2,10.5,22.2,16,33.4l1.3-1.4c9.8-7,14.7-18.1,14.7-34.8c-4.2-4.9-4.9-9.7-8.4-14.6
		C1723.5,198.8,1714.5,195.4,1708.8,189.8"/>
	<path class="st1" d="M2485.5,1564.2h14.4v-70.6h-21.6l-17.7,48.2l-19.2-48.2h-20.8v70.6h13.6v-53.7h0.8l20.1,53.7h10.4l20-53.7
		L2485.5,1564.2L2485.5,1564.2z M2369.3,1564.2h15.3v-58.6h20v-12h-56.1v12h20.8L2369.3,1564.2L2369.3,1564.2z"/>
</g>
</svg>
