<?xml version="1.0" encoding="utf-8"?>
<!-- Generator: Adobe Illustrator 22.1.0, SVG Export Plug-In . SVG Version: 6.00 Build 0)  -->
<svg version="1.1" id="Layer_1" xmlns="http://www.w3.org/2000/svg" xmlns:xlink="http://www.w3.org/1999/xlink" x="0px" y="0px"
	 viewBox="0 0 457.6 457.6" style="enable-background:new 0 0 457.6 457.6;" xml:space="preserve">
<style type="text/css">
	.st0{fill:#679E63;}
	.st1{fill-rule:evenodd;clip-rule:evenodd;fill:#333333;}
	.st2{fill-rule:evenodd;clip-rule:evenodd;fill:#679E63;}
	.st3{clip-path:url(#XMLID_3_);}
	.st4{fill:none;}
	.st5{fill:url(#SVGID_1_);}
	.st6{fill:url(#SVGID_2_);}
	.st7{fill:url(#SVGID_3_);}
	.st8{fill:url(#SVGID_4_);}
	.st9{fill:url(#SVGID_5_);}
	.st10{fill:url(#SVGID_6_);}
</style>
<g>
	<g>
		<path class="st0" d="M226.3,364.3c-1.5,0-2.9-0.4-4.2-1.1l-13.3-7.9c-2-1.1-1-1.5-0.4-1.7c2.7-0.9,3.2-1.1,6-2.7
			c0.3-0.2,0.7-0.1,1,0.1l10.2,6.1c0.4,0.2,0.9,0.2,1.2,0l39.9-23.1c0.4-0.2,0.6-0.6,0.6-1.1v-46.1c0-0.5-0.2-0.9-0.6-1.1l-39.9-23
			c-0.4-0.2-0.9-0.2-1.2,0l-39.9,23c-0.4,0.2-0.6,0.7-0.6,1.1v46.1c0,0.4,0.2,0.9,0.6,1.1l10.9,6.3c5.9,3,9.6-0.5,9.6-4v-45.5
			c0-0.6,0.5-1.2,1.2-1.2h5.1c0.6,0,1.2,0.5,1.2,1.2v45.5c0,7.9-4.3,12.5-11.8,12.5c-2.3,0-4.1,0-9.2-2.5l-10.5-6
			c-2.6-1.5-4.2-4.3-4.2-7.3v-46.1c0-3,1.6-5.8,4.2-7.3l39.9-23.1c2.5-1.4,5.9-1.4,8.4,0l39.9,23.1c2.6,1.5,4.2,4.3,4.2,7.3v46.1
			c0,3-1.6,5.8-4.2,7.3l-39.9,23.1C229.2,363.9,227.7,364.3,226.3,364.3z"/>
		<path class="st0" d="M238.6,332.5c-17.5,0-21.1-8-21.1-14.8c0-0.6,0.5-1.2,1.2-1.2h5.2c0.6,0,1.1,0.4,1.1,1
			c0.8,5.3,3.1,7.9,13.7,7.9c8.4,0,12-1.9,12-6.4c0-2.6-1-4.5-14.1-5.8c-10.9-1.1-17.7-3.5-17.7-12.2c0-8.1,6.8-12.9,18.2-12.9
			c12.8,0,19.1,4.4,19.9,14c0,0.3-0.1,0.6-0.3,0.9c-0.2,0.2-0.5,0.4-0.8,0.4h-5.2c-0.5,0-1-0.4-1.1-0.9c-1.2-5.5-4.3-7.3-12.5-7.3
			c-9.2,0-10.3,3.2-10.3,5.6c0,2.9,1.3,3.8,13.7,5.4c12.3,1.6,18.1,3.9,18.1,12.5C258.5,327.5,251.3,332.5,238.6,332.5z"/>
	</g>
	<g>
		<path class="st0" d="M296.2,284.2c0,4.2-3.5,7.7-7.7,7.7c-4.2,0-7.7-3.4-7.7-7.7c0-4.4,3.6-7.7,7.7-7.7
			C292.7,276.4,296.2,279.8,296.2,284.2z M282.1,284.1c0,3.6,2.9,6.5,6.4,6.5c3.6,0,6.5-3,6.5-6.5c0-3.6-2.9-6.4-6.5-6.4
			C285,277.7,282.1,280.5,282.1,284.1z M285.6,279.8h3c1,0,3,0,3,2.3c0,1.6-1,1.9-1.6,2.1c1.2,0.1,1.3,0.9,1.4,2
			c0.1,0.7,0.2,1.9,0.4,2.3H290c0-0.4-0.3-2.6-0.3-2.7c-0.1-0.5-0.3-0.7-0.9-0.7h-1.5v3.5h-1.7V279.8z M287.2,283.6h1.3
			c1.1,0,1.3-0.8,1.3-1.2c0-1.2-0.8-1.2-1.3-1.2h-1.4V283.6z"/>
	</g>
	<path class="st1" d="M102.6,183.9c0-1.8-1-3.5-2.6-4.4l-42.4-24.4c-0.7-0.4-1.5-0.6-2.3-0.7c-0.1,0-0.4,0-0.4,0
		c-0.8,0-1.6,0.3-2.3,0.7l-42.4,24.4c-1.6,0.9-2.6,2.6-2.6,4.4l0.1,65.6c0,0.9,0.5,1.8,1.3,2.2c0.8,0.5,1.8,0.5,2.5,0l25.2-14.4
		c1.6-0.9,2.6-2.6,2.6-4.4v-30.7c0-1.8,1-3.5,2.6-4.4l10.7-6.2c0.8-0.5,1.7-0.7,2.6-0.7c0.9,0,1.8,0.2,2.5,0.7l10.7,6.2
		c1.6,0.9,2.6,2.6,2.6,4.4v30.7c0,1.8,1,3.5,2.6,4.4l25.2,14.4c0.8,0.5,1.8,0.5,2.6,0c0.8-0.4,1.3-1.3,1.3-2.2L102.6,183.9z"/>
	<path class="st1" d="M306.3,93.7c-0.8-0.4-1.8-0.4-2.5,0c-0.8,0.5-1.3,1.3-1.3,2.2v65c0,0.6-0.3,1.2-0.9,1.6
		c-0.6,0.3-1.2,0.3-1.8,0l-10.6-6.1c-1.6-0.9-3.5-0.9-5.1,0l-42.4,24.5c-1.6,0.9-2.6,2.6-2.6,4.4v48.9c0,1.8,1,3.5,2.6,4.4
		l42.4,24.5c1.6,0.9,3.5,0.9,5.1,0l42.4-24.5c1.6-0.9,2.6-2.6,2.6-4.4V112.2c0-1.9-1-3.6-2.6-4.5L306.3,93.7z M302.4,218.1
		c0,0.5-0.2,0.9-0.6,1.1l-14.5,8.4c-0.4,0.2-0.9,0.2-1.3,0l-14.5-8.4c-0.4-0.2-0.6-0.7-0.6-1.1v-16.8c0-0.5,0.2-0.9,0.6-1.1
		l14.5-8.4c0.4-0.2,0.9-0.2,1.3,0l14.5,8.4c0.4,0.2,0.6,0.7,0.6,1.1V218.1z"/>
	<g>
		<path class="st1" d="M447.4,200.8c1.6-0.9,2.5-2.6,2.5-4.4v-11.9c0-1.8-1-3.5-2.5-4.4l-42.1-24.4c-1.6-0.9-3.5-0.9-5.1,0
			l-42.4,24.5c-1.6,0.9-2.6,2.6-2.6,4.4v48.9c0,1.8,1,3.5,2.6,4.4l42.1,24c1.6,0.9,3.5,0.9,5,0l25.5-14.2c0.8-0.4,1.3-1.3,1.3-2.2
			c0-0.9-0.5-1.8-1.3-2.2l-42.6-24.5c-0.8-0.5-1.3-1.3-1.3-2.2v-15.3c0-0.9,0.5-1.8,1.3-2.2l13.3-7.6c0.8-0.5,1.8-0.5,2.6,0
			l13.3,7.6c0.8,0.5,1.3,1.3,1.3,2.2v12.1c0,0.9,0.5,1.8,1.3,2.2c0.8,0.5,1.8,0.5,2.6,0L447.4,200.8z"/>
		<path class="st2" d="M402.2,198.5c0.3-0.2,0.7-0.2,1,0l8.1,4.7c0.3,0.2,0.5,0.5,0.5,0.9v9.4c0,0.4-0.2,0.7-0.5,0.9l-8.1,4.7
			c-0.3,0.2-0.7,0.2-1,0l-8.1-4.7c-0.3-0.2-0.5-0.5-0.5-0.9v-9.4c0-0.4,0.2-0.7,0.5-0.9L402.2,198.5z"/>
	</g>
	<g>
		<defs>
			<path id="XMLID_143_" d="M173.4,155.9c-1.6-0.9-3.5-0.9-5.1,0l-42.1,24.3c-1.6,0.9-2.5,2.6-2.5,4.4v48.7c0,1.8,1,3.5,2.5,4.4
				l42.1,24.3c1.6,0.9,3.5,0.9,5.1,0l42.1-24.3c1.6-0.9,2.5-2.6,2.5-4.4v-48.7c0-1.8-1-3.5-2.5-4.4L173.4,155.9z"/>
		</defs>
		<linearGradient id="XMLID_2_" gradientUnits="userSpaceOnUse" x1="188.0103" y1="174.0339" x2="149.9454" y2="251.6862">
			<stop  offset="0" style="stop-color:#3F873F"/>
			<stop  offset="0.3296" style="stop-color:#3F8B3D"/>
			<stop  offset="0.6367" style="stop-color:#3E9638"/>
			<stop  offset="0.9341" style="stop-color:#3DA92E"/>
			<stop  offset="1" style="stop-color:#3DAE2B"/>
		</linearGradient>
		<use xlink:href="#XMLID_143_"  style="overflow:visible;fill-rule:evenodd;clip-rule:evenodd;fill:url(#XMLID_2_);"/>
		<clipPath id="XMLID_3_">
			<use xlink:href="#XMLID_143_"  style="overflow:visible;"/>
		</clipPath>
		<g class="st3">
			<path class="st4" d="M168.3,155.9L126,180.2c-1.6,0.9-2.7,2.6-2.7,4.4v48.7c0,1.2,0.5,2.3,1.3,3.2l47.4-81.2
				C170.8,155.1,169.4,155.3,168.3,155.9z"/>
			<path class="st4" d="M172.3,262.5c0.4-0.1,0.8-0.3,1.2-0.5l42.2-24.3c1.6-0.9,2.6-2.6,2.6-4.4v-48.7c0-1.3-0.6-2.6-1.5-3.5
				L172.3,262.5z"/>
			<linearGradient id="SVGID_1_" gradientUnits="userSpaceOnUse" x1="164.4662" y1="214.6727" x2="271.2735" y2="135.7578">
				<stop  offset="0.1376" style="stop-color:#3F873F"/>
				<stop  offset="0.4016" style="stop-color:#52A044"/>
				<stop  offset="0.7129" style="stop-color:#64B749"/>
				<stop  offset="0.9081" style="stop-color:#6ABF4B"/>
			</linearGradient>
			<path class="st5" d="M215.6,180.2l-42.3-24.3c-0.4-0.2-0.9-0.4-1.3-0.5l-47.4,81.2c0.4,0.5,0.9,0.9,1.4,1.2l42.3,24.3
				c1.2,0.7,2.6,0.9,3.9,0.5l44.5-81.4C216.4,180.8,216.1,180.5,215.6,180.2z"/>
		</g>
		<g class="st3">
			<path class="st4" d="M218.3,233.3v-48.7c0-1.8-1.1-3.5-2.7-4.4l-42.3-24.3c-0.5-0.3-1-0.5-1.6-0.6l46.3,79.1
				C218.2,234.1,218.3,233.7,218.3,233.3z"/>
			<path class="st4" d="M126,180.2c-1.6,0.9-2.7,2.6-2.7,4.4v48.7c0,1.8,1.2,3.5,2.7,4.4l42.3,24.3c1,0.6,2.1,0.8,3.3,0.6
				l-45.3-82.6L126,180.2z"/>
			<linearGradient id="SVGID_2_" gradientUnits="userSpaceOnUse" x1="122.1709" y1="147.1536" x2="219.5879" y2="147.1536">
				<stop  offset="9.191646e-02" style="stop-color:#6ABF4B"/>
				<stop  offset="0.2871" style="stop-color:#64B749"/>
				<stop  offset="0.5984" style="stop-color:#52A044"/>
				<stop  offset="0.8624" style="stop-color:#3F873F"/>
			</linearGradient>
			<polygon class="st6" points="166.9,147 166.4,147.3 167.1,147.3 			"/>
			<linearGradient id="SVGID_3_" gradientUnits="userSpaceOnUse" x1="122.1709" y1="208.9708" x2="219.5879" y2="208.9708">
				<stop  offset="9.191646e-02" style="stop-color:#6ABF4B"/>
				<stop  offset="0.2871" style="stop-color:#64B749"/>
				<stop  offset="0.5984" style="stop-color:#52A044"/>
				<stop  offset="0.8624" style="stop-color:#3F873F"/>
			</linearGradient>
			<path class="st7" d="M215.7,237.7c1.2-0.7,2.1-1.9,2.5-3.2l-46.3-79.1c-1.2-0.2-2.5-0.1-3.6,0.6l-42,24.2l45.3,82.6
				c0.6-0.1,1.3-0.3,1.9-0.6L215.7,237.7z"/>
			<linearGradient id="SVGID_4_" gradientUnits="userSpaceOnUse" x1="122.1709" y1="236.7814" x2="219.5879" y2="236.7814">
				<stop  offset="9.191646e-02" style="stop-color:#6ABF4B"/>
				<stop  offset="0.2871" style="stop-color:#64B749"/>
				<stop  offset="0.5984" style="stop-color:#52A044"/>
				<stop  offset="0.8624" style="stop-color:#3F873F"/>
			</linearGradient>
			<polygon class="st8" points="219.6,236.9 219.3,236.5 219.3,237.1 			"/>
			<linearGradient id="SVGID_5_" gradientUnits="userSpaceOnUse" x1="122.1709" y1="249.3511" x2="219.5879" y2="249.3511">
				<stop  offset="9.191646e-02" style="stop-color:#6ABF4B"/>
				<stop  offset="0.2871" style="stop-color:#64B749"/>
				<stop  offset="0.5984" style="stop-color:#52A044"/>
				<stop  offset="0.8624" style="stop-color:#3F873F"/>
			</linearGradient>
			<path class="st9" d="M215.7,237.7l-42.2,24.3c-0.6,0.3-1.2,0.5-1.9,0.6l0.8,1.5l46.8-27.1v-0.6l-1.2-2
				C217.8,235.8,216.9,237,215.7,237.7z"/>
			<linearGradient id="SVGID_6_" gradientUnits="userSpaceOnUse" x1="233.7804" y1="171.7317" x2="173.6998" y2="294.2961">
				<stop  offset="0" style="stop-color:#3F873F"/>
				<stop  offset="0.3296" style="stop-color:#3F8B3D"/>
				<stop  offset="0.6367" style="stop-color:#3E9638"/>
				<stop  offset="0.9341" style="stop-color:#3DA92E"/>
				<stop  offset="1" style="stop-color:#3DAE2B"/>
			</linearGradient>
			<path class="st10" d="M215.7,237.7l-42.2,24.3c-0.6,0.3-1.2,0.5-1.9,0.6l0.8,1.5l46.8-27.1v-0.6l-1.2-2
				C217.8,235.8,216.9,237,215.7,237.7z"/>
		</g>
	</g>
</g>
</svg>
