<?xml version="1.0" encoding="utf-8"?>
<!-- Generator: Adobe Illustrator 22.1.0, SVG Export Plug-In . SVG Version: 6.00 Build 0)  -->
<svg version="1.1" id="logo" xmlns="http://www.w3.org/2000/svg" xmlns:xlink="http://www.w3.org/1999/xlink" x="0px" y="0px"
	 viewBox="0 0 1024 1024" style="enable-background:new 0 0 1024 1024;" xml:space="preserve">
<style type="text/css">
	.st0{fill:#006699;}
	.st1{fill:#FFFFFF;}
</style>
<circle class="st0" cx="512" cy="512" r="392"/>
<g>
	<path class="st1" d="M492.7,292.5c-29.2,0.7-56.2,1.6-77.1,1.6h-73.8v43.3c22.1,5.1,48.4,9.3,73.8,11v332.7
		c-25.4,1.7-51.8,6-73.8,11v43.3h216.2l8.8-43.3c-22.1-5.1-48.4-9.3-73.8-11L492.7,292.5z"/>
	<path class="st1" d="M552.2,291.7c-0.5,0-1,0-1.6,0v57.8c60.2,2.4,91.5,33.3,91.5,82.2c0,55-31.5,86.1-91.5,89.6v56.9
		c108.5-4.3,173-63.4,173-152.5C723.6,340,659.1,291.7,552.2,291.7"/>
</g>
</svg>
