<?xml version="1.0" encoding="UTF-8" standalone="no"?>
<!-- Created with Inkscape (http://www.inkscape.org/) -->
<svg xmlns:i="http://ns.adobe.com/AdobeIllustrator/10.0/" xmlns:dc="http://purl.org/dc/elements/1.1/" xmlns:cc="http://creativecommons.org/ns#" xmlns:rdf="http://www.w3.org/1999/02/22-rdf-syntax-ns#" xmlns:svg="http://www.w3.org/2000/svg" xmlns="http://www.w3.org/2000/svg" xmlns:xlink="http://www.w3.org/1999/xlink" xmlns:sodipodi="http://sodipodi.sourceforge.net/DTD/sodipodi-0.dtd" xmlns:inkscape="http://www.inkscape.org/namespaces/inkscape" width="105.37083mm" height="122.47466mm" viewBox="0 0 105.37083 122.47466" version="1.1" id="svg1318" inkscape:version="0.92.3 (2405546, 2018-03-11)" sodipodi:docname="python-vertical.svg">
  <defs id="defs1312">
    <linearGradient y2="76.313133" x2="26.670298" y1="77.475983" x1="172.94208" gradientTransform="translate(638.5845,497.4187)" gradientUnits="userSpaceOnUse" id="linearGradient8697" xlink:href="#linearGradient4689"/>
    <linearGradient id="linearGradient4689">
      <stop style="stop-color:#366a96;stop-opacity:1;" offset="0" id="stop4691"/>
      <stop style="stop-color:#3679b0;stop-opacity:1" offset="1" id="stop4693"/>
    </linearGradient>
    <linearGradient y2="144.75717" x2="-65.308502" y1="144.75717" x1="224.23996" gradientTransform="translate(638.5845,497.4187)" gradientUnits="userSpaceOnUse" id="linearGradient8699" xlink:href="#linearGradient4671"/>
    <linearGradient id="linearGradient4671">
      <stop style="stop-color:#ffc836;stop-opacity:1;" offset="0" id="stop4673"/>
      <stop style="stop-color:#ffe873;stop-opacity:1;" offset="1" id="stop4675"/>
    </linearGradient>
  </defs>
  <sodipodi:namedview id="base" pagecolor="#ffffff" bordercolor="#666666" borderopacity="1.0" inkscape:pageopacity="0.0" inkscape:pageshadow="2" inkscape:zoom="0.35" inkscape:cx="-308.01687" inkscape:cy="117.16246" inkscape:document-units="mm" inkscape:current-layer="layer1" showgrid="false" inkscape:window-width="1280" inkscape:window-height="745" inkscape:window-x="0" inkscape:window-y="27" inkscape:window-maximized="1"/>
  <metadata id="metadata1315">
    <rdf:RDF>
      <cc:Work rdf:about="">
        <dc:format>image/svg+xml</dc:format>
        <dc:type rdf:resource="http://purl.org/dc/dcmitype/StillImage"/>
        <dc:title/>
      </cc:Work>
    </rdf:RDF>
  </metadata>
  <g inkscape:label="Layer 1" inkscape:groupmode="layer" id="layer1" transform="translate(-56.171725,-57.357913)">
    <g style="overflow:visible" id="g10990" transform="matrix(0.21118487,0,0,0.20646773,46.834135,187.69958)">
      <path inkscape:connector-curvature="0" i:knockout="Off" d="m 115.58471,-140.864 c 0,-23.00524 -6.55973,-34.81584 -19.679183,-35.46257 -5.220079,-0.24637 -10.316947,0.58515 -15.275249,2.50995 -3.957392,1.41665 -6.621308,2.81789 -8.022573,4.23457 v 54.91077 c 8.392134,5.26624 15.844984,7.7146 22.34312,7.32964 13.750785,-0.90849 20.633885,-12.07235 20.633885,-33.52236 z m 16.18373,0.9547 c 0,11.6874 -2.74091,21.38841 -8.25355,29.10301 -6.14398,8.73092 -14.6593,13.22726 -25.545977,13.473638 -8.207362,0.261777 -16.661092,-2.309775 -25.361208,-7.699208 v 49.906282 L 58.533548,-60.145465 V -170.92172 c 2.309758,-2.83332 5.281656,-5.26627 8.884889,-7.32966 8.376746,-4.88129 18.555093,-7.39124 30.535077,-7.51443 l 0.200168,0.20019 c 10.948278,-0.13859 19.386628,4.35775 25.315018,13.47361 5.52802,8.36135 8.29974,19.07866 8.29974,32.18271 z" id="path46" style="fill:#646464;fill-opacity:1"/>
      <path inkscape:connector-curvature="0" i:knockout="Off" d="m 217.78403,-107.15686 c 0,15.675602 -1.57064,26.531496 -4.7119,32.567672 -3.15669,6.036186 -9.16207,10.855894 -18.03158,14.443723 -7.19105,2.833307 -14.96725,4.373149 -23.3132,4.634915 l -2.32515,-8.869482 c 8.48452,-1.154882 14.45912,-2.309775 17.92375,-3.464657 6.8215,-2.309752 11.50264,-5.851383 14.07416,-10.594117 2.06339,-3.865005 3.07969,-11.240832 3.07969,-22.158324 v -3.66482 c -9.62402,4.373156 -19.70999,6.544337 -30.2579,6.544337 -6.92929,0 -13.04247,-2.171181 -18.30872,-6.544337 -5.91301,-4.75811 -8.86951,-10.7943 -8.86951,-18.10855 v -58.5756 l 14.07416,-4.81971 v 58.96056 c 0,6.29796 2.0326,11.14847 6.09779,14.55152 4.06517,3.40305 9.33144,5.03527 15.78338,4.91209 6.45194,-0.13858 13.36583,-2.63313 20.71087,-7.51443 v -68.78476 h 14.07416 z" id="path48" style="fill:#646464;fill-opacity:1"/>
      <path inkscape:connector-curvature="0" i:knockout="Off" d="m 272.7256,-98.102585 c -1.67842,0.138583 -3.21826,0.20018 -4.63491,0.20018 -7.961,0 -14.16655,-1.894004 -18.60131,-5.697415 -4.41934,-3.80341 -6.63671,-9.05427 -6.63671,-15.7526 v -55.4343 h -9.63942 v -8.85411 h 9.63942 v -23.51338 l 14.05875,-5.00449 v 28.51787 h 15.81418 v 8.85411 h -15.81418 v 55.04935 c 0,5.28167 1.41666,9.02348 4.24998,11.21006 2.43294,1.80161 6.29795,2.8333 11.5642,3.09507 z" id="path50" style="fill:#646464;fill-opacity:1"/>
      <path inkscape:connector-curvature="0" i:knockout="Off" d="M 357.94047,-99.257455 H 343.86632 V -153.5831 c 0,-5.52803 -1.29347,-10.28614 -3.865,-14.25893 -2.9719,-4.49635 -7.09868,-6.74452 -12.39574,-6.74452 -6.45194,0 -14.52072,3.40306 -24.20631,10.20915 v 65.119945 H 289.3251 V -229.11236 l 14.07417,-4.43475 v 59.14535 c 8.99268,-6.54434 18.81686,-9.82421 29.48796,-9.82421 7.45284,0 13.48902,2.50996 18.10855,7.51443 4.63493,5.0045 6.94469,11.24086 6.94469,18.69369 z" id="path52" style="fill:#646464;fill-opacity:1"/>
      <path inkscape:connector-curvature="0" i:knockout="Off" d="m 432.74601,-143.08137 c 0,-8.83869 -1.67843,-16.13755 -5.01988,-21.91196 -3.9728,-7.03708 -10.14756,-10.74809 -18.49352,-11.13307 -15.42921,0.89311 -23.12842,11.94918 -23.12842,33.13742 0,9.7164 1.60143,17.83137 4.8351,24.3449 4.12678,8.29975 10.31694,12.39574 18.57049,12.25714 15.49081,-0.12318 23.23623,-12.34953 23.23623,-36.69443 z m 15.41382,0.0924 c 0,12.5805 -3.21827,23.05142 -9.63942,31.41277 -7.06786,9.36224 -16.83047,14.058766 -29.2878,14.058766 -12.34952,0 -21.97353,-4.696526 -28.91822,-14.058766 -6.29797,-8.36135 -9.43925,-18.83227 -9.43925,-31.41277 0,-11.82599 3.40306,-21.77337 10.20916,-29.87294 7.19108,-8.59233 16.6457,-12.90389 28.3331,-12.90389 11.6874,0 21.20362,4.31156 28.53328,12.90389 6.8061,8.09957 10.20915,18.04695 10.20915,29.87294 z" id="path54" style="fill:#646464;fill-opacity:1"/>
      <path inkscape:connector-curvature="0" i:knockout="Off" d="m 528.84757,-99.257455 h -14.07416 v -57.405335 c 0,-6.29796 -1.89401,-11.21005 -5.68203,-14.75168 -3.788,-3.52623 -8.83869,-5.23547 -15.13665,-5.09688 -6.6829,0.12319 -13.04245,2.30977 -19.07864,6.54433 v 70.709565 h -14.07416 v -72.449585 c 8.09957,-5.8976 15.55241,-9.74721 22.35851,-11.54882 6.42114,-1.67842 12.08777,-2.50995 16.96907,-2.50995 3.34147,0 6.48273,0.32337 9.43923,0.97011 5.52804,1.27807 10.02437,3.64942 13.48901,7.12946 3.865,3.84962 5.78982,8.46913 5.78982,13.87398 z" id="path56" style="fill:#646464;fill-opacity:1"/>
    </g>
    <g style="overflow:visible" id="g8691" transform="matrix(0.37442892,0,0,0.36606549,-181.75304,-128.75278)">
      <path inkscape:connector-curvature="0" id="path7990" d="m 716.25486,544.48686 c 0,-13.62285 3.65276,-21.03425 23.82234,-24.56348 13.69344,-2.39988 31.25139,-2.69987 47.62704,0 12.93465,2.13518 23.82234,11.77 23.82234,24.56348 v 44.94482 c 0,13.1817 -10.57006,23.98116 -23.82234,23.98116 H 740.0772 c -16.1639,0 -29.78675,13.78166 -29.78675,29.36324 v 21.56363 H 693.9148 c -13.85226,0 -21.91656,-9.98773 -25.30463,-23.96351 -4.57036,-18.77553 -4.37625,-29.96321 0,-47.94467 3.79393,-15.68745 15.91686,-23.96351 29.76911,-23.96351 h 17.87558 47.64468 v -5.9997 h -47.64468 z" i:knockout="Off" style="fill:url(#linearGradient8697);fill-opacity:1"/>
      <path inkscape:connector-curvature="0" id="path7992" d="m 811.52658,688.32087 c 0,13.62285 -11.82294,20.52251 -23.82234,23.96351 -18.05204,5.18798 -32.53955,4.3939 -47.62704,0 -12.59937,-3.6704 -23.82234,-11.17003 -23.82234,-23.96351 v -44.94482 c 0,-12.93465 10.78181,-23.98116 23.82234,-23.98116 h 47.62704 c 15.86392,0 29.78675,-13.71108 29.78675,-29.96321 v -20.96366 h 17.85794 c 13.86989,0 20.39898,10.30537 23.82234,23.96351 4.76447,18.96964 4.97622,33.15717 0,47.94467 -4.81741,14.36399 -9.97009,23.96351 -23.82234,23.96351 h -23.82235 -47.62704 v 5.9997 h 47.62704 z" i:knockout="Off" style="fill:url(#linearGradient8699);fill-opacity:1"/>
      <path inkscape:connector-curvature="0" id="path7994" d="m 728.16603,541.50465 c 0,-4.97622 3.98804,-8.99955 8.92897,-8.99955 4.92328,0 8.92896,4.02333 8.92896,8.99955 0,4.95858 -4.00568,8.98191 -8.92896,8.98191 -4.94093,0 -8.92897,-4.02333 -8.92897,-8.98191 z" i:knockout="Off" style="fill:#ffffff"/>
      <path inkscape:connector-curvature="0" id="path7996" d="m 781.75748,691.30308 c 0,-4.95858 4.00568,-8.98191 8.92897,-8.98191 4.94093,0 8.92896,4.02333 8.92896,8.98191 0,4.97622 -3.98803,8.99955 -8.92896,8.99955 -4.92329,0 -8.92897,-4.02333 -8.92897,-8.99955 z" i:knockout="Off" style="fill:#ffffff"/>
    </g>
  </g>
</svg>