<?xml version="1.0" encoding="utf-8"?>
<!-- Generator: Adobe Illustrator 22.1.0, SVG Export Plug-In . SVG Version: 6.00 Build 0)  -->
<svg version="1.1" id="Layer_1" xmlns="http://www.w3.org/2000/svg" xmlns:xlink="http://www.w3.org/1999/xlink" x="0px" y="0px"
	 viewBox="0 0 207.8 226.1" style="enable-background:new 0 0 207.8 226.1;" xml:space="preserve">
<style type="text/css">
	.st0{fill:#FFFFFF;}
	.st1{fill:#39D8FF;}
</style>
<g>
	<g>
		<path class="st0" d="M22.5,80.2c0,12.2,12.1,23.8,31,30.3c-3.8,19-0.6,34.4,9.6,40.4c10.7,6.2,26.6,2,41.5-11.3
			c14.7,12.7,29.6,17.7,39.9,11.6c10.7-6.2,13.9-22.5,9.9-42.2c19.8-6.5,30.8-16.4,30.8-28.8c0-12.1-12.1-22.3-30.6-28.8
			c4.3-20.4,0.6-35.5-10.1-41.7c-10.4-6.1-25.3-0.8-40.4,12.2C88.7,8,73.8,3.8,62.9,9.9C52.5,16,49.5,31.6,53.4,51.1
			C35,57.7,22.5,68.3,22.5,80.2L22.5,80.2z"/>
		<path class="st1" d="M150.7,57.9c-1.5-0.5-3-1-4.7-1.5c0.3-1,0.5-2.1,0.8-3.2c3.5-17.1,1.2-31-6.6-35.5c-7.6-4.4-20,0.2-32.3,11.1
			c-1.2,1-2.5,2.1-3.6,3.3c-0.8-0.8-1.5-1.5-2.5-2.3c-13-11.7-26.1-16.6-34-12c-7.6,4.4-9.8,17.4-6.6,33.6c0.3,1.7,0.6,3.2,1,4.8
			c-1.8,0.5-3.6,1-5.3,1.7c-15.2,5.3-25.1,13.7-25.1,22.3c0,8.9,10.6,18,26.5,23.5c1.3,0.5,2.6,0.9,4,1.2c-0.5,1.7-0.8,3.5-1.2,5.1
			c-3,16-0.6,28.6,6.8,32.9c7.7,4.5,20.8-0.2,33.6-11.2c1-0.9,2-1.8,3-2.7c1.2,1.2,2.6,2.5,4,3.6c12.2,10.6,24.5,14.8,32.1,10.6
			c7.7-4.5,10.3-18.2,6.9-34.6c-0.3-1.2-0.6-2.6-0.9-4l2.7-0.9c16.6-5.5,27.3-14.4,27.3-23.5C176.4,71.8,166.3,63.3,150.7,57.9z"/>
		<path class="st0" d="M147.1,98.1c-0.8,0.3-1.7,0.5-2.5,0.8c-2-6.3-4.5-12.4-7.3-18.3c2.7-5.9,5.1-11.9,7.1-18.2
			c1.5,0.5,2.8,0.9,4.3,1.3c13.4,4.5,21.6,11.4,21.6,16.6C170.2,86,161.5,93.2,147.1,98.1z M141.3,109.8c1.3,6.3,1.7,12.7,0.8,19
			c-0.9,4.7-2.6,7.7-4.7,8.9c-4.5,2.6-14.4-0.8-24.8-9.8c-1.2-1-2.5-2.1-3.6-3.3c4.4-4.8,8.4-9.9,12.1-15.4c6.6-0.6,13.1-1.5,19.7-3
			C140.6,107.6,140.9,108.6,141.3,109.8L141.3,109.8z M81.1,137.5c-4.4,1.5-8,1.7-10.1,0.5c-4.5-2.6-6.5-12.9-4-26.5
			c0.3-1.7,0.6-3.2,1-4.8c6.5,1.3,13,2.3,19.5,2.8c3.8,5.5,8,10.6,12.4,15.4c-0.9,0.9-1.8,1.7-2.7,2.6
			C92.6,131.6,87,135.1,81.1,137.5z M60.2,98.1c-6.2-2-11.8-5-16.9-8.9c-3.6-3-5.5-6.2-5.5-8.6c0-5.3,7.9-11.9,21-16.6
			c1.7-0.6,3.3-1,5-1.5c2,6.2,4.3,12.4,7.1,18.3c-2.7,6.1-5.1,12.2-7.1,18.6C62.5,98.9,61.2,98.4,60.2,98.1z M67.2,50.3
			c-2.7-13.9-0.9-24.3,3.6-27c4.8-2.8,15.6,1.2,26.9,11.2c0.8,0.6,1.5,1.3,2.1,2c-4.4,4.8-8.6,9.9-12.4,15.2c-6.5,0.6-13,1.5-19.4,3
			C67.8,53.4,67.5,51.8,67.2,50.3z M129.6,65.7c-1.3-2.5-2.8-4.8-4.4-7.3c4.7,0.6,9.1,1.3,13.1,2.3c-1.3,4.3-2.8,8.4-4.7,12.4
			C132.5,70.7,131,68.3,129.6,65.7L129.6,65.7z M104.2,41c3,3.3,5.9,6.6,8.4,10.3c-5.8-0.3-11.3-0.3-17.1,0
			C98.3,47.8,101.2,44.3,104.2,41z M78.5,65.8c-1.3,2.5-2.7,5-4.1,7.6c-1.7-4.1-3.3-8.3-4.5-12.6c4.4-0.9,8.8-1.7,13.1-2.3
			C81.4,60.9,79.9,63.4,78.5,65.8z M83,102.7c-4.5-0.5-8.9-1.2-13.3-2.1c1.3-4.4,2.8-8.6,4.7-12.9c1.3,2.6,2.7,5,4.1,7.6
			C80,97.9,81.5,100.4,83,102.7z M104.4,120.2c-3-3.3-6.1-6.8-8.8-10.4c2.7,0.2,5.6,0.2,8.4,0.2c3,0,5.9,0,8.8-0.2
			C110,113.5,107.4,116.9,104.4,120.2z M133.8,87.6c1.8,4.3,3.5,8.4,4.8,12.7c-4.5,1-8.9,1.8-13.4,2.3c1.5-2.5,3-4.8,4.4-7.4
			C131,92.8,132.5,90.1,133.8,87.6z M124.3,92.1c-2.3,3.8-4.5,7.6-6.9,11.2c-4.3,0.3-8.8,0.5-13.3,0.5c-4.5,0-8.9-0.2-13.1-0.5
			c-2.6-3.6-4.9-7.4-7.2-11.2c-2.3-3.8-4.3-7.7-6.2-11.6c2-4,4-7.9,6.2-11.6c2.3-3.8,4.5-7.6,6.9-11.2c8.8-0.6,17.5-0.6,26.5,0
			c2.5,3.6,4.8,7.4,6.9,11.2c2.3,3.8,4.3,7.7,6.2,11.6C128.5,84.5,126.4,88.4,124.3,92.1z M137,23.1c4.8,2.8,6.8,14.1,3.6,28.8
			c-0.2,0.9-0.5,2-0.6,2.8c-6.3-1.5-12.9-2.5-19.4-3c-3.8-5.3-7.9-10.4-12.2-15.2c1-1,2.3-2.1,3.3-3C122.4,24.1,132.5,20.5,137,23.1
			z"/>
		<path class="st1" d="M104,67.6c7.1,0,13,5.8,13,13c0,7.1-5.8,13-13,13c-7.1,0-13-5.8-13-13C91.2,73.4,96.9,67.6,104,67.6"/>
	</g>
	<g>
		<path class="st1" d="M30.6,196.1H15.4v22.1H8.7V163H29c10.7,0,18.3,5.1,18.3,15.6v1.8c0,7.4-3.9,12.2-9.8,14.3l13.1,23.5H43
			L30.6,196.1z M28.7,189.9c7,0,11.9-3.2,11.9-9.5v-1.7c0-6.4-4.9-9.7-11.9-9.7H15.4v20.9L28.7,189.9L28.7,189.9z M62.7,202.4
			c0,6.3,3.9,11.2,10.7,11.2c5.6,0,9-2.8,9.5-7.1h6.4c-0.6,7.3-7,12.6-15.8,12.6c-10.5,0-17.1-6.8-17.1-18.1v-2.6
			c0-11.2,6.4-18.1,17-18.1c10.2,0,16.1,6.6,16.1,17.3v4.2H62.7V202.4L62.7,202.4z M62.7,195.9v0.4h20.2v-0.8c0-5.4-2.8-10-9.7-10
			c-5.4-0.4-10.2,3.9-10.5,9.3L62.7,195.9L62.7,195.9z M127.3,195.4v22.9h-6.4v-3.9c-3,3-7.3,4.8-11.7,4.6
			c-6.8,0-11.9-3.9-11.9-10.9c0-8.2,6.4-11.2,14.8-11.2c2.8,0,5.8,0.2,8.6,0.5v-2.8c0-5.4-2.4-9-7.8-9c-4.4-0.2-8.2,3-8.3,7.4v0.6
			H98c0-6.8,5.2-13.4,14.6-13.4C122.6,179.9,127.3,185.7,127.3,195.4z M103.7,207.8c0,3.8,2.7,5.8,7.3,5.8c3.9-0.2,7.4-1.8,10-4.8
			v-6.1c-2.7-0.4-5.6-0.5-8.3-0.5C107.1,202,103.7,203.9,103.7,207.8z M170.4,194.5h-6c-0.2-5.1-4.4-9.2-9.5-9.2h-0.4
			c-7,0-10.9,4.9-10.9,12.6v3c0,7.6,3.9,12.6,10.9,12.6c4.9,0.4,9.3-3.4,9.7-8.3V205h6.1c-0.8,8.6-7.3,13.9-15.8,13.9
			c-10.5,0-17.3-6.4-17.3-18.1v-2.6c0-11.7,6.8-18.1,17.3-18.1C163.5,179.9,169.9,185.5,170.4,194.5L170.4,194.5z M199.1,218
			c-2.4,0.8-4.8,1.2-7.3,1c-6.4,0-10.7-3.8-10.7-11.7v-21.2h-6.8v-5.4h6.8v-13.1h6.4v13.1h11v5.4h-11l-0.2,20.1c0,5.2,2.4,7,6.3,7
			c1.7,0,3.6-0.4,5.1-1C198.8,212,199.1,218,199.1,218z"/>
	</g>
</g>
</svg>
