<?xml version="1.0" encoding="utf-8"?>
<!-- Generator: Adobe Illustrator 22.1.0, SVG Export Plug-In . SVG Version: 6.00 Build 0)  -->
<svg version="1.1" id="Layer_1" xmlns="http://www.w3.org/2000/svg" xmlns:xlink="http://www.w3.org/1999/xlink" x="0px" y="0px"
	 viewBox="0 0 102.3 99.1" style="enable-background:new 0 0 102.3 99.1;" xml:space="preserve">
<style type="text/css">
	.st0{fill:#636466;}
	.st1{fill:#A41E11;}
	.st2{fill:#D82C20;}
	.st3{fill:#FFFFFF;}
	.st4{fill:#7A0C00;}
	.st5{fill:#AD2115;}
</style>
<g>
	<path class="st0" d="M16.5,75.1c0,1.5-1.2,2.8-2.8,2.8c-1.2,0-2.3,0.3-3.3,1.1c-1.1,0.7-1.8,1.5-2.4,2.6c-1.3,1.7-2,3.7-2.2,4.5
		v10.2c0,1.5-1.3,2.8-2.9,2.8c-1.5,0-2.8-1.3-2.8-2.8V75.1c0-1.5,1.3-2.8,2.8-2.8c1.6,0,2.9,1.2,2.9,2.8v0.4
		c0.3-0.4,0.7-0.8,1.1-1.1c1.8-1.1,4.1-2.1,6.8-2.1C15.3,72.3,16.5,73.5,16.5,75.1z M15,85.7c0.1-7.3,5.7-13.4,13.1-13.4
		c7,0,12.5,5.2,12.9,12.5v0.2c0,0.1,0,0.4-0.1,0.5c-0.2,1.3-1.3,2.1-2.8,2.1H21.1c0.2,1.2,0.9,2.6,1.8,3.5c1.1,1.3,3.3,2.3,5.1,2.4
		c2,0.2,4.2-0.3,5.5-1.3c1.1-1.1,3.3-1.1,4-0.2c0.7,0.7,1.2,2.4,0,3.5C34.9,98,31.7,99,27.9,99C20.7,99,15,92.9,15,85.7L15,85.7z
		 M20.8,83.1h15.1c-0.6-2.1-3.3-5.3-7.9-5.7C23.4,77.5,21.2,80.9,20.8,83.1z M68.2,96.2c0,1.5-1.3,2.9-2.9,2.9
		c-1.5,0-2.6-1.1-2.8-2.3c-2,1.4-4.6,2.3-7.3,2.3c-7.2,0-13-6.1-13-13.3c0-7.3,5.8-13.4,13-13.4c2.6,0,5.2,0.9,7.2,2.3V64.4
		c0-1.5,1.3-2.9,2.9-2.9c1.6,0,2.9,1.3,2.9,2.9v21.3L68.2,96.2z M55.2,78.1c-2,0-3.7,0.8-5,2.2c-1.3,1.3-2.1,3.3-2.1,5.4
		c0,2,0.8,4,2.1,5.3c1.3,1.4,3.1,2.2,5,2.2c2,0,3.7-0.8,5-2.2c1.3-1.3,2.1-3.3,2.1-5.3c0-2.1-0.8-4.1-2.1-5.4
		C58.9,78.9,57.2,78.1,55.2,78.1z M78.5,65.6c0,1.6-1.2,2.9-2.9,2.9c-1.6,0-2.9-1.3-2.9-2.9v-1.1c0-1.6,1.3-2.9,2.9-2.9
		c1.6,0,2.9,1.3,2.9,2.9V65.6z M78.5,75.2v20.9c0,1.6-1.2,2.9-2.9,2.9c-1.6,0-2.9-1.3-2.9-2.9V75.2c0-1.7,1.3-2.9,2.9-2.9
		C77.2,72.3,78.5,73.5,78.5,75.2z M82.1,91.4c1-1.3,2.8-1.5,4-0.4c1.4,1.1,3.8,2.4,5.9,2.4c1.5,0,2.8-0.5,3.7-1.1
		c0.7-0.7,1-1.1,1-1.6c0-0.2-0.1-0.4-0.2-0.6c-0.1-0.2-0.2-0.4-0.7-0.7c-0.7-0.6-2.4-1.1-4.3-1.5h-0.1c-1.6-0.3-3.3-0.7-4.6-1.4
		c-1.5-0.7-2.8-1.6-3.7-3.1c-0.6-1-0.9-2.1-0.9-3.3c0-2.4,1.4-4.6,3.2-5.9c1.9-1.3,4.2-2,6.6-2c3.7,0,6.3,1.8,8.1,2.9
		c1.3,0.9,1.6,2.6,0.9,4c-0.9,1.3-2.6,1.6-4,0.7c-1.7-1.1-3.3-2-5-2c-1.3,0-2.5,0.4-3.3,1c-0.7,0.5-0.9,1-0.9,1.2
		c0,0.2,0,0.2,0.1,0.4c0.1,0.1,0.2,0.3,0.6,0.6c0.7,0.5,2.1,1,3.9,1.3l0.1,0.1h0.1c1.8,0.3,3.4,0.8,5,1.5c1.5,0.7,2.9,1.6,3.8,3.2
		c0.7,1.1,1.1,2.3,1.1,3.5c0,2.6-1.5,4.8-3.3,6.2c-2,1.3-4.3,2.1-7,2.1c-4.2-0.1-7.4-2-9.5-3.7C81.3,94.4,81.1,92.6,82.1,91.4z"/>
	<g>
		<path class="st1" d="M82.9,45.4c-3.7,1.9-22.7,9.8-26.7,11.8c-4.1,2.1-6.3,2.1-9.5,0.6c-3.3-1.6-23.4-9.7-27.1-11.5
			c-1.8-0.9-2.8-1.6-2.8-2.3v-6.9c0,0,26.3-5.8,30.6-7.2c4.3-1.6,5.8-1.6,9.3-0.2c3.6,1.3,25.3,5.2,28.8,6.5V43
			C85.5,43.7,84.7,44.4,82.9,45.4z"/>
		<path class="st2" d="M82.9,38.4c-3.7,1.9-22.7,9.8-26.7,11.8c-4.1,2.1-6.3,2.1-9.5,0.6c-3.3-1.6-23.4-9.7-27.1-11.5
			c-3.6-1.8-3.7-3-0.1-4.4c3.5-1.4,23.7-9.3,27.9-10.8c4.3-1.6,5.8-1.6,9.3-0.2c3.6,1.3,22.5,8.9,26.1,10.1
			C86.4,35.5,86.6,36.5,82.9,38.4z"/>
		<path class="st1" d="M82.9,34.1c-3.7,1.9-22.7,9.8-26.7,11.8c-4.1,2.1-6.3,2.1-9.5,0.6c-3.3-1.6-23.4-9.8-27.1-11.5
			c-1.8-0.9-2.8-1.6-2.8-2.3v-6.9c0,0,26.3-5.8,30.6-7.2c4.3-1.6,5.8-1.6,9.3-0.2c3.6,1.3,25.3,5.2,28.8,6.5v6.9
			C85.5,32.4,84.7,33.1,82.9,34.1z"/>
		<path class="st2" d="M82.9,27.1C79.2,29,60.2,36.9,56.1,39c-4.1,2.1-6.3,2.1-9.5,0.6c-3.2-1.6-23.4-9.7-27-11.5
			c-3.6-1.8-3.7-3-0.1-4.4c3.5-1.4,23.7-9.3,27.9-10.8c4.3-1.6,5.8-1.6,9.3-0.2c3.6,1.3,22.5,8.9,26.1,10.1
			C86.4,24.1,86.6,25.2,82.9,27.1z"/>
		<path class="st1" d="M82.9,22.3c-3.7,1.9-22.7,9.8-26.7,11.8c-4.1,2.1-6.3,2.1-9.5,0.6c-3.2-1.6-23.4-9.7-27-11.5
			c-1.8-0.9-2.8-1.6-2.8-2.3v-6.9c0,0,26.3-5.8,30.6-7.2c4.3-1.6,5.8-1.6,9.3-0.2c3.6,1.3,25.3,5.2,28.8,6.5V20
			C85.5,20.6,84.7,21.4,82.9,22.3z"/>
		<path class="st2" d="M82.9,15.4c-3.7,1.9-22.7,9.8-26.7,11.8c-4.1,2.1-6.3,2.1-9.5,0.6c-3.2-1.6-23.4-9.7-27-11.5s-3.7-3-0.1-4.4
			S43.2,2.7,47.4,1.2c4.3-1.6,5.8-1.6,9.3-0.2c3.6,1.3,22.5,8.9,26.1,10.1C86.4,12.4,86.6,13.5,82.9,15.4z"/>
		<path class="st3" d="M60.2,8.7l-6,0.6l-1.3,3.3l-2.1-3.6l-6.9-0.6l5.1-1.8l-1.5-2.8l4.8,1.8L56.8,4l-1.3,3L60.2,8.7z M52.5,24.2
			l-11.1-4.7l16-2.4L52.5,24.2z"/>
		<ellipse class="st3" cx="37.1" cy="13.8" rx="8.5" ry="3.3"/>
		<path class="st4" d="M67.2,9.5l9.5,3.7L67.2,17V9.5z"/>
		<path class="st5" d="M56.8,13.7l10.4-4.1V17l-1,0.4L56.8,13.7z"/>
	</g>
</g>
</svg>
