<?xml version="1.0" encoding="utf-8"?>
<!-- Generator: Adobe Illustrator 22.1.0, SVG Export Plug-In . SVG Version: 6.00 Build 0)  -->
<svg version="1.1" id="Layer_1" xmlns="http://www.w3.org/2000/svg" xmlns:xlink="http://www.w3.org/1999/xlink" x="0px" y="0px"
	 viewBox="0 0 102.3 99.1" style="enable-background:new 0 0 102.3 99.1;" xml:space="preserve">
<style type="text/css">
	.st0{fill:#636466;}
	.st1{fill:#A41E11;}
	.st2{fill:#D82C20;}
	.st3{fill:#FFFFFF;}
	.st4{fill:#7A0C00;}
	.st5{fill:#AD2115;}
</style>
<path class="st0" d="M19.6,73.9c0,1.4-1.1,2.6-2.6,2.6c-1.1,0-2.1,0.3-3,1c-1,0.6-1.6,1.4-2.2,2.4c-1.2,1.5-1.8,3.4-2,4.1v9.3
	c0,1.4-1.2,2.6-2.6,2.6c-1.4,0-2.6-1.2-2.6-2.6V73.9c0-1.4,1.2-2.6,2.6-2.6c1.5,0,2.6,1.1,2.6,2.6v0.4c0.3-0.4,0.6-0.7,1-1
	c1.6-1,3.7-1.9,6.2-1.9C18.5,71.3,19.6,72.4,19.6,73.9z M18.2,83.6c0.1-6.7,5.2-12.2,11.9-12.2c6.4,0,11.4,4.7,11.8,11.4v0.2
	c0,0.1,0,0.4-0.1,0.5c-0.2,1.2-1.2,1.9-2.6,1.9H23.8c0.2,1.1,0.8,2.4,1.6,3.2c1,1.2,3,2.1,4.6,2.2c1.8,0.2,3.8-0.3,5-1.2
	c1-1,3-1,3.6-0.2c0.6,0.6,1.1,2.2,0,3.2c-2.4,2.3-5.3,3.2-8.7,3.2C23.4,95.7,18.2,90.1,18.2,83.6L18.2,83.6z M23.5,81.2h13.8
	c-0.5-1.9-3-4.8-7.2-5.2C25.9,76.1,23.9,79.2,23.5,81.2z M66.7,93.1c0,1.4-1.2,2.6-2.6,2.6c-1.4,0-2.4-1-2.6-2.1
	c-1.8,1.3-4.2,2.1-6.7,2.1c-6.6,0-11.8-5.6-11.8-12.1c0-6.7,5.3-12.2,11.8-12.2c2.4,0,4.7,0.8,6.6,2.1v-9.4c0-1.4,1.2-2.6,2.6-2.6
	s2.6,1.2,2.6,2.6v19.4V93.1z M54.9,76.6c-1.8,0-3.4,0.7-4.6,2c-1.2,1.2-1.9,3-1.9,4.9c0,1.8,0.7,3.6,1.9,4.8c1.2,1.3,2.8,2,4.6,2
	c1.8,0,3.4-0.7,4.6-2c1.2-1.2,1.9-3,1.9-4.8c0-1.9-0.7-3.7-1.9-4.9C58.2,77.4,56.7,76.6,54.9,76.6z M76.1,65.2
	c0,1.5-1.1,2.6-2.6,2.6c-1.5,0-2.6-1.2-2.6-2.6v-1c0-1.5,1.2-2.6,2.6-2.6c1.5,0,2.6,1.2,2.6,2.6V65.2z M76.1,74v19
	c0,1.5-1.1,2.6-2.6,2.6c-1.5,0-2.6-1.2-2.6-2.6V74c0-1.5,1.2-2.6,2.6-2.6C74.9,71.3,76.1,72.4,76.1,74z M79.4,88.7
	c0.9-1.2,2.6-1.4,3.6-0.4c1.3,1,3.5,2.2,5.4,2.2c1.4,0,2.6-0.5,3.4-1c0.6-0.6,0.9-1,0.9-1.5c0-0.2-0.1-0.4-0.2-0.5
	c-0.1-0.2-0.2-0.4-0.6-0.6c-0.6-0.5-2.2-1-3.9-1.4h-0.1c-1.5-0.3-3-0.6-4.2-1.3c-1.4-0.6-2.6-1.5-3.4-2.8c-0.5-0.9-0.8-1.9-0.8-3
	c0-2.2,1.3-4.2,2.9-5.4c1.7-1.2,3.8-1.8,6-1.8c3.4,0,5.7,1.6,7.4,2.6c1.2,0.8,1.5,2.4,0.8,3.6c-0.8,1.2-2.4,1.5-3.6,0.6
	c-1.5-1-3-1.8-4.6-1.8c-1.2,0-2.3,0.4-3,0.9c-0.6,0.5-0.8,0.9-0.8,1.1c0,0.2,0,0.2,0.1,0.4c0.1,0.1,0.2,0.3,0.5,0.5
	c0.6,0.5,1.9,0.9,3.6,1.2l0.1,0.1h0.1c1.6,0.3,3.1,0.7,4.6,1.4c1.4,0.6,2.6,1.5,3.5,2.9c0.6,1,1,2.1,1,3.2c0,2.4-1.4,4.4-3,5.6
	c-1.8,1.2-3.9,1.9-6.4,1.9c-3.8-0.1-6.7-1.8-8.7-3.4C78.6,91.5,78.5,89.8,79.4,88.7z"/>
<g>
	<path class="st1" d="M82.9,45.4c-3.7,1.9-22.7,9.8-26.7,11.8c-4.1,2.1-6.3,2.1-9.5,0.6c-3.3-1.6-23.4-9.7-27.1-11.5
		c-1.8-0.9-2.8-1.6-2.8-2.3v-6.9c0,0,26.3-5.8,30.6-7.2c4.3-1.6,5.8-1.6,9.3-0.2c3.6,1.3,25.3,5.2,28.8,6.5V43
		C85.5,43.7,84.7,44.4,82.9,45.4z"/>
	<path class="st2" d="M82.9,38.4c-3.7,1.9-22.7,9.8-26.7,11.8c-4.1,2.1-6.3,2.1-9.5,0.6c-3.3-1.6-23.4-9.7-27.1-11.5
		c-3.6-1.8-3.7-3-0.1-4.4c3.5-1.4,23.7-9.3,27.9-10.8c4.3-1.6,5.8-1.6,9.3-0.2c3.6,1.3,22.5,8.9,26.1,10.1
		C86.4,35.5,86.6,36.5,82.9,38.4z"/>
	<path class="st1" d="M82.9,34.1c-3.7,1.9-22.7,9.8-26.7,11.8c-4.1,2.1-6.3,2.1-9.5,0.6c-3.3-1.6-23.4-9.8-27.1-11.5
		c-1.8-0.9-2.8-1.6-2.8-2.3v-6.9c0,0,26.3-5.8,30.6-7.2c4.3-1.6,5.8-1.6,9.3-0.2c3.6,1.3,25.3,5.2,28.8,6.5v6.9
		C85.5,32.4,84.7,33.1,82.9,34.1z"/>
	<path class="st2" d="M82.9,27.1C79.2,29,60.2,36.9,56.1,39s-6.3,2.1-9.5,0.6c-3.2-1.6-23.4-9.7-27-11.5s-3.7-3-0.1-4.4
		c3.5-1.4,23.7-9.3,27.9-10.8c4.3-1.6,5.8-1.6,9.3-0.2c3.6,1.3,22.5,8.9,26.1,10.1C86.4,24.1,86.6,25.2,82.9,27.1z"/>
	<path class="st1" d="M82.9,22.3c-3.7,1.9-22.7,9.8-26.7,11.8c-4.1,2.1-6.3,2.1-9.5,0.6c-3.2-1.6-23.4-9.7-27-11.5
		c-1.8-0.9-2.8-1.6-2.8-2.3V14c0,0,26.3-5.8,30.6-7.2c4.3-1.6,5.8-1.6,9.3-0.2c3.6,1.3,25.3,5.2,28.8,6.5V20
		C85.5,20.6,84.7,21.4,82.9,22.3z"/>
	<path class="st2" d="M82.9,15.4c-3.7,1.9-22.7,9.8-26.7,11.8c-4.1,2.1-6.3,2.1-9.5,0.6c-3.2-1.6-23.4-9.7-27-11.5s-3.7-3-0.1-4.4
		S43.2,2.7,47.4,1.2c4.3-1.6,5.8-1.6,9.3-0.2c3.6,1.3,22.5,8.9,26.1,10.1C86.4,12.4,86.6,13.5,82.9,15.4z"/>
	<path class="st3" d="M60.2,8.7l-6,0.6l-1.3,3.3L50.8,9l-6.9-0.6L49,6.6l-1.5-2.8l4.8,1.8L56.8,4l-1.3,3L60.2,8.7z M52.5,24.2
		l-11.1-4.7l16-2.4L52.5,24.2z"/>
	<ellipse class="st3" cx="37.1" cy="13.8" rx="8.5" ry="3.3"/>
	<path class="st4" d="M67.2,9.5l9.5,3.7L67.2,17V9.5z"/>
	<path class="st5" d="M56.8,13.7l10.4-4.1V17l-1,0.4L56.8,13.7z"/>
</g>
</svg>
