<?xml version="1.0" encoding="utf-8"?>
<!-- Generator: Adobe Illustrator 22.1.0, SVG Export Plug-In . SVG Version: 6.00 Build 0)  -->
<svg version="1.1" id="Layer_1" xmlns="http://www.w3.org/2000/svg" xmlns:xlink="http://www.w3.org/1999/xlink" x="0px" y="0px"
	 viewBox="0 0 331.4 329.8" style="enable-background:new 0 0 331.4 329.8;" xml:space="preserve">
<style type="text/css">
	.st0{fill:#95BF47;}
	.st1{fill:#5E8E3E;}
	.st2{fill:#FFFFFF;}
</style>
<g>
	<path d="M28.4,271.3c-4-2.1-6.1-4-6.1-6.5c0-3.2,2.9-5.2,7.3-5.2c5.2,0,9.8,2.1,9.8,2.1l3.6-11.1c0,0-3.3-2.6-13.2-2.6
		c-13.7,0-23.2,7.9-23.2,18.9c0,6.3,4.5,11,10.4,14.5c4.8,2.6,6.5,4.6,6.5,7.5c0,3-2.4,5.4-6.9,5.4c-6.6,0-12.9-3.4-12.9-3.4
		L0,301.9c0,0,5.8,3.9,15.4,3.9c14.1,0,24.3-7,24.3-19.4C39.6,279.5,34.5,274.8,28.4,271.3z M84.5,247.8c-7,0-12.4,3.3-16.6,8.3
		l-0.2-0.1l6.1-31.5H58.2l-15.3,80.2h15.7l5.2-27.4c2-10.4,7.4-16.8,12.4-16.8c3.6,0,4.9,2.4,4.9,5.8c0,2.1-0.2,4.8-0.7,7l-5.9,31.4
		h15.7l6.1-32.4c0.7-3.4,1.1-7.5,1.1-10.3C97.4,253.1,92.8,247.8,84.5,247.8L84.5,247.8z M132.9,247.8c-18.9,0-31.4,17-31.4,36
		c0,12.1,7.5,21.9,21.6,21.9c18.5,0,31-16.6,31-36C154.2,258.5,147.7,247.8,132.9,247.8z M125.2,293.8c-5.4,0-7.6-4.5-7.6-10.3
		c0-9,4.6-23.6,13.2-23.6c5.5,0,7.4,4.8,7.4,9.5C138.2,279,133.4,293.8,125.2,293.8L125.2,293.8z M194.3,247.8
		c-10.6,0-16.6,9.4-16.6,9.4h-0.2l0.9-8.4h-13.9c-0.7,5.7-2,14.4-3.2,20.8L150.5,327h15.7l4.4-23.2h0.4c0,0,3.3,2,9.2,2
		c18.5,0,30.5-18.9,30.5-38C210.5,257.3,205.8,247.8,194.3,247.8z M179.3,294c-4.1,0-6.5-2.3-6.5-2.3l2.6-14.6
		c1.8-9.8,7-16.3,12.4-16.3c4.8,0,6.3,4.5,6.3,8.6C194.1,279.5,188.1,294,179.3,294L179.3,294z M232.9,225.3c-5,0-9,4-9,9.1
		c0,4.6,3,7.9,7.4,7.9h0.2c4.9,0,9.1-3.3,9.2-9.1C240.7,228.6,237.6,225.3,232.9,225.3z M211,304.7h15.7l10.6-55.7h-15.7
		 M277.2,248.9h-10.9l0.5-2.6c0.9-5.4,4.1-10.1,9.4-10.1c2.8,0,5,0.8,5,0.8l3-12.3c0,0-2.6-1.4-8.6-1.4c-5.5,0-11.1,1.6-15.4,5.2
		c-5.4,4.5-7.9,11.1-9.1,17.8l-0.5,2.6h-7.3l-2.3,11.9h7.3l-8.3,43.9h15.7l8.3-43.9h10.8L277.2,248.9L277.2,248.9z M315,249
		c0,0-9.8,24.7-14.2,38.3h-0.2c-0.3-4.4-3.9-38.3-3.9-38.3h-16.5l9.5,51c0.2,1.1,0.1,1.8-0.4,2.6c-1.8,3.6-4.9,7-8.6,9.5
		c-3,2.1-6.3,3.6-8.9,4.5l4.4,13.3c3.2-0.7,9.8-3.3,15.4-8.6c7.1-6.7,13.8-17,20.6-31.1l19.1-41.2L315,249L315,249z"/>
	<g>
		<path class="st0" d="M227.5,36.4c-0.1-1-1-1.4-1.6-1.4s-15-1.1-15-1.1s-10-10-11.2-11c-1.1-1.1-3.2-0.8-4.1-0.5
			c-0.1,0-2.2,0.7-5.6,1.8c-3.4-9.8-9.2-18.6-19.6-18.6h-1c-2.8-3.7-6.6-5.5-9.6-5.5c-24.1,0-35.7,30.1-39.3,45.5
			c-9.4,3-16.1,4.9-16.9,5.3c-5.3,1.6-5.4,1.8-6,6.7C97,61.1,83.3,167.1,83.3,167.1L189.9,187l57.9-12.5
			C247.9,174.3,227.6,37.4,227.5,36.4z M184.1,25.6c-2.6,0.8-5.8,1.8-9,2.8v-2c0-5.9-0.8-10.7-2.2-14.6
			C178.4,12.6,181.8,18.6,184.1,25.6L184.1,25.6z M166.2,13.1c1.4,3.7,2.4,9,2.4,16.2v1.1c-5.9,1.9-12.2,3.7-18.6,5.8
			C153.6,22.5,160.6,15.7,166.2,13.1L166.2,13.1z M159.2,6.4c1.1,0,2.2,0.4,3.1,1.1c-7.8,3.6-16,12.7-19.4,31.1
			c-5.1,1.6-10.1,3.1-14.8,4.6C132.1,29.1,141.9,6.4,159.2,6.4z"/>
		<path class="st1" d="M225.9,34.7c-0.7,0-15-1.1-15-1.1s-10-10-11.2-11c-0.4-0.4-1-0.7-1.4-0.7l-8,165l57.9-12.5
			c0,0-20.3-137.2-20.4-138.2C227.3,35.4,226.5,35,225.9,34.7z"/>
		<path class="st2" d="M170.4,66.7l-7,21.1c0,0-6.4-3.4-13.9-3.4c-11.3,0-11.8,7.1-11.8,8.9c0,9.6,25.2,13.4,25.2,36
			c0,17.9-11.3,29.4-26.5,29.4c-18.4,0-27.6-11.4-27.6-11.4l4.9-16.2c0,0,9.6,8.3,17.8,8.3c5.4,0,7.6-4.2,7.6-7.2
			c0-12.6-20.6-13.1-20.6-34c0-17.4,12.5-34.3,37.8-34.3C165.6,63.9,170.4,66.7,170.4,66.7z"/>
	</g>
</g>
</svg>
