<?xml version="1.0" encoding="utf-8"?>
<!-- Generator: Adobe Illustrator 22.1.0, SVG Export Plug-In . SVG Version: 6.00 Build 0)  -->
<svg version="1.1" id="Layer_1" xmlns="http://www.w3.org/2000/svg" xmlns:xlink="http://www.w3.org/1999/xlink" x="0px" y="0px"
	 viewBox="0 0 202 223.7" style="enable-background:new 0 0 202 223.7;" xml:space="preserve">
<style type="text/css">
	.st0{fill:#FFFFFF;}
</style>
<g>
	<g id="fond">
	</g>
	<g id="compacte">
	</g>
	<g id="rectangle">
	</g>
	<g>
		<g>
			<path d="M177.1,78.6c0,40.7-33,73.7-73.7,73.7c-40.7,0-73.6-33-73.6-73.7C29.8,38,62.7,5,103.4,5C144.1,5,177.1,38,177.1,78.6z"
				/>
			<path class="st0" d="M135.6,32.2c-7.5,0.3-14,4.4-18.9,10.1c-5.4,6.3-9,13.7-11.5,21.2c-4.6-3.8-8.2-8.7-15.6-10.8
				c-5.7-1.6-11.7-1-17.3,3.2c-2.6,2-4.4,4.9-5.3,7.7c-2.2,7.2,2.3,13.7,4.4,16l4.5,4.8c0.9,1,3.2,3.4,2.1,7
				c-1.2,3.9-5.8,6.4-10.6,4.9c-2.1-0.7-5.2-2.2-4.5-4.5c0.3-0.9,0.9-1.6,1.3-2.4c0.3-0.7,0.5-1.2,0.6-1.5c0.9-2.8-0.3-6.6-3.4-7.5
				c-2.9-0.9-5.8-0.2-6.9,3.5c-1.3,4.2,0.7,11.7,11.4,15c12.5,3.9,23.1-3,24.6-11.9c0.9-5.6-1.6-9.7-6.2-15l-3.8-4.2
				c-2.3-2.3-3.1-6.1-0.7-9.1c2-2.5,4.8-3.6,9.4-2.3c6.8,1.8,9.8,6.5,14.8,10.3c-2.1,6.8-3.4,13.6-4.7,19.8l-0.8,4.6
				c-3.6,18.8-6.3,29.2-13.5,35.1c-1.4,1-3.5,2.6-6.6,2.7c-1.6,0-2.1-1.1-2.2-1.6c0-1.1,0.9-1.7,1.6-2.2c1-0.5,2.4-1.4,2.3-4.1
				c-0.1-3.3-2.8-6.1-6.7-6c-2.9,0.1-7.4,2.9-7.2,7.9c0.2,5.2,5,9.1,12.3,8.9c3.9-0.1,12.7-1.7,21.3-12c10-11.7,12.8-25.2,14.9-35
				l2.4-13c1.3,0.2,2.7,0.3,4.2,0.3c12.5,0.3,18.7-6.2,18.8-10.9c0.1-2.8-1.9-5.6-4.6-5.6c-1.9,0.1-4.4,1.3-4.9,4
				c-0.6,2.6,4,5,0.4,7.3c-2.5,1.6-7,2.8-13.4,1.8l1.2-6.4c2.4-12.1,5.3-27.1,16.3-27.4c0.8,0,3.8,0,3.8,2c0,0.6-0.1,0.8-0.9,2.3
				c-0.8,1.2-1.1,2.2-1,3.3c0.1,3.1,2.5,5.1,5.9,5c4.6-0.2,5.9-4.6,5.8-6.9C148.7,35.4,143.1,32,135.6,32.2z"/>
		</g>
		<g>
			<g>
				<path d="M130.7,183c7.4,0,12.4,5.4,12.4,12.8c0,7-5.1,12.8-12.4,12.8c-7.4,0-12.5-5.8-12.5-12.8
					C118.3,188.3,123.3,183,130.7,183z M130.7,204.9c5.3,0,7.6-4.8,7.6-9.2c0-4.7-2.8-9.2-7.6-9.2c-4.8,0-7.7,4.5-7.7,9.2
					C123.1,200.1,125.4,204.9,130.7,204.9z"/>
			</g>
			<path d="M117.7,185.2v-1.7h-6.5v-2.3c0-3.3,0.5-5.8,4.4-5.8c0.1,0,0.1,0,0.2,0c0,0,0,0,0,0c1.1,0.1,2-0.8,2-1.9l0.1-1.5
				c-0.9-0.1-1.9-0.3-3-0.3c-6.7,0-8.2,3.9-8.2,9.8v1.9h-5.8v1.9c0.1,1,1,1.7,2,1.7c0,0,0,0,0,0h3.7V208h2.5c0,0,0,0,0,0
				c1,0,1.9-0.8,2-1.8v-19.1h4.5C116.7,187.2,117.6,186.3,117.7,185.2z"/>
			<path d="M57.6,183.5C57.6,183.5,57.5,183.5,57.6,183.5c-1,0-1.9,0.7-2.3,1.5l-6.2,18.7H49l-6.1-18.7c-0.4-0.9-1.3-1.5-2.3-1.5
				c0,0,0,0,0,0h-3.1l8.3,22.8c0.3,0.8,0.9,2.1,0.9,2.6c0,0.5-1.3,6-5.4,6c-0.1,0-0.2,0-0.3,0c-1-0.1-1.8,0.7-2,1.8l-0.1,1.6
				c0.8,0.1,1.6,0.3,3.1,0.3c5.9,0,7.7-5.4,9.4-10.1l9-25L57.6,183.5L57.6,183.5z"/>
			<path d="M28.9,188.5c-3.7-1.9-7.8-3.2-7.9-7c0-4.1,3.8-5.1,6.6-5.1c0,0,0,0,0,0c1.3,0,2.3,0.1,3.2,0.3c0,0,0,0,0,0
				c1,0.1,1.9-0.7,2-1.8l0.1-1.5c-1.9-0.5-3.9-0.7-5.6-0.7c-6.3,0-10.9,3.2-10.9,9.2c0,5.3,3.6,7.3,7.4,9.2c3.7,1.8,7.8,3.3,7.9,7.6
				c0,4.5-4.4,6.2-7.4,6.2c-1.8,0-3.7-0.4-5.3-1c-1-0.2-1.8,0.7-2,1.9l-0.1,1.3c2.2,0.7,4.5,1.3,6.8,1.3c0,0,0,0,0,0c0,0,0,0,0,0
				c7-0.1,12.5-2.9,12.5-10.1C36.3,192.8,32.7,190.4,28.9,188.5z"/>
			<path d="M97.1,208C97.1,208,97.1,208,97.1,208c1,0,1.8-0.7,2-1.6v-14.1c0-5.3-2.3-9.4-8.5-9.4c-2.2,0-5.9,1.2-7.6,4.8
				c-1.3-3.3-4.1-4.8-7-4.8c-3.6,0-6,1.3-7.8,4.1h-0.1v-1.5c0-1.1-0.9-2-2-2c0,0,0,0,0,0H64V208h2.4c0,0,0,0,0,0c1.1,0,2-0.9,2-2
				c0,0,0,0,0-0.1v-10.2c0-4.6,1.8-9.1,6.4-9.1c3.6,0,4.4,3.8,4.4,6.8V208h2.5c0,0,0,0,0,0c1.1,0,1.9-0.8,2-1.9v-10.5
				c0-4.6,1.8-9.1,6.4-9.1c3.6,0,4.4,3.8,4.4,6.8V208L97.1,208L97.1,208z"/>
			<path d="M166.8,208C166.8,208,166.8,208,166.8,208c1.1,0,2-0.9,2-2v-12.6c0-6.6-2.8-10.5-9.2-10.5c-3.4,0-6.7,1.7-8,4.5h-0.1
				v-1.8c0,0,0,0,0,0c0-1.1-0.9-2-2-2c0,0,0,0,0,0h-2.3V208h2.5c0,0,0,0,0,0c1.1,0,1.9-0.8,2-1.9v-9.4c0-5.9,2.3-10.1,7.4-10.1
				c3.9,0.2,5.2,3,5.2,8.7V208L166.8,208L166.8,208z"/>
			<path d="M191.1,183.5C191.1,183.5,191.1,183.5,191.1,183.5c-1,0-1.9,0.7-2.3,1.5l-6.2,18.7h-0.1l-6.1-18.7
				c-0.4-0.9-1.3-1.5-2.3-1.5c0,0,0,0,0,0H171l8.3,22.8c0.3,0.8,0.9,2.1,0.9,2.6c0,0.5-1.3,6-5.4,6c-0.1,0-0.2,0-0.3,0
				c-1-0.1-1.8,0.7-2,1.8l-0.1,1.6c0.8,0.1,1.6,0.3,3.1,0.3c6,0,7.7-5.4,9.4-10.1l9-25L191.1,183.5L191.1,183.5z"/>
		</g>
	</g>
</g>
</svg>
