<?xml version="1.0" encoding="UTF-8" standalone="no"?>
<!-- Created with Inkscape (http://www.inkscape.org/) -->
<svg xmlns:dc="http://purl.org/dc/elements/1.1/" xmlns:cc="http://creativecommons.org/ns#" xmlns:rdf="http://www.w3.org/1999/02/22-rdf-syntax-ns#" xmlns:svg="http://www.w3.org/2000/svg" xmlns="http://www.w3.org/2000/svg" xmlns:xlink="http://www.w3.org/1999/xlink" xmlns:sodipodi="http://sodipodi.sourceforge.net/DTD/sodipodi-0.dtd" xmlns:inkscape="http://www.inkscape.org/namespaces/inkscape" width="600" height="200" id="svg2526" sodipodi:version="0.32" inkscape:version="0.46" sodipodi:docname="tryton_banner.svg" inkscape:output_extension="org.inkscape.output.svg.inkscape" inkscape:export-filename="/tmp/banner.png" inkscape:export-xdpi="150" inkscape:export-ydpi="150" version="1.0">
  <defs id="defs2528">
    <linearGradient id="linearGradient4542">
      <stop id="stop4544" offset="0" style="stop-color: rgb(255, 255, 255); stop-opacity: 0;"/>
      <stop id="stop4546" offset="1" style="stop-color: rgb(59, 59, 59); stop-opacity: 1;"/>
    </linearGradient>
    <linearGradient id="linearGradient5571">
      <stop style="stop-color: rgb(255, 255, 255); stop-opacity: 0;" offset="0" id="stop5573"/>
      <stop style="stop-color: rgb(237, 237, 237); stop-opacity: 1;" offset="1" id="stop5575"/>
    </linearGradient>
    <linearGradient id="linearGradient3170">
      <stop style="stop-color: rgb(237, 237, 237); stop-opacity: 0.133333;" offset="0" id="stop3172"/>
      <stop id="stop3200" offset="1" style="stop-color: rgb(237, 237, 237); stop-opacity: 1;"/>
    </linearGradient>
    <inkscape:perspective sodipodi:type="inkscape:persp3d" inkscape:vp_x="0 : 526.18109 : 1" inkscape:vp_y="0 : 1000 : 0" inkscape:vp_z="744.09448 : 526.18109 : 1" inkscape:persp3d-origin="372.04724 : 350.78739 : 1" id="perspective2534"/>
    <radialGradient inkscape:collect="always" xlink:href="#linearGradient3170" id="radialGradient3196" cx="210.66521" cy="602.53101" fx="210.66521" fy="602.53101" r="113.42188" gradientTransform="matrix(1.4734, 2.90697e-07, -2.4844e-08, 0.129679, -102.833, 452.796)" gradientUnits="userSpaceOnUse"/>
    <linearGradient inkscape:collect="always" xlink:href="#linearGradient5571" id="linearGradient3852" gradientUnits="userSpaceOnUse" x1="159.7476" y1="538.43451" x2="160.32199" y2="597.53796" gradientTransform="translate(-45.3666, 437.752)"/>
    <linearGradient inkscape:collect="always" xlink:href="#linearGradient5571" id="linearGradient3873" x1="284.34305" y1="669.53522" x2="284.62604" y2="718.7796" gradientUnits="userSpaceOnUse" gradientTransform="translate(232.845, 316.802)"/>
    <linearGradient inkscape:collect="always" xlink:href="#linearGradient5571" id="linearGradient3904" gradientUnits="userSpaceOnUse" gradientTransform="translate(374.359, 206.413)" x1="284.34305" y1="669.53522" x2="284.62604" y2="718.7796"/>
    <linearGradient inkscape:collect="always" xlink:href="#linearGradient5571" id="linearGradient3911" gradientUnits="userSpaceOnUse" gradientTransform="translate(193.408, -75.0692)" x1="287.26981" y1="664.11279" x2="286.84946" y2="721.55792"/>
    <linearGradient inkscape:collect="always" xlink:href="#linearGradient5571" id="linearGradient3917" gradientUnits="userSpaceOnUse" gradientTransform="translate(47.7308, -33.3235)" x1="287.26981" y1="664.11279" x2="286.84946" y2="721.55792"/>
    <linearGradient inkscape:collect="always" xlink:href="#linearGradient5571" id="linearGradient4532" gradientUnits="userSpaceOnUse" gradientTransform="matrix(1.90693, 0, 0, 1.90693, 64.2881, -1075.33)" x1="287.26981" y1="678.03345" x2="286.95731" y2="715.93921"/>
    <linearGradient inkscape:collect="always" xlink:href="#linearGradient5571" id="linearGradient4550" gradientUnits="userSpaceOnUse" gradientTransform="matrix(1.45781, 0, 0, 1.45781, 257.593, -239.286)" x1="287.26981" y1="664.11279" x2="286.84946" y2="721.55792"/>
    <linearGradient inkscape:collect="always" xlink:href="#linearGradient5571" id="linearGradient4715" gradientUnits="userSpaceOnUse" gradientTransform="matrix(1.90693, 0, 0, 1.90693, 64.2881, -1075.33)" x1="287.26981" y1="678.03345" x2="286.95731" y2="715.93921"/>
    <linearGradient inkscape:collect="always" xlink:href="#linearGradient5571" id="linearGradient2847" gradientUnits="userSpaceOnUse" gradientTransform="matrix(1.90693, 0, 0, 1.90693, 64.2881, -1075.33)" x1="287.26981" y1="678.03345" x2="286.95731" y2="715.93921"/>
    <linearGradient inkscape:collect="always" xlink:href="#linearGradient5571" id="linearGradient2851" gradientUnits="userSpaceOnUse" gradientTransform="matrix(1.90693, 0, 0, 1.90693, 40.2105, -799.557)" x1="287.26981" y1="678.03345" x2="286.95731" y2="715.93921"/>
  </defs>
  <sodipodi:namedview id="base" pagecolor="#ffffff" bordercolor="#666666" borderopacity="1.0" inkscape:pageopacity="0.0" inkscape:pageshadow="2" inkscape:zoom="0.71113748" inkscape:cx="-197.18008" inkscape:cy="560.65417" inkscape:document-units="px" inkscape:current-layer="layer1" showgrid="false" inkscape:window-width="1054" inkscape:window-height="794" inkscape:window-x="0" inkscape:window-y="19"/>
  <metadata id="metadata2531">
    <rdf:RDF>
      <cc:Work rdf:about="">
        <dc:format>image/svg+xml</dc:format>
        <dc:type rdf:resource="http://purl.org/dc/dcmitype/StillImage"/>
      </cc:Work>
    </rdf:RDF>
  </metadata>
  <g inkscape:label="Calque 1" inkscape:groupmode="layer" id="layer1" transform="translate(-65.7503, -119.194)">
    <rect style="opacity: 1; fill: rgb(0, 0, 0); fill-opacity: 1; stroke: none; stroke-width: 1; stroke-linejoin: round; stroke-miterlimit: 4; stroke-dasharray: none; stroke-dashoffset: 0pt; stroke-opacity: 1;" id="rect3881" width="600" height="200" x="65.750343" y="119.19412" ry="8.6400614" rx="8.6400614" inkscape:export-filename="/tmp/tryton_banner.png" inkscape:export-xdpi="45" inkscape:export-ydpi="45"/>
    <g id="g4711" transform="translate(1.37289, -13.196)">
      <path sodipodi:nodetypes="cccccsccccccccccccccccccccccccccccccccc" id="path3913" d="M 370.01431,251.88304 L 370.01431,252.65783 C 370.01429,264.71877 376.72662,270.77365 390.09664,270.77365 L 413.33733,270.77365 L 413.33733,252.47896 C 399.35369,252.08727 385.12564,251.88304 370.7294,251.88304 C 370.48932,251.88304 370.25429,251.88285 370.01431,251.88304 z M 340.45692,252.1811 C 328.77632,252.40745 317.25243,252.77282 305.89385,253.25374 L 310.78035,265.70827 L 298.26613,300.62889 L 322.99661,300.62889 L 341.76793,252.1811 C 341.33285,252.1891 340.89159,252.17251 340.45692,252.1811 z M 420.78627,252.71732 C 420.99761,264.74585 427.45855,270.77365 440.33228,270.77365 L 476.38514,270.77365 C 486.9669,270.8524 493.04024,266.26719 494.67974,257.0676 C 471.02069,255.02947 446.29607,253.5598 420.78627,252.71732 z M 254.70474,256.3525 C 246.4527,257.00448 238.32741,257.71214 230.33182,258.4978 L 230.33182,270.77365 L 254.70474,270.77365 L 254.70474,256.3525 z M 503.67805,257.90188 L 503.67805,270.77365 L 528.11057,270.77365 L 528.11057,260.40472 C 520.11309,259.49645 511.96133,258.67419 503.67805,257.90188 z M 199.52301,261.89442 C 191.30245,262.92187 183.25283,264.0031 175.38843,265.17204 L 175.38843,270.77365 L 199.52301,270.77365 L 199.52301,261.89442 z M 554.03288,263.62266 L 554.03288,270.77365 L 578.16744,270.77365 L 578.16744,267.25765 C 570.32388,265.98649 562.26539,264.75252 554.03288,263.62266 z" style="font-size: 108.872px; font-style: normal; font-variant: normal; font-weight: normal; font-stretch: normal; text-align: start; line-height: 125%; text-anchor: start; fill: url(#linearGradient4715) rgb(0, 0, 0); fill-opacity: 1; stroke: none; stroke-width: 1px; stroke-linecap: butt; stroke-linejoin: miter; stroke-opacity: 1; font-family: Kimberley;"/>
      <path id="path3915" d="M 150.58747,164.15132 L 150.58747,190.9675 L 175.37754,190.9675 L 175.37754,265.15892 C 183.24194,263.98998 191.29154,262.90884 199.5121,261.88139 L 199.5121,190.9675 L 223.64666,190.9675 L 223.64666,164.15132 L 150.58747,164.15132 z M 370.0034,164.3301 L 370.0034,251.87002 C 370.24339,251.86983 370.47842,251.87002 370.7185,251.87002 C 385.11474,251.87002 399.34279,252.07425 413.32642,252.46593 L 413.32642,246.50678 L 397.95182,246.50678 C 395.52086,246.50678 394.25708,244.91812 394.25714,241.73946 L 394.25714,212.83758 L 413.5052,212.83758 L 413.5052,188.58384 L 394.25714,188.58384 L 394.25714,164.3301 L 370.0034,164.3301 z M 280.31818,188.40506 L 305.88294,253.24062 C 317.24152,252.7597 328.76541,252.39431 340.44601,252.16798 C 340.88068,252.15939 341.32194,252.17597 341.75703,252.16798 L 366.42791,188.40506 L 340.74397,188.40506 L 323.22407,235.12481 L 306.00212,188.40506 L 280.31818,188.40506 z M 439.90424,188.40506 C 427.09519,188.40508 420.71577,194.86984 420.71577,207.7723 L 420.71577,252.10838 C 420.71577,253.07989 420.75538,254.01358 420.83495,254.90919 C 420.77288,254.20429 420.78858,253.45609 420.77536,252.7043 C 446.28516,253.54678 471.00978,255.01634 494.66883,257.05448 C 494.97045,255.36202 495.14556,253.51728 495.14556,251.51247 L 495.14556,207.89149 C 495.14549,194.89562 488.79173,188.40506 476.07628,188.40506 L 439.90424,188.40506 z M 494.66883,257.05448 C 494.56637,257.62946 494.44841,258.18412 494.31128,258.72304 C 494.44709,258.18851 494.56725,257.62448 494.66883,257.05448 z M 420.83495,254.90919 C 421.02401,257.03701 421.44767,258.93061 422.08638,260.62997 C 421.45894,258.93751 421.02118,257.02387 420.83495,254.90919 z M 422.08638,260.62997 C 422.2966,261.18925 422.54249,261.72605 422.80147,262.23894 C 422.54314,261.72172 422.29553,261.19412 422.08638,260.62997 z M 249.68815,188.58384 C 246.88321,188.58388 244.25296,189.10481 241.82207,190.13322 C 239.48461,191.06841 237.40097,192.40895 235.62455,194.18544 C 233.94159,195.86834 232.62648,197.86667 231.69151,200.20418 C 230.75655,202.54171 230.32091,205.08678 230.32091,207.89149 L 230.32091,258.48468 C 238.31651,257.69902 246.44178,256.99134 254.69384,256.33938 L 254.69384,218.73714 C 254.69382,214.81062 256.52986,212.83758 260.17625,212.83758 L 276.86188,212.83758 L 276.86188,188.58384 L 249.68815,188.58384 z M 523.03439,188.58384 C 520.22947,188.58388 517.59924,189.10481 515.16831,190.13322 C 512.83089,191.06841 510.8068,192.40895 509.03038,194.18544 C 507.34742,195.86834 506.03233,197.86667 505.09734,200.20418 C 504.16236,202.54171 503.66713,205.08678 503.66715,207.89149 L 503.66715,257.88876 C 511.95042,258.66107 520.10218,259.48331 528.09966,260.3916 L 528.09966,218.73714 C 528.09965,214.81062 529.93569,212.83758 533.58208,212.83758 L 547.70527,212.83758 C 551.91256,212.8376 554.02193,214.86171 554.02197,218.97551 L 554.02197,263.60955 C 562.25448,264.7394 570.31297,265.97347 578.15653,267.24463 L 578.15653,207.89149 C 578.15643,205.27369 577.66122,202.83965 576.72633,200.50214 C 575.88479,198.07142 574.65493,195.98787 572.97207,194.30462 C 571.38255,192.52836 569.38416,191.16201 566.95333,190.13322 C 564.61585,189.10485 561.95988,188.58384 558.96806,188.58384 L 523.03439,188.58384 z M 461.1784,197.93971 C 461.56307,197.95269 461.99571,198.032 462.42982,198.17807 C 465.93129,199.35467 468.19971,204.07954 466.00532,205.62701 C 465.03162,206.31354 464.71892,208.35897 464.27716,216.65144 C 463.71077,227.28447 464.1592,230.11874 466.54164,231.54931 C 468.65905,232.82045 469.34808,232.51823 473.8118,228.92729 C 478.54815,225.11763 480.53975,222.69201 480.66483,220.34611 C 480.78113,218.16403 482.2336,216.95969 484.53827,217.18776 C 486.00735,217.33368 486.6371,217.85397 487.45826,219.39265 C 489.13492,222.53469 488.64297,224.54374 486.08765,225.05384 C 484.00534,225.46919 480.44698,230.05848 474.94404,239.41539 C 469.13334,249.29555 467.86934,250.30128 461.35718,250.38023 C 458.68012,250.41206 454.91889,249.51363 446.10175,246.74515 C 439.67193,244.72571 433.59492,242.99546 432.57448,242.8717 C 428.88745,242.42622 427.0273,236.60554 430.07164,235.00562 C 431.62258,234.19096 434.53835,235.5018 435.85201,237.62765 C 437.0299,239.53341 442.97426,241.29601 445.0887,240.36886 C 446.49963,239.75042 446.88514,238.98586 446.99562,236.25704 C 447.20354,231.12512 446.0304,227.08243 442.2879,219.92897 C 440.40972,216.33884 438.46475,212.37029 437.93772,211.10943 C 437.41053,209.84803 435.98918,207.62328 434.77937,206.16333 C 432.20467,203.05811 432.13001,202.24383 434.24304,200.44255 C 437.40702,197.74541 442.72655,202.06268 441.5728,206.4017 C 441.00501,208.53729 442.07447,211.70229 445.68461,218.26041 C 449.96835,226.04279 454.35448,229.15391 456.94741,226.36485 C 457.61727,225.64463 458.4456,221.62116 459.21188,215.40002 C 460.3646,206.04333 460.36218,205.48208 459.0927,203.6009 C 457.17242,200.75504 458.48576,197.84817 461.1784,197.93971 z M 423.63575,263.72873 C 424.24944,264.65801 424.97345,265.48659 425.78105,266.23157 C 424.96834,265.47894 424.25095,264.66924 423.63575,263.72873 z M 490.91456,265.45688 C 490.62244,265.79344 490.34361,266.10575 490.02069,266.41035 C 490.33984,266.10901 490.62549,265.78941 490.91456,265.45688 z M 488.47131,267.66177 C 488.1983,267.85353 487.92708,268.02399 487.63703,268.19809 C 487.92404,268.02702 488.20085,267.85 488.47131,267.66177 z" style="font-size: 108.872px; font-style: normal; font-variant: normal; font-weight: normal; font-stretch: normal; text-align: start; line-height: 125%; text-anchor: start; fill: rgb(237, 237, 237); fill-opacity: 1; stroke: none; stroke-width: 1px; stroke-linecap: butt; stroke-linejoin: miter; stroke-opacity: 1; font-family: Kimberley;"/>
    </g>
  </g>
</svg>