<?xml version="1.0" encoding="utf-8"?>
<!-- Generator: Adobe Illustrator 22.1.0, SVG Export Plug-In . SVG Version: 6.00 Build 0)  -->
<svg version="1.1" id="Layer_1" xmlns="http://www.w3.org/2000/svg" xmlns:xlink="http://www.w3.org/1999/xlink" x="0px" y="0px"
	 viewBox="0 0 500 542" style="enable-background:new 0 0 500 542;" xml:space="preserve">
<style type="text/css">
	.st0{clip-path:url(#SVGID_2_);}
	.st1{fill:#FF5A37;}
	.st2{opacity:0.4;fill:#FFA52D;enable-background:new    ;}
	.st3{opacity:0.6;fill:#FFA52D;enable-background:new    ;}
	.st4{opacity:0.8;fill:#FFA52D;enable-background:new    ;}
	.st5{opacity:0.2;fill:#FFA52D;enable-background:new    ;}
	.st6{fill:url(#SVGID_3_);}
</style>
<title>-</title>
<g>
	<defs>
		<path id="SVGID_1_" d="M245.8,0c0,0,0,15.8,41.2,40.8c80.1,48.6,79.8,93.2,79.8,102.6c0,39.8-41.4,65.4-60.6,44.6
			c0,0,18.8-14,18.8-35.5c0,0-13.8,9.1-21,10.7c0,0,9.4-16.6,5-45.8c0,0-7.5,14.8-31.7,26.7c0,0,9.4-21,0.6-41.1
			c0,0,1.9,25.1-55.3,51.8s-39.6,53.4-39.6,53.4s11.4-12.1,30.7-3.6c26.2,11.5,15.6,57.6-26.5,57.6c-41,0-67.8-44.5-67.8-79.3
			c0-14.4,1.6-40.8,27.5-69.9c20.7-23.1,46.1-35.4,51.6-60.9C170.4,78.2,119.3,95.3,89,140.2c-27.3,40.3-18.4,93.7-13.5,110.1
			C98.4,326.7,168.7,379,248.4,379c99.7,0,181.5-79.8,181.5-179.4C429.9,48.7,286.5,32.6,245.8,0z M221.6,184.7
			c-3,0.7-5.9-0.6-10.8-2c-4.5-1.4-6.1-1.1-6.1-1.1c3.1-2.1,6.3-3.9,9.6-5.5c4.8-2.2,8.9-2.3,10.9,2.1
			C226.4,181.1,224.1,184.2,221.6,184.7z"/>
	</defs>
	<clipPath id="SVGID_2_">
		<use xlink:href="#SVGID_1_"  style="overflow:visible;"/>
	</clipPath>
	<g class="st0">
		<path class="st1" d="M245.8,0c0,0,0,15.8,41.2,40.8c80.1,48.6,79.8,93.2,79.8,102.6c0,39.8-41.4,65.4-60.6,44.6
			c0,0,18.8-14,18.8-35.5c0,0-13.8,9.1-21,10.7c0,0,9.4-16.6,5-45.8c0,0-7.5,14.8-31.7,26.7c0,0,9.4-21,0.6-41.1
			c0,0,1.9,25.1-55.3,51.8s-39.6,53.4-39.6,53.4s11.4-12.1,30.7-3.6c26.2,11.5,15.6,57.6-26.5,57.6c-41,0-67.8-44.5-67.8-79.3
			c0-14.4,1.6-40.8,27.5-69.9c20.7-23.1,46.1-35.4,51.6-60.9C170.4,78.2,119.3,95.3,89,140.2c-27.3,40.3-18.4,93.7-13.5,110.1
			C98.4,326.7,168.7,379,248.4,379c99.7,0,181.5-79.8,181.5-179.4C429.9,48.7,286.5,32.6,245.8,0z"/>
		<path class="st2" d="M281.9,236.4c0,0,4.5,71.7-80.4,82.3c-55.5,6.9-99.1-28.4-118-73.4c-13.2-31.3-14.4-67.4,0.7-97.1
			c0,0-55.1,52.5-52.5,131.1C34.3,360.7,98.8,468,341,436.9c80.5-10.3,110-123.1,111.2-190.1c1.5-83.3-37.5-122.8-37.5-122.8
			s20.3,58.8-26.5,105.7C362,255.9,317.6,264.9,281.9,236.4z"/>
		<path class="st3" d="M412.6,278c0,0-81,24.7-130.7-41.6c0,0,21.8,84.4-71,139.2c0,0,32.1,95.3,138.3,48
			C383.2,408.4,408.9,335,412.6,278z"/>
		<path class="st4" d="M271.6,399.5c0,0,50.7-64.6,10.2-163.2c0,0,36.3,74.1,101.3,100.4C383.2,336.7,344.3,401.9,271.6,399.5z"/>
		<path class="st3" d="M235.4,188.5c31.8-16.4,42-44.5,42-44.5s9.4-21,0.6-41.2c0,0,1.9,25.1-55.3,51.8s-39.6,53.4-39.6,53.4
			c3.2-3,7.2-5,11.5-6C204,199.6,218.8,197.1,235.4,188.5z"/>
		<path class="st2" d="M237.1,200.1c24.6,0,53-11.4,67-36.9c2.6-5.2,4.3-10.8,5.1-16.5c1.6-9.7,1.7-16.9-0.1-30
			c0,0-4.7,13-31.8,27.4c-9.8,5.2-22.4,10.4-39.1,15.5c-64.6,19.6-55.1,48.6-55.1,48.6C193.3,201.4,193.4,200.1,237.1,200.1z"/>
		<path class="st5" d="M237.1,200.1c22.6,0,53.3,1.3,69.2-12.1c9.8-8.2,18.7-19,18.9-35.5c0,0-13.4,8.8-21.1,10.7
			c-10.6,2.6-29.8,6.7-47.3,5.7c-59.4-3.4-73.7,39.3-73.7,39.3C191.3,200.6,201.3,200.1,237.1,200.1z"/>
		
			<linearGradient id="SVGID_3_" gradientUnits="userSpaceOnUse" x1="339.4218" y1="229.1767" x2="162.3709" y2="535.8377" gradientTransform="matrix(1 0 0 -1 0 584)">
			<stop  offset="0" style="stop-color:#FF5A37"/>
			<stop  offset="1" style="stop-color:#FFA52D"/>
		</linearGradient>
		<path class="st6" d="M245.8,0c0,0,0,15.8,41.2,40.8c80.1,48.6,79.8,93.2,79.8,102.6c0,39.8-41.4,65.4-60.6,44.6
			c0,0,18.8-14,18.8-35.5c0,0-13.8,9.1-21,10.7c0,0,9.4-16.6,5-45.8c0,0-7.5,14.8-31.7,26.7c0,0,9.4-21,0.6-41.1
			c0,0,1.9,25.1-55.3,51.8s-39.6,53.4-39.6,53.4s11.4-12.1,30.7-3.6c26.2,11.5,15.6,57.6-26.5,57.6c-41,0-67.8-44.5-67.8-79.3
			c0-14.4,1.6-40.8,27.5-69.9c20.7-23.1,46.1-35.4,51.6-60.9C170.4,78.2,119.3,95.3,89,140.2c-27.3,40.3-18.4,93.7-13.5,110.1
			C98.4,326.7,168.7,379,248.4,379c99.7,0,181.5-79.8,181.5-179.4C429.9,48.7,286.5,32.6,245.8,0z"/>
	</g>
</g>
<path class="st1" d="M175.9,526.8c-6.9,0.1-13.7-0.9-20.2-3.1c-10.8-3.6-19.1-12.2-22.4-23c-1.9-6-2.7-12.3-2.7-18.6V413h24.7v68.6
	c0,8.2,1.6,14.4,4.9,18.8c3.3,4.3,8.6,6.5,16,6.5c7.2,0,12.5-2.2,15.7-6.5c3.2-4.3,4.8-10.6,4.8-18.8V413H221v69
	c0.1,6.3-0.8,12.6-2.7,18.7c-1.6,5.3-4.4,10.1-8.2,14.1c-3.9,4.1-8.7,7.1-14.1,8.9C189.6,525.9,182.8,527,175.9,526.8z"/>
<path class="st1" d="M243.4,525V413H268v112H243.4z"/>
<path class="st1" d="M325,527.1c-8.2,0.2-16.4-1.2-24-4c-6.5-2.5-12.6-6.2-17.8-10.8l12.4-16.2c3.8,3.4,8.1,6.2,12.7,8.2
	c4.8,2.1,10,3.3,15.3,3.3c7.4,0,12.8-1.9,16.2-5.6c3.4-3.9,5.3-9,5.1-14.2c0-6.4-1.6-11.3-4.9-14.9c-3.3-3.6-8.1-5.4-14.4-5.4
	c-3.8,0-7.6,0.9-11,2.7c-3.7,2-7,4.7-9.6,8l-15.9-4.9l4.5-60.3h68l-1.3,18.6h-47.8l-2.1,24.8c2.5-2.1,5.3-3.8,8.4-4.8
	c4.6-1.5,9.4-2.3,14.2-2.1c5.4-0.1,10.7,0.9,15.7,2.8c4.3,1.7,8.2,4.4,11.5,7.7c3.1,3.4,5.5,7.4,6.9,11.8c1.6,4.9,2.4,10,2.3,15.1
	c0.1,5.6-1,11.1-3,16.3c-2,4.8-4.9,9.2-8.8,12.7c-4.1,3.7-8.8,6.5-14,8.3C337.6,526.2,331.3,527.2,325,527.1z"/>
</svg>
