<?xml version="1.0" encoding="UTF-8"?><svg xmlns="http://www.w3.org/2000/svg" xmlns:xlink="http://www.w3.org/1999/xlink" viewBox="0 0 48 48" version="1.1"><g id="surface1"><path d="M36 35.5C36 29.7 30.852 25 24.5 25S13 29.7 13 35.5 18.148 46 24.5 46 36 41.3 36 35.5z" fill="#47667F"/><path d="M35.488 35c0-5.281-4.918-9.563-10.988-9.563-6.07 0-10.988 4.282-10.988 9.563 0 5.281 4.918 9.563 10.988 9.563 6.07 0 10.988-4.282 10.988-9.563z" fill="#C5CAD5"/><path d="M5 10l19 11v22L6 30z" fill="#C5CAD5"/><path d="M43 10L24 21v22l18-13z" fill="#6D83B3"/><path d="M24.5 44.563c.27 0 .535-.02.8-.036l9.813-7.086A8.346 8.346 0 0 0 35.488 35c0-.098-.011-.188-.015-.285L24 43l-10.46-7.555a8.48 8.48 0 0 0 .71 2.98l8.27 5.973c.644.102 1.304.164 1.98.164z" fill="#5A6E91"/><path d="M5 10l19 11 19-11-19-9z" fill="#EAF4F8"/><path d="M11.648 9.852L24 17l12.352-7.148L24 4z" fill="#34495E"/><path d="M40 28l.645-12.898L27 23v14.39z" fill="#34495E"/><path d="M8 28l-.645-12.898L21 23v14.39z" fill="#34495E"/><path d="M19 5.5l2.406 1.188-2.437 3.343 7.281-2.375-1.594 3.688 4.625-1.625-2.062 4.469L30 16" fill="none" stroke-width="1" stroke-linecap="butt" stroke-linejoin="miter" stroke="#EAF4F8" stroke-opacity="1" stroke-miterlimit="10"/><path d="M28.82 27.402c.063.489-.5 2.793-.53 3.078-.036.32-.212.493-.544.625-.094-.87-.187-1.71-.27-2.55-.019-.239.208-.27.372-.399l.187 2.086c.02.004.34-1.531.45-2.25.038-.258.12-.453.335-.59z" fill="#ECF0F1"/><path d="M38.777 22.402c-.117.278-.082.766-.515.961-.028-.258.082-.472.164-.675.18-.45.238-.887.011-1.333-.105-.21.051-.289.184-.37.23-.141.133.16.274.19.156-.202.062-.59.43-.671.07.125-.024.246-.067.348-.223.507-.293 1.011-.024 1.523.13.246-.023.332-.191.434-.035.02-.09.058-.156-.094-.04-.102-.07-.2-.11-.313z" fill="#ECF0F1"/><path d="M28.996 29.973c.047-.594.106-1.188.137-1.782.012-.214.078-.351.344-.437-.047.73-.09 1.437-.141 2.14-.012.169-.059.231-.234.305-.106.043-.106-.226-.106-.226z" fill="#ECF0F1"/><path d="M29.508 26.809c.164.09.047.351-.047.52-.043.077-.102.167-.2.151-.12-.015-.109-.136-.113-.222-.007-.106.165-.551.36-.45z" fill="#ECF0F1"/><path d="M19.754 29.691c-.39-.277-.742-.53-1.16-.832.082.422.246.72.535.942.262.203.531.394.808.582.133.09.215.125.13.265-.114.184-.227.075-.313.028-.867-.488-1.379-1.223-1.508-2.211a1.774 1.774 0 0 1-.027-.32c.011-.223.011-.47.25-.59.222-.11.37.082.527.187.242.164.473.348.719.508.144.094.176.168.098.293-.118.187-.223.035-.301-.012-.172-.101-.325-.23-.489-.343-.136-.094-.41-.286-.445-.004-.031.265.031.257.168.359.313.227.629.45.938.68.21.156.21.16.07.468z" fill="#ECF0F1"/><path d="M18.34 29.277c.129.106-.078.336-.238.211-.356-.277-.73-.535-1.094-.8-.156-.11-.211-.274-.227-.45-.07-.683-.133-1.375-.207-2.062-.012-.106.004-.149.113-.13a.45.45 0 0 1 .172.333c.032.406.067.781.121 1.219.094.742.22.867.66 1.144.266.172.372.266.7.535z" fill="#ECF0F1"/><path d="M29.84 29.578c.043-.726.078-1.387.12-2.05.017-.215.028-.223.313-.196.098.012.168-.398.38-.492.011.238.035.426-.16.605-.165.153-.223.383-.24.614-.019.359-.066.714-.066 1.074-.003.226-.109.332-.347.445z" fill="#ECF0F1"/><path d="M35.277 25.281c-.132.035-.156-.039-.148-.148.043-.477.113-1.957.152-2.281.016-.094.067-.25-.066-.27-.137-.02-.2.113-.246.246-.102.274-.34 2.797-.121 3.059.289.129.46-.282.43-.606z" fill="#ECF0F1"/><path d="M31.613 26.145c-.02.007-.215.199-.23-.024-.016-.152-.004-.308-.008-.465-.18-.008-.21.14-.219.258-.023.277-.039.547-.254.766-.047.043-.07.175-.039.222.235.352.075.73.078 1.094.004.234-.128.578.09.66.262.102.504-.593.496-.593-.207.015-.234-.31-.226-.481.023-.379-.106-.8.289-1.094.086-.062.043-.226.023-.343z" fill="#ECF0F1"/><path d="M37.605 21.672c-.523.422-.585 1.125-.632 1.765-.02.278.03.817.457.614.75-.356.738-1.262.742-2.059 0-.5-.184-.633-.567-.32zm-.144 1.867c-.145 0-.11-.254-.102-.41.02-.414.13-1.059.38-1.059.093 0 .097.117.1.2.013.343-.066 1.27-.378 1.27z" fill="#ECF0F1"/><path d="M12.7 25.602c-.192-.082-.294-.243-.372-.422-.25-.508-.512-1.008-.762-1.52.293.168.672.371.75.32.211-.152-.16-.59-.289-.69a32.05 32.05 0 0 1-.691-.52c.031.253.074 1.25.14 1.66.02.082.07.21-.05.242-.117.027-.188-.094-.2-.192-.05-.41-.28-2.27-.18-2.421.731.52 1.602.921 1.72 1.98.043.441-.07.602-.47.563.142.27.282.52.4.777.03.062.171.152.003.223z" fill="#ECF0F1"/><path d="M16.438 27.848a12.15 12.15 0 0 1-.774-.559c-.45-.355-.617-.855-.617-1.406 0-.344.176-.418.457-.23.187.124.363.269.555.39.062.043.14.21.246.027.062-.117.082-.21-.055-.3-.305-.211-.598-.438-.902-.645-.172-.113-.364-.184-.508.055-.207.687-.027 1.34.305 1.918.265.46.703.73 1.082 1.066.043.035.226.188.312.043.094-.164.047-.262-.102-.36z" fill="#ECF0F1"/><path d="M10.734 22.094c-.332-.602-1.355-1.246-1.394-1.274-.402-.273-.625-.183-.684.305-.039.36.07.703.16 1.05.204.778.817 1.2 1.41 1.641.5.266.696.239.735-.316.004-.465-.102-1.176-.227-1.406zm-.105 1.25c-.05.105-.117.164-.25.125-.723-.192-1.438-1.125-1.441-1.883 0-.14-.024-.305.124-.395.16-.097.325.028.442.106.601.383 1.09.828 1.164 1.617.016.148.02.29-.04.43z" fill="#ECF0F1"/><path d="M36.758 23.36c-.153-.348-.074-.579.008-.872.039-.136.156-.715-.27-.656-.297.04-.656.414-.723.703-.113.508-.156 2.77-.156 2.77.34-.153.594-.395.79-.664.273-.38.53-.86.35-1.282zm-.328.55c-.028.281-.114.54-.414.68 0-.262-.008-.496 0-.73.007-.176.14-.286.289-.27.14.02.136.2.125.32zm.02-1.27c-.036.223-.09.442-.384.618.012-.266.012-.473.04-.68a.22.22 0 0 1 .226-.187c.145.011.133.152.117.25z" fill="#ECF0F1"/><path d="M32.977 25.086c-.274.008-.25.254-.262.355 0 .02-.106 1.602-.149 1.668-.054.082-.105.211-.23.164-.102-.039-.074-.16-.066-.25.015-.355.046-.71.062-1.07.004-.105.078-.363-.11-.336-.277.043-.312.25-.32.477-.03.472-.132.945-.078 1.422.024.25.102.558.43.37.125-.07.3-.253.344-.472.437.078.328-.27.351-.473.051-.48.074-.968.094-1.453.008-.133.078-.289-.066-.402z" fill="#ECF0F1"/><path d="M14.21 25.078a52.264 52.264 0 0 0-.386-.996c-.035-.086-.086-.176-.191-.18-.125-.004-.125.114-.156.196l-.567 1.64c.024.133.195.258.36.082.054-.133.347-.965.476-1.351l.477 1.3c-.286 0-.578-.382-.664-.273-.164.211.363.602.656.793.168.11.316.465.367.61.047.144.191.363.402.206-.257-.675-.511-1.351-.773-2.027z" fill="#ECF0F1"/><path d="M33.95 24.328c-.563.387-.583.785-.391.817.078-.075.148-.153.23-.215.078-.063.176-.192.262-.098.086.094.082.25-.028.36-.066.066-.14.12-.207.187-.343.332-.488.75-.5 1.215-.004.117.004.258.145.297.105.035.215-.043.27-.13.144-.23.328-.398.597-.464.031-.64.098-1.102.098-1.914 0-.254-.285-.188-.477-.055zm-.145 1.953c-.051.032-.117.016-.125-.043-.043-.273.125-.445.355-.613.035.02 0-.008 0 0 .031.258.004.492-.23.656z" fill="#ECF0F1"/></g><metadata><rdf:RDF xmlns:rdf="http://www.w3.org/1999/02/22-rdf-syntax-ns#" xmlns:rdfs="http://www.w3.org/2000/01/rdf-schema#" xmlns:dc="http://purl.org/dc/elements/1.1/"><rdf:Description about="https://iconscout.com/legal#licenses" dc:title="virtualbox" dc:description="virtualbox" dc:publisher="Iconscout" dc:date="2017-12-15" dc:format="image/svg+xml" dc:language="en"><dc:creator><rdf:Bag><rdf:li>Icons8</rdf:li></rdf:Bag></dc:creator></rdf:Description></rdf:RDF></metadata></svg>