<?xml version="1.0" encoding="utf-8"?>
<!-- Generator: Adobe Illustrator 22.1.0, SVG Export Plug-In . SVG Version: 6.00 Build 0)  -->
<svg version="1.1" id="Layer_1" xmlns="http://www.w3.org/2000/svg" xmlns:xlink="http://www.w3.org/1999/xlink" x="0px" y="0px"
	 viewBox="0 0 636 268.2" style="enable-background:new 0 0 636 268.2;" xml:space="preserve">
<style type="text/css">
	.st0{fill:#32373C;}
</style>
<g id="Logotype_1_">
	<g id="Wordmark_1_">
		<path class="st0" d="M286.8,204H254v3.5c10.3,0,11.9,2.2,11.9,15.2v23.5c0,13-1.7,15.4-11.9,15.4c-7.9-1.1-13.2-5.3-20.5-13.4
			L225,239c11.4-2,17.4-9.2,17.4-17.2c0-10.1-8.6-17.8-24.8-17.8h-32.3v3.5c10.3,0,11.9,2.2,11.9,15.2v23.5c0,13-1.7,15.4-11.9,15.4
			v3.5h36.5v-3.5c-10.3,0-11.9-2.4-11.9-15.4v-6.6h3.1l20.4,25.5h53.4c26.2,0,37.6-13.9,37.6-30.6C324.4,217.8,313,204,286.8,204z
			 M210,233.9v-24.4h7.5c8.3,0,11.9,5.7,11.9,12.3c0,6.4-3.7,12.1-11.9,12.1H210z M287.3,259.4h-1.3c-6.6,0-7.5-1.7-7.5-10.1v-39.8
			c0,0,8.1,0,8.8,0c19.1,0,22.6,13.9,22.6,24.8C309.9,245.5,306.4,259.4,287.3,259.4z"/>
		<path class="st0" d="M83.3,240.7l12.7-37.4c3.7-10.8,2-13.9-9.7-13.9v-3.7h34.5v3.7c-11.6,0-14.3,2.8-18.9,16.1l-20.9,62.7h-2.4
			l-18.7-57.4l-19.1,57.4h-2.4L18,205.5c-4.4-13.4-7.3-16.1-18-16.1v-3.7h40.7v3.7c-10.8,0-13.8,2.6-9.9,13.9l12.3,37.4l18.5-55h3.5
			L83.3,240.7z"/>
		<path class="st0" d="M145.6,267.5c-20.2,0-36.7-14.9-36.7-33c0-18,16.5-32.8,36.7-32.8c20.2,0,36.7,14.9,36.7,32.8
			C182.3,252.6,165.8,267.5,145.6,267.5z M145.6,207.3c-16.9,0-22.7,15.2-22.7,27.1c0,12.1,5.9,27.1,22.7,27.1
			c17.1,0,22.9-15,22.9-27.1C168.5,222.5,162.7,207.3,145.6,207.3z"/>
		<path class="st0" d="M369.7,261.4v3.7h-42v-3.7c12.3,0,14.5-3.1,14.5-21.5v-29.3c0-18.3-2.2-21.3-14.5-21.3v-3.7h38
			c18.9,0,29.3,9.7,29.3,22.7c0,12.7-10.5,22.6-29.3,22.6h-10.5v9C355.2,258.3,357.4,261.4,369.7,261.4z M365.6,192.3h-10.5v31.9
			h10.5c10.3,0,15-7.2,15-15.8C380.7,199.6,375.9,192.3,365.6,192.3z"/>
		<path class="st0" d="M521,247.8l-0.9,3.3c-1.7,6.1-3.7,8.3-16.7,8.3h-2.6c-9.5,0-11.2-2.2-11.2-15.2v-8.4
			c14.3,0,15.4,1.3,15.4,10.8h3.5v-27.3H505c0,9.5-1.1,10.8-15.4,10.8v-20.5h10.1c13,0,15,2.2,16.7,8.3l0.9,3.5h2.9l-1.3-17.2H465
			v3.5c10.3,0,11.9,2.2,11.9,15.2v23.5c0,11.9-1.4,14.9-9.5,15.3c-7.7-1.2-13-5.4-20.2-13.3l-8.4-9.2c11.4-2,17.4-9.2,17.4-17.2
			c0-10.1-8.6-17.8-24.8-17.8h-32.3v3.5c10.3,0,11.9,2.2,11.9,15.2v23.5c0,13-1.7,15.4-11.9,15.4v3.5h36.5v-3.5
			c-10.3,0-11.9-2.4-11.9-15.4v-6.6h3.1l20.4,25.5h75.4l1.1-17.2H521z M423.8,233.9v-24.4h7.5c8.3,0,11.9,5.7,11.9,12.3
			c0,6.4-3.7,12.1-11.9,12.1H423.8z"/>
		<path class="st0" d="M558.2,267.5c-7.3,0-13.8-3.9-16.5-6.2c-0.9,0.9-2.6,3.7-2.9,6.2h-3.5v-25.3h3.7c1.5,12.1,9.9,19.3,20.7,19.3
			c5.9,0,10.6-3.3,10.6-8.8c0-4.8-4.2-8.4-11.7-11.9l-10.5-5c-7.3-3.5-12.8-9.5-12.8-17.6c0-8.8,8.3-16.3,19.6-16.3
			c6.1,0,11.2,2.2,14.3,4.8c0.9-0.7,1.8-2.8,2.4-5h3.5v21.6h-3.9c-1.3-8.6-6.1-15.8-15.8-15.8c-5.1,0-9.9,2.9-9.9,7.5
			c0,4.8,3.9,7.3,12.7,11.4l10.1,5c8.8,4.2,12.3,11,12.3,16.5C580.6,259.4,570.5,267.5,558.2,267.5z"/>
		<path class="st0" d="M613.6,267.5c-7.3,0-13.8-3.9-16.5-6.2c-0.9,0.9-2.6,3.7-2.9,6.2h-3.5v-25.3h3.7c1.5,12.1,9.9,19.3,20.7,19.3
			c5.9,0,10.6-3.3,10.6-8.8c0-4.8-4.2-8.4-11.7-11.9l-10.5-5c-7.3-3.5-12.8-9.5-12.8-17.6c0-8.8,8.3-16.3,19.6-16.3
			c6.1,0,11.2,2.2,14.3,4.8c0.9-0.7,1.8-2.8,2.4-5h3.5v21.6h-3.9c-1.3-8.6-6.1-15.8-15.8-15.8c-5.1,0-9.9,2.9-9.9,7.5
			c0,4.8,3.9,7.3,12.7,11.4l10.1,5c8.8,4.2,12.3,11,12.3,16.5C636,259.4,625.9,267.5,613.6,267.5z"/>
	</g>
	<g id="W_Mark_1_">
		<path class="st0" d="M318,5c10.5,0,20.6,2.1,30.2,6.1c4.6,1.9,9,4.3,13.2,7.2c4.1,2.8,8,6,11.5,9.5c3.5,3.5,6.7,7.4,9.5,11.5
			c2.8,4.1,5.2,8.6,7.2,13.2c4,9.6,6.1,19.7,6.1,30.2s-2.1,20.6-6.1,30.2c-1.9,4.6-4.3,9-7.2,13.2c-2.8,4.1-6,8-9.5,11.5
			c-3.5,3.5-7.4,6.7-11.5,9.5c-4.1,2.8-8.6,5.2-13.2,7.2c-9.6,4-19.7,6.1-30.2,6.1c-10.5,0-20.6-2.1-30.2-6.1
			c-4.6-1.9-9-4.3-13.2-7.2c-4.1-2.8-8-6-11.5-9.5c-3.5-3.5-6.7-7.4-9.5-11.5c-2.8-4.1-5.2-8.6-7.2-13.2c-4-9.6-6.1-19.7-6.1-30.2
			s2.1-20.6,6.1-30.2c1.9-4.6,4.3-9,7.2-13.2c2.8-4.1,6-8,9.5-11.5c3.5-3.5,7.4-6.7,11.5-9.5c4.1-2.8,8.6-5.2,13.2-7.2
			C297.4,7,307.5,5,318,5 M318,0c-45.6,0-82.5,36.9-82.5,82.5c0,45.6,36.9,82.5,82.5,82.5c45.6,0,82.5-36.9,82.5-82.5
			C400.5,36.9,363.6,0,318,0L318,0z"/>
		<path class="st0" d="M249.2,82.5c0,27.2,15.8,50.7,38.8,61.9l-32.8-89.9C251.4,63.1,249.2,72.5,249.2,82.5z M364.4,79.1
			c0-8.5-3.1-14.4-5.7-19c-3.5-5.7-6.8-10.5-6.8-16.1c0-6.3,4.8-12.2,11.5-12.2c0.3,0,0.6,0,0.9,0.1c-12.2-11.2-28.5-18.1-46.4-18.1
			c-24,0-45.2,12.3-57.5,31c1.6,0.1,3.1,0.1,4.4,0.1c7.2,0,18.3-0.9,18.3-0.9c3.7-0.2,4.1,5.2,0.4,5.7c0,0-3.7,0.4-7.9,0.7l25,74.5
			L316,79.6l-10.7-29.4c-3.7-0.2-7.2-0.7-7.2-0.7c-3.7-0.2-3.3-5.9,0.4-5.7c0,0,11.4,0.9,18.1,0.9c7.2,0,18.3-0.9,18.3-0.9
			c3.7-0.2,4.1,5.2,0.4,5.7c0,0-3.7,0.4-7.9,0.7l24.9,73.9l7.1-22.5C362.6,91.9,364.4,84.9,364.4,79.1z M319.2,88.5l-20.6,60
			c6.2,1.8,12.7,2.8,19.4,2.8c8,0,15.7-1.4,22.8-3.9c-0.2-0.3-0.4-0.6-0.5-0.9L319.2,88.5z M378.3,49.5c0.3,2.2,0.5,4.5,0.5,7.1
			c0,7-1.3,14.8-5.2,24.6l-21,60.7c20.4-11.9,34.2-34.1,34.2-59.4C386.8,70.6,383.7,59.3,378.3,49.5z"/>
	</g>
</g>
</svg>
