<?xml version="1.0" encoding="utf-8"?>
<!-- Generator: Adobe Illustrator 22.1.0, SVG Export Plug-In . SVG Version: 6.00 Build 0)  -->
<svg version="1.1" id="Layer_1" xmlns="http://www.w3.org/2000/svg" xmlns:xlink="http://www.w3.org/1999/xlink" x="0px" y="0px"
	 viewBox="0 0 636 458.2" style="enable-background:new 0 0 636 458.2;" xml:space="preserve">
<style type="text/css">
	.st0{fill:#32373C;}
</style>
<g id="Wordmark_1_">
	<path class="st0" d="M286.8,394H254v3.5c10.3,0,11.9,2.2,11.9,15.2v23.5c0,13-1.7,15.4-11.9,15.4c-7.9-1.1-13.2-5.3-20.5-13.4
		L225,429c11.4-2,17.4-9.2,17.4-17.2c0-10.1-8.6-17.8-24.8-17.8h-32.3v3.5c10.3,0,11.9,2.2,11.9,15.2v23.5c0,13-1.7,15.4-11.9,15.4
		v3.5h36.5v-3.5c-10.3,0-11.9-2.4-11.9-15.4v-6.6h3.1l20.4,25.5h53.4c26.2,0,37.6-13.9,37.6-30.6S313,394,286.8,394z M210,423.9
		v-24.4h7.5c8.3,0,11.9,5.7,11.9,12.3c0,6.4-3.7,12.1-11.9,12.1L210,423.9L210,423.9z M287.3,449.4H286c-6.6,0-7.5-1.7-7.5-10.1
		v-39.8c0,0,8.1,0,8.8,0c19.1,0,22.6,13.9,22.6,24.8C309.9,435.5,306.4,449.4,287.3,449.4z"/>
	<path class="st0" d="M83.3,430.7L96,393.3c3.7-10.8,2-13.9-9.7-13.9v-3.7h34.5v3.7c-11.6,0-14.3,2.8-18.9,16.1L81,458.2h-2.4
		l-18.7-57.4l-19.1,57.4h-2.4L18,395.5c-4.4-13.4-7.3-16.1-18-16.1v-3.7h40.7v3.7c-10.8,0-13.8,2.6-9.9,13.9l12.3,37.4l18.5-55h3.5
		L83.3,430.7z"/>
	<path class="st0" d="M145.6,457.5c-20.2,0-36.7-14.9-36.7-33c0-18,16.5-32.8,36.7-32.8s36.7,14.9,36.7,32.8
		C182.3,442.6,165.8,457.5,145.6,457.5z M145.6,397.3c-16.9,0-22.7,15.2-22.7,27.1c0,12.1,5.9,27.1,22.7,27.1
		c17.1,0,22.9-15,22.9-27.1C168.5,412.5,162.7,397.3,145.6,397.3z"/>
	<path class="st0" d="M369.7,451.4v3.7h-42v-3.7c12.3,0,14.5-3.1,14.5-21.5v-29.3c0-18.3-2.2-21.3-14.5-21.3v-3.7h38
		c18.9,0,29.3,9.7,29.3,22.7c0,12.7-10.5,22.6-29.3,22.6h-10.5v9C355.2,448.3,357.4,451.4,369.7,451.4z M365.6,382.3h-10.5v31.9
		h10.5c10.3,0,15-7.2,15-15.8C380.7,389.6,375.9,382.3,365.6,382.3z"/>
	<path class="st0" d="M521,437.8l-0.9,3.3c-1.7,6.1-3.7,8.3-16.7,8.3h-2.6c-9.5,0-11.2-2.2-11.2-15.2v-8.4
		c14.3,0,15.4,1.3,15.4,10.8h3.5v-27.3H505c0,9.5-1.1,10.8-15.4,10.8v-20.5h10.1c13,0,15,2.2,16.7,8.3l0.9,3.5h2.9l-1.3-17.2H465
		v3.5c10.3,0,11.9,2.2,11.9,15.2v23.5c0,11.9-1.4,14.9-9.5,15.3c-7.7-1.2-13-5.4-20.2-13.3l-8.4-9.2c11.4-2,17.4-9.2,17.4-17.2
		c0-10.1-8.6-17.8-24.8-17.8h-32.3v3.5c10.3,0,11.9,2.2,11.9,15.2v23.5c0,13-1.7,15.4-11.9,15.4v3.5h36.5v-3.5
		c-10.3,0-11.9-2.4-11.9-15.4v-6.6h3.1l20.4,25.5h75.4l1.1-17.2H521V437.8z M423.8,423.9v-24.4h7.5c8.3,0,11.9,5.7,11.9,12.3
		c0,6.4-3.7,12.1-11.9,12.1L423.8,423.9L423.8,423.9z"/>
	<path class="st0" d="M558.2,457.5c-7.3,0-13.8-3.9-16.5-6.2c-0.9,0.9-2.6,3.7-2.9,6.2h-3.5v-25.3h3.7c1.5,12.1,9.9,19.3,20.7,19.3
		c5.9,0,10.6-3.3,10.6-8.8c0-4.8-4.2-8.4-11.7-11.9l-10.5-5c-7.3-3.5-12.8-9.5-12.8-17.6c0-8.8,8.3-16.3,19.6-16.3
		c6.1,0,11.2,2.2,14.3,4.8c0.9-0.7,1.8-2.8,2.4-5h3.5v21.6h-3.9c-1.3-8.6-6.1-15.8-15.8-15.8c-5.1,0-9.9,2.9-9.9,7.5
		c0,4.8,3.9,7.3,12.7,11.4l10.1,5c8.8,4.2,12.3,11,12.3,16.5C580.6,449.4,570.5,457.5,558.2,457.5z"/>
	<path class="st0" d="M613.6,457.5c-7.3,0-13.8-3.9-16.5-6.2c-0.9,0.9-2.6,3.7-2.9,6.2h-3.5v-25.3h3.7c1.5,12.1,9.9,19.3,20.7,19.3
		c5.9,0,10.6-3.3,10.6-8.8c0-4.8-4.2-8.4-11.7-11.9l-10.5-5c-7.3-3.5-12.8-9.5-12.8-17.6c0-8.8,8.3-16.3,19.6-16.3
		c6.1,0,11.2,2.2,14.3,4.8c0.9-0.7,1.8-2.8,2.4-5h3.5v21.6h-3.9c-1.3-8.6-6.1-15.8-15.8-15.8c-5.1,0-9.9,2.9-9.9,7.5
		c0,4.8,3.9,7.3,12.7,11.4l10.1,5c8.8,4.2,12.3,11,12.3,16.5C636,449.4,625.9,457.5,613.6,457.5z"/>
</g>
<g id="W_Mark_1_">
	<path class="st0" d="M318,38.6c18.1,0,35.6,3.6,52.2,10.5c7.9,3.3,15.5,7.4,22.8,12.4C400,66.4,406.8,72,412.8,78
		c6,6,11.6,12.8,16.4,19.9c4.8,7.1,9,14.9,12.4,22.8c6.9,16.6,10.5,34,10.5,52.2s-3.6,35.6-10.5,52.2c-3.3,7.9-7.4,15.5-12.4,22.8
		c-4.8,7.1-10.4,13.8-16.4,19.9c-6,6-12.8,11.6-19.9,16.4c-7.1,4.8-14.9,9-22.8,12.4c-16.6,6.9-34,10.5-52.2,10.5
		s-35.6-3.6-52.2-10.5c-7.9-3.3-15.5-7.4-22.8-12.4c-7.1-4.8-13.8-10.4-19.9-16.4c-6-6-11.6-12.8-16.4-19.9
		c-4.8-7.1-9-14.9-12.4-22.8c-6.9-16.6-10.5-34-10.5-52.2s3.6-35.6,10.5-52.2c3.3-7.9,7.4-15.5,12.4-22.8
		c4.8-7.1,10.4-13.8,16.4-19.9S236,66.4,243,61.6c7.1-4.8,14.9-9,22.8-12.4C282.4,42.1,299.9,38.6,318,38.6 M318,30
		c-78.8,0-142.5,63.7-142.5,142.5S239.2,315,318,315s142.5-63.7,142.5-142.5S396.8,30,318,30L318,30z"/>
	<path class="st0" d="M199.2,172.5c0,47,27.3,87.6,67,106.9l-56.7-155.3C203,139,199.2,155.2,199.2,172.5z M398.1,166.6
		c0-14.7-5.4-24.9-9.8-32.8c-6-9.8-11.7-18.1-11.7-27.8c0-10.9,8.3-21.1,19.9-21.1c0.5,0,1,0,1.6,0.2
		c-21.1-19.3-49.2-31.3-80.1-31.3c-41.5,0-78.1,21.2-99.3,53.5c2.8,0.2,5.4,0.2,7.6,0.2c12.4,0,31.6-1.6,31.6-1.6
		c6.4-0.3,7.1,9,0.7,9.8c0,0-6.4,0.7-13.6,1.2l43.2,128.7l26.6-78.2l-18.5-50.8c-6.4-0.3-12.4-1.2-12.4-1.2
		c-6.4-0.3-5.7-10.2,0.7-9.8c0,0,19.7,1.6,31.3,1.6c12.4,0,31.6-1.6,31.6-1.6c6.4-0.3,7.1,9,0.7,9.8c0,0-6.4,0.7-13.6,1.2l43,127.6
		l12.3-38.9C395,188.7,398.1,176.6,398.1,166.6z M320.1,182.9l-35.6,103.6c10.7,3.1,21.9,4.8,33.5,4.8c13.8,0,27.1-2.4,39.4-6.7
		c-0.3-0.5-0.7-1-0.9-1.6L320.1,182.9z M422.2,115.5c0.5,3.8,0.9,7.8,0.9,12.3c0,12.1-2.2,25.6-9,42.5l-36.3,104.8
		c35.2-20.6,59.1-58.9,59.1-102.6C436.8,151.9,431.5,132.4,422.2,115.5z"/>
</g>
</svg>
